G04 ================== begin FILE IDENTIFICATION RECORD ==================*
G04 Layout Name:  D:/2581-sample_brds/Validation Boards/Test3/test-3_r2.brd*
G04 Film Name:    BOTTOM*
G04 File Format:  Gerber RS274X*
G04 File Origin:  Cadence Allegro 16.6-D064*
G04 Origin Date:  Fri Dec 02 14:27:28 2011*
G04 *
G04 Layer:  BOARD GEOMETRY/TOOLING_CORNERS*
G04 Layer:  VIA CLASS/BOTTOM*
G04 Layer:  PIN/BOTTOM*
G04 Layer:  ETCH/BOTTOM*
G04 *
G04 Offset:    (0 0)*
G04 Mirror:    No*
G04 Mode:      Positive*
G04 Rotation:  0*
G04 FullContactRelief:  No*
G04 UndefLineWidth:     4*
G04 ================== end FILE IDENTIFICATION RECORD ====================*
%FSLAX54Y54*MOIN*%
%IR0*IPPOS*OFA0.00000B0.00000*MIA0B0*SFA1.00000B1.00000*%
%AMMACRO15*
21,1,.025,.04,0.0,0.0,135.*%
%ADD15MACRO15*%
%AMMACRO16*
21,1,.05,.025,0.0,0.0,135.*%
%ADD16MACRO16*%
%ADD11C,.04*%
%ADD12C,.052*%
%ADD20C,.062*%
%ADD19C,.075*%
%ADD10C,.1*%
%ADD13R,.025X.04*%
%ADD14R,.05X.025*%
%AMMACRO17*
21,1,.025,.04,0.0,0.0,97.399*%
%ADD17MACRO17*%
%AMMACRO18*
21,1,.05,.025,0.0,0.0,97.399*%
%ADD18MACRO18*%
%ADD21C,.05*%
%ADD22C,.004*%
%ADD23C,.008*%
G75*
%LPD*%
G75*
G36*
G01X390Y13030D02*
X280Y13140D01*
X250Y13000D01*
X360D01*
X390Y13030D01*
G37*
G36*
G01X720Y16510D02*
X620Y16390D01*
X750Y16240D01*
X880Y16390D01*
X780Y16510D01*
G03X720I-30J-30D01*
G37*
G36*
G01X780Y18990D02*
X880Y19110D01*
X750Y19260D01*
X620Y19110D01*
X720Y18990D01*
G03X780I30J30D01*
G37*
G36*
G01X340Y22800D02*
X500D01*
X510Y23010D01*
X300Y23000D01*
Y22840D01*
G03X340Y22800I40J0D01*
G37*
G36*
G01X1030Y18490D02*
X1130Y18610D01*
X1000Y18760D01*
X870Y18610D01*
X970Y18490D01*
G03X1030I30J30D01*
G37*
G36*
G01X3280Y36990D02*
X3380Y37110D01*
X3250Y37260D01*
X3120Y37110D01*
X3220Y36990D01*
G03X3280I30J30D01*
G37*
G36*
G01X5260Y7530D02*
X5140Y7630D01*
X4990Y7500D01*
X5140Y7370D01*
X5260Y7470D01*
G03Y7530I-30J30D01*
G37*
G36*
G01X5800Y22910D02*
Y22750D01*
X6010Y22740D01*
X6000Y22950D01*
X5840D01*
G03X5800Y22910I0J-40D01*
G37*
G36*
G01X5700Y30590D02*
Y30750D01*
X5490Y30760D01*
X5500Y30550D01*
X5660D01*
G03X5700Y30590I0J40D01*
G37*
G36*
G01X5470Y31010D02*
X5370Y30890D01*
X5500Y30740D01*
X5630Y30890D01*
X5530Y31010D01*
G03X5470I-30J-30D01*
G37*
G36*
G01X3970Y33260D02*
X3870Y33140D01*
X4000Y32990D01*
X4130Y33140D01*
X4030Y33260D01*
G03X3970I-30J-30D01*
G37*
G36*
G01X5030Y32240D02*
X5130Y32360D01*
X5000Y32510D01*
X4870Y32360D01*
X4970Y32240D01*
G03X5030I30J30D01*
G37*
G36*
G01X5700Y34340D02*
Y34500D01*
X5490Y34510D01*
X5500Y34300D01*
X5660D01*
G03X5700Y34340I0J40D01*
G37*
G36*
G01X5470Y34760D02*
X5370Y34640D01*
X5500Y34490D01*
X5630Y34640D01*
X5530Y34760D01*
G03X5470I-30J-30D01*
G37*
G36*
G01X9240Y3970D02*
X9360Y3870D01*
X9510Y4000D01*
X9360Y4130D01*
X9240Y4030D01*
G03Y3970I30J-30D01*
G37*
G36*
G01X9220Y22510D02*
X9120Y22390D01*
X9250Y22240D01*
X9380Y22390D01*
X9280Y22510D01*
G03X9220I-30J-30D01*
G37*
G36*
G01X8530Y22260D02*
X8430Y22140D01*
X8560Y21990D01*
X8690Y22140D01*
X8590Y22260D01*
G03X8530I-30J-30D01*
G37*
G36*
G01X8300Y29160D02*
Y29000D01*
X8510Y28990D01*
X8500Y29200D01*
X8340D01*
G03X8300Y29160I0J-40D01*
G37*
G36*
G01X7780Y33240D02*
X7880Y33360D01*
X7750Y33510D01*
X7620Y33360D01*
X7720Y33240D01*
G03X7780I30J30D01*
G37*
G36*
G01X7030Y33740D02*
X7130Y33860D01*
X7000Y34010D01*
X6870Y33860D01*
X6970Y33740D01*
G03X7030I30J30D01*
G37*
G36*
G01X6970Y34260D02*
X6870Y34140D01*
X7000Y33990D01*
X7130Y34140D01*
X7030Y34260D01*
G03X6970I-30J-30D01*
G37*
G36*
G01X10970Y3010D02*
X10870Y2890D01*
X11000Y2740D01*
X11130Y2890D01*
X11030Y3010D01*
G03X10970I-30J-30D01*
G37*
G36*
G01X10740Y7470D02*
X10860Y7370D01*
X11010Y7500D01*
X10860Y7630D01*
X10740Y7530D01*
G03Y7470I30J-30D01*
G37*
G36*
G01X11030Y7240D02*
X11130Y7360D01*
X11000Y7510D01*
X10870Y7360D01*
X10970Y7240D01*
G03X11030I30J30D01*
G37*
G36*
G01X11200Y16340D02*
Y16500D01*
X10990Y16510D01*
X11000Y16300D01*
X11160D01*
G03X11200Y16340I0J40D01*
G37*
G36*
G01X10740Y16470D02*
X10860Y16370D01*
X11010Y16500D01*
X10860Y16630D01*
X10740Y16530D01*
G03Y16470I30J-30D01*
G37*
G36*
G01X10410Y30200D02*
X10250D01*
X10240Y29990D01*
X10450Y30000D01*
Y30160D01*
G03X10410Y30200I-40J0D01*
G37*
G36*
G01X11990Y30470D02*
X12110Y30370D01*
X12260Y30500D01*
X12110Y30630D01*
X11990Y30530D01*
G03Y30470I30J-30D01*
G37*
G36*
G01X11160Y30370D02*
X11260Y30490D01*
X11130Y30640D01*
X11000Y30490D01*
X11100Y30370D01*
G03X11160I30J30D01*
G37*
G36*
G01X11100Y30140D02*
X11000Y30020D01*
X11130Y29870D01*
X11260Y30020D01*
X11160Y30140D01*
G03X11100I-30J-30D01*
G37*
G36*
G01X11910Y29950D02*
X11750D01*
X11740Y29740D01*
X11950Y29750D01*
Y29910D01*
G03X11910Y29950I-40J0D01*
G37*
G36*
G01X11200Y31840D02*
Y32000D01*
X10990Y32010D01*
X11000Y31800D01*
X11160D01*
G03X11200Y31840I0J40D01*
G37*
G36*
G01Y34840D02*
Y35000D01*
X10990Y35010D01*
X11000Y34800D01*
X11160D01*
G03X11200Y34840I0J40D01*
G37*
G36*
G01X12030Y33740D02*
X12130Y33860D01*
X12000Y34010D01*
X11870Y33860D01*
X11970Y33740D01*
G03X12030I30J30D01*
G37*
G36*
G01X13740Y2220D02*
X13860Y2120D01*
X14010Y2250D01*
X13860Y2380D01*
X13740Y2280D01*
G03Y2220I30J-30D01*
G37*
G36*
G01X14470Y3760D02*
X14370Y3640D01*
X14500Y3490D01*
X14630Y3640D01*
X14530Y3760D01*
G03X14470I-30J-30D01*
G37*
G36*
G01X15470Y2510D02*
X15370Y2390D01*
X15500Y2240D01*
X15630Y2390D01*
X15530Y2510D01*
G03X15470I-30J-30D01*
G37*
G36*
G01X15220Y1760D02*
X15120Y1640D01*
X15250Y1490D01*
X15380Y1640D01*
X15280Y1760D01*
G03X15220I-30J-30D01*
G37*
G36*
G01X14970Y4510D02*
X14870Y4390D01*
X15000Y4240D01*
X15130Y4390D01*
X15030Y4510D01*
G03X14970I-30J-30D01*
G37*
G36*
G01Y7010D02*
X14870Y6890D01*
X15000Y6740D01*
X15130Y6890D01*
X15030Y7010D01*
G03X14970I-30J-30D01*
G37*
G36*
G01X15470Y5510D02*
X15370Y5390D01*
X15500Y5240D01*
X15630Y5390D01*
X15530Y5510D01*
G03X15470I-30J-30D01*
G37*
G36*
G01X15030Y5740D02*
X15130Y5860D01*
X15000Y6010D01*
X14870Y5860D01*
X14970Y5740D01*
G03X15030I30J30D01*
G37*
G36*
G01X14010Y7280D02*
X13890Y7380D01*
X13740Y7250D01*
X13890Y7120D01*
X14010Y7220D01*
G03Y7280I-30J30D01*
G37*
G36*
G01X13490Y7220D02*
X13610Y7120D01*
X13760Y7250D01*
X13610Y7380D01*
X13490Y7280D01*
G03Y7220I30J-30D01*
G37*
G36*
G01X12990Y8720D02*
X13110Y8620D01*
X13260Y8750D01*
X13110Y8880D01*
X12990Y8780D01*
G03Y8720I30J-30D01*
G37*
G36*
G01X15590Y9050D02*
X15750D01*
X15760Y9260D01*
X15550Y9250D01*
Y9090D01*
G03X15590Y9050I40J0D01*
G37*
G36*
G01X15540Y15680D02*
X15560Y15890D01*
X15420Y16010D01*
X15290Y15860D01*
X15470Y15660D01*
G03X15540Y15680I30J29D01*
G37*
G36*
G01X15430Y14720D02*
X15580Y14590D01*
X15730Y14720D01*
X15600Y14860D01*
X15440Y14790D01*
G03X15430Y14720I18J-38D01*
G37*
G36*
G01X15530Y18240D02*
X15630Y18360D01*
X15500Y18510D01*
X15370Y18360D01*
X15470Y18240D01*
G03X15530I30J30D01*
G37*
G36*
G01X13240Y25970D02*
X13360Y25870D01*
X13510Y26000D01*
X13360Y26130D01*
X13240Y26030D01*
G03Y25970I30J-30D01*
G37*
G36*
G01X13720Y25760D02*
X13620Y25640D01*
X13750Y25490D01*
X13880Y25640D01*
X13780Y25760D01*
G03X13720I-30J-30D01*
G37*
G36*
G01X13970Y28260D02*
X13870Y28140D01*
X14000Y27990D01*
X14130Y28140D01*
X14030Y28260D01*
G03X13970I-30J-30D01*
G37*
G36*
G01X13220Y30510D02*
X13120Y30390D01*
X13250Y30240D01*
X13380Y30390D01*
X13280Y30510D01*
G03X13220I-30J-30D01*
G37*
G36*
G01X14330Y29260D02*
X14230Y29140D01*
X14360Y28990D01*
X14490Y29140D01*
X14390Y29260D01*
G03X14330I-30J-30D01*
G37*
G36*
G01X14030Y30990D02*
X14130Y31110D01*
X14000Y31260D01*
X13870Y31110D01*
X13970Y30990D01*
G03X14030I30J30D01*
G37*
G36*
G01X13660Y33060D02*
Y33220D01*
X13450Y33230D01*
X13460Y33020D01*
X13620D01*
G03X13660Y33060I0J40D01*
G37*
G36*
G01X14200Y32230D02*
Y32390D01*
X13990Y32400D01*
X14000Y32190D01*
X14160D01*
G03X14200Y32230I0J40D01*
G37*
G36*
G01X13470Y35260D02*
X13370Y35140D01*
X13500Y34990D01*
X13630Y35140D01*
X13530Y35260D01*
G03X13470I-30J-30D01*
G37*
G36*
G01X13530Y35990D02*
X13630Y36110D01*
X13500Y36260D01*
X13370Y36110D01*
X13470Y35990D01*
G03X13530I30J30D01*
G37*
G36*
G01X14030Y34530D02*
X14120Y34460D01*
X14260Y34490D01*
X14130Y34610D01*
X14050Y34600D01*
G03X14030Y34530I9J-40D01*
G37*
G36*
G01X14190Y33930D02*
X14070Y34030D01*
X13920Y33900D01*
X14070Y33770D01*
X14190Y33870D01*
G03Y33930I-30J30D01*
G37*
G36*
G01X16470Y5010D02*
X16370Y4890D01*
X16500Y4740D01*
X16630Y4890D01*
X16530Y5010D01*
G03X16470I-30J-30D01*
G37*
G36*
G01X18200Y8590D02*
Y8750D01*
X17990Y8760D01*
X18000Y8550D01*
X18160D01*
G03X18200Y8590I0J40D01*
G37*
G36*
G01X16030Y8490D02*
X16130Y8610D01*
X16000Y8760D01*
X15870Y8610D01*
X15970Y8490D01*
G03X16030I30J30D01*
G37*
G36*
G01X16970Y12510D02*
X16870Y12390D01*
X17000Y12240D01*
X17130Y12390D01*
X17030Y12510D01*
G03X16970I-30J-30D01*
G37*
G36*
G01X17470Y12260D02*
X17370Y12140D01*
X17500Y11990D01*
X17630Y12140D01*
X17530Y12260D01*
G03X17470I-30J-30D01*
G37*
G36*
G01X18730Y14580D02*
X18590Y14420D01*
X18720Y14270D01*
X18860Y14400D01*
X18800Y14570D01*
G03X18730Y14580I-38J-18D01*
G37*
G36*
G01X16700Y17340D02*
Y17500D01*
X16490Y17510D01*
X16500Y17300D01*
X16660D01*
G03X16700Y17340I0J40D01*
G37*
G36*
G01X16230Y15940D02*
X16370Y16100D01*
X16240Y16250D01*
X16100Y16120D01*
X16160Y15950D01*
G03X16230Y15940I38J18D01*
G37*
G36*
G01X18720Y22010D02*
X18620Y21890D01*
X18750Y21740D01*
X18880Y21890D01*
X18780Y22010D01*
G03X18720I-30J-30D01*
G37*
G36*
G01X19010Y20280D02*
X18890Y20380D01*
X18740Y20250D01*
X18890Y20120D01*
X19010Y20220D01*
G03Y20280I-30J30D01*
G37*
G36*
G01X18220Y21010D02*
X18120Y20890D01*
X18250Y20740D01*
X18380Y20890D01*
X18280Y21010D01*
G03X18220I-30J-30D01*
G37*
G36*
G01X17780Y23490D02*
X17880Y23610D01*
X17750Y23760D01*
X17620Y23610D01*
X17720Y23490D01*
G03X17780I30J30D01*
G37*
G36*
G01X17530Y22990D02*
X17630Y23110D01*
X17500Y23260D01*
X17370Y23110D01*
X17470Y22990D01*
G03X17530I30J30D01*
G37*
G36*
G01X16220Y27010D02*
X16120Y26890D01*
X16250Y26740D01*
X16380Y26890D01*
X16280Y27010D01*
G03X16220I-30J-30D01*
G37*
G36*
G01X17220Y26260D02*
X17120Y26140D01*
X17250Y25990D01*
X17380Y26140D01*
X17280Y26260D01*
G03X17220I-30J-30D01*
G37*
G36*
G01X17470Y27260D02*
X17370Y27140D01*
X17500Y26990D01*
X17630Y27140D01*
X17530Y27260D01*
G03X17470I-30J-30D01*
G37*
G36*
G01X17910Y25200D02*
X17750D01*
X17740Y24990D01*
X17950Y25000D01*
Y25160D01*
G03X17910Y25200I-40J0D01*
G37*
G36*
G01X16200Y30340D02*
Y30500D01*
X15990Y30510D01*
X16000Y30300D01*
X16160D01*
G03X16200Y30340I0J40D01*
G37*
G36*
G01X17200D02*
Y30500D01*
X16990Y30510D01*
X17000Y30300D01*
X17160D01*
G03X17200Y30340I0J40D01*
G37*
G36*
G01X17840Y30550D02*
X18000D01*
X18010Y30760D01*
X17800Y30750D01*
Y30590D01*
G03X17840Y30550I40J0D01*
G37*
G36*
G01X18340D02*
X18500D01*
X18510Y30760D01*
X18300Y30750D01*
Y30590D01*
G03X18340Y30550I40J0D01*
G37*
G36*
G01X18720Y28010D02*
X18620Y27890D01*
X18750Y27740D01*
X18880Y27890D01*
X18780Y28010D01*
G03X18720I-30J-30D01*
G37*
G36*
G01X16470Y30010D02*
X16370Y29890D01*
X16500Y29740D01*
X16630Y29890D01*
X16530Y30010D01*
G03X16470I-30J-30D01*
G37*
G36*
G01X18470Y31010D02*
X18370Y30890D01*
X18500Y30740D01*
X18630Y30890D01*
X18530Y31010D01*
G03X18470I-30J-30D01*
G37*
G36*
G01X18530Y35990D02*
X18630Y36110D01*
X18500Y36260D01*
X18370Y36110D01*
X18470Y35990D01*
G03X18530I30J30D01*
G37*
G36*
G01X19220Y7510D02*
X19120Y7390D01*
X19250Y7240D01*
X19380Y7390D01*
X19280Y7510D01*
G03X19220I-30J-30D01*
G37*
G36*
G01X21500Y14020D02*
X21600Y14140D01*
X21470Y14290D01*
X21340Y14140D01*
X21440Y14020D01*
G03X21500I30J30D01*
G37*
G36*
G01X18970Y21260D02*
X18870Y21140D01*
X19000Y20990D01*
X19130Y21140D01*
X19030Y21260D01*
G03X18970I-30J-30D01*
G37*
G36*
G01Y27260D02*
X18870Y27140D01*
X19000Y26990D01*
X19130Y27140D01*
X19030Y27260D01*
G03X18970I-30J-30D01*
G37*
G36*
G01X19220Y26760D02*
X19120Y26640D01*
X19250Y26490D01*
X19380Y26640D01*
X19280Y26760D01*
G03X19220I-30J-30D01*
G37*
G36*
G01X20970Y28260D02*
X20870Y28140D01*
X21000Y27990D01*
X21130Y28140D01*
X21030Y28260D01*
G03X20970I-30J-30D01*
G37*
G36*
G01X19590Y31800D02*
X19750D01*
X19760Y32010D01*
X19550Y32000D01*
Y31840D01*
G03X19590Y31800I40J0D01*
G37*
G36*
G01X20530Y32240D02*
X20630Y32360D01*
X20500Y32510D01*
X20370Y32360D01*
X20470Y32240D01*
G03X20530I30J30D01*
G37*
G36*
G01X19720Y34260D02*
X19620Y34140D01*
X19750Y33990D01*
X19880Y34140D01*
X19780Y34260D01*
G03X19720I-30J-30D01*
G37*
G36*
G01X19950Y33840D02*
Y34000D01*
X19740Y34010D01*
X19750Y33800D01*
X19910D01*
G03X19950Y33840I0J40D01*
G37*
G36*
G01X19780Y36240D02*
X19880Y36360D01*
X19750Y36510D01*
X19620Y36360D01*
X19720Y36240D01*
G03X19780I30J30D01*
G37*
G36*
G01X22970Y7000D02*
X22750Y6760D01*
X23000Y6490D01*
X23250Y6760D01*
X23030Y7000D01*
G03X22970I-30J-30D01*
G37*
G36*
G01X24070Y8050D02*
X23900Y7860D01*
X24100Y7590D01*
X24300Y7860D01*
X24130Y8050D01*
G03X24070I-30J-30D01*
G37*
G36*
G01X24280Y17490D02*
X24380Y17610D01*
X24250Y17760D01*
X24120Y17610D01*
X24220Y17490D01*
G03X24280I30J30D01*
G37*
G36*
G01X22420Y19070D02*
X22750Y19080D01*
X22760Y19450D01*
X22390Y19440D01*
X22380Y19110D01*
G03X22420Y19070I40J0D01*
G37*
G36*
G01X22530Y24060D02*
X22750Y24300D01*
X22500Y24570D01*
X22250Y24300D01*
X22470Y24060D01*
G03X22530I30J30D01*
G37*
G36*
G01X23000Y23030D02*
X22760Y23250D01*
X22490Y23000D01*
X22760Y22750D01*
X23000Y22970D01*
G03Y23030I-30J30D01*
G37*
G36*
G01X22880Y25780D02*
X22870Y26120D01*
X22490Y26130D01*
X22500Y25750D01*
X22840Y25740D01*
G03X22880Y25780I0J40D01*
G37*
G36*
G01X22160Y30440D02*
X22500Y30450D01*
X22510Y30820D01*
X22130Y30810D01*
X22120Y30480D01*
G03X22160Y30440I40J0D01*
G37*
G36*
G01X22880Y28920D02*
X22870Y29250D01*
X22490Y29260D01*
X22500Y28890D01*
X22840Y28880D01*
G03X22880Y28920I0J40D01*
G37*
G36*
G01X24840Y32760D02*
X24500Y32750D01*
X24490Y32370D01*
X24870Y32380D01*
X24880Y32720D01*
G03X24840Y32760I-40J0D01*
G37*
G36*
G01X24470Y31310D02*
X24250Y31070D01*
X24500Y30800D01*
X24750Y31070D01*
X24530Y31310D01*
G03X24470I-30J-30D01*
G37*
G36*
G01X22160Y32000D02*
X22500Y32010D01*
X22510Y32390D01*
X22130Y32380D01*
X22120Y32040D01*
G03X22160Y32000I40J0D01*
G37*
G36*
G01X24470Y34440D02*
X24250Y34200D01*
X24500Y33930D01*
X24750Y34200D01*
X24530Y34440D01*
G03X24470I-30J-30D01*
G37*
G36*
G01X24120Y35830D02*
X24130Y35500D01*
X24510Y35490D01*
X24500Y35860D01*
X24160Y35870D01*
G03X24120Y35830I0J-40D01*
G37*
G36*
G01X22160Y35120D02*
X22500Y35130D01*
X22510Y35510D01*
X22130Y35500D01*
X22120Y35160D01*
G03X22160Y35120I40J0D01*
G37*
G36*
G01X25180Y9210D02*
X24960Y8970D01*
X25210Y8700D01*
X25460Y8970D01*
X25240Y9210D01*
G03X25180I-30J-30D01*
G37*
G36*
G01X25200Y15590D02*
Y15750D01*
X24990Y15760D01*
X25000Y15550D01*
X25160D01*
G03X25200Y15590I0J40D01*
G37*
G36*
G01X25530Y36990D02*
X25630Y37110D01*
X25500Y37260D01*
X25370Y37110D01*
X25470Y36990D01*
G03X25530I30J30D01*
G37*
G36*
G01X27810Y4970D02*
X28050Y4750D01*
X28320Y5000D01*
X28050Y5250D01*
X27810Y5030D01*
G03Y4970I30J-30D01*
G37*
G54D10*
X0Y0D03*
X-500Y26000D03*
Y34000D03*
X30000Y0D03*
Y37500D03*
G54D20*
X26000Y21500D03*
X28000Y22500D03*
Y30500D03*
X26000Y28500D03*
X28000Y36500D03*
X26000Y35500D03*
G54D11*
X750Y16250D03*
X1000Y18750D03*
X750Y19250D03*
X500Y23000D03*
X1500Y8000D03*
X2250Y9750D03*
X4000Y33000D03*
X3250Y37250D03*
X5000Y7500D03*
X6000Y22750D03*
X5500Y30750D03*
X6750Y33500D03*
X7000Y34000D03*
X5000Y32500D03*
X5500Y34500D03*
X9500Y4000D03*
X8560Y22000D03*
X9250Y22250D03*
X8500Y29000D03*
X7750Y33500D03*
X11000Y2750D03*
Y7500D03*
Y16500D03*
X12000Y24250D03*
X10250Y30000D03*
X12250Y30500D03*
X11130Y30630D03*
Y29880D03*
X11750Y29750D03*
X11000Y32000D03*
X12000Y34000D03*
X11000Y35000D03*
X14000Y2250D03*
X14500Y3500D03*
X15500Y2250D03*
X15250Y1500D03*
X15000Y4250D03*
Y6750D03*
X15500Y5250D03*
X15000Y6000D03*
X13750Y7250D03*
X13250Y8750D03*
X16000D03*
X15750Y9250D03*
X15420Y16000D03*
X15720Y14720D03*
X15500Y18500D03*
X15620Y21500D03*
X14000Y28000D03*
X15000Y26000D03*
X13500D03*
X13750Y25500D03*
X16000Y27250D03*
X15500Y30750D03*
X16000Y30500D03*
X13250Y30250D03*
X14360Y29000D03*
X14000Y31250D03*
X13460Y33220D03*
X14000Y32390D03*
X13930Y33900D03*
X13500Y35000D03*
Y36250D03*
X14250Y34490D03*
X16500Y4750D03*
X17250Y7500D03*
X18000Y8750D03*
X18750Y7250D03*
X17000Y12250D03*
X17500Y12000D03*
X18720Y14280D03*
X16500Y17500D03*
X16240Y16240D03*
X18750Y19250D03*
X16250Y21750D03*
X19000Y21000D03*
X18750Y21750D03*
Y20250D03*
X18250Y20750D03*
X17750Y25000D03*
Y23750D03*
X17500Y23250D03*
X16250Y26750D03*
X17250Y26000D03*
X17500Y27000D03*
X18750Y27750D03*
X19000Y27000D03*
X18500Y25750D03*
X16750Y27250D03*
X17000Y30500D03*
X18000Y30750D03*
X18500D03*
X16500Y29750D03*
X18500Y36250D03*
X19250Y7250D03*
X21750Y8250D03*
X21470Y14280D03*
X19250Y26500D03*
X21000Y28000D03*
X19750Y32000D03*
X20500Y32500D03*
X20000Y33000D03*
X19750Y34000D03*
Y36500D03*
X25000Y15750D03*
X24250Y17750D03*
X25750Y25250D03*
X25500Y37250D03*
G54D21*
G01X-2750Y1000D02*
Y50D01*
G03X50Y-2750I2800J0D01*
G01X1100D01*
G01X-1700Y41250D02*
X-2750D01*
Y40050D01*
G01X24500Y41250D02*
X23600D01*
G01X31200Y-2750D02*
X32600D01*
X35250Y-100D01*
Y1900D01*
G01X36750Y5400D02*
Y13000D01*
G01Y36600D02*
Y38150D01*
G03X34650Y40250I-2100J0D01*
G01X34050D01*
G54D12*
X500Y28000D03*
X-500D03*
X500Y31000D03*
Y30000D03*
Y29000D03*
X-500Y31000D03*
Y30000D03*
Y29000D03*
X500Y32000D03*
X-500D03*
G54D22*
G01X8240Y-4800D02*
Y-5550D01*
X8620D01*
G01X9350D02*
Y-5050D01*
G01Y-5140D02*
X9310Y-5090D01*
X9250Y-5060D01*
X9190Y-5050D01*
X9120Y-5080D01*
X9070Y-5120D01*
X9030Y-5200D01*
X9010Y-5300D01*
X9030Y-5400D01*
X9070Y-5480D01*
X9120Y-5530D01*
X9190Y-5550D01*
X9250Y-5540D01*
X9310Y-5500D01*
X9350Y-5450D01*
G01X9730Y-5770D02*
X9790Y-5800D01*
X9860Y-5770D01*
X9910Y-5730D01*
X9950Y-5660D01*
X10000Y-5460D01*
X10130Y-5050D01*
G01X9830D02*
X10000Y-5460D01*
G01X10540Y-5210D02*
X10840D01*
X10810Y-5120D01*
X10760Y-5080D01*
X10700Y-5050D01*
X10630Y-5060D01*
X10580Y-5100D01*
X10540Y-5190D01*
X10520Y-5260D01*
Y-5340D01*
X10540Y-5410D01*
X10590Y-5490D01*
X10640Y-5540D01*
X10710Y-5550D01*
X10770Y-5530D01*
X10840Y-5450D01*
G01X11300Y-5550D02*
Y-5050D01*
G01Y-5150D02*
X11350Y-5100D01*
X11390Y-5060D01*
X11460Y-5050D01*
X11500Y-5060D01*
X11560Y-5100D01*
G01X12180Y-5570D02*
X12160Y-5560D01*
Y-5540D01*
X12180Y-5530D01*
X12200Y-5540D01*
Y-5560D01*
X12180Y-5570D01*
G01Y-5240D02*
X12160Y-5230D01*
Y-5200D01*
X12180Y-5190D01*
X12200Y-5200D01*
Y-5230D01*
X12180Y-5240D01*
G01X13100Y-4350D02*
X13140Y-4310D01*
X13170Y-4250D01*
X13190Y-4160D01*
X13170Y-4090D01*
X13130Y-4040D01*
X13070Y-4000D01*
X12820D01*
Y-4750D01*
X13120D01*
X13190Y-4700D01*
X13230Y-4630D01*
X13240Y-4540D01*
X13230Y-4450D01*
X13170Y-4380D01*
X13100Y-4350D01*
X12820D01*
G01X13780Y-4750D02*
X13720Y-4740D01*
X13670Y-4690D01*
X13630Y-4600D01*
X13610Y-4500D01*
X13630Y-4400D01*
X13670Y-4310D01*
X13720Y-4260D01*
X13780Y-4250D01*
X13840Y-4260D01*
X13890Y-4310D01*
X13930Y-4400D01*
X13940Y-4500D01*
X13930Y-4600D01*
X13890Y-4690D01*
X13840Y-4740D01*
X13780Y-4750D01*
G01X14530Y-4000D02*
Y-4750D01*
G01X14400Y-4250D02*
X14660D01*
G01X15280Y-4000D02*
Y-4750D01*
G01X15150Y-4250D02*
X15410D01*
G01X16030Y-4750D02*
X15970Y-4740D01*
X15920Y-4690D01*
X15880Y-4600D01*
X15860Y-4500D01*
X15880Y-4400D01*
X15920Y-4310D01*
X15970Y-4260D01*
X16030Y-4250D01*
X16090Y-4260D01*
X16140Y-4310D01*
X16180Y-4400D01*
X16190Y-4500D01*
X16180Y-4600D01*
X16140Y-4690D01*
X16090Y-4740D01*
X16030Y-4750D01*
G01X16500D02*
Y-4250D01*
G01Y-4390D02*
X16530Y-4320D01*
X16570Y-4280D01*
X16640Y-4250D01*
X16710Y-4280D01*
X16750Y-4320D01*
X16780Y-4390D01*
Y-4750D01*
G01Y-4390D02*
X16810Y-4320D01*
X16850Y-4280D01*
X16920Y-4250D01*
X16990Y-4280D01*
X17030Y-4320D01*
X17060Y-4400D01*
Y-4750D01*
G01X18160Y-4500D02*
X18400D01*
G01X19590Y-4000D02*
Y-4750D01*
X19970D01*
G01X20700D02*
Y-4250D01*
G01Y-4340D02*
X20660Y-4290D01*
X20600Y-4260D01*
X20540Y-4250D01*
X20470Y-4280D01*
X20420Y-4320D01*
X20380Y-4400D01*
X20360Y-4500D01*
X20380Y-4600D01*
X20420Y-4680D01*
X20470Y-4730D01*
X20540Y-4750D01*
X20600Y-4740D01*
X20660Y-4700D01*
X20700Y-4650D01*
G01X21080Y-4970D02*
X21140Y-5000D01*
X21210Y-4970D01*
X21260Y-4930D01*
X21300Y-4860D01*
X21350Y-4660D01*
X21480Y-4250D01*
G01X21180D02*
X21350Y-4660D01*
G01X21890Y-4410D02*
X22190D01*
X22160Y-4320D01*
X22110Y-4280D01*
X22050Y-4250D01*
X21980Y-4260D01*
X21930Y-4300D01*
X21890Y-4390D01*
X21870Y-4460D01*
Y-4540D01*
X21890Y-4610D01*
X21940Y-4690D01*
X21990Y-4740D01*
X22060Y-4750D01*
X22120Y-4730D01*
X22190Y-4650D01*
G01X22650Y-4750D02*
Y-4250D01*
G01Y-4350D02*
X22700Y-4300D01*
X22740Y-4260D01*
X22810Y-4250D01*
X22850Y-4260D01*
X22910Y-4300D01*
G01X23350Y-4440D02*
X23420Y-4350D01*
X23470Y-4300D01*
X23550Y-4280D01*
X23610Y-4300D01*
X23660Y-4350D01*
X23700Y-4430D01*
X23710Y-4510D01*
X23700Y-4590D01*
X23660Y-4660D01*
X23600Y-4730D01*
X23540Y-4750D01*
X23460Y-4730D01*
X23400Y-4650D01*
X23360Y-4540D01*
X23350Y-4410D01*
X23370Y-4250D01*
X23400Y-4160D01*
X23450Y-4080D01*
X23510Y-4010D01*
X23580Y-4000D01*
X23640Y-4020D01*
X23690Y-4090D01*
G54D13*
X3500Y11400D03*
X2500D03*
X3000D03*
X2500Y15600D03*
X3500D03*
X3000D03*
X5000Y11400D03*
X4000D03*
X4500D03*
X5500D03*
X4000Y15600D03*
X4500D03*
X5500D03*
X5000D03*
G54D23*
G01X14000Y2250D02*
X10500D01*
X9000Y3750D01*
X500D01*
X-500Y4750D01*
Y12250D01*
X250Y13000D01*
G01X1900Y12500D02*
X250D01*
X-250Y12000D01*
Y4750D01*
X500Y4000D01*
X9500D01*
G01X250Y13000D02*
X1900D01*
G01X250D02*
Y22750D01*
X500Y23000D01*
G01X750Y19250D02*
Y18960D01*
X680Y18890D01*
Y18610D01*
X750Y18540D01*
Y16250D01*
G01X1000Y18750D02*
Y16460D01*
X1070Y16390D01*
Y16110D01*
X1000Y16040D01*
Y13750D01*
X1500Y13250D01*
X2250D01*
X2500Y13000D01*
Y12000D01*
X1750Y11250D01*
Y9000D01*
X2500Y8250D01*
X11500D01*
X12500Y7250D01*
X13750D01*
G01X8450Y13920D02*
X8120Y14250D01*
X7500D01*
X7250Y14000D01*
X6650D01*
X6400Y13750D01*
X5800D01*
X5550Y14000D01*
X1900D01*
G01Y14500D02*
X4000D01*
X4500Y15000D01*
Y15600D01*
G01X5500Y30750D02*
Y32500D01*
X5000Y33000D01*
X4750D01*
X4250Y32500D01*
X3750D01*
X3250Y33000D01*
Y37250D01*
G01X11000Y7500D02*
X5000D01*
G01Y32500D02*
Y23750D01*
X6000Y22750D01*
G01X7000Y34000D02*
Y33710D01*
X7070Y33640D01*
Y33360D01*
X6750Y33040D01*
Y30500D01*
X8180Y29070D01*
Y28860D01*
X8360Y28680D01*
X8570D01*
X9250Y28000D01*
Y22250D01*
G01X5500Y34500D02*
X6250Y33750D01*
Y30500D01*
X8560Y28190D01*
Y22000D01*
G01X5500Y30750D02*
X7250Y29000D01*
Y23500D01*
X8000Y22750D01*
Y14750D01*
X8420Y14330D01*
Y14320D01*
X11820Y10920D01*
X11830D01*
X12000Y10750D01*
Y9000D01*
X12250Y8750D01*
X13250D01*
G01X24500Y35500D02*
X23670Y36320D01*
Y36560D01*
X23070Y37160D01*
X7180D01*
X7020Y37000D01*
X4500D01*
X4000Y36500D01*
Y33000D01*
G01X24500Y32380D02*
X25250Y33130D01*
Y34500D01*
X24750Y35000D01*
X24290D01*
X24000Y35290D01*
Y35750D01*
X23500Y36250D01*
Y36500D01*
X23000Y37000D01*
X7250D01*
X7000Y36750D01*
X6500D01*
X5500Y35750D01*
Y34500D01*
G01X11000Y16500D02*
X9750D01*
X8700Y15450D01*
Y15050D01*
X8770Y14980D01*
Y14670D01*
X12170Y11270D01*
X12470D01*
X14680Y9070D01*
Y4820D01*
X15000Y4500D01*
Y4250D01*
G01X9520Y14980D02*
X9400Y14860D01*
X9390D01*
X9160Y14630D01*
G01X12840Y12370D02*
X12760Y12450D01*
X12480D01*
X12440Y12410D01*
X12090D01*
X9520Y14980D01*
G01D02*
X9640Y15100D01*
Y15110D01*
X9870Y15340D01*
G01X7750Y33500D02*
Y29750D01*
X8500Y29000D01*
G01X7000Y34000D02*
Y36250D01*
X7500Y36750D01*
X19540D01*
X19610Y36820D01*
X19890D01*
X19960Y36750D01*
X22750D01*
X23840Y35660D01*
Y35220D01*
X24500Y34560D01*
Y33940D01*
G01X11000Y7500D02*
Y2750D01*
G01X13190Y12720D02*
X12840Y12370D01*
G01X11780Y15690D02*
X12340Y16250D01*
X12500D01*
X14590Y14160D01*
Y11160D01*
X16500Y9250D01*
Y4750D01*
G01X11000Y16500D02*
X11170Y16330D01*
Y16300D01*
X11420Y16050D01*
G01X13500Y26000D02*
X13250D01*
X12750Y26500D01*
Y31000D01*
X12000Y31750D01*
Y34000D01*
G01X12250Y30500D02*
X11720D01*
X11270Y30950D01*
X10990D01*
X10810Y30770D01*
Y30560D01*
X10250Y30000D01*
G01X11130Y29880D02*
Y30630D01*
G01X11750Y29750D02*
X12180Y30180D01*
X12390D01*
X12570Y30360D01*
Y30640D01*
X12390Y30820D01*
X12180D01*
X11000Y32000D01*
G01X18500Y30750D02*
Y33750D01*
X17750Y34500D01*
X14630D01*
X14570Y34560D01*
Y34630D01*
X14250Y34950D01*
X14020Y34720D01*
X13990D01*
X13770Y34500D01*
X11500D01*
X11000Y35000D01*
G01X13750Y7250D02*
X14250D01*
X14500Y7000D01*
Y3500D01*
G01X16000Y8750D02*
Y5000D01*
X15500Y4500D01*
Y2250D01*
G01X15000Y6000D02*
Y5000D01*
X15250Y4750D01*
Y4460D01*
X15320Y4390D01*
Y4110D01*
X15250Y4040D01*
Y2460D01*
X15180Y2390D01*
Y2110D01*
X15250Y2040D01*
Y1500D01*
G01X15000Y6750D02*
Y10250D01*
X13190Y12060D01*
Y12330D01*
X13270Y12410D01*
Y12640D01*
X13190Y12720D01*
G01X15500Y5250D02*
Y9000D01*
X15750Y9250D01*
G01X19250Y7250D02*
Y9750D01*
X18500Y10500D01*
X15750D01*
X15290Y10960D01*
Y11660D01*
X15260Y11870D01*
X15250Y11880D01*
Y12020D01*
X15200Y12370D01*
Y12490D01*
X15180Y12510D01*
X15130Y12860D01*
X15120Y12870D01*
Y13010D01*
X15070Y13360D01*
Y13500D01*
X15050Y13520D01*
X15000Y13860D01*
Y13950D01*
X15080Y14030D01*
X15220Y14210D01*
X15290Y14220D01*
G01X13550Y13080D02*
X13190Y12720D01*
G01X15740Y15390D02*
X15720Y15510D01*
X15500Y15690D01*
Y15920D01*
X15420Y16000D01*
G01X15220Y14720D02*
X15460Y14750D01*
X15690D01*
X15720Y14720D01*
G01X17000Y12250D02*
Y15220D01*
X17020Y15250D01*
X16940Y15850D01*
X17000Y15930D01*
Y16500D01*
X16500Y17000D01*
X16000D01*
X15500Y17500D01*
Y18500D01*
G01X13750Y25500D02*
Y25790D01*
X13820Y25860D01*
Y27720D01*
X13680Y27860D01*
Y28140D01*
X13820Y28280D01*
Y30970D01*
X13680Y31110D01*
Y32530D01*
X13820Y32670D01*
Y32930D01*
X13700Y33050D01*
X13630D01*
X13460Y33220D01*
G01X14000Y31250D02*
Y28000D01*
G01X14250Y34490D02*
X14180Y34560D01*
X14060D01*
X13320Y33820D01*
X13110D01*
X12930Y33640D01*
Y33070D01*
X13250Y32750D01*
Y30250D01*
G01X14360Y29000D02*
Y32030D01*
X14000Y32390D01*
G01X13930Y33900D02*
X14350D01*
X16500Y31750D01*
Y29750D01*
G01X13500Y36250D02*
Y35000D01*
G01X18000Y8750D02*
X18250Y8500D01*
Y7250D01*
X19000Y6500D01*
X20250D01*
X20750Y7000D01*
Y17440D01*
X22750Y19440D01*
G01X17500Y12000D02*
Y15290D01*
X17520Y15320D01*
X17440Y15920D01*
X17500Y16000D01*
Y16500D01*
X16500Y17500D01*
G01X17750Y23750D02*
Y23460D01*
X17820Y23390D01*
Y23110D01*
X17750Y23040D01*
Y20500D01*
X18250Y20000D01*
Y19670D01*
X18110Y19530D01*
Y18970D01*
X18250Y18830D01*
Y16580D01*
X18330Y16500D01*
X18620D01*
X18680Y16070D01*
X18720Y15780D01*
G01D02*
X18760Y15490D01*
Y14320D01*
X18720Y14280D01*
G01X18220Y15710D02*
X18180Y16000D01*
Y16340D01*
X18080Y16440D01*
Y16720D01*
X17500Y20930D01*
Y23250D01*
G01X16240Y15450D02*
X16200Y15740D01*
Y16200D01*
X16240Y16240D01*
G01X19450Y14760D02*
X19380Y14750D01*
X19200Y14890D01*
X19140Y14950D01*
Y15000D01*
X19000Y15140D01*
Y16500D01*
X18750Y16750D01*
X18580D01*
X18410Y16920D01*
Y18900D01*
X18270Y19040D01*
Y19460D01*
X18540Y19730D01*
X20230D01*
X22340Y21840D01*
Y22220D01*
X21840Y22720D01*
Y23280D01*
X22500Y23940D01*
Y24560D01*
G01X19390Y15260D02*
X19370Y15430D01*
X19010Y18500D01*
X19000D01*
X18570Y18930D01*
Y18970D01*
X18430Y19110D01*
Y19390D01*
X18610Y19570D01*
X20320D01*
X22500Y21750D01*
Y22290D01*
X22000Y22790D01*
Y23210D01*
X22290Y23500D01*
X22500D01*
X22750Y23750D01*
Y24100D01*
X23000Y24350D01*
Y25620D01*
X22500Y26120D01*
G01X18750Y21750D02*
Y25250D01*
X21500Y28000D01*
Y31420D01*
X21580Y31500D01*
X21620D01*
X22500Y32380D01*
G01Y29250D02*
X23250Y28500D01*
Y27580D01*
X22000Y26330D01*
Y25250D01*
X20750Y24000D01*
Y21250D01*
X19750Y20250D01*
X18750D01*
G01X18250Y20750D02*
Y25540D01*
X18180Y25610D01*
Y29930D01*
X18820Y30570D01*
Y33930D01*
X18500Y34250D01*
Y36250D01*
G01X16250Y26750D02*
Y27040D01*
X16320Y27110D01*
Y27390D01*
X16250Y27460D01*
Y29540D01*
X16180Y29610D01*
Y29890D01*
X16250Y29960D01*
Y30250D01*
X16000Y30500D01*
G01X17250Y26000D02*
Y26790D01*
X17180Y26860D01*
Y27140D01*
X17250Y27210D01*
Y30250D01*
X17000Y30500D01*
G01X17500Y27000D02*
Y30250D01*
X18000Y30750D01*
G01X17750Y25000D02*
X18000Y25250D01*
Y30250D01*
X18500Y30750D01*
G01X19750Y32000D02*
X19250Y31500D01*
Y30250D01*
X18750Y29750D01*
Y27750D01*
G01X28310Y5000D02*
X27460D01*
X26960Y4500D01*
X23410D01*
X22410Y5500D01*
X22250D01*
X21470Y6280D01*
Y8070D01*
X21430Y8110D01*
Y8390D01*
X21470Y8430D01*
Y14280D01*
G01X22500Y30810D02*
X21750Y30060D01*
Y27750D01*
X19000Y25000D01*
Y21960D01*
X19070Y21890D01*
Y21610D01*
X19000Y21540D01*
Y21000D01*
G01X20500Y32500D02*
Y31250D01*
X19000Y29750D01*
Y27960D01*
X19070Y27890D01*
Y27610D01*
X19000Y27540D01*
Y27000D01*
G01X19250Y26500D02*
Y26790D01*
X19320Y26860D01*
Y27140D01*
X19250Y27210D01*
Y29000D01*
X21000Y30750D01*
Y32750D01*
X19750Y34000D01*
G01X22500Y35500D02*
X21250Y34250D01*
Y30750D01*
X21000Y30500D01*
Y28000D01*
G01X19750Y36500D02*
Y34000D01*
G01X22500Y23000D02*
X23000D01*
X23500Y22500D01*
Y8250D01*
X23000Y7750D01*
Y6500D01*
G01X24250Y17750D02*
Y8170D01*
X24100Y8020D01*
Y7600D01*
G01X25500Y37250D02*
Y32750D01*
X25000Y32250D01*
Y32170D01*
X24500Y31670D01*
Y30810D01*
G01X25000Y15750D02*
X25210Y15540D01*
Y8710D01*
G54D14*
X1900Y12000D03*
Y12500D03*
Y13500D03*
Y14500D03*
Y13000D03*
Y14000D03*
Y15000D03*
X6100Y12500D03*
Y12000D03*
Y14000D03*
Y14500D03*
Y15000D03*
Y13000D03*
Y13500D03*
G54D15*
X9160Y12370D03*
X9870Y11660D03*
X9520Y12020D03*
X8810Y12720D03*
X8450Y13080D03*
X10580Y10950D03*
X10220Y11310D03*
X12840Y14630D03*
X12480Y14980D03*
X11780Y15690D03*
X11420Y16050D03*
X12130Y15340D03*
X13190Y14280D03*
X13550Y13920D03*
G54D16*
X8810Y14280D03*
X8450Y13920D03*
X9160Y14630D03*
X9520Y14980D03*
X9870Y15340D03*
X12480Y12020D03*
X12840Y12370D03*
X12130Y11660D03*
X11780Y11310D03*
X11420Y10950D03*
X10220Y15690D03*
X10580Y16050D03*
X13550Y13080D03*
X13190Y12720D03*
G54D17*
X15480Y12730D03*
X15550Y12240D03*
X15610Y11740D03*
X15350Y13730D03*
X15220Y14720D03*
X15290Y14220D03*
X15420Y13230D03*
X19710Y12780D03*
X19780Y12280D03*
X19580Y13770D03*
X19390Y15260D03*
X19450Y14760D03*
X19520Y14270D03*
X19650Y13270D03*
G54D18*
X15740Y15390D03*
X16280Y11220D03*
X18760Y11550D03*
X16780Y11290D03*
X17270Y11350D03*
X17770Y11420D03*
X18270Y11480D03*
X17230Y15580D03*
X16730Y15520D03*
X16240Y15450D03*
X17730Y15650D03*
X18220Y15710D03*
X18720Y15780D03*
X19260Y11610D03*
G54D19*
X20500Y5000D03*
X22060D03*
X23620D03*
X23000Y6500D03*
X24100Y7600D03*
X25210Y8710D03*
X22750Y8500D03*
Y10060D03*
Y11620D03*
Y13190D03*
Y14750D03*
Y16310D03*
Y17880D03*
Y19440D03*
Y21000D03*
X24500Y23000D03*
Y24560D03*
X22500Y23000D03*
Y24560D03*
X24500Y26120D03*
Y27690D03*
X22500Y26120D03*
Y27690D03*
X24500Y29250D03*
Y30810D03*
X22500Y29250D03*
Y30810D03*
X24500Y32380D03*
Y33940D03*
X22500Y32380D03*
Y33940D03*
X24500Y35500D03*
X22500D03*
X25190Y5000D03*
X26750D03*
X26320Y9820D03*
X27420Y10920D03*
X28310Y5000D03*
X29880D03*
X28520Y12020D03*
X29630Y13130D03*
X30740Y14240D03*
X31440Y5000D03*
X33000D03*
X31840Y15340D03*
M02*
