G04 ================== begin FILE IDENTIFICATION RECORD ==================*
G04 Layout Name:  D:/2581-sample_brds/Validation Boards/Test3/test-3_r2.brd*
G04 Film Name:    fab*
G04 File Format:  Gerber RS274X*
G04 File Origin:  Cadence Allegro 16.6-D064*
G04 Origin Date:  Fri Dec 02 14:27:28 2011*
G04 *
G04 Layer:  MANUFACTURING/NCDRILL_LEGEND*
G04 Layer:  MANUFACTURING/NCDRILL_FIGURE*
G04 Layer:  MANUFACTURING/XSECTION_CHART*
G04 Layer:  MANUFACTURING/NCLEGEND-1-6*
G04 Layer:  DRAWING FORMAT/OUTLINE*
G04 Layer:  DRAWING FORMAT/TITLE_BLOCK*
G04 Layer:  DRAWING FORMAT/TITLE_DATA*
G04 Layer:  DRAWING FORMAT/REVISION_BLOCK*
G04 Layer:  DRAWING FORMAT/REVISION_DATA*
G04 Layer:  BOARD GEOMETRY/OUTLINE*
G04 Layer:  BOARD GEOMETRY/DIMENSION*
G04 *
G04 Offset:    (0 0)*
G04 Mirror:    No*
G04 Mode:      Positive*
G04 Rotation:  0*
G04 FullContactRelief:  No*
G04 UndefLineWidth:     4*
G04 ================== end FILE IDENTIFICATION RECORD ====================*
%FSLAX54Y54*MOIN*%
%IR0*IPPOS*OFA0.00000B0.00000*MIA0B0*SFA1.00000B1.00000*%
%AMMACRO15*
1,1,.004,.015,0.0*
20,1,.004,.015,0.0,0.0,-.015,0.0*
1,1,.004,0.0,-.015*
20,1,.004,0.0,-.015,-.015,0.0,0.0*
1,1,.004,-.015,0.0*
20,1,.004,-.015,0.0,0.0,.015,0.0*
1,1,.004,0.0,.015*
20,1,.004,0.0,.015,.015,0.0,0.0*
1,1,.004,.015,0.0*
%
%ADD15MACRO15*%
%AMMACRO13*
1,1,.004,.025,0.0*
20,1,.004,.025,0.0,0.0,-.0325,0.0*
1,1,.004,0.0,-.0325*
20,1,.004,0.0,-.0325,-.025,0.0,0.0*
1,1,.004,-.025,0.0*
20,1,.004,-.025,0.0,0.0,.0325,0.0*
1,1,.004,0.0,.0325*
20,1,.004,0.0,.0325,.025,0.0,0.0*
1,1,.004,.025,0.0*
%
%ADD13MACRO13*%
%AMMACRO11*
1,1,.004,.025,0.0*
20,1,.004,.025,0.0,.02462,-.004341,0.0*
1,1,.004,.02462,-.004341*
20,1,.004,.02462,-.004341,.023492,-.008551,0.0*
1,1,.004,.023492,-.008551*
20,1,.004,.023492,-.008551,.021651,-.0125,0.0*
1,1,.004,.021651,-.0125*
20,1,.004,.021651,-.0125,.019151,-.01607,0.0*
1,1,.004,.019151,-.01607*
20,1,.004,.019151,-.01607,.01607,-.019151,0.0*
1,1,.004,.01607,-.019151*
20,1,.004,.01607,-.019151,.0125,-.021651,0.0*
1,1,.004,.0125,-.021651*
20,1,.004,.0125,-.021651,.008551,-.023492,0.0*
1,1,.004,.008551,-.023492*
20,1,.004,.008551,-.023492,.004341,-.02462,0.0*
1,1,.004,.004341,-.02462*
20,1,.004,.004341,-.02462,0.0,-.025,0.0*
1,1,.004,0.0,-.025*
20,1,.004,0.0,-.025,-.004341,-.02462,0.0*
1,1,.004,-.004341,-.02462*
20,1,.004,-.004341,-.02462,-.008551,-.023492,0.0*
1,1,.004,-.008551,-.023492*
20,1,.004,-.008551,-.023492,-.0125,-.021651,0.0*
1,1,.004,-.0125,-.021651*
20,1,.004,-.0125,-.021651,-.01607,-.019151,0.0*
1,1,.004,-.01607,-.019151*
20,1,.004,-.01607,-.019151,-.019151,-.01607,0.0*
1,1,.004,-.019151,-.01607*
20,1,.004,-.019151,-.01607,-.021651,-.0125,0.0*
1,1,.004,-.021651,-.0125*
20,1,.004,-.021651,-.0125,-.023492,-.008551,0.0*
1,1,.004,-.023492,-.008551*
20,1,.004,-.023492,-.008551,-.02462,-.004341,0.0*
1,1,.004,-.02462,-.004341*
20,1,.004,-.02462,-.004341,-.025,0.0,0.0*
1,1,.004,-.025,0.0*
20,1,.004,-.025,0.0,-.02462,.004341,0.0*
1,1,.004,-.02462,.004341*
20,1,.004,-.02462,.004341,-.023492,.008551,0.0*
1,1,.004,-.023492,.008551*
20,1,.004,-.023492,.008551,-.021651,.0125,0.0*
1,1,.004,-.021651,.0125*
20,1,.004,-.021651,.0125,-.019151,.01607,0.0*
1,1,.004,-.019151,.01607*
20,1,.004,-.019151,.01607,-.01607,.019151,0.0*
1,1,.004,-.01607,.019151*
20,1,.004,-.01607,.019151,-.0125,.021651,0.0*
1,1,.004,-.0125,.021651*
20,1,.004,-.0125,.021651,-.008551,.023492,0.0*
1,1,.004,-.008551,.023492*
20,1,.004,-.008551,.023492,-.004341,.02462,0.0*
1,1,.004,-.004341,.02462*
20,1,.004,-.004341,.02462,0.0,.025,0.0*
1,1,.004,0.0,.025*
20,1,.004,0.0,.025,.004341,.02462,0.0*
1,1,.004,.004341,.02462*
20,1,.004,.004341,.02462,.008551,.023492,0.0*
1,1,.004,.008551,.023492*
20,1,.004,.008551,.023492,.0125,.021651,0.0*
1,1,.004,.0125,.021651*
20,1,.004,.0125,.021651,.01607,.019151,0.0*
1,1,.004,.01607,.019151*
20,1,.004,.01607,.019151,.019151,.01607,0.0*
1,1,.004,.019151,.01607*
20,1,.004,.019151,.01607,.021651,.0125,0.0*
1,1,.004,.021651,.0125*
20,1,.004,.021651,.0125,.023492,.008551,0.0*
1,1,.004,.023492,.008551*
20,1,.004,.023492,.008551,.02462,.004341,0.0*
1,1,.004,.02462,.004341*
20,1,.004,.02462,.004341,.025,0.0,0.0*
1,1,.004,.025,0.0*
1,1,.004,.0125,0.0*
20,1,.004,.0125,0.0,-.0125,0.0,0.0*
1,1,.004,-.0125,0.0*
1,1,.004,0.0,.0125*
20,1,.004,0.0,.0125,0.0,-.0125,0.0*
1,1,.004,0.0,-.0125*
%
%ADD11MACRO11*%
%AMMACRO10*
1,1,.004,.3125,0.0*
20,1,.004,.3125,0.0,.307752,-.054265,0.0*
1,1,.004,.307752,-.054265*
20,1,.004,.307752,-.054265,.293654,-.106881,0.0*
1,1,.004,.293654,-.106881*
20,1,.004,.293654,-.106881,.270633,-.15625,0.0*
1,1,.004,.270633,-.15625*
20,1,.004,.270633,-.15625,.239389,-.200871,0.0*
1,1,.004,.239389,-.200871*
20,1,.004,.239389,-.200871,.200871,-.239389,0.0*
1,1,.004,.200871,-.239389*
20,1,.004,.200871,-.239389,.15625,-.270633,0.0*
1,1,.004,.15625,-.270633*
20,1,.004,.15625,-.270633,.106881,-.293654,0.0*
1,1,.004,.106881,-.293654*
20,1,.004,.106881,-.293654,.054265,-.307752,0.0*
1,1,.004,.054265,-.307752*
20,1,.004,.054265,-.307752,0.0,-.3125,0.0*
1,1,.004,0.0,-.3125*
20,1,.004,0.0,-.3125,-.054265,-.307752,0.0*
1,1,.004,-.054265,-.307752*
20,1,.004,-.054265,-.307752,-.106881,-.293654,0.0*
1,1,.004,-.106881,-.293654*
20,1,.004,-.106881,-.293654,-.15625,-.270633,0.0*
1,1,.004,-.15625,-.270633*
20,1,.004,-.15625,-.270633,-.200871,-.239389,0.0*
1,1,.004,-.200871,-.239389*
20,1,.004,-.200871,-.239389,-.239389,-.200871,0.0*
1,1,.004,-.239389,-.200871*
20,1,.004,-.239389,-.200871,-.270633,-.15625,0.0*
1,1,.004,-.270633,-.15625*
20,1,.004,-.270633,-.15625,-.293654,-.106881,0.0*
1,1,.004,-.293654,-.106881*
20,1,.004,-.293654,-.106881,-.307752,-.054265,0.0*
1,1,.004,-.307752,-.054265*
20,1,.004,-.307752,-.054265,-.3125,0.0,0.0*
1,1,.004,-.3125,0.0*
20,1,.004,-.3125,0.0,-.307752,.054265,0.0*
1,1,.004,-.307752,.054265*
20,1,.004,-.307752,.054265,-.293654,.106881,0.0*
1,1,.004,-.293654,.106881*
20,1,.004,-.293654,.106881,-.270633,.15625,0.0*
1,1,.004,-.270633,.15625*
20,1,.004,-.270633,.15625,-.239389,.200871,0.0*
1,1,.004,-.239389,.200871*
20,1,.004,-.239389,.200871,-.200871,.239389,0.0*
1,1,.004,-.200871,.239389*
20,1,.004,-.200871,.239389,-.15625,.270633,0.0*
1,1,.004,-.15625,.270633*
20,1,.004,-.15625,.270633,-.106881,.293654,0.0*
1,1,.004,-.106881,.293654*
20,1,.004,-.106881,.293654,-.054265,.307752,0.0*
1,1,.004,-.054265,.307752*
20,1,.004,-.054265,.307752,0.0,.3125,0.0*
1,1,.004,0.0,.3125*
20,1,.004,0.0,.3125,.054265,.307752,0.0*
1,1,.004,.054265,.307752*
20,1,.004,.054265,.307752,.106881,.293654,0.0*
1,1,.004,.106881,.293654*
20,1,.004,.106881,.293654,.15625,.270633,0.0*
1,1,.004,.15625,.270633*
20,1,.004,.15625,.270633,.200871,.239389,0.0*
1,1,.004,.200871,.239389*
20,1,.004,.200871,.239389,.239389,.200871,0.0*
1,1,.004,.239389,.200871*
20,1,.004,.239389,.200871,.270633,.15625,0.0*
1,1,.004,.270633,.15625*
20,1,.004,.270633,.15625,.293654,.106881,0.0*
1,1,.004,.293654,.106881*
20,1,.004,.293654,.106881,.307752,.054265,0.0*
1,1,.004,.307752,.054265*
20,1,.004,.307752,.054265,.3125,0.0,0.0*
1,1,.004,.3125,0.0*
1,1,.004,-.13,-.156*
20,1,.004,-.13,-.156,0.0,.156,0.0*
1,1,.004,0.0,.156*
20,1,.004,0.0,.156,.13,-.156,0.0*
1,1,.004,.13,-.156*
1,1,.004,.083,-.047*
20,1,.004,.083,-.047,-.083,-.047,0.0*
1,1,.004,-.083,-.047*
%
%ADD10MACRO10*%
%AMMACRO12*
1,1,.004,0.0,.025*
20,1,.004,0.0,.025,.025,-.025,0.0*
1,1,.004,.025,-.025*
20,1,.004,.025,-.025,-.025,-.025,0.0*
1,1,.004,-.025,-.025*
20,1,.004,-.025,-.025,0.0,.025,0.0*
1,1,.004,0.0,.025*
%
%ADD12MACRO12*%
%AMMACRO14*
1,1,.004,0.0,.0375*
20,1,.004,0.0,.0375,.0375,-.0375,0.0*
1,1,.004,.0375,-.0375*
20,1,.004,.0375,-.0375,-.0375,-.0375,0.0*
1,1,.004,-.0375,-.0375*
20,1,.004,-.0375,-.0375,0.0,.0375,0.0*
1,1,.004,0.0,.0375*
%
%ADD14MACRO14*%
%ADD16C,.004*%
G75*
%LPD*%
G75*
G36*
G01X55000Y-11660D02*
Y-12090D01*
X55250D01*
Y-31220D01*
X55000D01*
Y-31650D01*
X56500D01*
Y-31220D01*
X56250D01*
Y-12090D01*
X56500D01*
Y-11660D01*
X55000D01*
G37*
G36*
G01X53000Y-31590D02*
Y-31160D01*
X59000D01*
Y-31590D01*
X53000D01*
G37*
G36*
G01Y-27690D02*
Y-27260D01*
X59000D01*
Y-27690D01*
X53000D01*
G37*
G36*
G01Y-23790D02*
Y-23360D01*
X59000D01*
Y-23790D01*
X53000D01*
G37*
G36*
G01Y-19890D02*
Y-19460D01*
X59000D01*
Y-19890D01*
X53000D01*
G37*
G36*
G01Y-15990D02*
Y-15560D01*
X59000D01*
Y-15990D01*
X53000D01*
G37*
G36*
G01Y-12090D02*
Y-11660D01*
X59000D01*
Y-12090D01*
X53000D01*
G37*
G54D10*
X0Y0D03*
X30000D03*
Y37500D03*
X60500Y44690D03*
G54D11*
X750Y16250D03*
X1000Y18750D03*
X750Y19250D03*
X500Y23000D03*
X1500Y8000D03*
X2250Y9750D03*
X4000Y33000D03*
X3250Y37250D03*
X5000Y7500D03*
X6000Y22750D03*
X5500Y30750D03*
X6750Y33500D03*
X7000Y34000D03*
X5000Y32500D03*
X5500Y34500D03*
X9500Y4000D03*
X8560Y22000D03*
X9250Y22250D03*
X8500Y29000D03*
X7750Y33500D03*
X11000Y2750D03*
Y7500D03*
Y16500D03*
X12000Y24250D03*
X10250Y30000D03*
X12250Y30500D03*
X11130Y30630D03*
Y29880D03*
X11750Y29750D03*
X11000Y32000D03*
X12000Y34000D03*
X11000Y35000D03*
X14000Y2250D03*
X14500Y3500D03*
X15500Y2250D03*
X15250Y1500D03*
X15000Y4250D03*
Y6750D03*
X15500Y5250D03*
X15000Y6000D03*
X13750Y7250D03*
X13250Y8750D03*
X16000D03*
X15750Y9250D03*
X15420Y16000D03*
X15720Y14720D03*
X15500Y18500D03*
X15620Y21500D03*
X14000Y28000D03*
X15000Y26000D03*
X13500D03*
X13750Y25500D03*
X16000Y27250D03*
X15500Y30750D03*
X16000Y30500D03*
X13250Y30250D03*
X14360Y29000D03*
X14000Y31250D03*
X13460Y33220D03*
X14000Y32390D03*
X13930Y33900D03*
X13500Y35000D03*
Y36250D03*
X14250Y34490D03*
X16500Y4750D03*
X18750Y7250D03*
X17000Y12250D03*
X17500Y12000D03*
X18720Y14280D03*
X16500Y17500D03*
X16240Y16240D03*
X18750Y19250D03*
X16250Y21750D03*
X19000Y21000D03*
X18750Y21750D03*
Y20250D03*
X18250Y20750D03*
X17750Y25000D03*
Y23750D03*
X17500Y23250D03*
X16250Y26750D03*
X17250Y26000D03*
X17500Y27000D03*
X18750Y27750D03*
X19000Y27000D03*
X18500Y25750D03*
X16750Y27250D03*
X17000Y30500D03*
X18000Y30750D03*
X18500D03*
X16500Y29750D03*
X18500Y36250D03*
X19250Y7250D03*
X21750Y8250D03*
X21470Y14280D03*
X19250Y26500D03*
X21000Y28000D03*
X19750Y32000D03*
X20500Y32500D03*
X20000Y33000D03*
X19750Y34000D03*
Y36500D03*
X25000Y15750D03*
X24250Y17750D03*
X25750Y25250D03*
X25500Y37250D03*
X60500Y35320D03*
G54D12*
X-500Y26000D03*
Y34000D03*
X60500Y-2180D03*
G54D13*
X500Y28000D03*
X-500D03*
X500Y31000D03*
Y30000D03*
Y29000D03*
X-500Y31000D03*
Y30000D03*
Y29000D03*
X500Y32000D03*
X-500D03*
X60500Y25940D03*
G54D14*
X20500Y5000D03*
X22060D03*
X23620D03*
X23000Y6500D03*
X24100Y7600D03*
X25210Y8710D03*
X22750Y8500D03*
Y10060D03*
Y11620D03*
Y13190D03*
Y14750D03*
Y16310D03*
Y17880D03*
Y19440D03*
Y21000D03*
X24500Y23000D03*
Y24560D03*
X22500Y23000D03*
Y24560D03*
X24500Y26120D03*
Y27690D03*
X22500Y26120D03*
Y27690D03*
X24500Y29250D03*
Y30810D03*
X22500Y29250D03*
Y30810D03*
X24500Y32380D03*
Y33940D03*
X22500Y32380D03*
Y33940D03*
X24500Y35500D03*
X22500D03*
X25190Y5000D03*
X26750D03*
X26320Y9820D03*
X27420Y10920D03*
X28310Y5000D03*
X29880D03*
X28520Y12020D03*
X29630Y13130D03*
X30740Y14240D03*
X31440Y5000D03*
X33000D03*
X31840Y15340D03*
X60500Y7190D03*
G54D15*
X26000Y21500D03*
X28000Y22500D03*
Y30500D03*
X26000Y28500D03*
X28000Y36500D03*
X26000Y35500D03*
X60500Y16570D03*
G54D16*
G01X-14700Y-1000D02*
X-14450Y-2500D01*
X-14200Y-1000D01*
X-14700D01*
G01X-14450Y19050D02*
Y-2500D01*
G01X1500D02*
X-15450D01*
G01X-16130Y19970D02*
Y21220D01*
X-16700Y20320D01*
X-15930D01*
G01X-15080Y19930D02*
X-15110Y19950D01*
Y19990D01*
X-15080Y20010D01*
X-15040Y19990D01*
Y19950D01*
X-15080Y19930D01*
G01X-14180Y20220D02*
X-14080Y20070D01*
X-13960Y19990D01*
X-13820Y19970D01*
X-13700Y19990D01*
X-13570Y20090D01*
X-13490Y20220D01*
X-13480Y20340D01*
X-13510Y20490D01*
X-13620Y20590D01*
X-13730Y20640D01*
X-13870D01*
G01X-13730D02*
X-13630Y20700D01*
X-13560Y20800D01*
X-13520Y20930D01*
X-13560Y21050D01*
X-13630Y21160D01*
X-13770Y21220D01*
X-13910Y21200D01*
X-14050Y21120D01*
G01X-12890Y20490D02*
X-12780Y20640D01*
X-12690Y20720D01*
X-12560Y20760D01*
X-12460Y20720D01*
X-12380Y20640D01*
X-12320Y20510D01*
X-12300Y20370D01*
X-12320Y20240D01*
X-12380Y20120D01*
X-12470Y20010D01*
X-12580Y19970D01*
X-12700Y20010D01*
X-12810Y20140D01*
X-12870Y20320D01*
X-12890Y20530D01*
X-12860Y20800D01*
X-12810Y20950D01*
X-12730Y21090D01*
X-12630Y21200D01*
X-12520Y21220D01*
X-12410Y21180D01*
X-12330Y21070D01*
G01X-14450Y22150D02*
Y41050D01*
G01X-14200Y39550D02*
X-14450Y41050D01*
X-14700Y39550D01*
X-14200D01*
G01X1800Y41050D02*
X-15450D01*
G01X-11940Y36500D02*
Y37000D01*
X-11780D01*
X-11730Y36970D01*
X-11700Y36920D01*
X-11680Y36850D01*
X-11700Y36780D01*
X-11730Y36730D01*
X-11780Y36710D01*
X-11940D01*
G01X-11190Y36500D02*
Y36830D01*
G01Y36780D02*
X-11210Y36810D01*
X-11250Y36820D01*
X-11290Y36830D01*
X-11340Y36820D01*
X-11380Y36780D01*
X-11400Y36730D01*
X-11410Y36670D01*
X-11400Y36600D01*
X-11380Y36550D01*
X-11340Y36520D01*
X-11290Y36500D01*
X-11250Y36510D01*
X-11210Y36530D01*
X-11190Y36570D01*
G01X-10690Y36790D02*
X-10730Y36820D01*
X-10770Y36830D01*
X-10820Y36820D01*
X-10860Y36780D01*
X-10880Y36720D01*
X-10890Y36670D01*
X-10880Y36610D01*
X-10860Y36560D01*
X-10820Y36520D01*
X-10770Y36500D01*
X-10730Y36520D01*
X-10690Y36550D01*
G01X-10390Y36500D02*
Y37000D01*
G01X-10190Y36830D02*
X-10390Y36640D01*
G01X-10310Y36720D02*
X-10170Y36500D01*
G01X-9660D02*
Y36830D01*
G01Y36780D02*
X-9680Y36810D01*
X-9720Y36820D01*
X-9760Y36830D01*
X-9810Y36820D01*
X-9850Y36780D01*
X-9870Y36730D01*
X-9880Y36670D01*
X-9870Y36600D01*
X-9850Y36550D01*
X-9810Y36520D01*
X-9760Y36500D01*
X-9720Y36510D01*
X-9680Y36530D01*
X-9660Y36570D01*
G01X-9350Y36370D02*
X-9300Y36340D01*
X-9250Y36330D01*
X-9210Y36340D01*
X-9170Y36380D01*
X-9150Y36440D01*
Y36830D01*
G01Y36770D02*
X-9170Y36800D01*
X-9210Y36820D01*
X-9250Y36830D01*
X-9300Y36820D01*
X-9340Y36780D01*
X-9360Y36720D01*
X-9370Y36670D01*
Y36620D01*
X-9340Y36560D01*
X-9300Y36520D01*
X-9250Y36500D01*
X-9220Y36510D01*
X-9170Y36540D01*
X-9150Y36570D01*
G01X-8840Y36720D02*
X-8640D01*
X-8660Y36780D01*
X-8690Y36820D01*
X-8740Y36830D01*
X-8780Y36820D01*
X-8820Y36800D01*
X-8840Y36740D01*
X-8860Y36690D01*
Y36640D01*
X-8840Y36590D01*
X-8810Y36540D01*
X-8780Y36510D01*
X-8730Y36500D01*
X-8690Y36520D01*
X-8640Y36570D01*
G01X-7870Y36500D02*
Y37000D01*
G01X-7630D02*
X-7870Y36690D01*
G01X-7590Y36500D02*
X-7760Y36830D01*
G01X-7310Y36720D02*
X-7110D01*
X-7130Y36780D01*
X-7160Y36820D01*
X-7210Y36830D01*
X-7250Y36820D01*
X-7290Y36800D01*
X-7310Y36740D01*
X-7330Y36690D01*
Y36640D01*
X-7310Y36590D01*
X-7280Y36540D01*
X-7250Y36510D01*
X-7200Y36500D01*
X-7160Y36520D01*
X-7110Y36570D01*
G01X-6800Y36720D02*
X-6600D01*
X-6620Y36780D01*
X-6650Y36820D01*
X-6700Y36830D01*
X-6740Y36820D01*
X-6780Y36800D01*
X-6800Y36740D01*
X-6820Y36690D01*
Y36640D01*
X-6800Y36590D01*
X-6770Y36540D01*
X-6740Y36510D01*
X-6690Y36500D01*
X-6650Y36520D01*
X-6600Y36570D01*
G01X-6310Y36330D02*
Y36830D01*
G01Y36760D02*
X-6280Y36800D01*
X-6250Y36820D01*
X-6200Y36830D01*
X-6160Y36820D01*
X-6110Y36780D01*
X-6090Y36720D01*
Y36670D01*
Y36610D01*
X-6110Y36550D01*
X-6150Y36520D01*
X-6200Y36500D01*
X-6240Y36510D01*
X-6290Y36530D01*
X-6310Y36570D01*
G01X-5770Y36670D02*
X-5610D01*
G01X-5180Y36830D02*
Y36500D01*
G01Y36970D02*
X-5190D01*
Y36990D01*
X-5180Y37000D01*
X-5170Y36990D01*
Y36970D01*
X-5180D01*
G01X-4780Y36500D02*
Y36830D01*
G01Y36750D02*
X-4750Y36790D01*
X-4710Y36820D01*
X-4660Y36830D01*
X-4620Y36820D01*
X-4580Y36790D01*
X-4560Y36730D01*
Y36500D01*
G01X-11810Y39500D02*
X-11860Y39510D01*
X-11900Y39540D01*
X-11940Y39590D01*
X-11970Y39650D01*
X-11980Y39720D01*
Y39780D01*
X-11970Y39850D01*
X-11940Y39910D01*
X-11900Y39960D01*
X-11860Y39990D01*
X-11810Y40000D01*
X-11760Y39990D01*
X-11720Y39960D01*
X-11680Y39910D01*
X-11650Y39850D01*
X-11640Y39780D01*
Y39720D01*
X-11650Y39650D01*
X-11680Y39590D01*
X-11720Y39540D01*
X-11760Y39510D01*
X-11810Y39500D01*
G01X-11410Y39830D02*
Y39600D01*
X-11380Y39540D01*
X-11340Y39510D01*
X-11300Y39500D01*
X-11260Y39510D01*
X-11220Y39540D01*
X-11190Y39600D01*
G01Y39500D02*
Y39830D01*
G01X-10790Y40000D02*
Y39500D01*
G01X-10880Y39830D02*
X-10700D01*
G01X-10280Y39500D02*
Y40000D01*
G01X-9770Y39830D02*
Y39500D01*
G01Y39970D02*
X-9780D01*
Y39990D01*
X-9770Y40000D01*
X-9760Y39990D01*
Y39970D01*
X-9770D01*
G01X-9370Y39500D02*
Y39830D01*
G01Y39750D02*
X-9340Y39790D01*
X-9300Y39820D01*
X-9250Y39830D01*
X-9210Y39820D01*
X-9170Y39790D01*
X-9150Y39730D01*
Y39500D01*
G01X-8840Y39720D02*
X-8640D01*
X-8660Y39780D01*
X-8690Y39820D01*
X-8740Y39830D01*
X-8780Y39820D01*
X-8820Y39800D01*
X-8840Y39740D01*
X-8860Y39690D01*
Y39640D01*
X-8840Y39590D01*
X-8810Y39540D01*
X-8780Y39510D01*
X-8730Y39500D01*
X-8690Y39520D01*
X-8640Y39570D01*
G01X-11940Y38000D02*
Y38500D01*
X-11780D01*
X-11730Y38470D01*
X-11700Y38440D01*
X-11680Y38370D01*
X-11700Y38310D01*
X-11730Y38270D01*
X-11780Y38240D01*
X-11940D01*
G01X-11780D02*
X-11680Y38000D01*
G01X-11300D02*
X-11340Y38010D01*
X-11380Y38040D01*
X-11400Y38100D01*
X-11410Y38170D01*
X-11400Y38230D01*
X-11380Y38290D01*
X-11340Y38320D01*
X-11300Y38330D01*
X-11260Y38320D01*
X-11220Y38290D01*
X-11200Y38230D01*
X-11190Y38170D01*
X-11200Y38100D01*
X-11220Y38040D01*
X-11260Y38010D01*
X-11300Y38000D01*
G01X-10900Y38330D02*
Y38100D01*
X-10870Y38040D01*
X-10830Y38010D01*
X-10790Y38000D01*
X-10750Y38010D01*
X-10710Y38040D01*
X-10680Y38100D01*
G01Y38000D02*
Y38330D01*
G01X-10280Y38500D02*
Y38000D01*
G01X-10370Y38330D02*
X-10190D01*
G01X-9850Y38170D02*
X-9690D01*
G01X-9400Y38000D02*
Y38500D01*
G01X-9160D02*
X-9400Y38190D01*
G01X-9120Y38000D02*
X-9290Y38330D01*
G01X-8840Y38220D02*
X-8640D01*
X-8660Y38280D01*
X-8690Y38320D01*
X-8740Y38330D01*
X-8780Y38320D01*
X-8820Y38300D01*
X-8840Y38240D01*
X-8860Y38190D01*
Y38140D01*
X-8840Y38090D01*
X-8810Y38040D01*
X-8780Y38010D01*
X-8730Y38000D01*
X-8690Y38020D01*
X-8640Y38070D01*
G01X-8330Y38220D02*
X-8130D01*
X-8150Y38280D01*
X-8180Y38320D01*
X-8230Y38330D01*
X-8270Y38320D01*
X-8310Y38300D01*
X-8330Y38240D01*
X-8350Y38190D01*
Y38140D01*
X-8330Y38090D01*
X-8300Y38040D01*
X-8270Y38010D01*
X-8220Y38000D01*
X-8180Y38020D01*
X-8130Y38070D01*
G01X-7840Y37830D02*
Y38330D01*
G01Y38260D02*
X-7810Y38300D01*
X-7780Y38320D01*
X-7730Y38330D01*
X-7690Y38320D01*
X-7640Y38280D01*
X-7620Y38220D01*
Y38170D01*
Y38110D01*
X-7640Y38050D01*
X-7680Y38020D01*
X-7730Y38000D01*
X-7770Y38010D01*
X-7820Y38030D01*
X-7840Y38070D01*
G01X-7300Y38170D02*
X-7140D01*
G01X-6710Y38330D02*
Y38000D01*
G01Y38470D02*
X-6720D01*
Y38490D01*
X-6710Y38500D01*
X-6700Y38490D01*
Y38470D01*
X-6710D01*
G01X-6310Y38000D02*
Y38330D01*
G01Y38250D02*
X-6280Y38290D01*
X-6240Y38320D01*
X-6190Y38330D01*
X-6150Y38320D01*
X-6110Y38290D01*
X-6090Y38230D01*
Y38000D01*
G01X-7750Y-1670D02*
X-7780Y-1650D01*
Y-1610D01*
X-7750Y-1590D01*
X-7710Y-1610D01*
Y-1650D01*
X-7750Y-1670D01*
G01X-6800Y-590D02*
X-6710Y-460D01*
X-6600Y-400D01*
X-6470Y-380D01*
X-6320Y-420D01*
X-6210Y-530D01*
X-6180Y-650D01*
X-6190Y-780D01*
X-6260Y-880D01*
X-6570Y-1090D01*
X-6710Y-1230D01*
X-6800Y-1440D01*
X-6830Y-1630D01*
X-6180D01*
G01X-5610Y-1440D02*
X-5510Y-1550D01*
X-5400Y-1610D01*
X-5270Y-1630D01*
X-5130Y-1590D01*
X-5020Y-1510D01*
X-4940Y-1360D01*
X-4920Y-1190D01*
X-4950Y-1030D01*
X-5030Y-920D01*
X-5140Y-840D01*
X-5250Y-820D01*
X-5360Y-840D01*
X-5500Y-920D01*
X-5450Y-380D01*
X-5030D01*
G01X-6250Y-13670D02*
X-6280Y-13650D01*
Y-13610D01*
X-6250Y-13590D01*
X-6210Y-13610D01*
Y-13650D01*
X-6250Y-13670D01*
G01X-5300Y-12590D02*
X-5210Y-12460D01*
X-5100Y-12400D01*
X-4970Y-12380D01*
X-4820Y-12420D01*
X-4710Y-12530D01*
X-4680Y-12650D01*
X-4690Y-12780D01*
X-4760Y-12880D01*
X-5070Y-13090D01*
X-5210Y-13230D01*
X-5300Y-13440D01*
X-5330Y-13630D01*
X-4680D01*
G01X-4110Y-13440D02*
X-4010Y-13550D01*
X-3900Y-13610D01*
X-3770Y-13630D01*
X-3630Y-13590D01*
X-3520Y-13510D01*
X-3440Y-13360D01*
X-3420Y-13190D01*
X-3450Y-13030D01*
X-3530Y-12920D01*
X-3640Y-12840D01*
X-3750Y-12820D01*
X-3860Y-12840D01*
X-4000Y-12920D01*
X-3950Y-12380D01*
X-3530D01*
G01X500Y-2500D02*
X-7500D01*
G01X-6500Y-2550D02*
Y-2500D01*
G01X-6250Y-4000D02*
X-6500Y-2500D01*
X-6750Y-4000D01*
X-6250D01*
G01X-1000Y0D02*
X-7500D01*
G01X-6500Y550D02*
Y0D01*
G01X-6750Y1500D02*
X-6500Y0D01*
X-6250Y1500D01*
X-6750D01*
G01X-8000Y39500D02*
X-2500D01*
X-4000Y40000D01*
Y39000D01*
X-2500Y39500D01*
G01X-5500Y38000D02*
X-1500D01*
X-3000Y38500D01*
Y37500D01*
X-1500Y38000D01*
G01X-2500Y5500D02*
Y-17500D01*
G01X13250Y-16500D02*
X-2500D01*
G01X-1000Y-16250D02*
X-2500Y-16500D01*
X-1000Y-16750D01*
Y-16250D01*
G01X-2500Y-500D02*
Y-14000D01*
G01X-2370Y-13000D02*
X-2500D01*
G01X-4000Y-13250D02*
X-2500Y-13000D01*
X-4000Y-12750D01*
Y-13250D01*
G01X0Y-2500D02*
X32500D01*
X35000Y0D01*
Y3000D01*
G02X35350Y3860I1213J8D01*
G01X35500Y4000D01*
X36140Y4640D01*
G03X36500Y5500I-850J861D01*
G01Y13000D01*
X34000Y15000D01*
Y17000D01*
G02X34500I250J0D01*
G01Y15500D01*
X35000Y15000D01*
X36000D01*
X36500Y15500D01*
Y21500D01*
G03X36000Y22000I-500J0D01*
G01X35000D01*
G03X34500Y21500I0J-500D01*
G01Y19000D01*
G02X34000I-250J0D01*
G01Y22500D01*
X34500Y23000D01*
X36000D01*
X36500Y23500D01*
Y38000D01*
G03X34500Y40000I-2000J0D01*
G02X24500Y41000I0J50500D01*
G01X-2500D01*
Y0D01*
G03X0Y-2500I2500J0D01*
G01X-4000Y36500D02*
X-1000D01*
X-3000Y37000D01*
Y36000D01*
X-1000Y36500D01*
G01X-2500Y42000D02*
Y47500D01*
G01X6750Y46500D02*
X-2500D01*
G01X-1000Y46750D02*
X-2500Y46500D01*
X-1000Y46250D01*
Y46750D01*
G01X0Y-1000D02*
Y-14000D01*
G01X12250Y-13000D02*
X0D01*
G01X1500Y-12750D02*
X0Y-13000D01*
X1500Y-13250D01*
Y-12750D01*
G01X0Y-1000D02*
Y-14000D01*
G01X3000Y-13000D02*
X0D01*
G01X1500Y-12750D02*
X0Y-13000D01*
X1500Y-13250D01*
Y-12750D01*
G01X30Y41500D02*
X190Y42000D01*
X350Y41500D01*
G01X290Y41670D02*
X90D01*
G01X700Y41500D02*
Y42000D01*
G01X1210Y41500D02*
Y42000D01*
G01X3600Y-2980D02*
X4100Y-3140D01*
X3600Y-3300D01*
G01X3770Y-3240D02*
Y-3040D01*
G01X3600Y-3650D02*
X4100D01*
G01X3600Y-4160D02*
X4100D01*
G01X3690Y42000D02*
Y41500D01*
G01X3540Y42000D02*
X3840D01*
G01X4200Y41500D02*
X4160Y41510D01*
X4120Y41540D01*
X4100Y41600D01*
X4090Y41670D01*
X4100Y41730D01*
X4120Y41790D01*
X4160Y41820D01*
X4200Y41830D01*
X4240Y41820D01*
X4280Y41790D01*
X4300Y41730D01*
X4310Y41670D01*
X4300Y41600D01*
X4280Y41540D01*
X4240Y41510D01*
X4200Y41500D01*
G01X4600Y41330D02*
Y41830D01*
G01Y41760D02*
X4630Y41800D01*
X4660Y41820D01*
X4710Y41830D01*
X4750Y41820D01*
X4800Y41780D01*
X4820Y41720D01*
Y41670D01*
Y41610D01*
X4800Y41550D01*
X4760Y41520D01*
X4710Y41500D01*
X4670Y41510D01*
X4620Y41530D01*
X4600Y41570D01*
G01X7100Y-3140D02*
X6600D01*
G01X7100Y-2990D02*
Y-3290D01*
G01X6600Y-3650D02*
X6610Y-3610D01*
X6640Y-3570D01*
X6700Y-3550D01*
X6770Y-3540D01*
X6830Y-3550D01*
X6890Y-3570D01*
X6920Y-3610D01*
X6930Y-3650D01*
X6920Y-3690D01*
X6890Y-3730D01*
X6830Y-3750D01*
X6770Y-3760D01*
X6700Y-3750D01*
X6640Y-3730D01*
X6610Y-3690D01*
X6600Y-3650D01*
G01X6430Y-4050D02*
X6930D01*
G01X6860D02*
X6900Y-4080D01*
X6920Y-4110D01*
X6930Y-4160D01*
X6920Y-4200D01*
X6880Y-4250D01*
X6820Y-4270D01*
X6770D01*
X6710D01*
X6650Y-4250D01*
X6620Y-4210D01*
X6600Y-4160D01*
X6610Y-4120D01*
X6630Y-4070D01*
X6670Y-4050D01*
G01X9870Y-3190D02*
X9890Y-3220D01*
X9930Y-3230D01*
X9990Y-3250D01*
X10040Y-3230D01*
X10070Y-3210D01*
X10100Y-3170D01*
Y-2990D01*
X9600D01*
Y-3200D01*
X9630Y-3250D01*
X9680Y-3270D01*
X9740Y-3290D01*
X9800Y-3270D01*
X9850Y-3230D01*
X9870Y-3190D01*
Y-2990D01*
G01X9600Y-3650D02*
X9610Y-3610D01*
X9640Y-3570D01*
X9700Y-3550D01*
X9770Y-3540D01*
X9830Y-3550D01*
X9890Y-3570D01*
X9920Y-3610D01*
X9930Y-3650D01*
X9920Y-3690D01*
X9890Y-3730D01*
X9830Y-3750D01*
X9770Y-3760D01*
X9700Y-3750D01*
X9640Y-3730D01*
X9610Y-3690D01*
X9600Y-3650D01*
G01X10100Y-4160D02*
X9600D01*
G01X9930Y-4070D02*
Y-4250D01*
G01X9600Y-4670D02*
X9610Y-4630D01*
X9640Y-4590D01*
X9700Y-4570D01*
X9770Y-4560D01*
X9830Y-4570D01*
X9890Y-4590D01*
X9920Y-4630D01*
X9930Y-4670D01*
X9920Y-4710D01*
X9890Y-4750D01*
X9830Y-4770D01*
X9770Y-4780D01*
X9700Y-4770D01*
X9640Y-4750D01*
X9610Y-4710D01*
X9600Y-4670D01*
G01Y-4990D02*
X9930D01*
G01X9840D02*
X9880Y-5010D01*
X9920Y-5040D01*
X9930Y-5090D01*
X9920Y-5130D01*
X9880Y-5160D01*
X9840Y-5180D01*
X9600D01*
G01X9840D02*
X9880Y-5200D01*
X9920Y-5230D01*
X9930Y-5270D01*
X9920Y-5320D01*
X9880Y-5350D01*
X9830Y-5370D01*
X9600D01*
G01X9560Y42500D02*
Y43000D01*
X9720D01*
X9770Y42970D01*
X9800Y42940D01*
X9820Y42870D01*
X9800Y42810D01*
X9770Y42770D01*
X9720Y42740D01*
X9560D01*
G01X9720D02*
X9820Y42500D01*
G01X10200D02*
X10160Y42510D01*
X10120Y42540D01*
X10100Y42600D01*
X10090Y42670D01*
X10100Y42730D01*
X10120Y42790D01*
X10160Y42820D01*
X10200Y42830D01*
X10240Y42820D01*
X10280Y42790D01*
X10300Y42730D01*
X10310Y42670D01*
X10300Y42600D01*
X10280Y42540D01*
X10240Y42510D01*
X10200Y42500D01*
G01X10600Y42830D02*
Y42600D01*
X10630Y42540D01*
X10670Y42510D01*
X10710Y42500D01*
X10750Y42510D01*
X10790Y42540D01*
X10820Y42600D01*
G01Y42500D02*
Y42830D01*
G01X11220Y43000D02*
Y42500D01*
G01X11130Y42830D02*
X11310D01*
G01X11640Y42720D02*
X11840D01*
X11820Y42780D01*
X11790Y42820D01*
X11740Y42830D01*
X11700Y42820D01*
X11660Y42800D01*
X11640Y42740D01*
X11620Y42690D01*
Y42640D01*
X11640Y42590D01*
X11670Y42540D01*
X11700Y42510D01*
X11750Y42500D01*
X11790Y42520D01*
X11840Y42570D01*
G01X12610Y42500D02*
Y43000D01*
G01X12850D02*
X12610Y42690D01*
G01X12890Y42500D02*
X12720Y42830D01*
G01X13170Y42720D02*
X13370D01*
X13350Y42780D01*
X13320Y42820D01*
X13270Y42830D01*
X13230Y42820D01*
X13190Y42800D01*
X13170Y42740D01*
X13150Y42690D01*
Y42640D01*
X13170Y42590D01*
X13200Y42540D01*
X13230Y42510D01*
X13280Y42500D01*
X13320Y42520D01*
X13370Y42570D01*
G01X13680Y42720D02*
X13880D01*
X13860Y42780D01*
X13830Y42820D01*
X13780Y42830D01*
X13740Y42820D01*
X13700Y42800D01*
X13680Y42740D01*
X13660Y42690D01*
Y42640D01*
X13680Y42590D01*
X13710Y42540D01*
X13740Y42510D01*
X13790Y42500D01*
X13830Y42520D01*
X13880Y42570D01*
G01X14170Y42330D02*
Y42830D01*
G01Y42760D02*
X14200Y42800D01*
X14230Y42820D01*
X14280Y42830D01*
X14320Y42820D01*
X14370Y42780D01*
X14390Y42720D01*
Y42670D01*
Y42610D01*
X14370Y42550D01*
X14330Y42520D01*
X14280Y42500D01*
X14240Y42510D01*
X14190Y42530D01*
X14170Y42570D01*
G01X14710Y42670D02*
X14870D01*
G01X15300Y42500D02*
X15260Y42510D01*
X15220Y42540D01*
X15200Y42600D01*
X15190Y42670D01*
X15200Y42730D01*
X15220Y42790D01*
X15260Y42820D01*
X15300Y42830D01*
X15340Y42820D01*
X15380Y42790D01*
X15400Y42730D01*
X15410Y42670D01*
X15400Y42600D01*
X15380Y42540D01*
X15340Y42510D01*
X15300Y42500D01*
G01X15700Y42830D02*
Y42600D01*
X15730Y42540D01*
X15770Y42510D01*
X15810Y42500D01*
X15850Y42510D01*
X15890Y42540D01*
X15920Y42600D01*
G01Y42500D02*
Y42830D01*
G01X16320Y43000D02*
Y42500D01*
G01X16230Y42830D02*
X16410D01*
G01X7230Y41750D02*
X7350D01*
Y41600D01*
X7320Y41550D01*
X7270Y41520D01*
X7210Y41500D01*
X7150Y41520D01*
X7100Y41550D01*
X7060Y41600D01*
X7040Y41660D01*
X7030Y41720D01*
Y41780D01*
X7040Y41830D01*
X7060Y41890D01*
X7100Y41940D01*
X7140Y41970D01*
X7190Y42000D01*
X7230D01*
X7280Y41980D01*
X7320Y41950D01*
G01X7550Y41500D02*
Y42000D01*
X7850Y41500D01*
Y42000D01*
G01X8070Y41500D02*
Y42000D01*
X8200D01*
X8250Y41970D01*
X8290Y41940D01*
X8320Y41890D01*
X8340Y41830D01*
X8350Y41750D01*
X8340Y41670D01*
X8320Y41610D01*
X8290Y41560D01*
X8250Y41520D01*
X8200Y41500D01*
X8070D01*
G01X7840Y46910D02*
X7930Y47040D01*
X8040Y47100D01*
X8170Y47120D01*
X8320Y47080D01*
X8430Y46970D01*
X8460Y46850D01*
X8450Y46720D01*
X8380Y46620D01*
X8070Y46410D01*
X7930Y46270D01*
X7840Y46060D01*
X7810Y45870D01*
X8460D01*
G01X9370Y45830D02*
X9340Y45850D01*
Y45890D01*
X9370Y45910D01*
X9410Y45890D01*
Y45850D01*
X9370Y45830D01*
G01X10580Y45870D02*
X10610Y46140D01*
X10660Y46370D01*
X10720Y46580D01*
X10800Y46810D01*
X10930Y47120D01*
X10300D01*
G01X11850D02*
X11730Y47080D01*
X11640Y46970D01*
X11580Y46850D01*
X11530Y46680D01*
X11510Y46490D01*
X11530Y46310D01*
X11580Y46140D01*
X11640Y46020D01*
X11730Y45910D01*
X11850Y45870D01*
X11980Y45910D01*
X12070Y46020D01*
X12130Y46140D01*
X12180Y46310D01*
X12200Y46490D01*
X12180Y46680D01*
X12130Y46850D01*
X12070Y46970D01*
X11980Y47080D01*
X11850Y47120D01*
G01X11600Y-2980D02*
X12100D01*
X11680Y-3140D01*
X12100Y-3300D01*
X11600D01*
G01Y-3490D02*
X12100Y-3650D01*
X11600Y-3810D01*
G01X11770Y-3750D02*
Y-3550D01*
G01X11600Y-4030D02*
X12100Y-4290D01*
G01Y-4030D02*
X11600Y-4290D01*
G01Y-5050D02*
X12100D01*
G01Y-5310D02*
X11600D01*
G01X11850D02*
Y-5050D01*
G01X12100Y-5690D02*
X11600D01*
G01X12100Y-5540D02*
Y-5840D01*
G01X11580Y-6200D02*
X11590Y-6190D01*
X11610D01*
X11620Y-6200D01*
X11610Y-6210D01*
X11590D01*
X11580Y-6200D01*
G01X11810D02*
X11820Y-6190D01*
X11830D01*
X11840Y-6200D01*
X11830Y-6210D01*
X11820D01*
X11810Y-6200D01*
G01X11600Y-7220D02*
X12100D01*
X12000Y-7140D01*
G01X11600D02*
Y-7300D01*
G01X12100Y-7730D02*
X12080Y-7680D01*
X12040Y-7640D01*
X11990Y-7620D01*
X11920Y-7600D01*
X11850Y-7590D01*
X11770Y-7600D01*
X11710Y-7620D01*
X11660Y-7640D01*
X11620Y-7680D01*
X11600Y-7730D01*
X11620Y-7780D01*
X11660Y-7820D01*
X11710Y-7840D01*
X11770Y-7860D01*
X11850Y-7870D01*
X11920Y-7860D01*
X11990Y-7840D01*
X12040Y-7820D01*
X12080Y-7780D01*
X12100Y-7730D01*
G01Y-8240D02*
X12080Y-8190D01*
X12040Y-8150D01*
X11990Y-8130D01*
X11920Y-8110D01*
X11850Y-8100D01*
X11770Y-8110D01*
X11710Y-8130D01*
X11660Y-8150D01*
X11620Y-8190D01*
X11600Y-8240D01*
X11620Y-8290D01*
X11660Y-8330D01*
X11710Y-8350D01*
X11770Y-8370D01*
X11850Y-8380D01*
X11920Y-8370D01*
X11990Y-8350D01*
X12040Y-8330D01*
X12080Y-8290D01*
X12100Y-8240D01*
G01X12870Y-3190D02*
X12890Y-3220D01*
X12930Y-3230D01*
X12990Y-3250D01*
X13040Y-3230D01*
X13070Y-3210D01*
X13100Y-3170D01*
Y-2990D01*
X12600D01*
Y-3200D01*
X12630Y-3250D01*
X12680Y-3270D01*
X12740Y-3290D01*
X12800Y-3270D01*
X12850Y-3230D01*
X12870Y-3190D01*
Y-2990D01*
G01X12600Y-3650D02*
X12610Y-3610D01*
X12640Y-3570D01*
X12700Y-3550D01*
X12770Y-3540D01*
X12830Y-3550D01*
X12890Y-3570D01*
X12920Y-3610D01*
X12930Y-3650D01*
X12920Y-3690D01*
X12890Y-3730D01*
X12830Y-3750D01*
X12770Y-3760D01*
X12700Y-3750D01*
X12640Y-3730D01*
X12610Y-3690D01*
X12600Y-3650D01*
G01X13100Y-4160D02*
X12600D01*
G01X12930Y-4070D02*
Y-4250D01*
G01X13100Y-4670D02*
X12600D01*
G01X12930Y-4580D02*
Y-4760D01*
G01X12600Y-5180D02*
X12610Y-5140D01*
X12640Y-5100D01*
X12700Y-5080D01*
X12770Y-5070D01*
X12830Y-5080D01*
X12890Y-5100D01*
X12920Y-5140D01*
X12930Y-5180D01*
X12920Y-5220D01*
X12890Y-5260D01*
X12830Y-5280D01*
X12770Y-5290D01*
X12700Y-5280D01*
X12640Y-5260D01*
X12610Y-5220D01*
X12600Y-5180D01*
G01Y-5500D02*
X12930D01*
G01X12840D02*
X12880Y-5520D01*
X12920Y-5550D01*
X12930Y-5600D01*
X12920Y-5640D01*
X12880Y-5670D01*
X12840Y-5690D01*
X12600D01*
G01X12840D02*
X12880Y-5710D01*
X12920Y-5740D01*
X12930Y-5780D01*
X12920Y-5830D01*
X12880Y-5860D01*
X12830Y-5880D01*
X12600D01*
G01X10600Y-2980D02*
X11100D01*
X10680Y-3140D01*
X11100Y-3300D01*
X10600D01*
G01X11100Y-3570D02*
Y-3730D01*
G01Y-3650D02*
X10600D01*
G01Y-3570D02*
Y-3730D01*
G01Y-4010D02*
X11100D01*
X10600Y-4310D01*
X11100D01*
G01X10600Y-5050D02*
X11100D01*
G01Y-5310D02*
X10600D01*
G01X10850D02*
Y-5050D01*
G01X11100Y-5690D02*
X10600D01*
G01X11100Y-5540D02*
Y-5840D01*
G01X10580Y-6200D02*
X10590Y-6190D01*
X10610D01*
X10620Y-6200D01*
X10610Y-6210D01*
X10590D01*
X10580Y-6200D01*
G01X10810D02*
X10820Y-6190D01*
X10830D01*
X10840Y-6200D01*
X10830Y-6210D01*
X10820D01*
X10810Y-6200D01*
G01X11020Y-7100D02*
X11070Y-7140D01*
X11090Y-7180D01*
X11100Y-7230D01*
X11080Y-7300D01*
X11040Y-7340D01*
X10990Y-7350D01*
X10940D01*
X10900Y-7320D01*
X10820Y-7190D01*
X10760Y-7140D01*
X10670Y-7100D01*
X10600Y-7090D01*
Y-7350D01*
G01X10670Y-7590D02*
X10630Y-7630D01*
X10610Y-7670D01*
X10600Y-7730D01*
X10620Y-7790D01*
X10650Y-7830D01*
X10710Y-7860D01*
X10770Y-7870D01*
X10840Y-7860D01*
X10880Y-7820D01*
X10920Y-7780D01*
Y-7740D01*
Y-7690D01*
X10880Y-7640D01*
X11100Y-7650D01*
Y-7820D01*
G01X10610Y42000D02*
X10770D01*
G01X10690D02*
Y41500D01*
G01X10610D02*
X10770D01*
G01X11070Y41570D02*
X11120Y41520D01*
X11170Y41500D01*
X11230D01*
X11280Y41520D01*
X11310Y41570D01*
X11330Y41630D01*
X11320Y41680D01*
X11290Y41730D01*
X11230Y41770D01*
X11160Y41780D01*
X11110Y41820D01*
X11090Y41870D01*
X11110Y41930D01*
X11140Y41970D01*
X11180Y42000D01*
X11230D01*
X11270Y41980D01*
X11310Y41940D01*
G01X11710Y41500D02*
Y42000D01*
X11630Y41900D01*
G01Y41500D02*
X11790D01*
G01X14290Y-16880D02*
X14390Y-17030D01*
X14510Y-17110D01*
X14650Y-17130D01*
X14770Y-17110D01*
X14900Y-17010D01*
X14980Y-16880D01*
X14990Y-16760D01*
X14960Y-16610D01*
X14850Y-16510D01*
X14740Y-16460D01*
X14600D01*
G01X14740D02*
X14840Y-16400D01*
X14910Y-16300D01*
X14950Y-16170D01*
X14910Y-16050D01*
X14840Y-15940D01*
X14700Y-15880D01*
X14560Y-15900D01*
X14420Y-15980D01*
G01X15870Y-17170D02*
X15840Y-17150D01*
Y-17110D01*
X15870Y-17090D01*
X15910Y-17110D01*
Y-17150D01*
X15870Y-17170D01*
G01X16850Y-16980D02*
X16960Y-17090D01*
X17080Y-17130D01*
X17210Y-17090D01*
X17320Y-16960D01*
X17390Y-16780D01*
X17430Y-16590D01*
Y-16360D01*
X17390Y-16170D01*
X17320Y-16010D01*
X17220Y-15920D01*
X17110Y-15880D01*
X16990Y-15920D01*
X16900Y-16010D01*
X16840Y-16130D01*
X16800Y-16300D01*
X16840Y-16440D01*
X16910Y-16590D01*
X17010Y-16670D01*
X17110Y-16690D01*
X17240Y-16650D01*
X17330Y-16550D01*
X17430Y-16360D01*
G01X18350Y-15880D02*
X18230Y-15920D01*
X18140Y-16030D01*
X18080Y-16150D01*
X18030Y-16320D01*
X18010Y-16510D01*
X18030Y-16690D01*
X18080Y-16860D01*
X18140Y-16980D01*
X18230Y-17090D01*
X18350Y-17130D01*
X18480Y-17090D01*
X18570Y-16980D01*
X18630Y-16860D01*
X18680Y-16690D01*
X18700Y-16510D01*
X18680Y-16320D01*
X18630Y-16150D01*
X18570Y-16030D01*
X18480Y-15920D01*
X18350Y-15880D01*
G01X13290Y-13380D02*
X13390Y-13530D01*
X13510Y-13610D01*
X13650Y-13630D01*
X13770Y-13610D01*
X13900Y-13510D01*
X13980Y-13380D01*
X13990Y-13260D01*
X13960Y-13110D01*
X13850Y-13010D01*
X13740Y-12960D01*
X13600D01*
G01X13740D02*
X13840Y-12900D01*
X13910Y-12800D01*
X13950Y-12670D01*
X13910Y-12550D01*
X13840Y-12440D01*
X13700Y-12380D01*
X13560Y-12400D01*
X13420Y-12480D01*
G01X14870Y-13670D02*
X14840Y-13650D01*
Y-13610D01*
X14870Y-13590D01*
X14910Y-13610D01*
Y-13650D01*
X14870Y-13670D01*
G01X16110Y-12380D02*
X15990Y-12420D01*
X15900Y-12530D01*
X15840Y-12650D01*
X15790Y-12820D01*
X15770Y-13010D01*
X15790Y-13190D01*
X15840Y-13360D01*
X15900Y-13480D01*
X15990Y-13590D01*
X16110Y-13630D01*
X16240Y-13590D01*
X16330Y-13480D01*
X16390Y-13360D01*
X16440Y-13190D01*
X16460Y-13010D01*
X16440Y-12820D01*
X16390Y-12650D01*
X16330Y-12530D01*
X16240Y-12420D01*
X16110Y-12380D01*
G01X17350D02*
X17230Y-12420D01*
X17140Y-12530D01*
X17080Y-12650D01*
X17030Y-12820D01*
X17010Y-13010D01*
X17030Y-13190D01*
X17080Y-13360D01*
X17140Y-13480D01*
X17230Y-13590D01*
X17350Y-13630D01*
X17480Y-13590D01*
X17570Y-13480D01*
X17630Y-13360D01*
X17680Y-13190D01*
X17700Y-13010D01*
X17680Y-12820D01*
X17630Y-12650D01*
X17570Y-12530D01*
X17480Y-12420D01*
X17350Y-12380D01*
G01X14600Y-2980D02*
X15100D01*
X14680Y-3140D01*
X15100Y-3300D01*
X14600D01*
G01Y-3490D02*
X15100Y-3650D01*
X14600Y-3810D01*
G01X14770Y-3750D02*
Y-3550D01*
G01X14600Y-4030D02*
X15100Y-4290D01*
G01Y-4030D02*
X14600Y-4290D01*
G01Y-5050D02*
X15100D01*
G01Y-5310D02*
X14600D01*
G01X14850D02*
Y-5050D01*
G01X15100Y-5690D02*
X14600D01*
G01X15100Y-5540D02*
Y-5840D01*
G01X14580Y-6200D02*
X14590Y-6190D01*
X14610D01*
X14620Y-6200D01*
X14610Y-6210D01*
X14590D01*
X14580Y-6200D01*
G01X14810D02*
X14820Y-6190D01*
X14830D01*
X14840Y-6200D01*
X14830Y-6210D01*
X14820D01*
X14810Y-6200D01*
G01X15020Y-7100D02*
X15070Y-7140D01*
X15090Y-7180D01*
X15100Y-7230D01*
X15080Y-7300D01*
X15040Y-7340D01*
X14990Y-7350D01*
X14940D01*
X14900Y-7320D01*
X14820Y-7190D01*
X14760Y-7140D01*
X14670Y-7100D01*
X14600Y-7090D01*
Y-7350D01*
G01X15100Y-7730D02*
X15080Y-7680D01*
X15040Y-7640D01*
X14990Y-7620D01*
X14920Y-7600D01*
X14850Y-7590D01*
X14770Y-7600D01*
X14710Y-7620D01*
X14660Y-7640D01*
X14620Y-7680D01*
X14600Y-7730D01*
X14620Y-7780D01*
X14660Y-7820D01*
X14710Y-7840D01*
X14770Y-7860D01*
X14850Y-7870D01*
X14920Y-7860D01*
X14990Y-7840D01*
X15040Y-7820D01*
X15080Y-7780D01*
X15100Y-7730D01*
G01Y-8240D02*
X15080Y-8190D01*
X15040Y-8150D01*
X14990Y-8130D01*
X14920Y-8110D01*
X14850Y-8100D01*
X14770Y-8110D01*
X14710Y-8130D01*
X14660Y-8150D01*
X14620Y-8190D01*
X14600Y-8240D01*
X14620Y-8290D01*
X14660Y-8330D01*
X14710Y-8350D01*
X14770Y-8370D01*
X14850Y-8380D01*
X14920Y-8370D01*
X14990Y-8350D01*
X15040Y-8330D01*
X15080Y-8290D01*
X15100Y-8240D01*
G01X13600Y-2980D02*
X14100D01*
X13680Y-3140D01*
X14100Y-3300D01*
X13600D01*
G01X14100Y-3570D02*
Y-3730D01*
G01Y-3650D02*
X13600D01*
G01Y-3570D02*
Y-3730D01*
G01Y-4010D02*
X14100D01*
X13600Y-4310D01*
X14100D01*
G01X13600Y-5050D02*
X14100D01*
G01Y-5310D02*
X13600D01*
G01X13850D02*
Y-5050D01*
G01X14100Y-5690D02*
X13600D01*
G01X14100Y-5540D02*
Y-5840D01*
G01X13580Y-6200D02*
X13590Y-6190D01*
X13610D01*
X13620Y-6200D01*
X13610Y-6210D01*
X13590D01*
X13580Y-6200D01*
G01X13810D02*
X13820Y-6190D01*
X13830D01*
X13840Y-6200D01*
X13830Y-6210D01*
X13820D01*
X13810Y-6200D01*
G01X13670Y-7080D02*
X13630Y-7120D01*
X13610Y-7160D01*
X13600Y-7220D01*
X13620Y-7280D01*
X13650Y-7320D01*
X13710Y-7350D01*
X13770Y-7360D01*
X13840Y-7350D01*
X13880Y-7310D01*
X13920Y-7270D01*
Y-7230D01*
Y-7180D01*
X13880Y-7130D01*
X14100Y-7140D01*
Y-7310D01*
G01Y-7730D02*
X14080Y-7680D01*
X14040Y-7640D01*
X13990Y-7620D01*
X13920Y-7600D01*
X13850Y-7590D01*
X13770Y-7600D01*
X13710Y-7620D01*
X13660Y-7640D01*
X13620Y-7680D01*
X13600Y-7730D01*
X13620Y-7780D01*
X13660Y-7820D01*
X13710Y-7840D01*
X13770Y-7860D01*
X13850Y-7870D01*
X13920Y-7860D01*
X13990Y-7840D01*
X14040Y-7820D01*
X14080Y-7780D01*
X14100Y-7730D01*
G01X16100Y-3140D02*
X15600D01*
G01X16100Y-2990D02*
Y-3290D01*
G01X15600Y-3650D02*
X15610Y-3610D01*
X15640Y-3570D01*
X15700Y-3550D01*
X15770Y-3540D01*
X15830Y-3550D01*
X15890Y-3570D01*
X15920Y-3610D01*
X15930Y-3650D01*
X15920Y-3690D01*
X15890Y-3730D01*
X15830Y-3750D01*
X15770Y-3760D01*
X15700Y-3750D01*
X15640Y-3730D01*
X15610Y-3690D01*
X15600Y-3650D01*
G01X15430Y-4050D02*
X15930D01*
G01X15860D02*
X15900Y-4080D01*
X15920Y-4110D01*
X15930Y-4160D01*
X15920Y-4200D01*
X15880Y-4250D01*
X15820Y-4270D01*
X15770D01*
X15710D01*
X15650Y-4250D01*
X15620Y-4210D01*
X15600Y-4160D01*
X15610Y-4120D01*
X15630Y-4070D01*
X15670Y-4050D01*
G01X14110Y42000D02*
X14270D01*
G01X14190D02*
Y41500D01*
G01X14110D02*
X14270D01*
G01X14570Y41570D02*
X14620Y41520D01*
X14670Y41500D01*
X14730D01*
X14780Y41520D01*
X14810Y41570D01*
X14830Y41630D01*
X14820Y41680D01*
X14790Y41730D01*
X14730Y41770D01*
X14660Y41780D01*
X14610Y41820D01*
X14590Y41870D01*
X14610Y41930D01*
X14640Y41970D01*
X14680Y42000D01*
X14730D01*
X14770Y41980D01*
X14810Y41940D01*
G01X15090Y41920D02*
X15130Y41970D01*
X15170Y41990D01*
X15220Y42000D01*
X15290Y41980D01*
X15330Y41940D01*
X15340Y41890D01*
Y41840D01*
X15310Y41800D01*
X15180Y41720D01*
X15130Y41660D01*
X15090Y41570D01*
X15080Y41500D01*
X15340D01*
G01X13250Y46500D02*
X24500D01*
G01X18750Y-13000D02*
X30000D01*
G01X16600Y-2980D02*
X17100D01*
X16680Y-3140D01*
X17100Y-3300D01*
X16600D01*
G01X17100Y-3570D02*
Y-3730D01*
G01Y-3650D02*
X16600D01*
G01Y-3570D02*
Y-3730D01*
G01Y-4010D02*
X17100D01*
X16600Y-4310D01*
X17100D01*
G01X16600Y-5050D02*
X17100D01*
G01Y-5310D02*
X16600D01*
G01X16850D02*
Y-5050D01*
G01X17100Y-5690D02*
X16600D01*
G01X17100Y-5540D02*
Y-5840D01*
G01X16580Y-6710D02*
X16590Y-6700D01*
X16610D01*
X16620Y-6710D01*
X16610Y-6720D01*
X16590D01*
X16580Y-6710D01*
G01X16810D02*
X16820Y-6700D01*
X16830D01*
X16840Y-6710D01*
X16830Y-6720D01*
X16820D01*
X16810Y-6710D01*
G01X16600Y-7720D02*
X16710Y-7730D01*
X16800Y-7750D01*
X16880Y-7770D01*
X16970Y-7810D01*
X17100Y-7860D01*
Y-7600D01*
G01X16670Y-8100D02*
X16630Y-8140D01*
X16610Y-8180D01*
X16600Y-8240D01*
X16620Y-8300D01*
X16650Y-8340D01*
X16710Y-8370D01*
X16770Y-8380D01*
X16840Y-8370D01*
X16880Y-8330D01*
X16920Y-8290D01*
Y-8250D01*
Y-8200D01*
X16880Y-8150D01*
X17100Y-8160D01*
Y-8330D01*
G01X17600Y-2980D02*
X18100D01*
X17680Y-3140D01*
X18100Y-3300D01*
X17600D01*
G01Y-3490D02*
X18100Y-3650D01*
X17600Y-3810D01*
G01X17770Y-3750D02*
Y-3550D01*
G01X17600Y-4030D02*
X18100Y-4290D01*
G01Y-4030D02*
X17600Y-4290D01*
G01Y-5050D02*
X18100D01*
G01Y-5310D02*
X17600D01*
G01X17850D02*
Y-5050D01*
G01X18100Y-5690D02*
X17600D01*
G01X18100Y-5540D02*
Y-5840D01*
G01X17580Y-6200D02*
X17590Y-6190D01*
X17610D01*
X17620Y-6200D01*
X17610Y-6210D01*
X17590D01*
X17580Y-6200D01*
G01X17810D02*
X17820Y-6190D01*
X17830D01*
X17840Y-6200D01*
X17830Y-6210D01*
X17820D01*
X17810Y-6200D01*
G01X17700Y-7080D02*
X17640Y-7120D01*
X17610Y-7170D01*
X17600Y-7230D01*
X17610Y-7280D01*
X17650Y-7330D01*
X17700Y-7360D01*
X17750Y-7370D01*
X17810Y-7350D01*
X17850Y-7310D01*
X17870Y-7260D01*
Y-7210D01*
G01Y-7260D02*
X17890Y-7300D01*
X17930Y-7330D01*
X17980Y-7350D01*
X18030Y-7330D01*
X18070Y-7300D01*
X18100Y-7250D01*
X18090Y-7190D01*
X18060Y-7130D01*
G01X18100Y-7730D02*
X18080Y-7680D01*
X18040Y-7640D01*
X17990Y-7620D01*
X17920Y-7600D01*
X17850Y-7590D01*
X17770Y-7600D01*
X17710Y-7620D01*
X17660Y-7640D01*
X17620Y-7680D01*
X17600Y-7730D01*
X17620Y-7780D01*
X17660Y-7820D01*
X17710Y-7840D01*
X17770Y-7860D01*
X17850Y-7870D01*
X17920Y-7860D01*
X17990Y-7840D01*
X18040Y-7820D01*
X18080Y-7780D01*
X18100Y-7730D01*
G01Y-8240D02*
X18080Y-8190D01*
X18040Y-8150D01*
X17990Y-8130D01*
X17920Y-8110D01*
X17850Y-8100D01*
X17770Y-8110D01*
X17710Y-8130D01*
X17660Y-8150D01*
X17620Y-8190D01*
X17600Y-8240D01*
X17620Y-8290D01*
X17660Y-8330D01*
X17710Y-8350D01*
X17770Y-8370D01*
X17850Y-8380D01*
X17920Y-8370D01*
X17990Y-8350D01*
X18040Y-8330D01*
X18080Y-8290D01*
X18100Y-8240D01*
G01X18600Y-2980D02*
X19100Y-3140D01*
X18600Y-3300D01*
G01X18770Y-3240D02*
Y-3040D01*
G01X18600Y-3650D02*
X19100D01*
G01X18600Y-4160D02*
X19100D01*
G01X17530Y42000D02*
X17690Y41500D01*
X17850Y42000D01*
G01X18340Y41960D02*
X18300Y41980D01*
X18260Y42000D01*
X18210D01*
X18150Y41970D01*
X18110Y41930D01*
X18070Y41880D01*
X18050Y41800D01*
X18040Y41720D01*
X18050Y41650D01*
X18070Y41600D01*
X18110Y41550D01*
X18160Y41520D01*
X18200Y41500D01*
X18240D01*
X18290Y41520D01*
X18330Y41540D01*
X18360Y41570D01*
G01X18850Y41960D02*
X18810Y41980D01*
X18770Y42000D01*
X18720D01*
X18660Y41970D01*
X18620Y41930D01*
X18580Y41880D01*
X18560Y41800D01*
X18550Y41720D01*
X18560Y41650D01*
X18580Y41600D01*
X18620Y41550D01*
X18670Y41520D01*
X18710Y41500D01*
X18750D01*
X18800Y41520D01*
X18840Y41540D01*
X18870Y41570D01*
G01X19750Y-16500D02*
X36500D01*
G01X21100Y-2980D02*
X21600Y-3140D01*
X21100Y-3300D01*
G01X21270Y-3240D02*
Y-3040D01*
G01X21100Y-3560D02*
X21430D01*
G01X21370D02*
X21400Y-3590D01*
X21420Y-3620D01*
X21430Y-3670D01*
X21420Y-3700D01*
X21400Y-3740D01*
G01X21390Y-4260D02*
X21420Y-4220D01*
X21430Y-4180D01*
X21420Y-4130D01*
X21380Y-4090D01*
X21320Y-4070D01*
X21270Y-4060D01*
X21210Y-4070D01*
X21160Y-4090D01*
X21120Y-4130D01*
X21100Y-4180D01*
X21120Y-4220D01*
X21150Y-4260D01*
G01X21600Y-5180D02*
X21100D01*
G01X21430Y-5090D02*
Y-5270D01*
G01X21100Y-5690D02*
X21110Y-5650D01*
X21140Y-5610D01*
X21200Y-5590D01*
X21270Y-5580D01*
X21330Y-5590D01*
X21390Y-5610D01*
X21420Y-5650D01*
X21430Y-5690D01*
X21420Y-5730D01*
X21390Y-5770D01*
X21330Y-5790D01*
X21270Y-5800D01*
X21200Y-5790D01*
X21140Y-5770D01*
X21110Y-5730D01*
X21100Y-5690D01*
G01X21560Y-6850D02*
X21580Y-6810D01*
X21600Y-6770D01*
Y-6720D01*
X21570Y-6660D01*
X21530Y-6620D01*
X21480Y-6580D01*
X21400Y-6560D01*
X21320Y-6550D01*
X21250Y-6560D01*
X21200Y-6580D01*
X21150Y-6620D01*
X21120Y-6670D01*
X21100Y-6710D01*
Y-6750D01*
X21120Y-6800D01*
X21140Y-6840D01*
X21170Y-6870D01*
G01X21430Y-7220D02*
X21100D01*
G01X21570D02*
Y-7210D01*
X21590D01*
X21600Y-7220D01*
X21590Y-7230D01*
X21570D01*
Y-7220D01*
G01X21100Y-7640D02*
X21430D01*
G01X21370D02*
X21400Y-7670D01*
X21420Y-7700D01*
X21430Y-7750D01*
X21420Y-7780D01*
X21400Y-7820D01*
G01X21390Y-8340D02*
X21420Y-8300D01*
X21430Y-8260D01*
X21420Y-8210D01*
X21380Y-8170D01*
X21320Y-8150D01*
X21270Y-8140D01*
X21210Y-8150D01*
X21160Y-8170D01*
X21120Y-8210D01*
X21100Y-8260D01*
X21120Y-8300D01*
X21150Y-8340D01*
G01X21100Y-8750D02*
X21600D01*
G01X21320Y-9170D02*
Y-9370D01*
X21380Y-9350D01*
X21420Y-9320D01*
X21430Y-9270D01*
X21420Y-9230D01*
X21400Y-9190D01*
X21340Y-9170D01*
X21290Y-9150D01*
X21240D01*
X21190Y-9170D01*
X21140Y-9200D01*
X21110Y-9230D01*
X21100Y-9280D01*
X21120Y-9320D01*
X21170Y-9370D01*
G01X21600Y-10280D02*
X21100D01*
G01X21600Y-10130D02*
Y-10430D01*
G01X21320Y-10700D02*
Y-10900D01*
X21380Y-10880D01*
X21420Y-10850D01*
X21430Y-10800D01*
X21420Y-10760D01*
X21400Y-10720D01*
X21340Y-10700D01*
X21290Y-10680D01*
X21240D01*
X21190Y-10700D01*
X21140Y-10730D01*
X21110Y-10760D01*
X21100Y-10810D01*
X21120Y-10850D01*
X21170Y-10900D01*
G01X21160Y-11210D02*
X21120Y-11240D01*
X21100Y-11280D01*
Y-11320D01*
X21120Y-11360D01*
X21140Y-11380D01*
X21170Y-11390D01*
X21230D01*
X21250Y-11360D01*
X21300Y-11250D01*
X21360Y-11220D01*
X21400Y-11240D01*
X21420Y-11260D01*
X21430Y-11300D01*
X21420Y-11340D01*
X21400Y-11380D01*
G01X21600Y-11810D02*
X21100D01*
G01X21430Y-11720D02*
Y-11900D01*
G01X20500Y1000D02*
G03Y0I0J-500D01*
G03Y1000I0J500D01*
G01X21500Y500D02*
G02X22500I500J0D01*
G02X21500I-500J0D01*
G01X20740Y41770D02*
X20770Y41790D01*
X20780Y41830D01*
X20800Y41890D01*
X20780Y41940D01*
X20760Y41970D01*
X20720Y42000D01*
X20540D01*
Y41500D01*
X20750D01*
X20800Y41530D01*
X20820Y41580D01*
X20840Y41640D01*
X20820Y41700D01*
X20780Y41750D01*
X20740Y41770D01*
X20540D01*
G01X21200Y41500D02*
X21160Y41510D01*
X21120Y41540D01*
X21100Y41600D01*
X21090Y41670D01*
X21100Y41730D01*
X21120Y41790D01*
X21160Y41820D01*
X21200Y41830D01*
X21240Y41820D01*
X21280Y41790D01*
X21300Y41730D01*
X21310Y41670D01*
X21300Y41600D01*
X21280Y41540D01*
X21240Y41510D01*
X21200Y41500D01*
G01X21710Y42000D02*
Y41500D01*
G01X21620Y41830D02*
X21800D01*
G01X22220Y42000D02*
Y41500D01*
G01X22130Y41830D02*
X22310D01*
G01X22730Y41500D02*
X22690Y41510D01*
X22650Y41540D01*
X22630Y41600D01*
X22620Y41670D01*
X22630Y41730D01*
X22650Y41790D01*
X22690Y41820D01*
X22730Y41830D01*
X22770Y41820D01*
X22810Y41790D01*
X22830Y41730D01*
X22840Y41670D01*
X22830Y41600D01*
X22810Y41540D01*
X22770Y41510D01*
X22730Y41500D01*
G01X23050D02*
Y41830D01*
G01Y41740D02*
X23070Y41780D01*
X23100Y41820D01*
X23150Y41830D01*
X23190Y41820D01*
X23220Y41780D01*
X23240Y41740D01*
Y41500D01*
G01Y41740D02*
X23260Y41780D01*
X23290Y41820D01*
X23330Y41830D01*
X23380Y41820D01*
X23410Y41780D01*
X23430Y41730D01*
Y41500D01*
G01X24500Y42000D02*
Y47500D01*
G01X23000Y46250D02*
X24500Y46500D01*
X23000Y46750D01*
Y46250D01*
G01X30000Y-1000D02*
Y-14000D01*
G01X28500Y-13250D02*
X30000Y-13000D01*
X28500Y-12750D01*
Y-13250D01*
G01X29750Y-9170D02*
X29720Y-9150D01*
Y-9110D01*
X29750Y-9090D01*
X29790Y-9110D01*
Y-9150D01*
X29750Y-9170D01*
G01X30650Y-8880D02*
X30750Y-9030D01*
X30870Y-9110D01*
X31010Y-9130D01*
X31130Y-9110D01*
X31260Y-9010D01*
X31340Y-8880D01*
X31350Y-8760D01*
X31320Y-8610D01*
X31210Y-8510D01*
X31100Y-8460D01*
X30960D01*
G01X31100D02*
X31200Y-8400D01*
X31270Y-8300D01*
X31310Y-8170D01*
X31270Y-8050D01*
X31200Y-7940D01*
X31060Y-7880D01*
X30920Y-7900D01*
X30780Y-7980D01*
G01X32230Y-7880D02*
X32110Y-7920D01*
X32020Y-8030D01*
X31960Y-8150D01*
X31910Y-8320D01*
X31890Y-8510D01*
X31910Y-8690D01*
X31960Y-8860D01*
X32020Y-8980D01*
X32110Y-9090D01*
X32230Y-9130D01*
X32360Y-9090D01*
X32450Y-8980D01*
X32510Y-8860D01*
X32560Y-8690D01*
X32580Y-8510D01*
X32560Y-8320D01*
X32510Y-8150D01*
X32450Y-8030D01*
X32360Y-7920D01*
X32230Y-7880D01*
G01X30000Y-1000D02*
Y-9500D01*
G01X28370Y-8500D02*
X30000D01*
G01X28500Y-8750D02*
X30000Y-8500D01*
X28500Y-8250D01*
Y-8750D01*
G01X33000Y11500D02*
G02X35500Y9000I0J-2500D01*
G02X33000Y6500I-2500J0D01*
G02X30500Y9000I0J2500D01*
G02X33000Y11500I2500J0D01*
G01X29780Y19300D02*
X33280Y22130D01*
G03X33350Y22830I-318J385D01*
G03X32650Y22910I-390J-312D01*
G01X29150Y20080D01*
G03X29080Y19370I314J-389D01*
G03X29780Y19300I385J318D01*
G01X29000Y23500D02*
X33500D01*
G03X34000Y24000I0J500D01*
G03X33500Y24500I-500J0D01*
G01X29000D01*
G03X28500Y24000I0J-500D01*
G03X29000Y23500I500J0D01*
G01X28530Y28470D02*
X31710Y25290D01*
G03X32410I350J357D01*
G03Y26000I-350J355D01*
G01X29230Y29180D01*
G03X28530I-350J-353D01*
G03Y28470I350J-355D01*
G01X34000Y31500D02*
Y32500D01*
X30500D01*
Y31500D01*
X34000D01*
G01X33000Y8000D02*
Y-9500D01*
G01X33630Y-8500D02*
X33000D01*
G01X34500Y-8250D02*
X33000Y-8500D01*
X34500Y-8750D01*
Y-8250D01*
G01X31000Y0D02*
X43000D01*
G01X31000D02*
X48000D01*
G01X34290Y30170D02*
X33660Y30950D01*
X30950Y28730D01*
X31580Y27960D01*
X34290Y30170D01*
G01X33500Y33000D02*
X34000Y33500D01*
X31500Y36000D01*
X31000Y35500D01*
X33500Y33000D01*
G01X31000Y37500D02*
X48000D01*
G01X36500Y4500D02*
Y-17500D01*
G01X35000Y-16750D02*
X36500Y-16500D01*
X35000Y-16250D01*
Y-16750D01*
G01X34000Y9000D02*
X43000D01*
G01X34500Y29000D02*
Y24500D01*
G03X35000Y24000I500J0D01*
G03X35500Y24500I0J500D01*
G01Y29000D01*
G03X35000Y29500I-500J0D01*
G03X34500Y29000I0J-500D01*
G01Y36000D02*
X35500D01*
Y31500D01*
X34500D01*
Y36000D01*
G01X42000Y2950D02*
Y0D01*
G01X41750Y1500D02*
X42000Y0D01*
X42250Y1500D01*
X41750D01*
G01X40750Y3830D02*
X40720Y3850D01*
Y3890D01*
X40750Y3910D01*
X40790Y3890D01*
Y3850D01*
X40750Y3830D01*
G01X41730Y4020D02*
X41840Y3910D01*
X41960Y3870D01*
X42090Y3910D01*
X42200Y4040D01*
X42270Y4220D01*
X42310Y4410D01*
Y4640D01*
X42270Y4830D01*
X42200Y4990D01*
X42100Y5080D01*
X41990Y5120D01*
X41870Y5080D01*
X41780Y4990D01*
X41720Y4870D01*
X41680Y4700D01*
X41720Y4560D01*
X41790Y4410D01*
X41890Y4330D01*
X41990Y4310D01*
X42120Y4350D01*
X42210Y4450D01*
X42310Y4640D01*
G01X43230Y5120D02*
X43110Y5080D01*
X43020Y4970D01*
X42960Y4850D01*
X42910Y4680D01*
X42890Y4490D01*
X42910Y4310D01*
X42960Y4140D01*
X43020Y4020D01*
X43110Y3910D01*
X43230Y3870D01*
X43360Y3910D01*
X43450Y4020D01*
X43510Y4140D01*
X43560Y4310D01*
X43580Y4490D01*
X43560Y4680D01*
X43510Y4850D01*
X43450Y4970D01*
X43360Y5080D01*
X43230Y5120D01*
G01X42000Y6050D02*
Y9000D01*
G01X42250Y7500D02*
X42000Y9000D01*
X41750Y7500D01*
X42250D01*
G01X44790Y16620D02*
X44890Y16470D01*
X45010Y16390D01*
X45150Y16370D01*
X45270Y16390D01*
X45400Y16490D01*
X45480Y16620D01*
X45490Y16740D01*
X45460Y16890D01*
X45350Y16990D01*
X45240Y17040D01*
X45100D01*
G01X45240D02*
X45340Y17100D01*
X45410Y17200D01*
X45450Y17330D01*
X45410Y17450D01*
X45340Y17560D01*
X45200Y17620D01*
X45060Y17600D01*
X44920Y17520D01*
G01X46370Y16330D02*
X46340Y16350D01*
Y16390D01*
X46370Y16410D01*
X46410Y16390D01*
Y16350D01*
X46370Y16330D01*
G01X47580Y16370D02*
X47610Y16640D01*
X47660Y16870D01*
X47720Y17080D01*
X47800Y17310D01*
X47930Y17620D01*
X47300D01*
G01X48510Y16560D02*
X48610Y16450D01*
X48720Y16390D01*
X48850Y16370D01*
X48990Y16410D01*
X49100Y16490D01*
X49180Y16640D01*
X49200Y16810D01*
X49170Y16970D01*
X49090Y17080D01*
X48980Y17160D01*
X48870Y17180D01*
X48760Y17160D01*
X48620Y17080D01*
X48670Y17620D01*
X49090D01*
G01X47000Y15450D02*
Y0D01*
G01X46750Y1500D02*
X47000Y0D01*
X47250Y1500D01*
X46750D01*
G01X47000Y18550D02*
Y37500D01*
G01X47250Y36000D02*
X47000Y37500D01*
X46750Y36000D01*
X47250D01*
G01X50690Y-34700D02*
Y-35200D01*
G01X50540Y-34700D02*
X50840D01*
G01X51200Y-35200D02*
X51150Y-35190D01*
X51110Y-35160D01*
X51070Y-35110D01*
X51040Y-35050D01*
X51030Y-34980D01*
Y-34920D01*
X51040Y-34850D01*
X51070Y-34790D01*
X51110Y-34740D01*
X51150Y-34710D01*
X51200Y-34700D01*
X51250Y-34710D01*
X51290Y-34740D01*
X51330Y-34790D01*
X51360Y-34850D01*
X51370Y-34920D01*
Y-34980D01*
X51360Y-35050D01*
X51330Y-35110D01*
X51290Y-35160D01*
X51250Y-35190D01*
X51200Y-35200D01*
G01X51710Y-34700D02*
Y-35200D01*
G01X51560Y-34700D02*
X51860D01*
G01X52060Y-35200D02*
X52220Y-34700D01*
X52380Y-35200D01*
G01X52320Y-35030D02*
X52120D01*
G01X52600Y-34700D02*
Y-35200D01*
X52860D01*
G01X53750Y-34700D02*
Y-35200D01*
G01X53600Y-34700D02*
X53900D01*
G01X54130Y-35200D02*
Y-34700D01*
G01X54390D02*
Y-35200D01*
G01Y-34950D02*
X54130D01*
G01X54690Y-34700D02*
X54850D01*
G01X54770D02*
Y-35200D01*
G01X54690D02*
X54850D01*
G01X55420Y-34740D02*
X55380Y-34720D01*
X55340Y-34700D01*
X55290D01*
X55230Y-34730D01*
X55190Y-34770D01*
X55150Y-34820D01*
X55130Y-34900D01*
X55120Y-34980D01*
X55130Y-35050D01*
X55150Y-35100D01*
X55190Y-35150D01*
X55240Y-35180D01*
X55280Y-35200D01*
X55320D01*
X55370Y-35180D01*
X55410Y-35160D01*
X55440Y-35130D01*
G01X55650Y-35200D02*
Y-34700D01*
G01X55890D02*
X55650Y-35010D01*
G01X55930Y-35200D02*
X55760Y-34870D01*
G01X56150Y-35200D02*
Y-34700D01*
X56450Y-35200D01*
Y-34700D01*
G01X56940Y-35200D02*
X56680D01*
Y-34700D01*
X56940D01*
G01X56840Y-34940D02*
X56680D01*
G01X57190Y-35130D02*
X57240Y-35180D01*
X57290Y-35200D01*
X57350D01*
X57400Y-35180D01*
X57430Y-35130D01*
X57450Y-35070D01*
X57440Y-35020D01*
X57410Y-34970D01*
X57350Y-34930D01*
X57280Y-34920D01*
X57230Y-34880D01*
X57210Y-34830D01*
X57230Y-34770D01*
X57260Y-34730D01*
X57300Y-34700D01*
X57350D01*
X57390Y-34720D01*
X57430Y-34760D01*
G01X57700Y-35130D02*
X57750Y-35180D01*
X57800Y-35200D01*
X57860D01*
X57910Y-35180D01*
X57940Y-35130D01*
X57960Y-35070D01*
X57950Y-35020D01*
X57920Y-34970D01*
X57860Y-34930D01*
X57790Y-34920D01*
X57740Y-34880D01*
X57720Y-34830D01*
X57740Y-34770D01*
X57770Y-34730D01*
X57810Y-34700D01*
X57860D01*
X57900Y-34720D01*
X57940Y-34760D01*
G01X58930Y-35200D02*
Y-34700D01*
X58690Y-35060D01*
X59010D01*
G01X59240Y-34990D02*
X59280Y-34930D01*
X59320Y-34900D01*
X59370Y-34880D01*
X59420Y-34900D01*
X59450Y-34930D01*
X59470Y-34980D01*
X59480Y-35040D01*
X59470Y-35090D01*
X59450Y-35140D01*
X59410Y-35180D01*
X59370Y-35200D01*
X59320Y-35180D01*
X59270Y-35130D01*
X59250Y-35060D01*
X59240Y-34980D01*
X59250Y-34870D01*
X59270Y-34810D01*
X59300Y-34750D01*
X59350Y-34710D01*
X59390Y-34700D01*
X59440Y-34720D01*
X59470Y-34760D01*
G01X60220Y-35200D02*
Y-34700D01*
X60380Y-35120D01*
X60540Y-34700D01*
Y-35200D01*
G01X60810Y-34700D02*
X60970D01*
G01X60890D02*
Y-35200D01*
G01X60810D02*
X60970D01*
G01X61270Y-34700D02*
Y-35200D01*
X61530D01*
G01X50080Y-33600D02*
Y-33100D01*
X50210D01*
X50260Y-33130D01*
X50300Y-33160D01*
X50330Y-33210D01*
X50350Y-33270D01*
X50360Y-33350D01*
X50350Y-33430D01*
X50330Y-33490D01*
X50300Y-33540D01*
X50260Y-33580D01*
X50210Y-33600D01*
X50080D01*
G01X50860D02*
X50600D01*
Y-33100D01*
X50860D01*
G01X50760Y-33340D02*
X50600D01*
G01X51110Y-33530D02*
X51160Y-33580D01*
X51210Y-33600D01*
X51270D01*
X51320Y-33580D01*
X51350Y-33530D01*
X51370Y-33470D01*
X51360Y-33420D01*
X51330Y-33370D01*
X51270Y-33330D01*
X51200Y-33320D01*
X51150Y-33280D01*
X51130Y-33230D01*
X51150Y-33170D01*
X51180Y-33130D01*
X51220Y-33100D01*
X51270D01*
X51310Y-33120D01*
X51350Y-33160D01*
G01X51670Y-33100D02*
X51830D01*
G01X51750D02*
Y-33600D01*
G01X51670D02*
X51830D01*
G01X52300Y-33350D02*
X52420D01*
Y-33500D01*
X52390Y-33550D01*
X52340Y-33580D01*
X52280Y-33600D01*
X52220Y-33580D01*
X52170Y-33550D01*
X52130Y-33500D01*
X52110Y-33440D01*
X52100Y-33380D01*
Y-33320D01*
X52110Y-33270D01*
X52130Y-33210D01*
X52170Y-33160D01*
X52210Y-33130D01*
X52260Y-33100D01*
X52300D01*
X52350Y-33120D01*
X52390Y-33150D01*
G01X52620Y-33600D02*
Y-33100D01*
X52920Y-33600D01*
Y-33100D01*
G01X53930Y-33140D02*
X53890Y-33120D01*
X53850Y-33100D01*
X53800D01*
X53740Y-33130D01*
X53700Y-33170D01*
X53660Y-33220D01*
X53640Y-33300D01*
X53630Y-33380D01*
X53640Y-33450D01*
X53660Y-33500D01*
X53700Y-33550D01*
X53750Y-33580D01*
X53790Y-33600D01*
X53830D01*
X53880Y-33580D01*
X53920Y-33560D01*
X53950Y-33530D01*
G01X54170Y-33600D02*
Y-33100D01*
X54330D01*
X54380Y-33130D01*
X54410Y-33160D01*
X54430Y-33230D01*
X54410Y-33290D01*
X54380Y-33330D01*
X54330Y-33360D01*
X54170D01*
G01X54330D02*
X54430Y-33600D01*
G01X54810D02*
X54760Y-33590D01*
X54720Y-33560D01*
X54680Y-33510D01*
X54650Y-33450D01*
X54640Y-33380D01*
Y-33320D01*
X54650Y-33250D01*
X54680Y-33190D01*
X54720Y-33140D01*
X54760Y-33110D01*
X54810Y-33100D01*
X54860Y-33110D01*
X54900Y-33140D01*
X54940Y-33190D01*
X54970Y-33250D01*
X54980Y-33320D01*
Y-33380D01*
X54970Y-33450D01*
X54940Y-33510D01*
X54900Y-33560D01*
X54860Y-33590D01*
X54810Y-33600D01*
G01X55190Y-33530D02*
X55240Y-33580D01*
X55290Y-33600D01*
X55350D01*
X55400Y-33580D01*
X55430Y-33530D01*
X55450Y-33470D01*
X55440Y-33420D01*
X55410Y-33370D01*
X55350Y-33330D01*
X55280Y-33320D01*
X55230Y-33280D01*
X55210Y-33230D01*
X55230Y-33170D01*
X55260Y-33130D01*
X55300Y-33100D01*
X55350D01*
X55390Y-33120D01*
X55430Y-33160D01*
G01X55700Y-33530D02*
X55750Y-33580D01*
X55800Y-33600D01*
X55860D01*
X55910Y-33580D01*
X55940Y-33530D01*
X55960Y-33470D01*
X55950Y-33420D01*
X55920Y-33370D01*
X55860Y-33330D01*
X55790Y-33320D01*
X55740Y-33280D01*
X55720Y-33230D01*
X55740Y-33170D01*
X55770Y-33130D01*
X55810Y-33100D01*
X55860D01*
X55900Y-33120D01*
X55940Y-33160D01*
G01X56720Y-33530D02*
X56770Y-33580D01*
X56820Y-33600D01*
X56880D01*
X56930Y-33580D01*
X56960Y-33530D01*
X56980Y-33470D01*
X56970Y-33420D01*
X56940Y-33370D01*
X56880Y-33330D01*
X56810Y-33320D01*
X56760Y-33280D01*
X56740Y-33230D01*
X56760Y-33170D01*
X56790Y-33130D01*
X56830Y-33100D01*
X56880D01*
X56920Y-33120D01*
X56960Y-33160D01*
G01X57490Y-33600D02*
X57230D01*
Y-33100D01*
X57490D01*
G01X57390Y-33340D02*
X57230D01*
G01X58010Y-33140D02*
X57970Y-33120D01*
X57930Y-33100D01*
X57880D01*
X57820Y-33130D01*
X57780Y-33170D01*
X57740Y-33220D01*
X57720Y-33300D01*
X57710Y-33380D01*
X57720Y-33450D01*
X57740Y-33500D01*
X57780Y-33550D01*
X57830Y-33580D01*
X57870Y-33600D01*
X57910D01*
X57960Y-33580D01*
X58000Y-33560D01*
X58030Y-33530D01*
G01X58380Y-33100D02*
Y-33600D01*
G01X58230Y-33100D02*
X58530D01*
G01X58810D02*
X58970D01*
G01X58890D02*
Y-33600D01*
G01X58810D02*
X58970D01*
G01X59400D02*
X59350Y-33590D01*
X59310Y-33560D01*
X59270Y-33510D01*
X59240Y-33450D01*
X59230Y-33380D01*
Y-33320D01*
X59240Y-33250D01*
X59270Y-33190D01*
X59310Y-33140D01*
X59350Y-33110D01*
X59400Y-33100D01*
X59450Y-33110D01*
X59490Y-33140D01*
X59530Y-33190D01*
X59560Y-33250D01*
X59570Y-33320D01*
Y-33380D01*
X59560Y-33450D01*
X59530Y-33510D01*
X59490Y-33560D01*
X59450Y-33590D01*
X59400Y-33600D01*
G01X59760D02*
Y-33100D01*
X60060Y-33600D01*
Y-33100D01*
G01X61070Y-33140D02*
X61030Y-33120D01*
X60990Y-33100D01*
X60940D01*
X60880Y-33130D01*
X60840Y-33170D01*
X60800Y-33220D01*
X60780Y-33300D01*
X60770Y-33380D01*
X60780Y-33450D01*
X60800Y-33500D01*
X60840Y-33550D01*
X60890Y-33580D01*
X60930Y-33600D01*
X60970D01*
X61020Y-33580D01*
X61060Y-33560D01*
X61090Y-33530D01*
G01X61310Y-33600D02*
Y-33100D01*
G01X61570D02*
Y-33600D01*
G01Y-33350D02*
X61310D01*
G01X61790Y-33600D02*
X61950Y-33100D01*
X62110Y-33600D01*
G01X62050Y-33430D02*
X61850D01*
G01X62330Y-33600D02*
Y-33100D01*
X62490D01*
X62540Y-33130D01*
X62570Y-33160D01*
X62590Y-33230D01*
X62570Y-33290D01*
X62540Y-33330D01*
X62490Y-33360D01*
X62330D01*
G01X62490D02*
X62590Y-33600D01*
G01X62970Y-33100D02*
Y-33600D01*
G01X62820Y-33100D02*
X63120D01*
G01X54010Y-34180D02*
X54170D01*
G01X54230D02*
X54390D01*
G01X54450D02*
X54610D01*
G01X54670D02*
X54830D01*
G01X54890D02*
X55050D01*
G01X55110D02*
X55270D01*
G01X55330D02*
X55490D01*
G01X55550D02*
X55710D01*
G01X55770D02*
X55930D01*
G01X55990D02*
X56150D01*
G01X56210D02*
X56370D01*
G01X56430D02*
X56590D01*
G01X56650D02*
X56810D01*
G01X56870D02*
X57030D01*
G01X57090D02*
X57250D01*
G01X57310D02*
X57470D01*
G01X57530D02*
X57690D01*
G01X57750D02*
X57910D01*
G01X57970D02*
X58130D01*
G01X58190D02*
X58350D01*
G01X58410D02*
X58570D01*
G01X58630D02*
X58790D01*
G01X58850D02*
X59010D01*
G01X59070D02*
X59230D01*
G01X59290D02*
X59450D01*
G01X59510D02*
X59670D01*
G01X59730D02*
X59890D01*
G01X53000Y-31160D02*
Y-27690D01*
X59000D01*
Y-31160D01*
X53000D01*
G01Y-27260D02*
Y-23790D01*
X59000D01*
Y-27260D01*
X53000D01*
G01Y-23360D02*
Y-19890D01*
X59000D01*
Y-23360D01*
X53000D01*
G01Y-19460D02*
Y-15990D01*
X59000D01*
Y-19460D01*
X53000D01*
G01Y-15560D02*
Y-12090D01*
X59000D01*
Y-15560D01*
X53000D01*
G01X55750Y-11220D02*
X55250D01*
X55350Y-11300D01*
G01X55750D02*
Y-11140D01*
G01X55580Y-10790D02*
Y-10630D01*
G01X55540Y-10320D02*
X55480Y-10280D01*
X55450Y-10240D01*
X55430Y-10190D01*
X55450Y-10140D01*
X55480Y-10110D01*
X55530Y-10090D01*
X55590Y-10080D01*
X55640Y-10090D01*
X55690Y-10110D01*
X55730Y-10150D01*
X55750Y-10190D01*
X55730Y-10240D01*
X55680Y-10290D01*
X55610Y-10310D01*
X55530Y-10320D01*
X55420Y-10310D01*
X55360Y-10290D01*
X55300Y-10260D01*
X55260Y-10210D01*
X55250Y-10170D01*
X55270Y-10120D01*
X55310Y-10090D01*
G01X56000Y-6870D02*
Y57500D01*
X104360D01*
Y-6870D01*
X56000D01*
G01Y2500D02*
X104360D01*
G01X56000Y11880D02*
X104360D01*
G01X56000Y21260D02*
X104360D01*
G01X56000Y30630D02*
X104360D01*
G01X56000Y40000D02*
X104360D01*
G01X57100Y50320D02*
Y51570D01*
X57690D01*
G01X57470Y50970D02*
X57100D01*
G01X58450Y51570D02*
X58820D01*
G01X58630D02*
Y50320D01*
G01X58450D02*
X58820D01*
G01X59970Y50940D02*
X60280D01*
Y50570D01*
X60190Y50440D01*
X60080Y50360D01*
X59920Y50320D01*
X59770Y50360D01*
X59660Y50440D01*
X59560Y50570D01*
X59500Y50720D01*
X59470Y50880D01*
Y51030D01*
X59500Y51150D01*
X59560Y51300D01*
X59660Y51420D01*
X59750Y51510D01*
X59870Y51570D01*
X59980D01*
X60110Y51530D01*
X60200Y51440D01*
G01X60770Y51570D02*
Y50670D01*
X60840Y50490D01*
X60960Y50360D01*
X61110Y50320D01*
X61270Y50360D01*
X61390Y50490D01*
X61460Y50670D01*
Y51570D01*
G01X62040Y50320D02*
Y51570D01*
X62430D01*
X62560Y51510D01*
X62630Y51420D01*
X62670Y51260D01*
X62630Y51090D01*
X62540Y50990D01*
X62430Y50920D01*
X62040D01*
G01X62430D02*
X62670Y50320D01*
G01X63910D02*
X63280D01*
Y51570D01*
X63910D01*
G01X63660Y50970D02*
X63280D01*
G01X56000Y49380D02*
X104360D01*
G01X56000Y52190D02*
X104360D01*
G01X56000Y55000D02*
X104360D01*
G01X59880Y-32470D02*
X60160Y-32100D01*
G01X60020Y-32030D02*
Y-32530D01*
G01X60160Y-32470D02*
X59880Y-32100D01*
G01X59830Y-32280D02*
X60210D01*
G01X61420Y-32380D02*
X61470Y-32430D01*
X61520Y-32450D01*
X61580D01*
X61630Y-32430D01*
X61660Y-32380D01*
X61680Y-32320D01*
X61670Y-32270D01*
X61640Y-32220D01*
X61580Y-32180D01*
X61510Y-32170D01*
X61460Y-32130D01*
X61440Y-32080D01*
X61460Y-32020D01*
X61490Y-31980D01*
X61530Y-31950D01*
X61580D01*
X61620Y-31970D01*
X61660Y-32010D01*
G01X61920Y-31950D02*
Y-32310D01*
X61950Y-32380D01*
X62000Y-32430D01*
X62060Y-32450D01*
X62120Y-32430D01*
X62170Y-32380D01*
X62200Y-32310D01*
Y-31950D01*
G01X62440Y-32450D02*
Y-31950D01*
X62600D01*
X62650Y-31980D01*
X62680Y-32010D01*
X62700Y-32080D01*
X62680Y-32140D01*
X62650Y-32180D01*
X62600Y-32210D01*
X62440D01*
G01X62600D02*
X62700Y-32450D01*
G01X62960D02*
Y-31950D01*
X63200D01*
G01X63110Y-32190D02*
X62960D01*
G01X63430Y-32450D02*
X63590Y-31950D01*
X63750Y-32450D01*
G01X63690Y-32280D02*
X63490D01*
G01X64240Y-31990D02*
X64200Y-31970D01*
X64160Y-31950D01*
X64110D01*
X64050Y-31980D01*
X64010Y-32020D01*
X63970Y-32070D01*
X63950Y-32150D01*
X63940Y-32230D01*
X63950Y-32300D01*
X63970Y-32350D01*
X64010Y-32400D01*
X64060Y-32430D01*
X64100Y-32450D01*
X64140D01*
X64190Y-32430D01*
X64230Y-32410D01*
X64260Y-32380D01*
G01X64740Y-32450D02*
X64480D01*
Y-31950D01*
X64740D01*
G01X64640Y-32190D02*
X64480D01*
G01X65550Y-32280D02*
X65710D01*
G01X66490Y-32450D02*
X66650Y-31950D01*
X66810Y-32450D01*
G01X66750Y-32280D02*
X66550D01*
G01X67080Y-31950D02*
X67240D01*
G01X67160D02*
Y-32450D01*
G01X67080D02*
X67240D01*
G01X67540D02*
Y-31950D01*
X67700D01*
X67750Y-31980D01*
X67780Y-32010D01*
X67800Y-32080D01*
X67780Y-32140D01*
X67750Y-32180D01*
X67700Y-32210D01*
X67540D01*
G01X67700D02*
X67800Y-32450D01*
G01X68690Y-31950D02*
X68640Y-31970D01*
X68600Y-32010D01*
X68580Y-32060D01*
X68560Y-32130D01*
X68550Y-32200D01*
X68560Y-32280D01*
X68580Y-32340D01*
X68600Y-32390D01*
X68640Y-32430D01*
X68690Y-32450D01*
X68740Y-32430D01*
X68780Y-32390D01*
X68800Y-32340D01*
X68820Y-32280D01*
X68830Y-32200D01*
X68820Y-32130D01*
X68800Y-32060D01*
X68780Y-32010D01*
X68740Y-31970D01*
X68690Y-31950D01*
G01X69550Y-32450D02*
Y-31950D01*
X69710Y-32370D01*
X69870Y-31950D01*
Y-32450D01*
G01X70140Y-31950D02*
X70300D01*
G01X70220D02*
Y-32450D01*
G01X70140D02*
X70300D01*
G01X70600Y-31950D02*
Y-32450D01*
X70860D01*
G01X60580Y-29440D02*
X60860Y-29070D01*
G01X60720Y-29000D02*
Y-29500D01*
G01X60860Y-29440D02*
X60580Y-29070D01*
G01X60530Y-29250D02*
X60910D01*
G01X62110Y-29420D02*
Y-28920D01*
X62240D01*
X62290Y-28950D01*
X62330Y-28980D01*
X62360Y-29030D01*
X62380Y-29090D01*
X62390Y-29170D01*
X62380Y-29250D01*
X62360Y-29310D01*
X62330Y-29360D01*
X62290Y-29400D01*
X62240Y-29420D01*
X62110D01*
G01X62680Y-28920D02*
X62840D01*
G01X62760D02*
Y-29420D01*
G01X62680D02*
X62840D01*
G01X63400D02*
X63140D01*
Y-28920D01*
X63400D01*
G01X63300Y-29160D02*
X63140D01*
G01X63650Y-28920D02*
Y-29420D01*
X63910D01*
G01X64420D02*
X64160D01*
Y-28920D01*
X64420D01*
G01X64320Y-29160D02*
X64160D01*
G01X64940Y-28960D02*
X64900Y-28940D01*
X64860Y-28920D01*
X64810D01*
X64750Y-28950D01*
X64710Y-28990D01*
X64670Y-29040D01*
X64650Y-29120D01*
X64640Y-29200D01*
X64650Y-29270D01*
X64670Y-29320D01*
X64710Y-29370D01*
X64760Y-29400D01*
X64800Y-29420D01*
X64840D01*
X64890Y-29400D01*
X64930Y-29380D01*
X64960Y-29350D01*
G01X65310Y-28920D02*
Y-29420D01*
G01X65160Y-28920D02*
X65460D01*
G01X65690Y-29420D02*
Y-28920D01*
X65850D01*
X65900Y-28950D01*
X65930Y-28980D01*
X65950Y-29050D01*
X65930Y-29110D01*
X65900Y-29150D01*
X65850Y-29180D01*
X65690D01*
G01X65850D02*
X65950Y-29420D01*
G01X66250Y-28920D02*
X66410D01*
G01X66330D02*
Y-29420D01*
G01X66250D02*
X66410D01*
G01X66980Y-28960D02*
X66940Y-28940D01*
X66900Y-28920D01*
X66850D01*
X66790Y-28950D01*
X66750Y-28990D01*
X66710Y-29040D01*
X66690Y-29120D01*
X66680Y-29200D01*
X66690Y-29270D01*
X66710Y-29320D01*
X66750Y-29370D01*
X66800Y-29400D01*
X66840Y-29420D01*
X66880D01*
X66930Y-29400D01*
X66970Y-29380D01*
X67000Y-29350D01*
G01X67780Y-29250D02*
X67940D01*
G01X68760Y-29420D02*
Y-28920D01*
X69000D01*
G01X68910Y-29160D02*
X68760D01*
G01X69260Y-29420D02*
Y-28920D01*
X69420D01*
X69470Y-28950D01*
X69500Y-28980D01*
X69520Y-29050D01*
X69500Y-29110D01*
X69470Y-29150D01*
X69420Y-29180D01*
X69260D01*
G01X69420D02*
X69520Y-29420D01*
G01X69820Y-29250D02*
X69980D01*
G01X70490Y-29420D02*
Y-28920D01*
X70250Y-29280D01*
X70570D01*
G01X71430Y-29420D02*
X71470Y-29410D01*
X71520Y-29390D01*
X71560Y-29350D01*
X71570Y-29290D01*
X71560Y-29230D01*
X71520Y-29180D01*
X71460Y-29150D01*
X71400D01*
X71360Y-29140D01*
X71330Y-29100D01*
X71320Y-29040D01*
X71340Y-28980D01*
X71380Y-28940D01*
X71430Y-28920D01*
X71480Y-28940D01*
X71520Y-28980D01*
X71540Y-29040D01*
X71530Y-29100D01*
X71500Y-29140D01*
X71460Y-29150D01*
X71400D01*
X71340Y-29180D01*
X71300Y-29230D01*
X71290Y-29290D01*
X71300Y-29350D01*
X71340Y-29390D01*
X71390Y-29410D01*
X71430Y-29420D01*
G01X72290D02*
Y-28920D01*
X72450Y-29340D01*
X72610Y-28920D01*
Y-29420D01*
G01X72880Y-28920D02*
X73040D01*
G01X72960D02*
Y-29420D01*
G01X72880D02*
X73040D01*
G01X73340Y-28920D02*
Y-29420D01*
X73600D01*
G01X59570Y-30870D02*
Y-31370D01*
X59830D01*
G01X60090Y-31160D02*
X60130Y-31100D01*
X60170Y-31070D01*
X60220Y-31050D01*
X60270Y-31070D01*
X60300Y-31100D01*
X60320Y-31150D01*
X60330Y-31210D01*
X60320Y-31260D01*
X60300Y-31310D01*
X60260Y-31350D01*
X60220Y-31370D01*
X60170Y-31350D01*
X60120Y-31300D01*
X60100Y-31230D01*
X60090Y-31150D01*
X60100Y-31040D01*
X60120Y-30980D01*
X60150Y-30920D01*
X60200Y-30880D01*
X60240Y-30870D01*
X60290Y-30890D01*
X60320Y-30930D01*
G01X60720Y-31390D02*
X60710Y-31380D01*
Y-31360D01*
X60720Y-31350D01*
X60730Y-31360D01*
Y-31380D01*
X60720Y-31390D01*
G01Y-31160D02*
X60710Y-31150D01*
Y-31140D01*
X60720Y-31130D01*
X60730Y-31140D01*
Y-31150D01*
X60720Y-31160D01*
G01X61790Y-31100D02*
X61820Y-31080D01*
X61830Y-31040D01*
X61850Y-30980D01*
X61830Y-30930D01*
X61810Y-30900D01*
X61770Y-30870D01*
X61590D01*
Y-31370D01*
X61800D01*
X61850Y-31340D01*
X61870Y-31290D01*
X61890Y-31230D01*
X61870Y-31170D01*
X61830Y-31120D01*
X61790Y-31100D01*
X61590D01*
G01X62250Y-31370D02*
X62200Y-31360D01*
X62160Y-31330D01*
X62120Y-31280D01*
X62090Y-31220D01*
X62080Y-31150D01*
Y-31090D01*
X62090Y-31020D01*
X62120Y-30960D01*
X62160Y-30910D01*
X62200Y-30880D01*
X62250Y-30870D01*
X62300Y-30880D01*
X62340Y-30910D01*
X62380Y-30960D01*
X62410Y-31020D01*
X62420Y-31090D01*
Y-31150D01*
X62410Y-31220D01*
X62380Y-31280D01*
X62340Y-31330D01*
X62300Y-31360D01*
X62250Y-31370D01*
G01X62760Y-30870D02*
Y-31370D01*
G01X62610Y-30870D02*
X62910D01*
G01X63270D02*
Y-31370D01*
G01X63120Y-30870D02*
X63420D01*
G01X63780Y-31370D02*
X63730Y-31360D01*
X63690Y-31330D01*
X63650Y-31280D01*
X63620Y-31220D01*
X63610Y-31150D01*
Y-31090D01*
X63620Y-31020D01*
X63650Y-30960D01*
X63690Y-30910D01*
X63730Y-30880D01*
X63780Y-30870D01*
X63830Y-30880D01*
X63870Y-30910D01*
X63910Y-30960D01*
X63940Y-31020D01*
X63950Y-31090D01*
Y-31150D01*
X63940Y-31220D01*
X63910Y-31280D01*
X63870Y-31330D01*
X63830Y-31360D01*
X63780Y-31370D01*
G01X64130D02*
Y-30870D01*
X64290Y-31290D01*
X64450Y-30870D01*
Y-31370D01*
G01X65450Y-30910D02*
X65410Y-30890D01*
X65370Y-30870D01*
X65320D01*
X65260Y-30900D01*
X65220Y-30940D01*
X65180Y-30990D01*
X65160Y-31070D01*
X65150Y-31150D01*
X65160Y-31220D01*
X65180Y-31270D01*
X65220Y-31320D01*
X65270Y-31350D01*
X65310Y-31370D01*
X65350D01*
X65400Y-31350D01*
X65440Y-31330D01*
X65470Y-31300D01*
G01X65820Y-31370D02*
X65770Y-31360D01*
X65730Y-31330D01*
X65690Y-31280D01*
X65660Y-31220D01*
X65650Y-31150D01*
Y-31090D01*
X65660Y-31020D01*
X65690Y-30960D01*
X65730Y-30910D01*
X65770Y-30880D01*
X65820Y-30870D01*
X65870Y-30880D01*
X65910Y-30910D01*
X65950Y-30960D01*
X65980Y-31020D01*
X65990Y-31090D01*
Y-31150D01*
X65980Y-31220D01*
X65950Y-31280D01*
X65910Y-31330D01*
X65870Y-31360D01*
X65820Y-31370D01*
G01X66180D02*
Y-30870D01*
X66480Y-31370D01*
Y-30870D01*
G01X66700Y-31370D02*
Y-30870D01*
X66830D01*
X66880Y-30900D01*
X66920Y-30930D01*
X66950Y-30980D01*
X66970Y-31040D01*
X66980Y-31120D01*
X66970Y-31200D01*
X66950Y-31260D01*
X66920Y-31310D01*
X66880Y-31350D01*
X66830Y-31370D01*
X66700D01*
G01X67210Y-30870D02*
Y-31230D01*
X67240Y-31300D01*
X67290Y-31350D01*
X67350Y-31370D01*
X67410Y-31350D01*
X67460Y-31300D01*
X67490Y-31230D01*
Y-30870D01*
G01X68000Y-30910D02*
X67960Y-30890D01*
X67920Y-30870D01*
X67870D01*
X67810Y-30900D01*
X67770Y-30940D01*
X67730Y-30990D01*
X67710Y-31070D01*
X67700Y-31150D01*
X67710Y-31220D01*
X67730Y-31270D01*
X67770Y-31320D01*
X67820Y-31350D01*
X67860Y-31370D01*
X67900D01*
X67950Y-31350D01*
X67990Y-31330D01*
X68020Y-31300D01*
G01X68370Y-30870D02*
Y-31370D01*
G01X68220Y-30870D02*
X68520D01*
G01X68880Y-31370D02*
X68830Y-31360D01*
X68790Y-31330D01*
X68750Y-31280D01*
X68720Y-31220D01*
X68710Y-31150D01*
Y-31090D01*
X68720Y-31020D01*
X68750Y-30960D01*
X68790Y-30910D01*
X68830Y-30880D01*
X68880Y-30870D01*
X68930Y-30880D01*
X68970Y-30910D01*
X69010Y-30960D01*
X69040Y-31020D01*
X69050Y-31090D01*
Y-31150D01*
X69040Y-31220D01*
X69010Y-31280D01*
X68970Y-31330D01*
X68930Y-31360D01*
X68880Y-31370D01*
G01X69260D02*
Y-30870D01*
X69420D01*
X69470Y-30900D01*
X69500Y-30930D01*
X69520Y-31000D01*
X69500Y-31060D01*
X69470Y-31100D01*
X69420Y-31130D01*
X69260D01*
G01X69420D02*
X69520Y-31370D01*
G01X70330Y-31200D02*
X70490D01*
G01X71570Y-30910D02*
X71530Y-30890D01*
X71490Y-30870D01*
X71440D01*
X71380Y-30900D01*
X71340Y-30940D01*
X71300Y-30990D01*
X71280Y-31070D01*
X71270Y-31150D01*
X71280Y-31220D01*
X71300Y-31270D01*
X71340Y-31320D01*
X71390Y-31350D01*
X71430Y-31370D01*
X71470D01*
X71520Y-31350D01*
X71560Y-31330D01*
X71590Y-31300D01*
G01X71940Y-31370D02*
X71890Y-31360D01*
X71850Y-31330D01*
X71810Y-31280D01*
X71780Y-31220D01*
X71770Y-31150D01*
Y-31090D01*
X71780Y-31020D01*
X71810Y-30960D01*
X71850Y-30910D01*
X71890Y-30880D01*
X71940Y-30870D01*
X71990Y-30880D01*
X72030Y-30910D01*
X72070Y-30960D01*
X72100Y-31020D01*
X72110Y-31090D01*
Y-31150D01*
X72100Y-31220D01*
X72070Y-31280D01*
X72030Y-31330D01*
X71990Y-31360D01*
X71940Y-31370D01*
G01X72320D02*
Y-30870D01*
X72480D01*
X72530Y-30900D01*
X72560Y-30950D01*
X72580Y-31020D01*
X72560Y-31090D01*
X72530Y-31140D01*
X72480Y-31160D01*
X72320D01*
G01X72830Y-31370D02*
Y-30870D01*
X72990D01*
X73040Y-30900D01*
X73070Y-30950D01*
X73090Y-31020D01*
X73070Y-31090D01*
X73040Y-31140D01*
X72990Y-31160D01*
X72830D01*
G01X73600Y-31370D02*
X73340D01*
Y-30870D01*
X73600D01*
G01X73500Y-31110D02*
X73340D01*
G01X73850Y-31370D02*
Y-30870D01*
X74010D01*
X74060Y-30900D01*
X74090Y-30930D01*
X74110Y-31000D01*
X74090Y-31060D01*
X74060Y-31100D01*
X74010Y-31130D01*
X73850D01*
G01X74010D02*
X74110Y-31370D01*
G01X75000D02*
Y-30870D01*
X74920Y-30970D01*
G01Y-31370D02*
X75080D01*
G01X75860D02*
Y-30870D01*
X76020Y-31290D01*
X76180Y-30870D01*
Y-31370D01*
G01X76450Y-30870D02*
X76610D01*
G01X76530D02*
Y-31370D01*
G01X76450D02*
X76610D01*
G01X76910Y-30870D02*
Y-31370D01*
X77170D01*
G01X59570Y-26970D02*
Y-27470D01*
X59830D01*
G01X60070Y-27400D02*
X60110Y-27440D01*
X60150Y-27460D01*
X60210Y-27470D01*
X60270Y-27450D01*
X60310Y-27420D01*
X60340Y-27360D01*
X60350Y-27300D01*
X60340Y-27230D01*
X60300Y-27190D01*
X60260Y-27150D01*
X60220D01*
X60170D01*
X60120Y-27190D01*
X60130Y-26970D01*
X60300D01*
G01X60720Y-27490D02*
X60710Y-27480D01*
Y-27460D01*
X60720Y-27450D01*
X60730Y-27460D01*
Y-27480D01*
X60720Y-27490D01*
G01Y-27260D02*
X60710Y-27250D01*
Y-27240D01*
X60720Y-27230D01*
X60730Y-27240D01*
Y-27250D01*
X60720Y-27260D01*
G01X61580Y-26970D02*
X61740Y-27470D01*
X61900Y-26970D01*
G01X62390Y-27010D02*
X62350Y-26990D01*
X62310Y-26970D01*
X62260D01*
X62200Y-27000D01*
X62160Y-27040D01*
X62120Y-27090D01*
X62100Y-27170D01*
X62090Y-27250D01*
X62100Y-27320D01*
X62120Y-27370D01*
X62160Y-27420D01*
X62210Y-27450D01*
X62250Y-27470D01*
X62290D01*
X62340Y-27450D01*
X62380Y-27430D01*
X62410Y-27400D01*
G01X62900Y-27010D02*
X62860Y-26990D01*
X62820Y-26970D01*
X62770D01*
X62710Y-27000D01*
X62670Y-27040D01*
X62630Y-27090D01*
X62610Y-27170D01*
X62600Y-27250D01*
X62610Y-27320D01*
X62630Y-27370D01*
X62670Y-27420D01*
X62720Y-27450D01*
X62760Y-27470D01*
X62800D01*
X62850Y-27450D01*
X62890Y-27430D01*
X62920Y-27400D01*
G01X63650Y-27470D02*
Y-26970D01*
X63810D01*
X63860Y-27000D01*
X63890Y-27050D01*
X63910Y-27120D01*
X63890Y-27190D01*
X63860Y-27240D01*
X63810Y-27260D01*
X63650D01*
G01X64160Y-26970D02*
Y-27470D01*
X64420D01*
G01X64640D02*
X64800Y-26970D01*
X64960Y-27470D01*
G01X64900Y-27300D02*
X64700D01*
G01X65160Y-27470D02*
Y-26970D01*
X65460Y-27470D01*
Y-26970D01*
G01X65950Y-27470D02*
X65690D01*
Y-26970D01*
X65950D01*
G01X65850Y-27210D02*
X65690D01*
G01X66760Y-27300D02*
X66920D01*
G01X68000Y-27010D02*
X67960Y-26990D01*
X67920Y-26970D01*
X67870D01*
X67810Y-27000D01*
X67770Y-27040D01*
X67730Y-27090D01*
X67710Y-27170D01*
X67700Y-27250D01*
X67710Y-27320D01*
X67730Y-27370D01*
X67770Y-27420D01*
X67820Y-27450D01*
X67860Y-27470D01*
X67900D01*
X67950Y-27450D01*
X67990Y-27430D01*
X68020Y-27400D01*
G01X68370Y-27470D02*
X68320Y-27460D01*
X68280Y-27430D01*
X68240Y-27380D01*
X68210Y-27320D01*
X68200Y-27250D01*
Y-27190D01*
X68210Y-27120D01*
X68240Y-27060D01*
X68280Y-27010D01*
X68320Y-26980D01*
X68370Y-26970D01*
X68420Y-26980D01*
X68460Y-27010D01*
X68500Y-27060D01*
X68530Y-27120D01*
X68540Y-27190D01*
Y-27250D01*
X68530Y-27320D01*
X68500Y-27380D01*
X68460Y-27430D01*
X68420Y-27460D01*
X68370Y-27470D01*
G01X68750D02*
Y-26970D01*
X68910D01*
X68960Y-27000D01*
X68990Y-27050D01*
X69010Y-27120D01*
X68990Y-27190D01*
X68960Y-27240D01*
X68910Y-27260D01*
X68750D01*
G01X69260Y-27470D02*
Y-26970D01*
X69420D01*
X69470Y-27000D01*
X69500Y-27050D01*
X69520Y-27120D01*
X69500Y-27190D01*
X69470Y-27240D01*
X69420Y-27260D01*
X69260D01*
G01X70030Y-27470D02*
X69770D01*
Y-26970D01*
X70030D01*
G01X69930Y-27210D02*
X69770D01*
G01X70280Y-27470D02*
Y-26970D01*
X70440D01*
X70490Y-27000D01*
X70520Y-27030D01*
X70540Y-27100D01*
X70520Y-27160D01*
X70490Y-27200D01*
X70440Y-27230D01*
X70280D01*
G01X70440D02*
X70540Y-27470D01*
G01X71430D02*
Y-26970D01*
X71350Y-27070D01*
G01Y-27470D02*
X71510D01*
G01X72290D02*
Y-26970D01*
X72450Y-27390D01*
X72610Y-26970D01*
Y-27470D01*
G01X72880Y-26970D02*
X73040D01*
G01X72960D02*
Y-27470D01*
G01X72880D02*
X73040D01*
G01X73340Y-26970D02*
Y-27470D01*
X73600D01*
G01X59570Y-23070D02*
Y-23570D01*
X59830D01*
G01X60290D02*
Y-23070D01*
X60050Y-23430D01*
X60370D01*
G01X60720Y-23590D02*
X60710Y-23580D01*
Y-23560D01*
X60720Y-23550D01*
X60730Y-23560D01*
Y-23580D01*
X60720Y-23590D01*
G01Y-23360D02*
X60710Y-23350D01*
Y-23340D01*
X60720Y-23330D01*
X60730Y-23340D01*
Y-23350D01*
X60720Y-23360D01*
G01X61660Y-23070D02*
X61820D01*
G01X61740D02*
Y-23570D01*
G01X61660D02*
X61820D01*
G01X62120Y-23500D02*
X62170Y-23550D01*
X62220Y-23570D01*
X62280D01*
X62330Y-23550D01*
X62360Y-23500D01*
X62380Y-23440D01*
X62370Y-23390D01*
X62340Y-23340D01*
X62280Y-23300D01*
X62210Y-23290D01*
X62160Y-23250D01*
X62140Y-23200D01*
X62160Y-23140D01*
X62190Y-23100D01*
X62230Y-23070D01*
X62280D01*
X62320Y-23090D01*
X62360Y-23130D01*
G01X62640Y-23150D02*
X62680Y-23100D01*
X62720Y-23080D01*
X62770Y-23070D01*
X62840Y-23090D01*
X62880Y-23130D01*
X62890Y-23180D01*
Y-23230D01*
X62860Y-23270D01*
X62730Y-23350D01*
X62680Y-23410D01*
X62640Y-23500D01*
X62630Y-23570D01*
X62890D01*
G01X63920Y-23110D02*
X63880Y-23090D01*
X63840Y-23070D01*
X63790D01*
X63730Y-23100D01*
X63690Y-23140D01*
X63650Y-23190D01*
X63630Y-23270D01*
X63620Y-23350D01*
X63630Y-23420D01*
X63650Y-23470D01*
X63690Y-23520D01*
X63740Y-23550D01*
X63780Y-23570D01*
X63820D01*
X63870Y-23550D01*
X63910Y-23530D01*
X63940Y-23500D01*
G01X64290Y-23570D02*
X64240Y-23560D01*
X64200Y-23530D01*
X64160Y-23480D01*
X64130Y-23420D01*
X64120Y-23350D01*
Y-23290D01*
X64130Y-23220D01*
X64160Y-23160D01*
X64200Y-23110D01*
X64240Y-23080D01*
X64290Y-23070D01*
X64340Y-23080D01*
X64380Y-23110D01*
X64420Y-23160D01*
X64450Y-23220D01*
X64460Y-23290D01*
Y-23350D01*
X64450Y-23420D01*
X64420Y-23480D01*
X64380Y-23530D01*
X64340Y-23560D01*
X64290Y-23570D01*
G01X64650D02*
Y-23070D01*
X64950Y-23570D01*
Y-23070D01*
G01X65170Y-23570D02*
Y-23070D01*
X65300D01*
X65350Y-23100D01*
X65390Y-23130D01*
X65420Y-23180D01*
X65440Y-23240D01*
X65450Y-23320D01*
X65440Y-23400D01*
X65420Y-23460D01*
X65390Y-23510D01*
X65350Y-23550D01*
X65300Y-23570D01*
X65170D01*
G01X65680Y-23070D02*
Y-23430D01*
X65710Y-23500D01*
X65760Y-23550D01*
X65820Y-23570D01*
X65880Y-23550D01*
X65930Y-23500D01*
X65960Y-23430D01*
Y-23070D01*
G01X66470Y-23110D02*
X66430Y-23090D01*
X66390Y-23070D01*
X66340D01*
X66280Y-23100D01*
X66240Y-23140D01*
X66200Y-23190D01*
X66180Y-23270D01*
X66170Y-23350D01*
X66180Y-23420D01*
X66200Y-23470D01*
X66240Y-23520D01*
X66290Y-23550D01*
X66330Y-23570D01*
X66370D01*
X66420Y-23550D01*
X66460Y-23530D01*
X66490Y-23500D01*
G01X66840Y-23070D02*
Y-23570D01*
G01X66690Y-23070D02*
X66990D01*
G01X67350Y-23570D02*
X67300Y-23560D01*
X67260Y-23530D01*
X67220Y-23480D01*
X67190Y-23420D01*
X67180Y-23350D01*
Y-23290D01*
X67190Y-23220D01*
X67220Y-23160D01*
X67260Y-23110D01*
X67300Y-23080D01*
X67350Y-23070D01*
X67400Y-23080D01*
X67440Y-23110D01*
X67480Y-23160D01*
X67510Y-23220D01*
X67520Y-23290D01*
Y-23350D01*
X67510Y-23420D01*
X67480Y-23480D01*
X67440Y-23530D01*
X67400Y-23560D01*
X67350Y-23570D01*
G01X67730D02*
Y-23070D01*
X67890D01*
X67940Y-23100D01*
X67970Y-23130D01*
X67990Y-23200D01*
X67970Y-23260D01*
X67940Y-23300D01*
X67890Y-23330D01*
X67730D01*
G01X67890D02*
X67990Y-23570D01*
G01X68800Y-23400D02*
X68960D01*
G01X70040Y-23110D02*
X70000Y-23090D01*
X69960Y-23070D01*
X69910D01*
X69850Y-23100D01*
X69810Y-23140D01*
X69770Y-23190D01*
X69750Y-23270D01*
X69740Y-23350D01*
X69750Y-23420D01*
X69770Y-23470D01*
X69810Y-23520D01*
X69860Y-23550D01*
X69900Y-23570D01*
X69940D01*
X69990Y-23550D01*
X70030Y-23530D01*
X70060Y-23500D01*
G01X70410Y-23570D02*
X70360Y-23560D01*
X70320Y-23530D01*
X70280Y-23480D01*
X70250Y-23420D01*
X70240Y-23350D01*
Y-23290D01*
X70250Y-23220D01*
X70280Y-23160D01*
X70320Y-23110D01*
X70360Y-23080D01*
X70410Y-23070D01*
X70460Y-23080D01*
X70500Y-23110D01*
X70540Y-23160D01*
X70570Y-23220D01*
X70580Y-23290D01*
Y-23350D01*
X70570Y-23420D01*
X70540Y-23480D01*
X70500Y-23530D01*
X70460Y-23560D01*
X70410Y-23570D01*
G01X70790D02*
Y-23070D01*
X70950D01*
X71000Y-23100D01*
X71030Y-23150D01*
X71050Y-23220D01*
X71030Y-23290D01*
X71000Y-23340D01*
X70950Y-23360D01*
X70790D01*
G01X71300Y-23570D02*
Y-23070D01*
X71460D01*
X71510Y-23100D01*
X71540Y-23150D01*
X71560Y-23220D01*
X71540Y-23290D01*
X71510Y-23340D01*
X71460Y-23360D01*
X71300D01*
G01X72070Y-23570D02*
X71810D01*
Y-23070D01*
X72070D01*
G01X71970Y-23310D02*
X71810D01*
G01X72320Y-23570D02*
Y-23070D01*
X72480D01*
X72530Y-23100D01*
X72560Y-23130D01*
X72580Y-23200D01*
X72560Y-23260D01*
X72530Y-23300D01*
X72480Y-23330D01*
X72320D01*
G01X72480D02*
X72580Y-23570D01*
G01X73470D02*
Y-23070D01*
X73390Y-23170D01*
G01Y-23570D02*
X73550D01*
G01X74330D02*
Y-23070D01*
X74490Y-23490D01*
X74650Y-23070D01*
Y-23570D01*
G01X74920Y-23070D02*
X75080D01*
G01X75000D02*
Y-23570D01*
G01X74920D02*
X75080D01*
G01X75380Y-23070D02*
Y-23570D01*
X75640D01*
G01X60580Y-25540D02*
X60860Y-25170D01*
G01X60720Y-25100D02*
Y-25600D01*
G01X60860Y-25540D02*
X60580Y-25170D01*
G01X60530Y-25350D02*
X60910D01*
G01X62110Y-25520D02*
Y-25020D01*
X62240D01*
X62290Y-25050D01*
X62330Y-25080D01*
X62360Y-25130D01*
X62380Y-25190D01*
X62390Y-25270D01*
X62380Y-25350D01*
X62360Y-25410D01*
X62330Y-25460D01*
X62290Y-25500D01*
X62240Y-25520D01*
X62110D01*
G01X62680Y-25020D02*
X62840D01*
G01X62760D02*
Y-25520D01*
G01X62680D02*
X62840D01*
G01X63400D02*
X63140D01*
Y-25020D01*
X63400D01*
G01X63300Y-25260D02*
X63140D01*
G01X63650Y-25020D02*
Y-25520D01*
X63910D01*
G01X64420D02*
X64160D01*
Y-25020D01*
X64420D01*
G01X64320Y-25260D02*
X64160D01*
G01X64940Y-25060D02*
X64900Y-25040D01*
X64860Y-25020D01*
X64810D01*
X64750Y-25050D01*
X64710Y-25090D01*
X64670Y-25140D01*
X64650Y-25220D01*
X64640Y-25300D01*
X64650Y-25370D01*
X64670Y-25420D01*
X64710Y-25470D01*
X64760Y-25500D01*
X64800Y-25520D01*
X64840D01*
X64890Y-25500D01*
X64930Y-25480D01*
X64960Y-25450D01*
G01X65310Y-25020D02*
Y-25520D01*
G01X65160Y-25020D02*
X65460D01*
G01X65690Y-25520D02*
Y-25020D01*
X65850D01*
X65900Y-25050D01*
X65930Y-25080D01*
X65950Y-25150D01*
X65930Y-25210D01*
X65900Y-25250D01*
X65850Y-25280D01*
X65690D01*
G01X65850D02*
X65950Y-25520D01*
G01X66250Y-25020D02*
X66410D01*
G01X66330D02*
Y-25520D01*
G01X66250D02*
X66410D01*
G01X66980Y-25060D02*
X66940Y-25040D01*
X66900Y-25020D01*
X66850D01*
X66790Y-25050D01*
X66750Y-25090D01*
X66710Y-25140D01*
X66690Y-25220D01*
X66680Y-25300D01*
X66690Y-25370D01*
X66710Y-25420D01*
X66750Y-25470D01*
X66800Y-25500D01*
X66840Y-25520D01*
X66880D01*
X66930Y-25500D01*
X66970Y-25480D01*
X67000Y-25450D01*
G01X67780Y-25350D02*
X67940D01*
G01X68760Y-25520D02*
Y-25020D01*
X69000D01*
G01X68910Y-25260D02*
X68760D01*
G01X69260Y-25520D02*
Y-25020D01*
X69420D01*
X69470Y-25050D01*
X69500Y-25080D01*
X69520Y-25150D01*
X69500Y-25210D01*
X69470Y-25250D01*
X69420Y-25280D01*
X69260D01*
G01X69420D02*
X69520Y-25520D01*
G01X69820Y-25350D02*
X69980D01*
G01X70490Y-25520D02*
Y-25020D01*
X70250Y-25380D01*
X70570D01*
G01X71430Y-25520D02*
X71470Y-25510D01*
X71520Y-25490D01*
X71560Y-25450D01*
X71570Y-25390D01*
X71560Y-25330D01*
X71520Y-25280D01*
X71460Y-25250D01*
X71400D01*
X71360Y-25240D01*
X71330Y-25200D01*
X71320Y-25140D01*
X71340Y-25080D01*
X71380Y-25040D01*
X71430Y-25020D01*
X71480Y-25040D01*
X71520Y-25080D01*
X71540Y-25140D01*
X71530Y-25200D01*
X71500Y-25240D01*
X71460Y-25250D01*
X71400D01*
X71340Y-25280D01*
X71300Y-25330D01*
X71290Y-25390D01*
X71300Y-25450D01*
X71340Y-25490D01*
X71390Y-25510D01*
X71430Y-25520D01*
G01X72290D02*
Y-25020D01*
X72450Y-25440D01*
X72610Y-25020D01*
Y-25520D01*
G01X72880Y-25020D02*
X73040D01*
G01X72960D02*
Y-25520D01*
G01X72880D02*
X73040D01*
G01X73340Y-25020D02*
Y-25520D01*
X73600D01*
G01X60580Y-21640D02*
X60860Y-21270D01*
G01X60720Y-21200D02*
Y-21700D01*
G01X60860Y-21640D02*
X60580Y-21270D01*
G01X60530Y-21450D02*
X60910D01*
G01X62110Y-21620D02*
Y-21120D01*
X62240D01*
X62290Y-21150D01*
X62330Y-21180D01*
X62360Y-21230D01*
X62380Y-21290D01*
X62390Y-21370D01*
X62380Y-21450D01*
X62360Y-21510D01*
X62330Y-21560D01*
X62290Y-21600D01*
X62240Y-21620D01*
X62110D01*
G01X62680Y-21120D02*
X62840D01*
G01X62760D02*
Y-21620D01*
G01X62680D02*
X62840D01*
G01X63400D02*
X63140D01*
Y-21120D01*
X63400D01*
G01X63300Y-21360D02*
X63140D01*
G01X63650Y-21120D02*
Y-21620D01*
X63910D01*
G01X64420D02*
X64160D01*
Y-21120D01*
X64420D01*
G01X64320Y-21360D02*
X64160D01*
G01X64940Y-21160D02*
X64900Y-21140D01*
X64860Y-21120D01*
X64810D01*
X64750Y-21150D01*
X64710Y-21190D01*
X64670Y-21240D01*
X64650Y-21320D01*
X64640Y-21400D01*
X64650Y-21470D01*
X64670Y-21520D01*
X64710Y-21570D01*
X64760Y-21600D01*
X64800Y-21620D01*
X64840D01*
X64890Y-21600D01*
X64930Y-21580D01*
X64960Y-21550D01*
G01X65310Y-21120D02*
Y-21620D01*
G01X65160Y-21120D02*
X65460D01*
G01X65690Y-21620D02*
Y-21120D01*
X65850D01*
X65900Y-21150D01*
X65930Y-21180D01*
X65950Y-21250D01*
X65930Y-21310D01*
X65900Y-21350D01*
X65850Y-21380D01*
X65690D01*
G01X65850D02*
X65950Y-21620D01*
G01X66250Y-21120D02*
X66410D01*
G01X66330D02*
Y-21620D01*
G01X66250D02*
X66410D01*
G01X66980Y-21160D02*
X66940Y-21140D01*
X66900Y-21120D01*
X66850D01*
X66790Y-21150D01*
X66750Y-21190D01*
X66710Y-21240D01*
X66690Y-21320D01*
X66680Y-21400D01*
X66690Y-21470D01*
X66710Y-21520D01*
X66750Y-21570D01*
X66800Y-21600D01*
X66840Y-21620D01*
X66880D01*
X66930Y-21600D01*
X66970Y-21580D01*
X67000Y-21550D01*
G01X67780Y-21450D02*
X67940D01*
G01X68760Y-21620D02*
Y-21120D01*
X69000D01*
G01X68910Y-21360D02*
X68760D01*
G01X69260Y-21620D02*
Y-21120D01*
X69420D01*
X69470Y-21150D01*
X69500Y-21180D01*
X69520Y-21250D01*
X69500Y-21310D01*
X69470Y-21350D01*
X69420Y-21380D01*
X69260D01*
G01X69420D02*
X69520Y-21620D01*
G01X69820Y-21450D02*
X69980D01*
G01X70490Y-21620D02*
Y-21120D01*
X70250Y-21480D01*
X70570D01*
G01X71430Y-21620D02*
X71470Y-21610D01*
X71520Y-21590D01*
X71560Y-21550D01*
X71570Y-21490D01*
X71560Y-21430D01*
X71520Y-21380D01*
X71460Y-21350D01*
X71400D01*
X71360Y-21340D01*
X71330Y-21300D01*
X71320Y-21240D01*
X71340Y-21180D01*
X71380Y-21140D01*
X71430Y-21120D01*
X71480Y-21140D01*
X71520Y-21180D01*
X71540Y-21240D01*
X71530Y-21300D01*
X71500Y-21340D01*
X71460Y-21350D01*
X71400D01*
X71340Y-21380D01*
X71300Y-21430D01*
X71290Y-21490D01*
X71300Y-21550D01*
X71340Y-21590D01*
X71390Y-21610D01*
X71430Y-21620D01*
G01X72290D02*
Y-21120D01*
X72450Y-21540D01*
X72610Y-21120D01*
Y-21620D01*
G01X72880Y-21120D02*
X73040D01*
G01X72960D02*
Y-21620D01*
G01X72880D02*
X73040D01*
G01X73340Y-21120D02*
Y-21620D01*
X73600D01*
G01X59570Y-19170D02*
Y-19670D01*
X59830D01*
G01X60070Y-19570D02*
X60110Y-19630D01*
X60160Y-19660D01*
X60220Y-19670D01*
X60270Y-19660D01*
X60320Y-19620D01*
X60350Y-19570D01*
X60360Y-19520D01*
X60340Y-19460D01*
X60300Y-19420D01*
X60250Y-19400D01*
X60200D01*
G01X60250D02*
X60290Y-19380D01*
X60320Y-19340D01*
X60340Y-19290D01*
X60320Y-19240D01*
X60290Y-19200D01*
X60240Y-19170D01*
X60180Y-19180D01*
X60120Y-19210D01*
G01X60720Y-19690D02*
X60710Y-19680D01*
Y-19660D01*
X60720Y-19650D01*
X60730Y-19660D01*
Y-19680D01*
X60720Y-19690D01*
G01Y-19460D02*
X60710Y-19450D01*
Y-19440D01*
X60720Y-19430D01*
X60730Y-19440D01*
Y-19450D01*
X60720Y-19460D01*
G01X61660Y-19170D02*
X61820D01*
G01X61740D02*
Y-19670D01*
G01X61660D02*
X61820D01*
G01X62120Y-19600D02*
X62170Y-19650D01*
X62220Y-19670D01*
X62280D01*
X62330Y-19650D01*
X62360Y-19600D01*
X62380Y-19540D01*
X62370Y-19490D01*
X62340Y-19440D01*
X62280Y-19400D01*
X62210Y-19390D01*
X62160Y-19350D01*
X62140Y-19300D01*
X62160Y-19240D01*
X62190Y-19200D01*
X62230Y-19170D01*
X62280D01*
X62320Y-19190D01*
X62360Y-19230D01*
G01X62760Y-19670D02*
Y-19170D01*
X62680Y-19270D01*
G01Y-19670D02*
X62840D01*
G01X63920Y-19210D02*
X63880Y-19190D01*
X63840Y-19170D01*
X63790D01*
X63730Y-19200D01*
X63690Y-19240D01*
X63650Y-19290D01*
X63630Y-19370D01*
X63620Y-19450D01*
X63630Y-19520D01*
X63650Y-19570D01*
X63690Y-19620D01*
X63740Y-19650D01*
X63780Y-19670D01*
X63820D01*
X63870Y-19650D01*
X63910Y-19630D01*
X63940Y-19600D01*
G01X64290Y-19670D02*
X64240Y-19660D01*
X64200Y-19630D01*
X64160Y-19580D01*
X64130Y-19520D01*
X64120Y-19450D01*
Y-19390D01*
X64130Y-19320D01*
X64160Y-19260D01*
X64200Y-19210D01*
X64240Y-19180D01*
X64290Y-19170D01*
X64340Y-19180D01*
X64380Y-19210D01*
X64420Y-19260D01*
X64450Y-19320D01*
X64460Y-19390D01*
Y-19450D01*
X64450Y-19520D01*
X64420Y-19580D01*
X64380Y-19630D01*
X64340Y-19660D01*
X64290Y-19670D01*
G01X64650D02*
Y-19170D01*
X64950Y-19670D01*
Y-19170D01*
G01X65170Y-19670D02*
Y-19170D01*
X65300D01*
X65350Y-19200D01*
X65390Y-19230D01*
X65420Y-19280D01*
X65440Y-19340D01*
X65450Y-19420D01*
X65440Y-19500D01*
X65420Y-19560D01*
X65390Y-19610D01*
X65350Y-19650D01*
X65300Y-19670D01*
X65170D01*
G01X65680Y-19170D02*
Y-19530D01*
X65710Y-19600D01*
X65760Y-19650D01*
X65820Y-19670D01*
X65880Y-19650D01*
X65930Y-19600D01*
X65960Y-19530D01*
Y-19170D01*
G01X66470Y-19210D02*
X66430Y-19190D01*
X66390Y-19170D01*
X66340D01*
X66280Y-19200D01*
X66240Y-19240D01*
X66200Y-19290D01*
X66180Y-19370D01*
X66170Y-19450D01*
X66180Y-19520D01*
X66200Y-19570D01*
X66240Y-19620D01*
X66290Y-19650D01*
X66330Y-19670D01*
X66370D01*
X66420Y-19650D01*
X66460Y-19630D01*
X66490Y-19600D01*
G01X66840Y-19170D02*
Y-19670D01*
G01X66690Y-19170D02*
X66990D01*
G01X67350Y-19670D02*
X67300Y-19660D01*
X67260Y-19630D01*
X67220Y-19580D01*
X67190Y-19520D01*
X67180Y-19450D01*
Y-19390D01*
X67190Y-19320D01*
X67220Y-19260D01*
X67260Y-19210D01*
X67300Y-19180D01*
X67350Y-19170D01*
X67400Y-19180D01*
X67440Y-19210D01*
X67480Y-19260D01*
X67510Y-19320D01*
X67520Y-19390D01*
Y-19450D01*
X67510Y-19520D01*
X67480Y-19580D01*
X67440Y-19630D01*
X67400Y-19660D01*
X67350Y-19670D01*
G01X67730D02*
Y-19170D01*
X67890D01*
X67940Y-19200D01*
X67970Y-19230D01*
X67990Y-19300D01*
X67970Y-19360D01*
X67940Y-19400D01*
X67890Y-19430D01*
X67730D01*
G01X67890D02*
X67990Y-19670D01*
G01X68800Y-19500D02*
X68960D01*
G01X70040Y-19210D02*
X70000Y-19190D01*
X69960Y-19170D01*
X69910D01*
X69850Y-19200D01*
X69810Y-19240D01*
X69770Y-19290D01*
X69750Y-19370D01*
X69740Y-19450D01*
X69750Y-19520D01*
X69770Y-19570D01*
X69810Y-19620D01*
X69860Y-19650D01*
X69900Y-19670D01*
X69940D01*
X69990Y-19650D01*
X70030Y-19630D01*
X70060Y-19600D01*
G01X70410Y-19670D02*
X70360Y-19660D01*
X70320Y-19630D01*
X70280Y-19580D01*
X70250Y-19520D01*
X70240Y-19450D01*
Y-19390D01*
X70250Y-19320D01*
X70280Y-19260D01*
X70320Y-19210D01*
X70360Y-19180D01*
X70410Y-19170D01*
X70460Y-19180D01*
X70500Y-19210D01*
X70540Y-19260D01*
X70570Y-19320D01*
X70580Y-19390D01*
Y-19450D01*
X70570Y-19520D01*
X70540Y-19580D01*
X70500Y-19630D01*
X70460Y-19660D01*
X70410Y-19670D01*
G01X70790D02*
Y-19170D01*
X70950D01*
X71000Y-19200D01*
X71030Y-19250D01*
X71050Y-19320D01*
X71030Y-19390D01*
X71000Y-19440D01*
X70950Y-19460D01*
X70790D01*
G01X71300Y-19670D02*
Y-19170D01*
X71460D01*
X71510Y-19200D01*
X71540Y-19250D01*
X71560Y-19320D01*
X71540Y-19390D01*
X71510Y-19440D01*
X71460Y-19460D01*
X71300D01*
G01X72070Y-19670D02*
X71810D01*
Y-19170D01*
X72070D01*
G01X71970Y-19410D02*
X71810D01*
G01X72320Y-19670D02*
Y-19170D01*
X72480D01*
X72530Y-19200D01*
X72560Y-19230D01*
X72580Y-19300D01*
X72560Y-19360D01*
X72530Y-19400D01*
X72480Y-19430D01*
X72320D01*
G01X72480D02*
X72580Y-19670D01*
G01X73470D02*
Y-19170D01*
X73390Y-19270D01*
G01Y-19670D02*
X73550D01*
G01X74330D02*
Y-19170D01*
X74490Y-19590D01*
X74650Y-19170D01*
Y-19670D01*
G01X74920Y-19170D02*
X75080D01*
G01X75000D02*
Y-19670D01*
G01X74920D02*
X75080D01*
G01X75380Y-19170D02*
Y-19670D01*
X75640D01*
G01X60580Y-17740D02*
X60860Y-17370D01*
G01X60720Y-17300D02*
Y-17800D01*
G01X60860Y-17740D02*
X60580Y-17370D01*
G01X60530Y-17550D02*
X60910D01*
G01X62110Y-17720D02*
Y-17220D01*
X62240D01*
X62290Y-17250D01*
X62330Y-17280D01*
X62360Y-17330D01*
X62380Y-17390D01*
X62390Y-17470D01*
X62380Y-17550D01*
X62360Y-17610D01*
X62330Y-17660D01*
X62290Y-17700D01*
X62240Y-17720D01*
X62110D01*
G01X62680Y-17220D02*
X62840D01*
G01X62760D02*
Y-17720D01*
G01X62680D02*
X62840D01*
G01X63400D02*
X63140D01*
Y-17220D01*
X63400D01*
G01X63300Y-17460D02*
X63140D01*
G01X63650Y-17220D02*
Y-17720D01*
X63910D01*
G01X64420D02*
X64160D01*
Y-17220D01*
X64420D01*
G01X64320Y-17460D02*
X64160D01*
G01X64940Y-17260D02*
X64900Y-17240D01*
X64860Y-17220D01*
X64810D01*
X64750Y-17250D01*
X64710Y-17290D01*
X64670Y-17340D01*
X64650Y-17420D01*
X64640Y-17500D01*
X64650Y-17570D01*
X64670Y-17620D01*
X64710Y-17670D01*
X64760Y-17700D01*
X64800Y-17720D01*
X64840D01*
X64890Y-17700D01*
X64930Y-17680D01*
X64960Y-17650D01*
G01X65310Y-17220D02*
Y-17720D01*
G01X65160Y-17220D02*
X65460D01*
G01X65690Y-17720D02*
Y-17220D01*
X65850D01*
X65900Y-17250D01*
X65930Y-17280D01*
X65950Y-17350D01*
X65930Y-17410D01*
X65900Y-17450D01*
X65850Y-17480D01*
X65690D01*
G01X65850D02*
X65950Y-17720D01*
G01X66250Y-17220D02*
X66410D01*
G01X66330D02*
Y-17720D01*
G01X66250D02*
X66410D01*
G01X66980Y-17260D02*
X66940Y-17240D01*
X66900Y-17220D01*
X66850D01*
X66790Y-17250D01*
X66750Y-17290D01*
X66710Y-17340D01*
X66690Y-17420D01*
X66680Y-17500D01*
X66690Y-17570D01*
X66710Y-17620D01*
X66750Y-17670D01*
X66800Y-17700D01*
X66840Y-17720D01*
X66880D01*
X66930Y-17700D01*
X66970Y-17680D01*
X67000Y-17650D01*
G01X67780Y-17550D02*
X67940D01*
G01X68760Y-17720D02*
Y-17220D01*
X69000D01*
G01X68910Y-17460D02*
X68760D01*
G01X69260Y-17720D02*
Y-17220D01*
X69420D01*
X69470Y-17250D01*
X69500Y-17280D01*
X69520Y-17350D01*
X69500Y-17410D01*
X69470Y-17450D01*
X69420Y-17480D01*
X69260D01*
G01X69420D02*
X69520Y-17720D01*
G01X69820Y-17550D02*
X69980D01*
G01X70490Y-17720D02*
Y-17220D01*
X70250Y-17580D01*
X70570D01*
G01X71430Y-17720D02*
X71470Y-17710D01*
X71520Y-17690D01*
X71560Y-17650D01*
X71570Y-17590D01*
X71560Y-17530D01*
X71520Y-17480D01*
X71460Y-17450D01*
X71400D01*
X71360Y-17440D01*
X71330Y-17400D01*
X71320Y-17340D01*
X71340Y-17280D01*
X71380Y-17240D01*
X71430Y-17220D01*
X71480Y-17240D01*
X71520Y-17280D01*
X71540Y-17340D01*
X71530Y-17400D01*
X71500Y-17440D01*
X71460Y-17450D01*
X71400D01*
X71340Y-17480D01*
X71300Y-17530D01*
X71290Y-17590D01*
X71300Y-17650D01*
X71340Y-17690D01*
X71390Y-17710D01*
X71430Y-17720D01*
G01X72290D02*
Y-17220D01*
X72450Y-17640D01*
X72610Y-17220D01*
Y-17720D01*
G01X72880Y-17220D02*
X73040D01*
G01X72960D02*
Y-17720D01*
G01X72880D02*
X73040D01*
G01X73340Y-17220D02*
Y-17720D01*
X73600D01*
G01X59570Y-15270D02*
Y-15770D01*
X59830D01*
G01X60090Y-15350D02*
X60130Y-15300D01*
X60170Y-15280D01*
X60220Y-15270D01*
X60290Y-15290D01*
X60330Y-15330D01*
X60340Y-15380D01*
Y-15430D01*
X60310Y-15470D01*
X60180Y-15550D01*
X60130Y-15610D01*
X60090Y-15700D01*
X60080Y-15770D01*
X60340D01*
G01X60720Y-15790D02*
X60710Y-15780D01*
Y-15760D01*
X60720Y-15750D01*
X60730Y-15760D01*
Y-15780D01*
X60720Y-15790D01*
G01Y-15560D02*
X60710Y-15550D01*
Y-15540D01*
X60720Y-15530D01*
X60730Y-15540D01*
Y-15550D01*
X60720Y-15560D01*
G01X61780Y-15520D02*
X61900D01*
Y-15670D01*
X61870Y-15720D01*
X61820Y-15750D01*
X61760Y-15770D01*
X61700Y-15750D01*
X61650Y-15720D01*
X61610Y-15670D01*
X61590Y-15610D01*
X61580Y-15550D01*
Y-15490D01*
X61590Y-15440D01*
X61610Y-15380D01*
X61650Y-15330D01*
X61690Y-15300D01*
X61740Y-15270D01*
X61780D01*
X61830Y-15290D01*
X61870Y-15320D01*
G01X62100Y-15770D02*
Y-15270D01*
X62400Y-15770D01*
Y-15270D01*
G01X62620Y-15770D02*
Y-15270D01*
X62750D01*
X62800Y-15300D01*
X62840Y-15330D01*
X62870Y-15380D01*
X62890Y-15440D01*
X62900Y-15520D01*
X62890Y-15600D01*
X62870Y-15660D01*
X62840Y-15710D01*
X62800Y-15750D01*
X62750Y-15770D01*
X62620D01*
G01X63650D02*
Y-15270D01*
X63810D01*
X63860Y-15300D01*
X63890Y-15350D01*
X63910Y-15420D01*
X63890Y-15490D01*
X63860Y-15540D01*
X63810Y-15560D01*
X63650D01*
G01X64160Y-15270D02*
Y-15770D01*
X64420D01*
G01X64640D02*
X64800Y-15270D01*
X64960Y-15770D01*
G01X64900Y-15600D02*
X64700D01*
G01X65160Y-15770D02*
Y-15270D01*
X65460Y-15770D01*
Y-15270D01*
G01X65950Y-15770D02*
X65690D01*
Y-15270D01*
X65950D01*
G01X65850Y-15510D02*
X65690D01*
G01X66760Y-15600D02*
X66920D01*
G01X68000Y-15310D02*
X67960Y-15290D01*
X67920Y-15270D01*
X67870D01*
X67810Y-15300D01*
X67770Y-15340D01*
X67730Y-15390D01*
X67710Y-15470D01*
X67700Y-15550D01*
X67710Y-15620D01*
X67730Y-15670D01*
X67770Y-15720D01*
X67820Y-15750D01*
X67860Y-15770D01*
X67900D01*
X67950Y-15750D01*
X67990Y-15730D01*
X68020Y-15700D01*
G01X68370Y-15770D02*
X68320Y-15760D01*
X68280Y-15730D01*
X68240Y-15680D01*
X68210Y-15620D01*
X68200Y-15550D01*
Y-15490D01*
X68210Y-15420D01*
X68240Y-15360D01*
X68280Y-15310D01*
X68320Y-15280D01*
X68370Y-15270D01*
X68420Y-15280D01*
X68460Y-15310D01*
X68500Y-15360D01*
X68530Y-15420D01*
X68540Y-15490D01*
Y-15550D01*
X68530Y-15620D01*
X68500Y-15680D01*
X68460Y-15730D01*
X68420Y-15760D01*
X68370Y-15770D01*
G01X68750D02*
Y-15270D01*
X68910D01*
X68960Y-15300D01*
X68990Y-15350D01*
X69010Y-15420D01*
X68990Y-15490D01*
X68960Y-15540D01*
X68910Y-15560D01*
X68750D01*
G01X69260Y-15770D02*
Y-15270D01*
X69420D01*
X69470Y-15300D01*
X69500Y-15350D01*
X69520Y-15420D01*
X69500Y-15490D01*
X69470Y-15540D01*
X69420Y-15560D01*
X69260D01*
G01X70030Y-15770D02*
X69770D01*
Y-15270D01*
X70030D01*
G01X69930Y-15510D02*
X69770D01*
G01X70280Y-15770D02*
Y-15270D01*
X70440D01*
X70490Y-15300D01*
X70520Y-15330D01*
X70540Y-15400D01*
X70520Y-15460D01*
X70490Y-15500D01*
X70440Y-15530D01*
X70280D01*
G01X70440D02*
X70540Y-15770D01*
G01X71430D02*
Y-15270D01*
X71350Y-15370D01*
G01Y-15770D02*
X71510D01*
G01X72290D02*
Y-15270D01*
X72450Y-15690D01*
X72610Y-15270D01*
Y-15770D01*
G01X72880Y-15270D02*
X73040D01*
G01X72960D02*
Y-15770D01*
G01X72880D02*
X73040D01*
G01X73340Y-15270D02*
Y-15770D01*
X73600D01*
G01X60580Y-13840D02*
X60860Y-13470D01*
G01X60720Y-13400D02*
Y-13900D01*
G01X60860Y-13840D02*
X60580Y-13470D01*
G01X60530Y-13650D02*
X60910D01*
G01X62110Y-13820D02*
Y-13320D01*
X62240D01*
X62290Y-13350D01*
X62330Y-13380D01*
X62360Y-13430D01*
X62380Y-13490D01*
X62390Y-13570D01*
X62380Y-13650D01*
X62360Y-13710D01*
X62330Y-13760D01*
X62290Y-13800D01*
X62240Y-13820D01*
X62110D01*
G01X62680Y-13320D02*
X62840D01*
G01X62760D02*
Y-13820D01*
G01X62680D02*
X62840D01*
G01X63400D02*
X63140D01*
Y-13320D01*
X63400D01*
G01X63300Y-13560D02*
X63140D01*
G01X63650Y-13320D02*
Y-13820D01*
X63910D01*
G01X64420D02*
X64160D01*
Y-13320D01*
X64420D01*
G01X64320Y-13560D02*
X64160D01*
G01X64940Y-13360D02*
X64900Y-13340D01*
X64860Y-13320D01*
X64810D01*
X64750Y-13350D01*
X64710Y-13390D01*
X64670Y-13440D01*
X64650Y-13520D01*
X64640Y-13600D01*
X64650Y-13670D01*
X64670Y-13720D01*
X64710Y-13770D01*
X64760Y-13800D01*
X64800Y-13820D01*
X64840D01*
X64890Y-13800D01*
X64930Y-13780D01*
X64960Y-13750D01*
G01X65310Y-13320D02*
Y-13820D01*
G01X65160Y-13320D02*
X65460D01*
G01X65690Y-13820D02*
Y-13320D01*
X65850D01*
X65900Y-13350D01*
X65930Y-13380D01*
X65950Y-13450D01*
X65930Y-13510D01*
X65900Y-13550D01*
X65850Y-13580D01*
X65690D01*
G01X65850D02*
X65950Y-13820D01*
G01X66250Y-13320D02*
X66410D01*
G01X66330D02*
Y-13820D01*
G01X66250D02*
X66410D01*
G01X66980Y-13360D02*
X66940Y-13340D01*
X66900Y-13320D01*
X66850D01*
X66790Y-13350D01*
X66750Y-13390D01*
X66710Y-13440D01*
X66690Y-13520D01*
X66680Y-13600D01*
X66690Y-13670D01*
X66710Y-13720D01*
X66750Y-13770D01*
X66800Y-13800D01*
X66840Y-13820D01*
X66880D01*
X66930Y-13800D01*
X66970Y-13780D01*
X67000Y-13750D01*
G01X67780Y-13650D02*
X67940D01*
G01X68760Y-13820D02*
Y-13320D01*
X69000D01*
G01X68910Y-13560D02*
X68760D01*
G01X69260Y-13820D02*
Y-13320D01*
X69420D01*
X69470Y-13350D01*
X69500Y-13380D01*
X69520Y-13450D01*
X69500Y-13510D01*
X69470Y-13550D01*
X69420Y-13580D01*
X69260D01*
G01X69420D02*
X69520Y-13820D01*
G01X69820Y-13650D02*
X69980D01*
G01X70490Y-13820D02*
Y-13320D01*
X70250Y-13680D01*
X70570D01*
G01X71430Y-13820D02*
X71470Y-13810D01*
X71520Y-13790D01*
X71560Y-13750D01*
X71570Y-13690D01*
X71560Y-13630D01*
X71520Y-13580D01*
X71460Y-13550D01*
X71400D01*
X71360Y-13540D01*
X71330Y-13500D01*
X71320Y-13440D01*
X71340Y-13380D01*
X71380Y-13340D01*
X71430Y-13320D01*
X71480Y-13340D01*
X71520Y-13380D01*
X71540Y-13440D01*
X71530Y-13500D01*
X71500Y-13540D01*
X71460Y-13550D01*
X71400D01*
X71340Y-13580D01*
X71300Y-13630D01*
X71290Y-13690D01*
X71300Y-13750D01*
X71340Y-13790D01*
X71390Y-13810D01*
X71430Y-13820D01*
G01X72290D02*
Y-13320D01*
X72450Y-13740D01*
X72610Y-13320D01*
Y-13820D01*
G01X72880Y-13320D02*
X73040D01*
G01X72960D02*
Y-13820D01*
G01X72880D02*
X73040D01*
G01X73340Y-13320D02*
Y-13820D01*
X73600D01*
G01X59570Y-11370D02*
Y-11870D01*
X59830D01*
G01X60210D02*
Y-11370D01*
X60130Y-11470D01*
G01Y-11870D02*
X60290D01*
G01X60720Y-11890D02*
X60710Y-11880D01*
Y-11860D01*
X60720Y-11850D01*
X60730Y-11860D01*
Y-11880D01*
X60720Y-11890D01*
G01Y-11660D02*
X60710Y-11650D01*
Y-11640D01*
X60720Y-11630D01*
X60730Y-11640D01*
Y-11650D01*
X60720Y-11660D01*
G01X61740Y-11370D02*
Y-11870D01*
G01X61590Y-11370D02*
X61890D01*
G01X62250Y-11870D02*
X62200Y-11860D01*
X62160Y-11830D01*
X62120Y-11780D01*
X62090Y-11720D01*
X62080Y-11650D01*
Y-11590D01*
X62090Y-11520D01*
X62120Y-11460D01*
X62160Y-11410D01*
X62200Y-11380D01*
X62250Y-11370D01*
X62300Y-11380D01*
X62340Y-11410D01*
X62380Y-11460D01*
X62410Y-11520D01*
X62420Y-11590D01*
Y-11650D01*
X62410Y-11720D01*
X62380Y-11780D01*
X62340Y-11830D01*
X62300Y-11860D01*
X62250Y-11870D01*
G01X62630D02*
Y-11370D01*
X62790D01*
X62840Y-11400D01*
X62870Y-11450D01*
X62890Y-11520D01*
X62870Y-11590D01*
X62840Y-11640D01*
X62790Y-11660D01*
X62630D01*
G01X63920Y-11410D02*
X63880Y-11390D01*
X63840Y-11370D01*
X63790D01*
X63730Y-11400D01*
X63690Y-11440D01*
X63650Y-11490D01*
X63630Y-11570D01*
X63620Y-11650D01*
X63630Y-11720D01*
X63650Y-11770D01*
X63690Y-11820D01*
X63740Y-11850D01*
X63780Y-11870D01*
X63820D01*
X63870Y-11850D01*
X63910Y-11830D01*
X63940Y-11800D01*
G01X64290Y-11870D02*
X64240Y-11860D01*
X64200Y-11830D01*
X64160Y-11780D01*
X64130Y-11720D01*
X64120Y-11650D01*
Y-11590D01*
X64130Y-11520D01*
X64160Y-11460D01*
X64200Y-11410D01*
X64240Y-11380D01*
X64290Y-11370D01*
X64340Y-11380D01*
X64380Y-11410D01*
X64420Y-11460D01*
X64450Y-11520D01*
X64460Y-11590D01*
Y-11650D01*
X64450Y-11720D01*
X64420Y-11780D01*
X64380Y-11830D01*
X64340Y-11860D01*
X64290Y-11870D01*
G01X64650D02*
Y-11370D01*
X64950Y-11870D01*
Y-11370D01*
G01X65170Y-11870D02*
Y-11370D01*
X65300D01*
X65350Y-11400D01*
X65390Y-11430D01*
X65420Y-11480D01*
X65440Y-11540D01*
X65450Y-11620D01*
X65440Y-11700D01*
X65420Y-11760D01*
X65390Y-11810D01*
X65350Y-11850D01*
X65300Y-11870D01*
X65170D01*
G01X65680Y-11370D02*
Y-11730D01*
X65710Y-11800D01*
X65760Y-11850D01*
X65820Y-11870D01*
X65880Y-11850D01*
X65930Y-11800D01*
X65960Y-11730D01*
Y-11370D01*
G01X66470Y-11410D02*
X66430Y-11390D01*
X66390Y-11370D01*
X66340D01*
X66280Y-11400D01*
X66240Y-11440D01*
X66200Y-11490D01*
X66180Y-11570D01*
X66170Y-11650D01*
X66180Y-11720D01*
X66200Y-11770D01*
X66240Y-11820D01*
X66290Y-11850D01*
X66330Y-11870D01*
X66370D01*
X66420Y-11850D01*
X66460Y-11830D01*
X66490Y-11800D01*
G01X66840Y-11370D02*
Y-11870D01*
G01X66690Y-11370D02*
X66990D01*
G01X67350Y-11870D02*
X67300Y-11860D01*
X67260Y-11830D01*
X67220Y-11780D01*
X67190Y-11720D01*
X67180Y-11650D01*
Y-11590D01*
X67190Y-11520D01*
X67220Y-11460D01*
X67260Y-11410D01*
X67300Y-11380D01*
X67350Y-11370D01*
X67400Y-11380D01*
X67440Y-11410D01*
X67480Y-11460D01*
X67510Y-11520D01*
X67520Y-11590D01*
Y-11650D01*
X67510Y-11720D01*
X67480Y-11780D01*
X67440Y-11830D01*
X67400Y-11860D01*
X67350Y-11870D01*
G01X67730D02*
Y-11370D01*
X67890D01*
X67940Y-11400D01*
X67970Y-11430D01*
X67990Y-11500D01*
X67970Y-11560D01*
X67940Y-11600D01*
X67890Y-11630D01*
X67730D01*
G01X67890D02*
X67990Y-11870D01*
G01X68800Y-11700D02*
X68960D01*
G01X70040Y-11410D02*
X70000Y-11390D01*
X69960Y-11370D01*
X69910D01*
X69850Y-11400D01*
X69810Y-11440D01*
X69770Y-11490D01*
X69750Y-11570D01*
X69740Y-11650D01*
X69750Y-11720D01*
X69770Y-11770D01*
X69810Y-11820D01*
X69860Y-11850D01*
X69900Y-11870D01*
X69940D01*
X69990Y-11850D01*
X70030Y-11830D01*
X70060Y-11800D01*
G01X70410Y-11870D02*
X70360Y-11860D01*
X70320Y-11830D01*
X70280Y-11780D01*
X70250Y-11720D01*
X70240Y-11650D01*
Y-11590D01*
X70250Y-11520D01*
X70280Y-11460D01*
X70320Y-11410D01*
X70360Y-11380D01*
X70410Y-11370D01*
X70460Y-11380D01*
X70500Y-11410D01*
X70540Y-11460D01*
X70570Y-11520D01*
X70580Y-11590D01*
Y-11650D01*
X70570Y-11720D01*
X70540Y-11780D01*
X70500Y-11830D01*
X70460Y-11860D01*
X70410Y-11870D01*
G01X70790D02*
Y-11370D01*
X70950D01*
X71000Y-11400D01*
X71030Y-11450D01*
X71050Y-11520D01*
X71030Y-11590D01*
X71000Y-11640D01*
X70950Y-11660D01*
X70790D01*
G01X71300Y-11870D02*
Y-11370D01*
X71460D01*
X71510Y-11400D01*
X71540Y-11450D01*
X71560Y-11520D01*
X71540Y-11590D01*
X71510Y-11640D01*
X71460Y-11660D01*
X71300D01*
G01X72070Y-11870D02*
X71810D01*
Y-11370D01*
X72070D01*
G01X71970Y-11610D02*
X71810D01*
G01X72320Y-11870D02*
Y-11370D01*
X72480D01*
X72530Y-11400D01*
X72560Y-11430D01*
X72580Y-11500D01*
X72560Y-11560D01*
X72530Y-11600D01*
X72480Y-11630D01*
X72320D01*
G01X72480D02*
X72580Y-11870D01*
G01X73470D02*
Y-11370D01*
X73390Y-11470D01*
G01Y-11870D02*
X73550D01*
G01X74330D02*
Y-11370D01*
X74490Y-11790D01*
X74650Y-11370D01*
Y-11870D01*
G01X74920Y-11370D02*
X75080D01*
G01X75000D02*
Y-11870D01*
G01X74920D02*
X75080D01*
G01X75380Y-11370D02*
Y-11870D01*
X75640D01*
G01X60380Y-10470D02*
X60660Y-10100D01*
G01X60520Y-10030D02*
Y-10530D01*
G01X60660Y-10470D02*
X60380Y-10100D01*
G01X60330Y-10280D02*
X60710D01*
G01X61920Y-10380D02*
X61970Y-10430D01*
X62020Y-10450D01*
X62080D01*
X62130Y-10430D01*
X62160Y-10380D01*
X62180Y-10320D01*
X62170Y-10270D01*
X62140Y-10220D01*
X62080Y-10180D01*
X62010Y-10170D01*
X61960Y-10130D01*
X61940Y-10080D01*
X61960Y-10020D01*
X61990Y-9980D01*
X62030Y-9950D01*
X62080D01*
X62120Y-9970D01*
X62160Y-10010D01*
G01X62420Y-9950D02*
Y-10310D01*
X62450Y-10380D01*
X62500Y-10430D01*
X62560Y-10450D01*
X62620Y-10430D01*
X62670Y-10380D01*
X62700Y-10310D01*
Y-9950D01*
G01X62940Y-10450D02*
Y-9950D01*
X63100D01*
X63150Y-9980D01*
X63180Y-10010D01*
X63200Y-10080D01*
X63180Y-10140D01*
X63150Y-10180D01*
X63100Y-10210D01*
X62940D01*
G01X63100D02*
X63200Y-10450D01*
G01X63460D02*
Y-9950D01*
X63700D01*
G01X63610Y-10190D02*
X63460D01*
G01X63930Y-10450D02*
X64090Y-9950D01*
X64250Y-10450D01*
G01X64190Y-10280D02*
X63990D01*
G01X64740Y-9990D02*
X64700Y-9970D01*
X64660Y-9950D01*
X64610D01*
X64550Y-9980D01*
X64510Y-10020D01*
X64470Y-10070D01*
X64450Y-10150D01*
X64440Y-10230D01*
X64450Y-10300D01*
X64470Y-10350D01*
X64510Y-10400D01*
X64560Y-10430D01*
X64600Y-10450D01*
X64640D01*
X64690Y-10430D01*
X64730Y-10410D01*
X64760Y-10380D01*
G01X65240Y-10450D02*
X64980D01*
Y-9950D01*
X65240D01*
G01X65140Y-10190D02*
X64980D01*
G01X66050Y-10280D02*
X66210D01*
G01X66990Y-10450D02*
X67150Y-9950D01*
X67310Y-10450D01*
G01X67250Y-10280D02*
X67050D01*
G01X67580Y-9950D02*
X67740D01*
G01X67660D02*
Y-10450D01*
G01X67580D02*
X67740D01*
G01X68040D02*
Y-9950D01*
X68200D01*
X68250Y-9980D01*
X68280Y-10010D01*
X68300Y-10080D01*
X68280Y-10140D01*
X68250Y-10180D01*
X68200Y-10210D01*
X68040D01*
G01X68200D02*
X68300Y-10450D01*
G01X69190Y-9950D02*
X69140Y-9970D01*
X69100Y-10010D01*
X69080Y-10060D01*
X69060Y-10130D01*
X69050Y-10200D01*
X69060Y-10280D01*
X69080Y-10340D01*
X69100Y-10390D01*
X69140Y-10430D01*
X69190Y-10450D01*
X69240Y-10430D01*
X69280Y-10390D01*
X69300Y-10340D01*
X69320Y-10280D01*
X69330Y-10200D01*
X69320Y-10130D01*
X69300Y-10060D01*
X69280Y-10010D01*
X69240Y-9970D01*
X69190Y-9950D01*
G01X70050Y-10450D02*
Y-9950D01*
X70210Y-10370D01*
X70370Y-9950D01*
Y-10450D01*
G01X70640Y-9950D02*
X70800D01*
G01X70720D02*
Y-10450D01*
G01X70640D02*
X70800D01*
G01X71100Y-9950D02*
Y-10450D01*
X71360D01*
G01X64990Y52190D02*
Y-6870D01*
G01X64330Y55620D02*
Y56870D01*
X64640D01*
X64770Y56810D01*
X64860Y56720D01*
X64940Y56600D01*
X65000Y56450D01*
X65020Y56240D01*
X65000Y56040D01*
X64940Y55890D01*
X64860Y55770D01*
X64770Y55680D01*
X64640Y55620D01*
X64330D01*
G01X65600D02*
Y56870D01*
X65990D01*
X66120Y56810D01*
X66190Y56720D01*
X66230Y56560D01*
X66190Y56390D01*
X66100Y56290D01*
X65990Y56220D01*
X65600D01*
G01X65990D02*
X66230Y55620D01*
G01X66970Y56870D02*
X67340D01*
G01X67150D02*
Y55620D01*
G01X66970D02*
X67340D01*
G01X68080Y56870D02*
Y55620D01*
X68710D01*
G01X69320Y56870D02*
Y55620D01*
X69950D01*
G01X72460Y56770D02*
X72360Y56830D01*
X72250Y56870D01*
X72130D01*
X71990Y56810D01*
X71880Y56700D01*
X71800Y56580D01*
X71740Y56370D01*
X71730Y56180D01*
X71760Y55990D01*
X71800Y55870D01*
X71900Y55740D01*
X72010Y55660D01*
X72110Y55620D01*
X72220D01*
X72330Y55660D01*
X72430Y55720D01*
X72500Y55810D01*
G01X73030Y55620D02*
Y56870D01*
G01X73680D02*
Y55620D01*
G01Y56240D02*
X73030D01*
G01X74210Y55620D02*
X74590Y56870D01*
X74980Y55620D01*
G01X74840Y56060D02*
X74350D01*
G01X75520Y55620D02*
Y56870D01*
X75910D01*
X76040Y56810D01*
X76110Y56720D01*
X76150Y56560D01*
X76110Y56390D01*
X76020Y56290D01*
X75910Y56220D01*
X75520D01*
G01X75910D02*
X76150Y55620D01*
G01X77070Y56870D02*
Y55620D01*
G01X76720Y56870D02*
X77430D01*
G01X78310Y55580D02*
X78280Y55600D01*
Y55640D01*
X78310Y55660D01*
X78350Y55640D01*
Y55600D01*
X78310Y55580D01*
G01Y56140D02*
X78280Y56160D01*
Y56200D01*
X78310Y56220D01*
X78350Y56200D01*
Y56160D01*
X78310Y56140D01*
G01X80790Y56870D02*
Y55620D01*
G01X80440Y56870D02*
X81150D01*
G01X82030Y55620D02*
X81910Y55640D01*
X81800Y55720D01*
X81710Y55850D01*
X81650Y55990D01*
X81620Y56160D01*
Y56330D01*
X81650Y56500D01*
X81710Y56640D01*
X81800Y56770D01*
X81910Y56850D01*
X82030Y56870D01*
X82160Y56850D01*
X82270Y56770D01*
X82360Y56640D01*
X82420Y56500D01*
X82450Y56330D01*
Y56160D01*
X82420Y55990D01*
X82360Y55850D01*
X82270Y55720D01*
X82160Y55640D01*
X82030Y55620D01*
G01X82960D02*
Y56870D01*
X83340D01*
X83460Y56810D01*
X83550Y56660D01*
X83590Y56500D01*
X83550Y56330D01*
X83480Y56200D01*
X83340Y56140D01*
X82960D01*
G01X85750Y56870D02*
Y55620D01*
G01X85540Y56450D02*
X85970D01*
G01X86990Y55620D02*
X86900Y55640D01*
X86810Y55720D01*
X86750Y55870D01*
X86720Y56040D01*
X86750Y56200D01*
X86810Y56350D01*
X86900Y56430D01*
X86990Y56450D01*
X87090Y56430D01*
X87180Y56350D01*
X87240Y56200D01*
X87260Y56040D01*
X87240Y55870D01*
X87180Y55720D01*
X87090Y55640D01*
X86990Y55620D01*
G01X89600Y56290D02*
X89660Y56350D01*
X89710Y56450D01*
X89740Y56600D01*
X89710Y56720D01*
X89650Y56810D01*
X89540Y56870D01*
X89120D01*
Y55620D01*
X89630D01*
X89740Y55700D01*
X89800Y55830D01*
X89830Y55970D01*
X89800Y56120D01*
X89710Y56240D01*
X89600Y56290D01*
X89120D01*
G01X90710Y55620D02*
X90590Y55640D01*
X90480Y55720D01*
X90390Y55850D01*
X90330Y55990D01*
X90300Y56160D01*
Y56330D01*
X90330Y56500D01*
X90390Y56640D01*
X90480Y56770D01*
X90590Y56850D01*
X90710Y56870D01*
X90840Y56850D01*
X90950Y56770D01*
X91040Y56640D01*
X91100Y56500D01*
X91130Y56330D01*
Y56160D01*
X91100Y55990D01*
X91040Y55850D01*
X90950Y55720D01*
X90840Y55640D01*
X90710Y55620D01*
G01X91950Y56870D02*
Y55620D01*
G01X91600Y56870D02*
X92310D01*
G01X93190D02*
Y55620D01*
G01X92840Y56870D02*
X93550D01*
G01X94430Y55620D02*
X94310Y55640D01*
X94200Y55720D01*
X94110Y55850D01*
X94050Y55990D01*
X94020Y56160D01*
Y56330D01*
X94050Y56500D01*
X94110Y56640D01*
X94200Y56770D01*
X94310Y56850D01*
X94430Y56870D01*
X94560Y56850D01*
X94670Y56770D01*
X94760Y56640D01*
X94820Y56500D01*
X94850Y56330D01*
Y56160D01*
X94820Y55990D01*
X94760Y55850D01*
X94670Y55720D01*
X94560Y55640D01*
X94430Y55620D01*
G01X95270D02*
Y56870D01*
X95670Y55830D01*
X96080Y56870D01*
Y55620D01*
G01X67390Y53120D02*
X67770Y54370D01*
X68160Y53120D01*
G01X68020Y53560D02*
X67530D01*
G01X68700Y54370D02*
Y53120D01*
X69330D01*
G01X69940Y54370D02*
Y53120D01*
X70570D01*
G01X72390Y54370D02*
Y53470D01*
X72460Y53290D01*
X72580Y53160D01*
X72730Y53120D01*
X72890Y53160D01*
X73010Y53290D01*
X73080Y53470D01*
Y54370D01*
G01X73620Y53120D02*
Y54370D01*
X74330Y53120D01*
Y54370D01*
G01X75030D02*
X75400D01*
G01X75210D02*
Y53120D01*
G01X75030D02*
X75400D01*
G01X76450Y54370D02*
Y53120D01*
G01X76100Y54370D02*
X76810D01*
G01X77370Y53290D02*
X77490Y53180D01*
X77630Y53120D01*
X77760D01*
X77880Y53180D01*
X77970Y53290D01*
X78020Y53430D01*
X77990Y53580D01*
X77910Y53700D01*
X77770Y53790D01*
X77590Y53830D01*
X77480Y53910D01*
X77430Y54060D01*
X77460Y54200D01*
X77540Y54310D01*
X77650Y54370D01*
X77760D01*
X77870Y54330D01*
X77960Y54220D01*
G01X79790Y53120D02*
X80170Y54370D01*
X80560Y53120D01*
G01X80420Y53560D02*
X79930D01*
G01X81100Y53120D02*
Y54370D01*
X81490D01*
X81620Y54310D01*
X81690Y54220D01*
X81730Y54060D01*
X81690Y53890D01*
X81600Y53790D01*
X81490Y53720D01*
X81100D01*
G01X81490D02*
X81730Y53120D01*
G01X82970D02*
X82340D01*
Y54370D01*
X82970D01*
G01X82720Y53770D02*
X82340D01*
G01X84950Y54370D02*
X85320D01*
G01X85130D02*
Y53120D01*
G01X84950D02*
X85320D01*
G01X86020D02*
Y54370D01*
X86730Y53120D01*
Y54370D01*
G01X88450Y53120D02*
Y54370D01*
X88850Y53330D01*
X89260Y54370D01*
Y53120D01*
G01X89910Y54370D02*
X90280D01*
G01X90090D02*
Y53120D01*
G01X89910D02*
X90280D01*
G01X91020Y54370D02*
Y53120D01*
X91650D01*
G01X92250Y53290D02*
X92370Y53180D01*
X92510Y53120D01*
X92640D01*
X92760Y53180D01*
X92850Y53290D01*
X92900Y53430D01*
X92870Y53580D01*
X92790Y53700D01*
X92650Y53790D01*
X92470Y53830D01*
X92360Y53910D01*
X92310Y54060D01*
X92340Y54200D01*
X92420Y54310D01*
X92530Y54370D01*
X92640D01*
X92750Y54330D01*
X92840Y54220D01*
G01X72540Y-2810D02*
X72570Y-2540D01*
X72620Y-2310D01*
X72680Y-2100D01*
X72760Y-1870D01*
X72890Y-1560D01*
X72260D01*
G01X73470Y-2620D02*
X73570Y-2730D01*
X73680Y-2790D01*
X73810Y-2810D01*
X73950Y-2770D01*
X74060Y-2690D01*
X74140Y-2540D01*
X74160Y-2370D01*
X74130Y-2210D01*
X74050Y-2100D01*
X73940Y-2020D01*
X73830Y-2000D01*
X73720Y-2020D01*
X73580Y-2100D01*
X73630Y-1560D01*
X74050D01*
G01X75050Y-2850D02*
X75020Y-2830D01*
Y-2790D01*
X75050Y-2770D01*
X75090Y-2790D01*
Y-2830D01*
X75050Y-2850D01*
G01X76290Y-1560D02*
X76170Y-1600D01*
X76080Y-1710D01*
X76020Y-1830D01*
X75970Y-2000D01*
X75950Y-2190D01*
X75970Y-2370D01*
X76020Y-2540D01*
X76080Y-2660D01*
X76170Y-2770D01*
X76290Y-2810D01*
X76420Y-2770D01*
X76510Y-2660D01*
X76570Y-2540D01*
X76620Y-2370D01*
X76640Y-2190D01*
X76620Y-2000D01*
X76570Y-1830D01*
X76510Y-1710D01*
X76420Y-1600D01*
X76290Y-1560D01*
G01X72230Y6760D02*
X72330Y6650D01*
X72440Y6590D01*
X72570Y6570D01*
X72710Y6610D01*
X72820Y6690D01*
X72900Y6840D01*
X72920Y7010D01*
X72890Y7170D01*
X72810Y7280D01*
X72700Y7360D01*
X72590Y7380D01*
X72480Y7360D01*
X72340Y7280D01*
X72390Y7820D01*
X72810D01*
G01X73810Y6570D02*
Y7820D01*
X73630Y7570D01*
G01Y6570D02*
X74000D01*
G01X75050Y6530D02*
X75020Y6550D01*
Y6590D01*
X75050Y6610D01*
X75090Y6590D01*
Y6550D01*
X75050Y6530D01*
G01X76290Y7820D02*
X76170Y7780D01*
X76080Y7670D01*
X76020Y7550D01*
X75970Y7380D01*
X75950Y7190D01*
X75970Y7010D01*
X76020Y6840D01*
X76080Y6720D01*
X76170Y6610D01*
X76290Y6570D01*
X76420Y6610D01*
X76510Y6720D01*
X76570Y6840D01*
X76620Y7010D01*
X76640Y7190D01*
X76620Y7380D01*
X76570Y7550D01*
X76510Y7670D01*
X76420Y7780D01*
X76290Y7820D01*
G01X72230Y16190D02*
X72330Y16040D01*
X72450Y15960D01*
X72590Y15940D01*
X72710Y15960D01*
X72840Y16060D01*
X72920Y16190D01*
X72930Y16310D01*
X72900Y16460D01*
X72790Y16560D01*
X72680Y16610D01*
X72540D01*
G01X72680D02*
X72780Y16670D01*
X72850Y16770D01*
X72890Y16900D01*
X72850Y17020D01*
X72780Y17130D01*
X72640Y17190D01*
X72500Y17170D01*
X72360Y17090D01*
G01X73470Y16130D02*
X73570Y16020D01*
X73680Y15960D01*
X73810Y15940D01*
X73950Y15980D01*
X74060Y16060D01*
X74140Y16210D01*
X74160Y16380D01*
X74130Y16540D01*
X74050Y16650D01*
X73940Y16730D01*
X73830Y16750D01*
X73720Y16730D01*
X73580Y16650D01*
X73630Y17190D01*
X74050D01*
G01X75050Y15900D02*
X75020Y15920D01*
Y15960D01*
X75050Y15980D01*
X75090Y15960D01*
Y15920D01*
X75050Y15900D01*
G01X76290Y17190D02*
X76170Y17150D01*
X76080Y17040D01*
X76020Y16920D01*
X75970Y16750D01*
X75950Y16560D01*
X75970Y16380D01*
X76020Y16210D01*
X76080Y16090D01*
X76170Y15980D01*
X76290Y15940D01*
X76420Y15980D01*
X76510Y16090D01*
X76570Y16210D01*
X76620Y16380D01*
X76640Y16560D01*
X76620Y16750D01*
X76570Y16920D01*
X76510Y17040D01*
X76420Y17150D01*
X76290Y17190D01*
G01X72230Y25570D02*
X72330Y25420D01*
X72450Y25340D01*
X72590Y25320D01*
X72710Y25340D01*
X72840Y25440D01*
X72920Y25570D01*
X72930Y25690D01*
X72900Y25840D01*
X72790Y25940D01*
X72680Y25990D01*
X72540D01*
G01X72680D02*
X72780Y26050D01*
X72850Y26150D01*
X72890Y26280D01*
X72850Y26400D01*
X72780Y26510D01*
X72640Y26570D01*
X72500Y26550D01*
X72360Y26470D01*
G01X73810Y25320D02*
Y26570D01*
X73630Y26320D01*
G01Y25320D02*
X74000D01*
G01X75050Y25280D02*
X75020Y25300D01*
Y25340D01*
X75050Y25360D01*
X75090Y25340D01*
Y25300D01*
X75050Y25280D01*
G01X76290Y26570D02*
X76170Y26530D01*
X76080Y26420D01*
X76020Y26300D01*
X75970Y26130D01*
X75950Y25940D01*
X75970Y25760D01*
X76020Y25590D01*
X76080Y25470D01*
X76170Y25360D01*
X76290Y25320D01*
X76420Y25360D01*
X76510Y25470D01*
X76570Y25590D01*
X76620Y25760D01*
X76640Y25940D01*
X76620Y26130D01*
X76570Y26300D01*
X76510Y26420D01*
X76420Y26530D01*
X76290Y26570D01*
G01X72280Y35730D02*
X72370Y35860D01*
X72480Y35920D01*
X72610Y35940D01*
X72760Y35900D01*
X72870Y35790D01*
X72900Y35670D01*
X72890Y35540D01*
X72820Y35440D01*
X72510Y35230D01*
X72370Y35090D01*
X72280Y34880D01*
X72250Y34690D01*
X72900D01*
G01X74000D02*
Y35940D01*
X73430Y35040D01*
X74200D01*
G01X75050Y34650D02*
X75020Y34670D01*
Y34710D01*
X75050Y34730D01*
X75090Y34710D01*
Y34670D01*
X75050Y34650D01*
G01X76290Y35940D02*
X76170Y35900D01*
X76080Y35790D01*
X76020Y35670D01*
X75970Y35500D01*
X75950Y35310D01*
X75970Y35130D01*
X76020Y34960D01*
X76080Y34840D01*
X76170Y34730D01*
X76290Y34690D01*
X76420Y34730D01*
X76510Y34840D01*
X76570Y34960D01*
X76620Y35130D01*
X76640Y35310D01*
X76620Y35500D01*
X76570Y35670D01*
X76510Y35790D01*
X76420Y35900D01*
X76290Y35940D01*
G01X71950Y44070D02*
Y45320D01*
X71770Y45070D01*
G01Y44070D02*
X72140D01*
G01X72900Y45110D02*
X72990Y45240D01*
X73100Y45300D01*
X73230Y45320D01*
X73380Y45280D01*
X73490Y45170D01*
X73520Y45050D01*
X73510Y44920D01*
X73440Y44820D01*
X73130Y44610D01*
X72990Y44470D01*
X72900Y44260D01*
X72870Y44070D01*
X73520D01*
G01X74090Y44260D02*
X74190Y44150D01*
X74300Y44090D01*
X74430Y44070D01*
X74570Y44110D01*
X74680Y44190D01*
X74760Y44340D01*
X74780Y44510D01*
X74750Y44670D01*
X74670Y44780D01*
X74560Y44860D01*
X74450Y44880D01*
X74340Y44860D01*
X74200Y44780D01*
X74250Y45320D01*
X74670D01*
G01X75670Y44030D02*
X75640Y44050D01*
Y44090D01*
X75670Y44110D01*
X75710Y44090D01*
Y44050D01*
X75670Y44030D01*
G01X76910Y45320D02*
X76790Y45280D01*
X76700Y45170D01*
X76640Y45050D01*
X76590Y44880D01*
X76570Y44690D01*
X76590Y44510D01*
X76640Y44340D01*
X76700Y44220D01*
X76790Y44110D01*
X76910Y44070D01*
X77040Y44110D01*
X77130Y44220D01*
X77190Y44340D01*
X77240Y44510D01*
X77260Y44690D01*
X77240Y44880D01*
X77190Y45050D01*
X77130Y45170D01*
X77040Y45280D01*
X76910Y45320D01*
G01X72250Y50490D02*
X72370Y50380D01*
X72510Y50320D01*
X72640D01*
X72760Y50380D01*
X72850Y50490D01*
X72900Y50630D01*
X72870Y50780D01*
X72790Y50900D01*
X72650Y50990D01*
X72470Y51030D01*
X72360Y51110D01*
X72310Y51260D01*
X72340Y51400D01*
X72420Y51510D01*
X72530Y51570D01*
X72640D01*
X72750Y51530D01*
X72840Y51420D01*
G01X73630Y51570D02*
X74000D01*
G01X73810D02*
Y50320D01*
G01X73630D02*
X74000D01*
G01X74760Y51570D02*
X75350D01*
X74760Y50320D01*
X75350D01*
G01X76610D02*
X75980D01*
Y51570D01*
X76610D01*
G01X76360Y50970D02*
X75980D01*
G01X83900Y52190D02*
Y-6870D01*
G01X84320Y44070D02*
Y45320D01*
X85030Y44070D01*
Y45320D01*
G01X85910Y44070D02*
X85790Y44090D01*
X85680Y44170D01*
X85590Y44300D01*
X85530Y44440D01*
X85500Y44610D01*
Y44780D01*
X85530Y44950D01*
X85590Y45090D01*
X85680Y45220D01*
X85790Y45300D01*
X85910Y45320D01*
X86040Y45300D01*
X86150Y45220D01*
X86240Y45090D01*
X86300Y44950D01*
X86330Y44780D01*
Y44610D01*
X86300Y44440D01*
X86240Y44300D01*
X86150Y44170D01*
X86040Y44090D01*
X85910Y44070D01*
G01X86800D02*
Y45320D01*
X87510Y44070D01*
Y45320D01*
G01X88190Y44490D02*
X88600D01*
G01X89320Y44070D02*
Y45320D01*
X89700D01*
X89820Y45260D01*
X89910Y45110D01*
X89950Y44950D01*
X89910Y44780D01*
X89840Y44650D01*
X89700Y44590D01*
X89320D01*
G01X90560Y45320D02*
Y44070D01*
X91190D01*
G01X91730D02*
X92110Y45320D01*
X92500Y44070D01*
G01X92360Y44510D02*
X91870D01*
G01X93350Y45320D02*
Y44070D01*
G01X93000Y45320D02*
X93710D01*
G01X94910Y44070D02*
X94280D01*
Y45320D01*
X94910D01*
G01X94660Y44720D02*
X94280D01*
G01X95490Y44070D02*
Y45320D01*
X95800D01*
X95930Y45260D01*
X96020Y45170D01*
X96100Y45050D01*
X96160Y44900D01*
X96180Y44690D01*
X96160Y44490D01*
X96100Y44340D01*
X96020Y44220D01*
X95930Y44130D01*
X95800Y44070D01*
X95490D01*
G01X86840Y-2810D02*
Y-1560D01*
X87220D01*
X87340Y-1620D01*
X87430Y-1770D01*
X87470Y-1930D01*
X87430Y-2100D01*
X87360Y-2230D01*
X87220Y-2290D01*
X86840D01*
G01X88080Y-1560D02*
Y-2810D01*
X88710D01*
G01X89250D02*
X89630Y-1560D01*
X90020Y-2810D01*
G01X89880Y-2370D02*
X89390D01*
G01X90870Y-1560D02*
Y-2810D01*
G01X90520Y-1560D02*
X91230D01*
G01X92430Y-2810D02*
X91800D01*
Y-1560D01*
X92430D01*
G01X92180Y-2160D02*
X91800D01*
G01X93010Y-2810D02*
Y-1560D01*
X93320D01*
X93450Y-1620D01*
X93540Y-1710D01*
X93620Y-1830D01*
X93680Y-1980D01*
X93700Y-2190D01*
X93680Y-2390D01*
X93620Y-2540D01*
X93540Y-2660D01*
X93450Y-2750D01*
X93320Y-2810D01*
X93010D01*
G01X86840Y6570D02*
Y7820D01*
X87220D01*
X87340Y7760D01*
X87430Y7610D01*
X87470Y7450D01*
X87430Y7280D01*
X87360Y7150D01*
X87220Y7090D01*
X86840D01*
G01X88080Y7820D02*
Y6570D01*
X88710D01*
G01X89250D02*
X89630Y7820D01*
X90020Y6570D01*
G01X89880Y7010D02*
X89390D01*
G01X90870Y7820D02*
Y6570D01*
G01X90520Y7820D02*
X91230D01*
G01X92430Y6570D02*
X91800D01*
Y7820D01*
X92430D01*
G01X92180Y7220D02*
X91800D01*
G01X93010Y6570D02*
Y7820D01*
X93320D01*
X93450Y7760D01*
X93540Y7670D01*
X93620Y7550D01*
X93680Y7400D01*
X93700Y7190D01*
X93680Y6990D01*
X93620Y6840D01*
X93540Y6720D01*
X93450Y6630D01*
X93320Y6570D01*
X93010D01*
G01X86840Y15940D02*
Y17190D01*
X87220D01*
X87340Y17130D01*
X87430Y16980D01*
X87470Y16820D01*
X87430Y16650D01*
X87360Y16520D01*
X87220Y16460D01*
X86840D01*
G01X88080Y17190D02*
Y15940D01*
X88710D01*
G01X89250D02*
X89630Y17190D01*
X90020Y15940D01*
G01X89880Y16380D02*
X89390D01*
G01X90870Y17190D02*
Y15940D01*
G01X90520Y17190D02*
X91230D01*
G01X92430Y15940D02*
X91800D01*
Y17190D01*
X92430D01*
G01X92180Y16590D02*
X91800D01*
G01X93010Y15940D02*
Y17190D01*
X93320D01*
X93450Y17130D01*
X93540Y17040D01*
X93620Y16920D01*
X93680Y16770D01*
X93700Y16560D01*
X93680Y16360D01*
X93620Y16210D01*
X93540Y16090D01*
X93450Y16000D01*
X93320Y15940D01*
X93010D01*
G01X86840Y25320D02*
Y26570D01*
X87220D01*
X87340Y26510D01*
X87430Y26360D01*
X87470Y26200D01*
X87430Y26030D01*
X87360Y25900D01*
X87220Y25840D01*
X86840D01*
G01X88080Y26570D02*
Y25320D01*
X88710D01*
G01X89250D02*
X89630Y26570D01*
X90020Y25320D01*
G01X89880Y25760D02*
X89390D01*
G01X90870Y26570D02*
Y25320D01*
G01X90520Y26570D02*
X91230D01*
G01X92430Y25320D02*
X91800D01*
Y26570D01*
X92430D01*
G01X92180Y25970D02*
X91800D01*
G01X93010Y25320D02*
Y26570D01*
X93320D01*
X93450Y26510D01*
X93540Y26420D01*
X93620Y26300D01*
X93680Y26150D01*
X93700Y25940D01*
X93680Y25740D01*
X93620Y25590D01*
X93540Y25470D01*
X93450Y25380D01*
X93320Y25320D01*
X93010D01*
G01X86840Y34690D02*
Y35940D01*
X87220D01*
X87340Y35880D01*
X87430Y35730D01*
X87470Y35570D01*
X87430Y35400D01*
X87360Y35270D01*
X87220Y35210D01*
X86840D01*
G01X88080Y35940D02*
Y34690D01*
X88710D01*
G01X89250D02*
X89630Y35940D01*
X90020Y34690D01*
G01X89880Y35130D02*
X89390D01*
G01X90870Y35940D02*
Y34690D01*
G01X90520Y35940D02*
X91230D01*
G01X92430Y34690D02*
X91800D01*
Y35940D01*
X92430D01*
G01X92180Y35340D02*
X91800D01*
G01X93010Y34690D02*
Y35940D01*
X93320D01*
X93450Y35880D01*
X93540Y35790D01*
X93620Y35670D01*
X93680Y35520D01*
X93700Y35310D01*
X93680Y35110D01*
X93620Y34960D01*
X93540Y34840D01*
X93450Y34750D01*
X93320Y34690D01*
X93010D01*
G01X86840Y50320D02*
Y51570D01*
X87220D01*
X87340Y51510D01*
X87430Y51360D01*
X87470Y51200D01*
X87430Y51030D01*
X87360Y50900D01*
X87220Y50840D01*
X86840D01*
G01X88080Y51570D02*
Y50320D01*
X88710D01*
G01X89250D02*
X89630Y51570D01*
X90020Y50320D01*
G01X89880Y50760D02*
X89390D01*
G01X90870Y51570D02*
Y50320D01*
G01X90520Y51570D02*
X91230D01*
G01X92430Y50320D02*
X91800D01*
Y51570D01*
X92430D01*
G01X92180Y50970D02*
X91800D01*
G01X93010Y50320D02*
Y51570D01*
X93320D01*
X93450Y51510D01*
X93540Y51420D01*
X93620Y51300D01*
X93680Y51150D01*
X93700Y50940D01*
X93680Y50740D01*
X93620Y50590D01*
X93540Y50470D01*
X93450Y50380D01*
X93320Y50320D01*
X93010D01*
G01X96610Y52190D02*
Y-6870D01*
G01X100040Y6570D02*
Y7820D01*
X99470Y6920D01*
X100240D01*
G01X100750Y6760D02*
X100850Y6650D01*
X100960Y6590D01*
X101090Y6570D01*
X101230Y6610D01*
X101340Y6690D01*
X101420Y6840D01*
X101440Y7010D01*
X101410Y7170D01*
X101330Y7280D01*
X101220Y7360D01*
X101110Y7380D01*
X101000Y7360D01*
X100860Y7280D01*
X100910Y7820D01*
X101330D01*
G01X99850Y25320D02*
Y26570D01*
X99670Y26320D01*
G01Y25320D02*
X100040D01*
G01X101090Y26570D02*
X100970Y26530D01*
X100880Y26420D01*
X100820Y26300D01*
X100770Y26130D01*
X100750Y25940D01*
X100770Y25760D01*
X100820Y25590D01*
X100880Y25470D01*
X100970Y25360D01*
X101090Y25320D01*
X101220Y25360D01*
X101310Y25470D01*
X101370Y25590D01*
X101420Y25760D01*
X101440Y25940D01*
X101420Y26130D01*
X101370Y26300D01*
X101310Y26420D01*
X101220Y26530D01*
X101090Y26570D01*
G01X99230Y34690D02*
Y35940D01*
X99050Y35690D01*
G01Y34690D02*
X99420D01*
G01X100470Y35940D02*
X100350Y35900D01*
X100260Y35790D01*
X100200Y35670D01*
X100150Y35500D01*
X100130Y35310D01*
X100150Y35130D01*
X100200Y34960D01*
X100260Y34840D01*
X100350Y34730D01*
X100470Y34690D01*
X100600Y34730D01*
X100690Y34840D01*
X100750Y34960D01*
X100800Y35130D01*
X100820Y35310D01*
X100800Y35500D01*
X100750Y35670D01*
X100690Y35790D01*
X100600Y35900D01*
X100470Y35940D01*
G01X101710Y34690D02*
X101820Y34710D01*
X101950Y34770D01*
X102030Y34880D01*
X102060Y35020D01*
X102030Y35170D01*
X101930Y35290D01*
X101790Y35360D01*
X101640D01*
X101540Y35400D01*
X101470Y35500D01*
X101440Y35650D01*
X101480Y35790D01*
X101590Y35900D01*
X101710Y35940D01*
X101840Y35900D01*
X101950Y35790D01*
X101990Y35650D01*
X101960Y35500D01*
X101890Y35400D01*
X101790Y35360D01*
X101640D01*
X101500Y35290D01*
X101400Y35170D01*
X101370Y35020D01*
X101400Y34880D01*
X101480Y34770D01*
X101610Y34710D01*
X101710Y34690D01*
G01X99230Y50320D02*
X99110Y50340D01*
X99000Y50420D01*
X98910Y50550D01*
X98850Y50690D01*
X98820Y50860D01*
Y51030D01*
X98850Y51200D01*
X98910Y51340D01*
X99000Y51470D01*
X99110Y51550D01*
X99230Y51570D01*
X99360Y51550D01*
X99470Y51470D01*
X99560Y51340D01*
X99620Y51200D01*
X99650Y51030D01*
Y50860D01*
X99620Y50690D01*
X99560Y50550D01*
X99470Y50420D01*
X99360Y50340D01*
X99230Y50320D01*
G01X99360Y50650D02*
X99550Y50320D01*
G01X100470Y51570D02*
Y50320D01*
G01X100120Y51570D02*
X100830D01*
G01X101710Y50320D02*
Y50880D01*
X101400Y51570D01*
G01X102030D02*
X101710Y50880D01*
M02*
