G04 ================== begin FILE IDENTIFICATION RECORD ==================*
G04 Layout Name:  D:/2581-sample_brds/Validation Boards/Test3/test-3_r2.brd*
G04 Film Name:    IS2*
G04 File Format:  Gerber RS274X*
G04 File Origin:  Cadence Allegro 16.6-D064*
G04 Origin Date:  Fri Dec 02 14:27:28 2011*
G04 *
G04 Layer:  BOARD GEOMETRY/TOOLING_CORNERS*
G04 Layer:  ETCH/IS2*
G04 Layer:  PIN/IS2*
G04 Layer:  VIA CLASS/IS2*
G04 *
G04 Offset:    (0 0)*
G04 Mirror:    No*
G04 Mode:      Positive*
G04 Rotation:  0*
G04 FullContactRelief:  No*
G04 UndefLineWidth:     4*
G04 ================== end FILE IDENTIFICATION RECORD ====================*
%FSLAX54Y54*MOIN*%
%IR0*IPPOS*OFA0.00000B0.00000*MIA0B0*SFA1.00000B1.00000*%
%ADD11C,.04*%
%ADD12C,.052*%
%ADD14C,.062*%
%ADD13C,.075*%
%ADD10C,.1*%
%ADD15C,.012*%
%ADD16C,.05*%
%ADD17C,.025*%
%ADD18C,.004*%
%ADD19C,.008*%
G75*
%LPD*%
G75*
G36*
G01X8340Y28800D02*
X8500D01*
X8510Y29010D01*
X8300Y29000D01*
Y28840D01*
G03X8340Y28800I40J0D01*
G37*
G36*
G01X11720Y24240D02*
G02X11840Y24160I-195J-422D01*
G01X12010Y24250D01*
X11850Y24360D01*
G02X11720Y24290I-123J73D01*
G03Y24240I31J-25D01*
G37*
G36*
G01X15620Y15840D02*
Y16000D01*
X15410Y16010D01*
X15420Y15800D01*
X15580D01*
G03X15620Y15840I0J40D01*
G37*
G36*
G01X15590Y21760D02*
X15490Y21640D01*
X15620Y21490D01*
X15750Y21640D01*
X15650Y21760D01*
G03X15590I-30J-30D01*
G37*
G36*
G01X14960Y26240D02*
X14860Y26140D01*
X15000Y25980D01*
X15140Y26140D01*
X15040Y26240D01*
G03X14960I-40J-40D01*
G37*
G36*
G01X15760Y27190D02*
X16000Y27250D01*
X16010D01*
X15820Y27300D01*
G02X15720Y27210I-191J112D01*
G01X15760Y27190D01*
G37*
G36*
G01X15360Y30550D02*
X15500D01*
X15510Y30760D01*
X15300Y30750D01*
Y30610D01*
G03X15360Y30550I60J0D01*
G37*
G36*
G01X17220Y7760D02*
X17120Y7640D01*
X17250Y7490D01*
X17380Y7640D01*
X17280Y7760D01*
G03X17220I-30J-30D01*
G37*
G36*
G01X18720Y7510D02*
X18620Y7390D01*
X18750Y7240D01*
X18880Y7390D01*
X18780Y7510D01*
G03X18720I-30J-30D01*
G37*
G36*
G01X18950Y19090D02*
Y19250D01*
X18740Y19260D01*
X18750Y19050D01*
X18910D01*
G03X18950Y19090I0J40D01*
G37*
G36*
G01X16510Y21780D02*
X16390Y21880D01*
X16240Y21750D01*
X16390Y21620D01*
X16510Y21720D01*
G03Y21780I-30J30D01*
G37*
G36*
G01X18460Y25990D02*
X18360Y25890D01*
X18500Y25740D01*
X18640Y25890D01*
X18540Y25990D01*
G03X18460I-40J-40D01*
G37*
G36*
G01X16780Y26990D02*
X16880Y27110D01*
X16750Y27260D01*
X16620Y27110D01*
X16720Y26990D01*
G03X16780I30J30D01*
G37*
G36*
G01X21720Y8510D02*
X21620Y8390D01*
X21750Y8240D01*
X21880Y8390D01*
X21780Y8510D01*
G03X21720I-30J-30D01*
G37*
G36*
G01X19860Y32800D02*
X20000D01*
X20010Y33010D01*
X19800Y33000D01*
Y32860D01*
G03X19860Y32800I60J0D01*
G37*
G36*
G01X22420Y17510D02*
X22750Y17520D01*
X22760Y17890D01*
X22390Y17880D01*
X22380Y17550D01*
G03X22420Y17510I40J0D01*
G37*
G36*
G01X22500Y20620D02*
X22750Y20640D01*
X22770Y21020D01*
X22380Y21000D01*
Y20750D01*
G03X22500Y20620I130J0D01*
G37*
G36*
G01X25790Y25010D02*
X25890Y25110D01*
X25750Y25260D01*
X25610Y25110D01*
X25710Y25010D01*
G03X25790I40J40D01*
G37*
G36*
G01X32620Y5320D02*
X32630Y5000D01*
X33010Y4990D01*
X33000Y5370D01*
X32680Y5380D01*
G03X32620Y5320I0J-60D01*
G37*
G54D10*
X0Y0D03*
X-500Y26000D03*
Y34000D03*
X30000Y0D03*
Y37500D03*
G54D11*
X750Y16250D03*
X1000Y18750D03*
X750Y19250D03*
X500Y23000D03*
X1500Y8000D03*
X2250Y9750D03*
X4000Y33000D03*
X3250Y37250D03*
X5000Y7500D03*
X6000Y22750D03*
X5500Y30750D03*
X6750Y33500D03*
X7000Y34000D03*
X5000Y32500D03*
X5500Y34500D03*
X9500Y4000D03*
X8560Y22000D03*
X9250Y22250D03*
X8500Y29000D03*
X7750Y33500D03*
X11000Y2750D03*
Y7500D03*
Y16500D03*
X12000Y24250D03*
X10250Y30000D03*
X12250Y30500D03*
X11130Y30630D03*
Y29880D03*
X11750Y29750D03*
X11000Y32000D03*
X12000Y34000D03*
X11000Y35000D03*
X14000Y2250D03*
X14500Y3500D03*
X15500Y2250D03*
X15250Y1500D03*
X15000Y4250D03*
Y6750D03*
X15500Y5250D03*
X15000Y6000D03*
X13750Y7250D03*
X13250Y8750D03*
X16000D03*
X15750Y9250D03*
X15420Y16000D03*
X15720Y14720D03*
X15500Y18500D03*
X15620Y21500D03*
X14000Y28000D03*
X15000Y26000D03*
X13500D03*
X13750Y25500D03*
X16000Y27250D03*
X15500Y30750D03*
X16000Y30500D03*
X13250Y30250D03*
X14360Y29000D03*
X14000Y31250D03*
X13460Y33220D03*
X14000Y32390D03*
X13930Y33900D03*
X13500Y35000D03*
Y36250D03*
X14250Y34490D03*
X16500Y4750D03*
X17250Y7500D03*
X18000Y8750D03*
X18750Y7250D03*
X17000Y12250D03*
X17500Y12000D03*
X18720Y14280D03*
X16500Y17500D03*
X16240Y16240D03*
X18750Y19250D03*
X16250Y21750D03*
X19000Y21000D03*
X18750Y21750D03*
Y20250D03*
X18250Y20750D03*
X17750Y25000D03*
Y23750D03*
X17500Y23250D03*
X16250Y26750D03*
X17250Y26000D03*
X17500Y27000D03*
X18750Y27750D03*
X19000Y27000D03*
X18500Y25750D03*
X16750Y27250D03*
X17000Y30500D03*
X18000Y30750D03*
X18500D03*
X16500Y29750D03*
X18500Y36250D03*
X19250Y7250D03*
X21750Y8250D03*
X21470Y14280D03*
X19250Y26500D03*
X21000Y28000D03*
X19750Y32000D03*
X20500Y32500D03*
X20000Y33000D03*
X19750Y34000D03*
Y36500D03*
X25000Y15750D03*
X24250Y17750D03*
X25750Y25250D03*
X25500Y37250D03*
G54D12*
X500Y28000D03*
X-500D03*
X500Y31000D03*
Y30000D03*
Y29000D03*
X-500Y31000D03*
Y30000D03*
Y29000D03*
X500Y32000D03*
X-500D03*
G54D13*
X20500Y5000D03*
X22060D03*
X23620D03*
X23000Y6500D03*
X24100Y7600D03*
X25210Y8710D03*
X22750Y8500D03*
Y10060D03*
Y11620D03*
Y13190D03*
Y14750D03*
Y16310D03*
Y17880D03*
Y19440D03*
Y21000D03*
X24500Y23000D03*
Y24560D03*
X22500Y23000D03*
Y24560D03*
X24500Y26120D03*
Y27690D03*
X22500Y26120D03*
Y27690D03*
X24500Y29250D03*
Y30810D03*
X22500Y29250D03*
Y30810D03*
X24500Y32380D03*
Y33940D03*
X22500Y32380D03*
Y33940D03*
X24500Y35500D03*
X22500D03*
X25190Y5000D03*
X26750D03*
X26320Y9820D03*
X27420Y10920D03*
X28310Y5000D03*
X29880D03*
X28520Y12020D03*
X29630Y13130D03*
X30740Y14240D03*
X31440Y5000D03*
X33000D03*
X31840Y15340D03*
G54D14*
X26000Y21500D03*
X28000Y22500D03*
Y30500D03*
X26000Y28500D03*
X28000Y36500D03*
X26000Y35500D03*
G54D15*
G01X15000Y26000D02*
Y30250D01*
X15500Y30750D01*
G01X20000Y33000D02*
X19250Y32250D01*
Y30500D01*
X18410Y29660D01*
Y27600D01*
X18500Y27510D01*
Y25750D01*
G01X25750Y25250D02*
Y24250D01*
G01Y23250D02*
Y22500D01*
X25250Y22000D01*
G01X26250Y14250D02*
Y11000D01*
X28500Y8750D01*
Y7500D01*
G01X32000Y6000D02*
X33000Y5000D01*
G54D16*
G01X-2750Y1000D02*
Y50D01*
G03X50Y-2750I2800J0D01*
G01X1100D01*
G01X-1700Y41250D02*
X-2750D01*
Y40050D01*
G01X24500Y41250D02*
X23600D01*
G01X31200Y-2750D02*
X32600D01*
X35250Y-100D01*
Y1900D01*
G01X36750Y5400D02*
Y13000D01*
G01Y36600D02*
Y38150D01*
G03X34650Y40250I-2100J0D01*
G01X34050D01*
G54D17*
G01X18750Y19250D02*
X21000D01*
X22750Y21000D01*
G01X25250Y22000D02*
Y18000D01*
X26250Y17000D01*
Y14250D01*
G54D18*
G01X8240Y-4800D02*
Y-5550D01*
X8620D01*
G01X9350D02*
Y-5050D01*
G01Y-5140D02*
X9310Y-5090D01*
X9250Y-5060D01*
X9190Y-5050D01*
X9120Y-5080D01*
X9070Y-5120D01*
X9030Y-5200D01*
X9010Y-5300D01*
X9030Y-5400D01*
X9070Y-5480D01*
X9120Y-5530D01*
X9190Y-5550D01*
X9250Y-5540D01*
X9310Y-5500D01*
X9350Y-5450D01*
G01X9730Y-5770D02*
X9790Y-5800D01*
X9860Y-5770D01*
X9910Y-5730D01*
X9950Y-5660D01*
X10000Y-5460D01*
X10130Y-5050D01*
G01X9830D02*
X10000Y-5460D01*
G01X10540Y-5210D02*
X10840D01*
X10810Y-5120D01*
X10760Y-5080D01*
X10700Y-5050D01*
X10630Y-5060D01*
X10580Y-5100D01*
X10540Y-5190D01*
X10520Y-5260D01*
Y-5340D01*
X10540Y-5410D01*
X10590Y-5490D01*
X10640Y-5540D01*
X10710Y-5550D01*
X10770Y-5530D01*
X10840Y-5450D01*
G01X11300Y-5550D02*
Y-5050D01*
G01Y-5150D02*
X11350Y-5100D01*
X11390Y-5060D01*
X11460Y-5050D01*
X11500Y-5060D01*
X11560Y-5100D01*
G01X12180Y-5570D02*
X12160Y-5560D01*
Y-5540D01*
X12180Y-5530D01*
X12200Y-5540D01*
Y-5560D01*
X12180Y-5570D01*
G01Y-5240D02*
X12160Y-5230D01*
Y-5200D01*
X12180Y-5190D01*
X12200Y-5200D01*
Y-5230D01*
X12180Y-5240D01*
G01X12920Y-4000D02*
X13140D01*
G01X13030D02*
Y-4750D01*
G01X12920D02*
X13140D01*
G01X13580Y-4650D02*
X13660Y-4710D01*
X13740Y-4750D01*
X13820D01*
X13890Y-4710D01*
X13950Y-4650D01*
X13980Y-4560D01*
X13960Y-4480D01*
X13910Y-4400D01*
X13830Y-4350D01*
X13710Y-4320D01*
X13650Y-4280D01*
X13620Y-4190D01*
X13640Y-4100D01*
X13690Y-4040D01*
X13750Y-4000D01*
X13820D01*
X13880Y-4020D01*
X13940Y-4090D01*
G01X14350Y-4120D02*
X14410Y-4050D01*
X14470Y-4010D01*
X14550Y-4000D01*
X14640Y-4020D01*
X14710Y-4090D01*
X14730Y-4160D01*
X14720Y-4240D01*
X14680Y-4300D01*
X14490Y-4430D01*
X14410Y-4510D01*
X14350Y-4640D01*
X14330Y-4750D01*
X14730D01*
G01X15910Y-4500D02*
X16150D01*
G01X17340Y-4000D02*
Y-4750D01*
X17720D01*
G01X18450D02*
Y-4250D01*
G01Y-4340D02*
X18410Y-4290D01*
X18350Y-4260D01*
X18290Y-4250D01*
X18220Y-4280D01*
X18170Y-4320D01*
X18130Y-4400D01*
X18110Y-4500D01*
X18130Y-4600D01*
X18170Y-4680D01*
X18220Y-4730D01*
X18290Y-4750D01*
X18350Y-4740D01*
X18410Y-4700D01*
X18450Y-4650D01*
G01X18830Y-4970D02*
X18890Y-5000D01*
X18960Y-4970D01*
X19010Y-4930D01*
X19050Y-4860D01*
X19100Y-4660D01*
X19230Y-4250D01*
G01X18930D02*
X19100Y-4660D01*
G01X19640Y-4410D02*
X19940D01*
X19910Y-4320D01*
X19860Y-4280D01*
X19800Y-4250D01*
X19730Y-4260D01*
X19680Y-4300D01*
X19640Y-4390D01*
X19620Y-4460D01*
Y-4540D01*
X19640Y-4610D01*
X19690Y-4690D01*
X19740Y-4740D01*
X19810Y-4750D01*
X19870Y-4730D01*
X19940Y-4650D01*
G01X20400Y-4750D02*
Y-4250D01*
G01Y-4350D02*
X20450Y-4300D01*
X20490Y-4260D01*
X20560Y-4250D01*
X20600Y-4260D01*
X20660Y-4300D01*
G01X21390Y-4750D02*
Y-4000D01*
X21050Y-4540D01*
X21510D01*
G54D19*
G01X8500Y29000D02*
X8250Y28750D01*
G03Y24750I2000J-2000D01*
G01X8750Y24250D01*
G03X9500I375J375D01*
G01X10000Y24750D01*
G02X10750I375J-375D01*
G03X11960Y24250I1208J1210D01*
G01X12000D01*
G01X17250Y7500D02*
Y9000D01*
X16750Y9500D01*
Y9750D01*
X17000Y10000D01*
X17250D01*
X17500Y9750D01*
X17750D01*
X18000Y10000D01*
X18500D01*
X18750Y9750D01*
X19170D01*
X19250Y9830D01*
Y10500D01*
X19000Y10750D01*
X18750D01*
X18500Y10500D01*
X18250D01*
X18000Y10750D01*
X17750D01*
X17500Y10500D01*
X16500D01*
X16250Y10750D01*
Y15170D01*
X15420Y16000D01*
G01X16000Y27250D02*
G03X15500Y26750I0J-500D01*
G01Y22000D01*
X15620Y21880D01*
Y21500D01*
G01X18750Y7250D02*
Y8250D01*
X20500Y10000D01*
Y17500D01*
X18750Y19250D01*
G01X16250Y21750D02*
X16500D01*
G03X16750Y22000I0J250D01*
G01Y27250D01*
G01X22750Y17880D02*
X22000Y17130D01*
Y9750D01*
X21750Y9500D01*
Y8250D01*
G01X25750Y24250D02*
Y23250D01*
G01X28500Y7500D02*
X30000Y6000D01*
X32000D01*
M02*
