G04 ================== begin FILE IDENTIFICATION RECORD ==================*
G04 Layout Name:  D:/2581-sample_brds/Validation Boards/Test3/test-3_r2.brd*
G04 Film Name:    PM_BOTTOM*
G04 File Format:  Gerber RS274X*
G04 File Origin:  Cadence Allegro 16.6-D064*
G04 Origin Date:  Fri Dec 02 14:27:29 2011*
G04 *
G04 Layer:  VIA CLASS/PASTEMASK_BOTTOM*
G04 Layer:  PACKAGE GEOMETRY/PASTEMASK_BOTTOM*
G04 Layer:  BOARD GEOMETRY/TOOLING_CORNERS*
G04 Layer:  PIN/PASTEMASK_BOTTOM*
G04 *
G04 Offset:    (0 0)*
G04 Mirror:    No*
G04 Mode:      Positive*
G04 Rotation:  0*
G04 FullContactRelief:  No*
G04 UndefLineWidth:     4*
G04 ================== end FILE IDENTIFICATION RECORD ====================*
%FSLAX54Y54*MOIN*%
%IR0*IPPOS*OFA0.00000B0.00000*MIA0B0*SFA1.00000B1.00000*%
%AMMACRO13*
21,1,.01,.02,0.0,0.0,135.*%
%ADD13MACRO13*%
%AMMACRO14*
21,1,.03,.01,0.0,0.0,135.*%
%ADD14MACRO14*%
%ADD11R,.01X.02*%
%ADD12R,.03X.01*%
%ADD10C,.1*%
%AMMACRO15*
21,1,.01,.02,0.0,0.0,97.399*%
%ADD15MACRO15*%
%AMMACRO16*
21,1,.03,.01,0.0,0.0,97.399*%
%ADD16MACRO16*%
%ADD17C,.05*%
%ADD18C,.004*%
G75*
%LPD*%
G75*
G54D10*
X0Y0D03*
X30000D03*
Y37500D03*
G54D11*
X3500Y11400D03*
X2500D03*
X3000D03*
X2500Y15600D03*
X3500D03*
X3000D03*
X5000Y11400D03*
X4000D03*
X4500D03*
X5500D03*
X4000Y15600D03*
X4500D03*
X5500D03*
X5000D03*
G54D12*
X1900Y12000D03*
Y12500D03*
Y13500D03*
Y14500D03*
Y13000D03*
Y14000D03*
Y15000D03*
X6100Y12500D03*
Y12000D03*
Y14000D03*
Y14500D03*
Y15000D03*
Y13000D03*
Y13500D03*
G54D13*
X9160Y12370D03*
X9870Y11660D03*
X9520Y12020D03*
X8810Y12720D03*
X8450Y13080D03*
X10580Y10950D03*
X10220Y11310D03*
X12840Y14630D03*
X12480Y14980D03*
X11780Y15690D03*
X11420Y16050D03*
X12130Y15340D03*
X13190Y14280D03*
X13550Y13920D03*
G54D14*
X8810Y14280D03*
X8450Y13920D03*
X9160Y14630D03*
X9520Y14980D03*
X9870Y15340D03*
X12480Y12020D03*
X12840Y12370D03*
X12130Y11660D03*
X11780Y11310D03*
X11420Y10950D03*
X10220Y15690D03*
X10580Y16050D03*
X13550Y13080D03*
X13190Y12720D03*
G54D15*
X15480Y12730D03*
X15550Y12240D03*
X15610Y11740D03*
X15350Y13730D03*
X15220Y14720D03*
X15290Y14220D03*
X15420Y13230D03*
X19710Y12780D03*
X19780Y12280D03*
X19580Y13770D03*
X19390Y15260D03*
X19450Y14760D03*
X19520Y14270D03*
X19650Y13270D03*
G54D16*
X15740Y15390D03*
X16280Y11220D03*
X18760Y11550D03*
X16780Y11290D03*
X17270Y11350D03*
X17770Y11420D03*
X18270Y11480D03*
X17230Y15580D03*
X16730Y15520D03*
X16240Y15450D03*
X17730Y15650D03*
X18220Y15710D03*
X18720Y15780D03*
X19260Y11610D03*
G54D17*
G01X-2750Y1000D02*
Y50D01*
G03X50Y-2750I2800J0D01*
G01X1100D01*
G01X-1700Y41250D02*
X-2750D01*
Y40050D01*
G01X24500Y41250D02*
X23600D01*
G01X31200Y-2750D02*
X32600D01*
X35250Y-100D01*
Y1900D01*
G01X36750Y5400D02*
Y13000D01*
G01Y36600D02*
Y38150D01*
G03X34650Y40250I-2100J0D01*
G01X34050D01*
G54D18*
G01X8240Y-4800D02*
Y-5550D01*
X8620D01*
G01X9350D02*
Y-5050D01*
G01Y-5140D02*
X9310Y-5090D01*
X9250Y-5060D01*
X9190Y-5050D01*
X9120Y-5080D01*
X9070Y-5120D01*
X9030Y-5200D01*
X9010Y-5300D01*
X9030Y-5400D01*
X9070Y-5480D01*
X9120Y-5530D01*
X9190Y-5550D01*
X9250Y-5540D01*
X9310Y-5500D01*
X9350Y-5450D01*
G01X9730Y-5770D02*
X9790Y-5800D01*
X9860Y-5770D01*
X9910Y-5730D01*
X9950Y-5660D01*
X10000Y-5460D01*
X10130Y-5050D01*
G01X9830D02*
X10000Y-5460D01*
G01X10540Y-5210D02*
X10840D01*
X10810Y-5120D01*
X10760Y-5080D01*
X10700Y-5050D01*
X10630Y-5060D01*
X10580Y-5100D01*
X10540Y-5190D01*
X10520Y-5260D01*
Y-5340D01*
X10540Y-5410D01*
X10590Y-5490D01*
X10640Y-5540D01*
X10710Y-5550D01*
X10770Y-5530D01*
X10840Y-5450D01*
G01X11300Y-5550D02*
Y-5050D01*
G01Y-5150D02*
X11350Y-5100D01*
X11390Y-5060D01*
X11460Y-5050D01*
X11500Y-5060D01*
X11560Y-5100D01*
G01X12180Y-5570D02*
X12160Y-5560D01*
Y-5540D01*
X12180Y-5530D01*
X12200Y-5540D01*
Y-5560D01*
X12180Y-5570D01*
G01Y-5240D02*
X12160Y-5230D01*
Y-5200D01*
X12180Y-5190D01*
X12200Y-5200D01*
Y-5230D01*
X12180Y-5240D01*
G01X12790Y-4750D02*
Y-4000D01*
X13020D01*
X13090Y-4040D01*
X13150Y-4120D01*
X13170Y-4220D01*
X13150Y-4320D01*
X13100Y-4400D01*
X13020Y-4440D01*
X12790D01*
G01X13900Y-4750D02*
Y-4250D01*
G01Y-4340D02*
X13860Y-4290D01*
X13800Y-4260D01*
X13740Y-4250D01*
X13670Y-4280D01*
X13620Y-4320D01*
X13580Y-4400D01*
X13560Y-4500D01*
X13580Y-4600D01*
X13620Y-4680D01*
X13670Y-4730D01*
X13740Y-4750D01*
X13800Y-4740D01*
X13860Y-4700D01*
X13900Y-4650D01*
G01X14340Y-4660D02*
X14390Y-4710D01*
X14450Y-4750D01*
X14510D01*
X14560Y-4730D01*
X14600Y-4690D01*
X14620Y-4640D01*
X14610Y-4560D01*
X14570Y-4530D01*
X14410Y-4450D01*
X14370Y-4360D01*
X14390Y-4300D01*
X14420Y-4260D01*
X14480Y-4250D01*
X14540Y-4260D01*
X14590Y-4300D01*
G01X15230Y-4000D02*
Y-4750D01*
G01X15100Y-4250D02*
X15360D01*
G01X15840Y-4410D02*
X16140D01*
X16110Y-4320D01*
X16060Y-4280D01*
X16000Y-4250D01*
X15930Y-4260D01*
X15880Y-4300D01*
X15840Y-4390D01*
X15820Y-4460D01*
Y-4540D01*
X15840Y-4610D01*
X15890Y-4690D01*
X15940Y-4740D01*
X16010Y-4750D01*
X16070Y-4730D01*
X16140Y-4650D01*
G01X17240Y-4750D02*
Y-4000D01*
X17480Y-4630D01*
X17720Y-4000D01*
Y-4750D01*
G01X18400D02*
Y-4250D01*
G01Y-4340D02*
X18360Y-4290D01*
X18300Y-4260D01*
X18240Y-4250D01*
X18170Y-4280D01*
X18120Y-4320D01*
X18080Y-4400D01*
X18060Y-4500D01*
X18080Y-4600D01*
X18120Y-4680D01*
X18170Y-4730D01*
X18240Y-4750D01*
X18300Y-4740D01*
X18360Y-4700D01*
X18400Y-4650D01*
G01X18840Y-4660D02*
X18890Y-4710D01*
X18950Y-4750D01*
X19010D01*
X19060Y-4730D01*
X19100Y-4690D01*
X19120Y-4640D01*
X19110Y-4560D01*
X19070Y-4530D01*
X18910Y-4450D01*
X18870Y-4360D01*
X18890Y-4300D01*
X18920Y-4260D01*
X18980Y-4250D01*
X19040Y-4260D01*
X19090Y-4300D01*
G01X19570Y-4750D02*
Y-4000D01*
G01X19870Y-4250D02*
X19570Y-4540D01*
G01X19690Y-4430D02*
X19890Y-4750D01*
G01X21300Y-4350D02*
X21340Y-4310D01*
X21370Y-4250D01*
X21390Y-4160D01*
X21370Y-4090D01*
X21330Y-4040D01*
X21270Y-4000D01*
X21020D01*
Y-4750D01*
X21320D01*
X21390Y-4700D01*
X21430Y-4630D01*
X21440Y-4540D01*
X21430Y-4450D01*
X21370Y-4380D01*
X21300Y-4350D01*
X21020D01*
G01X21980Y-4750D02*
X21920Y-4740D01*
X21870Y-4690D01*
X21830Y-4600D01*
X21810Y-4500D01*
X21830Y-4400D01*
X21870Y-4310D01*
X21920Y-4260D01*
X21980Y-4250D01*
X22040Y-4260D01*
X22090Y-4310D01*
X22130Y-4400D01*
X22140Y-4500D01*
X22130Y-4600D01*
X22090Y-4690D01*
X22040Y-4740D01*
X21980Y-4750D01*
G01X22730Y-4000D02*
Y-4750D01*
G01X22600Y-4250D02*
X22860D01*
G01X23480Y-4000D02*
Y-4750D01*
G01X23350Y-4250D02*
X23610D01*
G01X24230Y-4750D02*
X24170Y-4740D01*
X24120Y-4690D01*
X24080Y-4600D01*
X24060Y-4500D01*
X24080Y-4400D01*
X24120Y-4310D01*
X24170Y-4260D01*
X24230Y-4250D01*
X24290Y-4260D01*
X24340Y-4310D01*
X24380Y-4400D01*
X24390Y-4500D01*
X24380Y-4600D01*
X24340Y-4690D01*
X24290Y-4740D01*
X24230Y-4750D01*
G01X24700D02*
Y-4250D01*
G01Y-4390D02*
X24730Y-4320D01*
X24770Y-4280D01*
X24840Y-4250D01*
X24910Y-4280D01*
X24950Y-4320D01*
X24980Y-4390D01*
Y-4750D01*
G01Y-4390D02*
X25010Y-4320D01*
X25050Y-4280D01*
X25120Y-4250D01*
X25190Y-4280D01*
X25230Y-4320D01*
X25260Y-4400D01*
Y-4750D01*
G01X26430Y-5000D02*
X26340Y-4870D01*
X26290Y-4750D01*
Y-4250D01*
X26340Y-4120D01*
X26430Y-4000D01*
G01X27040Y-4750D02*
Y-4000D01*
X27270D01*
X27340Y-4040D01*
X27400Y-4120D01*
X27420Y-4220D01*
X27400Y-4320D01*
X27350Y-4400D01*
X27270Y-4440D01*
X27040D01*
G01X27740Y-4750D02*
Y-4000D01*
X27980Y-4630D01*
X28220Y-4000D01*
Y-4750D01*
G01X28450Y-5000D02*
X29010D01*
G01X29550Y-4350D02*
X29590Y-4310D01*
X29620Y-4250D01*
X29640Y-4160D01*
X29620Y-4090D01*
X29580Y-4040D01*
X29520Y-4000D01*
X29270D01*
Y-4750D01*
X29570D01*
X29640Y-4700D01*
X29680Y-4630D01*
X29690Y-4540D01*
X29680Y-4450D01*
X29620Y-4380D01*
X29550Y-4350D01*
X29270D01*
G01X30230Y-4750D02*
X30160Y-4740D01*
X30090Y-4690D01*
X30030Y-4610D01*
X30000Y-4530D01*
X29980Y-4430D01*
Y-4320D01*
X30000Y-4220D01*
X30030Y-4140D01*
X30090Y-4060D01*
X30160Y-4010D01*
X30230Y-4000D01*
X30300Y-4010D01*
X30370Y-4060D01*
X30430Y-4140D01*
X30460Y-4220D01*
X30480Y-4320D01*
Y-4430D01*
X30460Y-4530D01*
X30430Y-4610D01*
X30370Y-4690D01*
X30300Y-4740D01*
X30230Y-4750D01*
G01X30980Y-4000D02*
Y-4750D01*
G01X30770Y-4000D02*
X31190D01*
G01X31730D02*
Y-4750D01*
G01X31520Y-4000D02*
X31940D01*
G01X32480Y-4750D02*
X32410Y-4740D01*
X32340Y-4690D01*
X32280Y-4610D01*
X32250Y-4530D01*
X32230Y-4430D01*
Y-4320D01*
X32250Y-4220D01*
X32280Y-4140D01*
X32340Y-4060D01*
X32410Y-4010D01*
X32480Y-4000D01*
X32550Y-4010D01*
X32620Y-4060D01*
X32680Y-4140D01*
X32710Y-4220D01*
X32730Y-4320D01*
Y-4430D01*
X32710Y-4530D01*
X32680Y-4610D01*
X32620Y-4690D01*
X32550Y-4740D01*
X32480Y-4750D01*
G01X32990D02*
Y-4000D01*
X33230Y-4630D01*
X33470Y-4000D01*
Y-4750D01*
G01X34030Y-5000D02*
X34120Y-4870D01*
X34170Y-4750D01*
Y-4250D01*
X34120Y-4120D01*
X34030Y-4000D01*
M02*
