G04 ================== begin FILE IDENTIFICATION RECORD ==================*
G04 Layout Name:  D:/2581-sample_brds/Validation Boards/Test3/test-3_r2.brd*
G04 Film Name:    SM_BOTTOM*
G04 File Format:  Gerber RS274X*
G04 File Origin:  Cadence Allegro 16.6-D064*
G04 Origin Date:  Fri Dec 02 14:27:29 2011*
G04 *
G04 Layer:  BOARD GEOMETRY/TOOLING_CORNERS*
G04 Layer:  BOARD GEOMETRY/SOLDERMASK_BOTTOM*
G04 Layer:  VIA CLASS/SOLDERMASK_BOTTOM*
G04 Layer:  PIN/SOLDERMASK_BOTTOM*
G04 *
G04 Offset:    (0 0)*
G04 Mirror:    No*
G04 Mode:      Positive*
G04 Rotation:  0*
G04 FullContactRelief:  No*
G04 UndefLineWidth:     4*
G04 ================== end FILE IDENTIFICATION RECORD ====================*
%FSLAX54Y54*MOIN*%
%IR0*IPPOS*OFA0.00000B0.00000*MIA0B0*SFA1.00000B1.00000*%
%AMMACRO17*
21,1,.035,.05,0.0,0.0,97.399*%
%ADD17MACRO17*%
%AMMACRO18*
21,1,.06,.035,0.0,0.0,97.399*%
%ADD18MACRO18*%
%AMMACRO15*
21,1,.035,.05,0.0,0.0,135.*%
%ADD15MACRO15*%
%AMMACRO16*
21,1,.06,.035,0.0,0.0,135.*%
%ADD16MACRO16*%
%ADD11C,.05*%
%ADD20C,.062*%
%ADD19C,.085*%
%ADD10C,.1*%
%ADD12C,.11*%
%ADD13R,.035X.05*%
%ADD14R,.06X.035*%
%ADD21C,.004*%
G75*
%LPD*%
G75*
G54D10*
X0Y0D03*
X30000D03*
Y37500D03*
G54D20*
X26000Y21500D03*
X28000Y22500D03*
Y30500D03*
X26000Y28500D03*
X28000Y36500D03*
X26000Y35500D03*
G54D11*
G01X-2750Y1000D02*
Y50D01*
G03X50Y-2750I2800J0D01*
G01X1100D01*
G01X-1700Y41250D02*
X-2750D01*
Y40050D01*
G01X24500Y41250D02*
X23600D01*
G01X31200Y-2750D02*
X32600D01*
X35250Y-100D01*
Y1900D01*
G01X36750Y5400D02*
Y13000D01*
G01Y36600D02*
Y38150D01*
G03X34650Y40250I-2100J0D01*
G01X34050D01*
X750Y16250D03*
X1000Y18750D03*
X750Y19250D03*
X500Y23000D03*
X1500Y8000D03*
X2250Y9750D03*
X4000Y33000D03*
X3250Y37250D03*
X5000Y7500D03*
X6000Y22750D03*
X5500Y30750D03*
X6750Y33500D03*
X7000Y34000D03*
X5000Y32500D03*
X5500Y34500D03*
X9500Y4000D03*
X8560Y22000D03*
X9250Y22250D03*
X8500Y29000D03*
X7750Y33500D03*
X11000Y2750D03*
Y7500D03*
Y16500D03*
X12000Y24250D03*
X10250Y30000D03*
X12250Y30500D03*
X11130Y30630D03*
Y29880D03*
X11750Y29750D03*
X11000Y32000D03*
X12000Y34000D03*
X11000Y35000D03*
X14000Y2250D03*
X14500Y3500D03*
X15500Y2250D03*
X15250Y1500D03*
X15000Y4250D03*
Y6750D03*
X15500Y5250D03*
X15000Y6000D03*
X13750Y7250D03*
X13250Y8750D03*
X16000D03*
X15750Y9250D03*
X15420Y16000D03*
X15720Y14720D03*
X15500Y18500D03*
X15620Y21500D03*
X14000Y28000D03*
X15000Y26000D03*
X13500D03*
X13750Y25500D03*
X16000Y27250D03*
X15500Y30750D03*
X16000Y30500D03*
X13250Y30250D03*
X14360Y29000D03*
X14000Y31250D03*
X13460Y33220D03*
X14000Y32390D03*
X13930Y33900D03*
X13500Y35000D03*
Y36250D03*
X14250Y34490D03*
X16500Y4750D03*
X17250Y7500D03*
X18000Y8750D03*
X18750Y7250D03*
X17000Y12250D03*
X17500Y12000D03*
X18720Y14280D03*
X16500Y17500D03*
X16240Y16240D03*
X18750Y19250D03*
X16250Y21750D03*
X19000Y21000D03*
X18750Y21750D03*
Y20250D03*
X18250Y20750D03*
X17750Y25000D03*
Y23750D03*
X17500Y23250D03*
X16250Y26750D03*
X17250Y26000D03*
X17500Y27000D03*
X18750Y27750D03*
X19000Y27000D03*
X18500Y25750D03*
X16750Y27250D03*
X17000Y30500D03*
X18000Y30750D03*
X18500D03*
X16500Y29750D03*
X18500Y36250D03*
X19250Y7250D03*
X21750Y8250D03*
X21470Y14280D03*
X19250Y26500D03*
X21000Y28000D03*
X19750Y32000D03*
X20500Y32500D03*
X20000Y33000D03*
X19750Y34000D03*
Y36500D03*
X25000Y15750D03*
X24250Y17750D03*
X25750Y25250D03*
X25500Y37250D03*
G54D21*
G01X8240Y-4800D02*
Y-5550D01*
X8620D01*
G01X9350D02*
Y-5050D01*
G01Y-5140D02*
X9310Y-5090D01*
X9250Y-5060D01*
X9190Y-5050D01*
X9120Y-5080D01*
X9070Y-5120D01*
X9030Y-5200D01*
X9010Y-5300D01*
X9030Y-5400D01*
X9070Y-5480D01*
X9120Y-5530D01*
X9190Y-5550D01*
X9250Y-5540D01*
X9310Y-5500D01*
X9350Y-5450D01*
G01X9730Y-5770D02*
X9790Y-5800D01*
X9860Y-5770D01*
X9910Y-5730D01*
X9950Y-5660D01*
X10000Y-5460D01*
X10130Y-5050D01*
G01X9830D02*
X10000Y-5460D01*
G01X10540Y-5210D02*
X10840D01*
X10810Y-5120D01*
X10760Y-5080D01*
X10700Y-5050D01*
X10630Y-5060D01*
X10580Y-5100D01*
X10540Y-5190D01*
X10520Y-5260D01*
Y-5340D01*
X10540Y-5410D01*
X10590Y-5490D01*
X10640Y-5540D01*
X10710Y-5550D01*
X10770Y-5530D01*
X10840Y-5450D01*
G01X11300Y-5550D02*
Y-5050D01*
G01Y-5150D02*
X11350Y-5100D01*
X11390Y-5060D01*
X11460Y-5050D01*
X11500Y-5060D01*
X11560Y-5100D01*
G01X12180Y-5570D02*
X12160Y-5560D01*
Y-5540D01*
X12180Y-5530D01*
X12200Y-5540D01*
Y-5560D01*
X12180Y-5570D01*
G01Y-5240D02*
X12160Y-5230D01*
Y-5200D01*
X12180Y-5190D01*
X12200Y-5200D01*
Y-5230D01*
X12180Y-5240D01*
G01X12880Y-4650D02*
X12960Y-4710D01*
X13040Y-4750D01*
X13120D01*
X13190Y-4710D01*
X13250Y-4650D01*
X13280Y-4560D01*
X13260Y-4480D01*
X13210Y-4400D01*
X13130Y-4350D01*
X13010Y-4320D01*
X12950Y-4280D01*
X12920Y-4190D01*
X12940Y-4100D01*
X12990Y-4040D01*
X13050Y-4000D01*
X13120D01*
X13180Y-4020D01*
X13240Y-4090D01*
G01X13830Y-4750D02*
X13770Y-4740D01*
X13720Y-4690D01*
X13680Y-4600D01*
X13660Y-4500D01*
X13680Y-4400D01*
X13720Y-4310D01*
X13770Y-4260D01*
X13830Y-4250D01*
X13890Y-4260D01*
X13940Y-4310D01*
X13980Y-4400D01*
X13990Y-4500D01*
X13980Y-4600D01*
X13940Y-4690D01*
X13890Y-4740D01*
X13830Y-4750D01*
G01X14580D02*
Y-4000D01*
G01X15500D02*
Y-4750D01*
G01Y-4640D02*
X15460Y-4700D01*
X15400Y-4740D01*
X15340Y-4750D01*
X15260Y-4730D01*
X15210Y-4660D01*
X15170Y-4590D01*
X15160Y-4500D01*
X15170Y-4410D01*
X15210Y-4340D01*
X15260Y-4280D01*
X15340Y-4250D01*
X15400Y-4260D01*
X15450Y-4290D01*
X15500Y-4340D01*
G01X15940Y-4410D02*
X16240D01*
X16210Y-4320D01*
X16160Y-4280D01*
X16100Y-4250D01*
X16030Y-4260D01*
X15980Y-4300D01*
X15940Y-4390D01*
X15920Y-4460D01*
Y-4540D01*
X15940Y-4610D01*
X15990Y-4690D01*
X16040Y-4740D01*
X16110Y-4750D01*
X16170Y-4730D01*
X16240Y-4650D01*
G01X16700Y-4750D02*
Y-4250D01*
G01Y-4350D02*
X16750Y-4300D01*
X16790Y-4260D01*
X16860Y-4250D01*
X16900Y-4260D01*
X16960Y-4300D01*
G01X18090Y-4750D02*
Y-4000D01*
X18330Y-4630D01*
X18570Y-4000D01*
Y-4750D01*
G01X19250D02*
Y-4250D01*
G01Y-4340D02*
X19210Y-4290D01*
X19150Y-4260D01*
X19090Y-4250D01*
X19020Y-4280D01*
X18970Y-4320D01*
X18930Y-4400D01*
X18910Y-4500D01*
X18930Y-4600D01*
X18970Y-4680D01*
X19020Y-4730D01*
X19090Y-4750D01*
X19150Y-4740D01*
X19210Y-4700D01*
X19250Y-4650D01*
G01X19690Y-4660D02*
X19740Y-4710D01*
X19800Y-4750D01*
X19860D01*
X19910Y-4730D01*
X19950Y-4690D01*
X19970Y-4640D01*
X19960Y-4560D01*
X19920Y-4530D01*
X19760Y-4450D01*
X19720Y-4360D01*
X19740Y-4300D01*
X19770Y-4260D01*
X19830Y-4250D01*
X19890Y-4260D01*
X19940Y-4300D01*
G01X20420Y-4750D02*
Y-4000D01*
G01X20720Y-4250D02*
X20420Y-4540D01*
G01X20540Y-4430D02*
X20740Y-4750D01*
G01X22150Y-4350D02*
X22190Y-4310D01*
X22220Y-4250D01*
X22240Y-4160D01*
X22220Y-4090D01*
X22180Y-4040D01*
X22120Y-4000D01*
X21870D01*
Y-4750D01*
X22170D01*
X22240Y-4700D01*
X22280Y-4630D01*
X22290Y-4540D01*
X22280Y-4450D01*
X22220Y-4380D01*
X22150Y-4350D01*
X21870D01*
G01X22830Y-4750D02*
X22770Y-4740D01*
X22720Y-4690D01*
X22680Y-4600D01*
X22660Y-4500D01*
X22680Y-4400D01*
X22720Y-4310D01*
X22770Y-4260D01*
X22830Y-4250D01*
X22890Y-4260D01*
X22940Y-4310D01*
X22980Y-4400D01*
X22990Y-4500D01*
X22980Y-4600D01*
X22940Y-4690D01*
X22890Y-4740D01*
X22830Y-4750D01*
G01X23580Y-4000D02*
Y-4750D01*
G01X23450Y-4250D02*
X23710D01*
G01X24330Y-4000D02*
Y-4750D01*
G01X24200Y-4250D02*
X24460D01*
G01X25080Y-4750D02*
X25020Y-4740D01*
X24970Y-4690D01*
X24930Y-4600D01*
X24910Y-4500D01*
X24930Y-4400D01*
X24970Y-4310D01*
X25020Y-4260D01*
X25080Y-4250D01*
X25140Y-4260D01*
X25190Y-4310D01*
X25230Y-4400D01*
X25240Y-4500D01*
X25230Y-4600D01*
X25190Y-4690D01*
X25140Y-4740D01*
X25080Y-4750D01*
G01X25550D02*
Y-4250D01*
G01Y-4390D02*
X25580Y-4320D01*
X25620Y-4280D01*
X25690Y-4250D01*
X25760Y-4280D01*
X25800Y-4320D01*
X25830Y-4390D01*
Y-4750D01*
G01Y-4390D02*
X25860Y-4320D01*
X25900Y-4280D01*
X25970Y-4250D01*
X26040Y-4280D01*
X26080Y-4320D01*
X26110Y-4400D01*
Y-4750D01*
G01X27280Y-5000D02*
X27190Y-4870D01*
X27140Y-4750D01*
Y-4250D01*
X27190Y-4120D01*
X27280Y-4000D01*
G01X27880Y-4650D02*
X27960Y-4710D01*
X28040Y-4750D01*
X28120D01*
X28190Y-4710D01*
X28250Y-4650D01*
X28280Y-4560D01*
X28260Y-4480D01*
X28210Y-4400D01*
X28130Y-4350D01*
X28010Y-4320D01*
X27950Y-4280D01*
X27920Y-4190D01*
X27940Y-4100D01*
X27990Y-4040D01*
X28050Y-4000D01*
X28120D01*
X28180Y-4020D01*
X28240Y-4090D01*
G01X28590Y-4750D02*
Y-4000D01*
X28830Y-4630D01*
X29070Y-4000D01*
Y-4750D01*
G01X29300Y-5000D02*
X29860D01*
G01X30400Y-4350D02*
X30440Y-4310D01*
X30470Y-4250D01*
X30490Y-4160D01*
X30470Y-4090D01*
X30430Y-4040D01*
X30370Y-4000D01*
X30120D01*
Y-4750D01*
X30420D01*
X30490Y-4700D01*
X30530Y-4630D01*
X30540Y-4540D01*
X30530Y-4450D01*
X30470Y-4380D01*
X30400Y-4350D01*
X30120D01*
G01X31080Y-4750D02*
X31010Y-4740D01*
X30940Y-4690D01*
X30880Y-4610D01*
X30850Y-4530D01*
X30830Y-4430D01*
Y-4320D01*
X30850Y-4220D01*
X30880Y-4140D01*
X30940Y-4060D01*
X31010Y-4010D01*
X31080Y-4000D01*
X31150Y-4010D01*
X31220Y-4060D01*
X31280Y-4140D01*
X31310Y-4220D01*
X31330Y-4320D01*
Y-4430D01*
X31310Y-4530D01*
X31280Y-4610D01*
X31220Y-4690D01*
X31150Y-4740D01*
X31080Y-4750D01*
G01X31830Y-4000D02*
Y-4750D01*
G01X31620Y-4000D02*
X32040D01*
G01X32580D02*
Y-4750D01*
G01X32370Y-4000D02*
X32790D01*
G01X33330Y-4750D02*
X33260Y-4740D01*
X33190Y-4690D01*
X33130Y-4610D01*
X33100Y-4530D01*
X33080Y-4430D01*
Y-4320D01*
X33100Y-4220D01*
X33130Y-4140D01*
X33190Y-4060D01*
X33260Y-4010D01*
X33330Y-4000D01*
X33400Y-4010D01*
X33470Y-4060D01*
X33530Y-4140D01*
X33560Y-4220D01*
X33580Y-4320D01*
Y-4430D01*
X33560Y-4530D01*
X33530Y-4610D01*
X33470Y-4690D01*
X33400Y-4740D01*
X33330Y-4750D01*
G01X33840D02*
Y-4000D01*
X34080Y-4630D01*
X34320Y-4000D01*
Y-4750D01*
G01X34880Y-5000D02*
X34970Y-4870D01*
X35020Y-4750D01*
Y-4250D01*
X34970Y-4120D01*
X34880Y-4000D01*
G54D12*
X-500Y26000D03*
Y34000D03*
G54D13*
X3500Y11400D03*
X2500D03*
X3000D03*
X2500Y15600D03*
X3500D03*
X3000D03*
X5000Y11400D03*
X4000D03*
X4500D03*
X5500D03*
X4000Y15600D03*
X4500D03*
X5500D03*
X5000D03*
G54D14*
X1900Y12000D03*
Y12500D03*
Y13500D03*
Y14500D03*
Y13000D03*
Y14000D03*
Y15000D03*
X6100Y12500D03*
Y12000D03*
Y14000D03*
Y14500D03*
Y15000D03*
Y13000D03*
Y13500D03*
G54D15*
X9160Y12370D03*
X9870Y11660D03*
X9520Y12020D03*
X8810Y12720D03*
X8450Y13080D03*
X10580Y10950D03*
X10220Y11310D03*
X12840Y14630D03*
X12480Y14980D03*
X11780Y15690D03*
X11420Y16050D03*
X12130Y15340D03*
X13190Y14280D03*
X13550Y13920D03*
G54D16*
X8810Y14280D03*
X8450Y13920D03*
X9160Y14630D03*
X9520Y14980D03*
X9870Y15340D03*
X12480Y12020D03*
X12840Y12370D03*
X12130Y11660D03*
X11780Y11310D03*
X11420Y10950D03*
X10220Y15690D03*
X10580Y16050D03*
X13550Y13080D03*
X13190Y12720D03*
G54D17*
X15480Y12730D03*
X15550Y12240D03*
X15610Y11740D03*
X15350Y13730D03*
X15220Y14720D03*
X15290Y14220D03*
X15420Y13230D03*
X19710Y12780D03*
X19780Y12280D03*
X19580Y13770D03*
X19390Y15260D03*
X19450Y14760D03*
X19520Y14270D03*
X19650Y13270D03*
G54D18*
X15740Y15390D03*
X16280Y11220D03*
X18760Y11550D03*
X16780Y11290D03*
X17270Y11350D03*
X17770Y11420D03*
X18270Y11480D03*
X17230Y15580D03*
X16730Y15520D03*
X16240Y15450D03*
X17730Y15650D03*
X18220Y15710D03*
X18720Y15780D03*
X19260Y11610D03*
G54D19*
X20500Y5000D03*
X22060D03*
X23620D03*
X23000Y6500D03*
X24100Y7600D03*
X25210Y8710D03*
X22750Y8500D03*
Y10060D03*
Y11620D03*
Y13190D03*
Y14750D03*
Y16310D03*
Y17880D03*
Y19440D03*
Y21000D03*
X24500Y23000D03*
Y24560D03*
X22500Y23000D03*
Y24560D03*
X24500Y26120D03*
Y27690D03*
X22500Y26120D03*
Y27690D03*
X24500Y29250D03*
Y30810D03*
X22500Y29250D03*
Y30810D03*
X24500Y32380D03*
Y33940D03*
X22500Y32380D03*
Y33940D03*
X24500Y35500D03*
X22500D03*
X25190Y5000D03*
X26750D03*
X26320Y9820D03*
X27420Y10920D03*
X28310Y5000D03*
X29880D03*
X28520Y12020D03*
X29630Y13130D03*
X30740Y14240D03*
X31440Y5000D03*
X33000D03*
X31840Y15340D03*
M02*
