G04 ================== begin FILE IDENTIFICATION RECORD ==================*
G04 Layout Name:  D:/2581-sample_brds/Validation Boards/Test3/test-3_r2.brd*
G04 Film Name:    SM_TOP*
G04 File Format:  Gerber RS274X*
G04 File Origin:  Cadence Allegro 16.6-D064*
G04 Origin Date:  Fri Dec 02 14:27:29 2011*
G04 *
G04 Layer:  BOARD GEOMETRY/TOOLING_CORNERS*
G04 Layer:  BOARD GEOMETRY/SOLDERMASK_TOP*
G04 Layer:  VIA CLASS/SOLDERMASK_TOP*
G04 Layer:  PIN/SOLDERMASK_TOP*
G04 *
G04 Offset:    (0 0)*
G04 Mirror:    No*
G04 Mode:      Positive*
G04 Rotation:  0*
G04 FullContactRelief:  No*
G04 UndefLineWidth:     4*
G04 ================== end FILE IDENTIFICATION RECORD ====================*
%FSLAX54Y54*MOIN*%
%IR0*IPPOS*OFA0.00000B0.00000*MIA0B0*SFA1.00000B1.00000*%
%AMMACRO21*
21,1,.035,.05,0.0,0.0,135.*%
%ADD21MACRO21*%
%AMMACRO22*
21,1,.06,.035,0.0,0.0,135.*%
%ADD22MACRO22*%
%ADD11C,.05*%
%ADD26C,.062*%
%ADD25C,.085*%
%ADD13C,.058*%
%ADD10C,.1*%
%ADD12C,.11*%
%ADD18R,.05X.035*%
%AMMACRO17*
21,1,.035,.05,0.0,0.0,45.*%
%ADD17MACRO17*%
%ADD19R,.035X.05*%
%AMMACRO16*
21,1,.06,.035,0.0,0.0,45.*%
%ADD16MACRO16*%
%ADD15R,.035X.06*%
%ADD20R,.06X.035*%
%ADD14R,.085X.05*%
%AMMACRO24*
21,1,.035,.05,0.0,0.0,35.096*%
%ADD24MACRO24*%
%AMMACRO23*
21,1,.06,.035,0.0,0.0,35.096*%
%ADD23MACRO23*%
%ADD27C,.004*%
G75*
%LPD*%
G75*
G54D10*
X0Y0D03*
X30000D03*
Y37500D03*
G54D20*
X1900Y32500D03*
Y32000D03*
Y33000D03*
Y33500D03*
Y34000D03*
Y34500D03*
Y35000D03*
X6100Y33500D03*
Y32000D03*
Y33000D03*
Y32500D03*
Y34500D03*
Y34000D03*
Y35000D03*
X14900Y33500D03*
Y33000D03*
Y32500D03*
Y32000D03*
Y34500D03*
Y34000D03*
Y35000D03*
X19100Y33500D03*
Y32000D03*
Y32500D03*
Y33000D03*
Y34000D03*
Y34500D03*
Y35000D03*
G54D11*
G01X-2750Y1000D02*
Y50D01*
G03X50Y-2750I2800J0D01*
G01X1100D01*
G01X-1700Y41250D02*
X-2750D01*
Y40050D01*
G01X24500Y41250D02*
X23600D01*
G01X31200Y-2750D02*
X32600D01*
X35250Y-100D01*
Y1900D01*
G01X36750Y5400D02*
Y13000D01*
G01Y36600D02*
Y38150D01*
G03X34650Y40250I-2100J0D01*
G01X34050D01*
X750Y16250D03*
X1000Y18750D03*
X750Y19250D03*
X500Y23000D03*
X1500Y8000D03*
X2250Y9750D03*
X4000Y33000D03*
X3250Y37250D03*
X5000Y7500D03*
X6000Y22750D03*
X5500Y30750D03*
X6750Y33500D03*
X7000Y34000D03*
X5000Y32500D03*
X5500Y34500D03*
X9500Y4000D03*
X8560Y22000D03*
X9250Y22250D03*
X8500Y29000D03*
X7750Y33500D03*
X11000Y2750D03*
Y7500D03*
Y16500D03*
X12000Y24250D03*
X10250Y30000D03*
X12250Y30500D03*
X11130Y30630D03*
Y29880D03*
X11750Y29750D03*
X11000Y32000D03*
X12000Y34000D03*
X11000Y35000D03*
X14000Y2250D03*
X14500Y3500D03*
X15500Y2250D03*
X15250Y1500D03*
X15000Y4250D03*
Y6750D03*
X15500Y5250D03*
X15000Y6000D03*
X13750Y7250D03*
X13250Y8750D03*
X16000D03*
X15750Y9250D03*
X15420Y16000D03*
X15720Y14720D03*
X15500Y18500D03*
X15620Y21500D03*
X14000Y28000D03*
X15000Y26000D03*
X13500D03*
X13750Y25500D03*
X16000Y27250D03*
X15500Y30750D03*
X16000Y30500D03*
X13250Y30250D03*
X14360Y29000D03*
X14000Y31250D03*
X13460Y33220D03*
X14000Y32390D03*
X13930Y33900D03*
X13500Y35000D03*
Y36250D03*
X14250Y34490D03*
X16500Y4750D03*
X17250Y7500D03*
X18000Y8750D03*
X18750Y7250D03*
X17000Y12250D03*
X17500Y12000D03*
X18720Y14280D03*
X16500Y17500D03*
X16240Y16240D03*
X18750Y19250D03*
X16250Y21750D03*
X19000Y21000D03*
X18750Y21750D03*
Y20250D03*
X18250Y20750D03*
X17750Y25000D03*
Y23750D03*
X17500Y23250D03*
X16250Y26750D03*
X17250Y26000D03*
X17500Y27000D03*
X18750Y27750D03*
X19000Y27000D03*
X18500Y25750D03*
X16750Y27250D03*
X17000Y30500D03*
X18000Y30750D03*
X18500D03*
X16500Y29750D03*
X18500Y36250D03*
X19250Y7250D03*
X21750Y8250D03*
X21470Y14280D03*
X19250Y26500D03*
X21000Y28000D03*
X19750Y32000D03*
X20500Y32500D03*
X20000Y33000D03*
X19750Y34000D03*
Y36500D03*
X25000Y15750D03*
X24250Y17750D03*
X25750Y25250D03*
X25500Y37250D03*
G54D12*
X-500Y26000D03*
Y34000D03*
G54D21*
X10020Y18520D03*
X9660Y18870D03*
X9310Y19220D03*
X8950Y19580D03*
X10370Y18160D03*
X11080Y17450D03*
X10720Y17810D03*
X12980Y21480D03*
X12630Y21840D03*
X11920Y22550D03*
X12280Y22190D03*
X14050Y20420D03*
X13340Y21130D03*
X13690Y20780D03*
X15450Y26580D03*
X15810Y26220D03*
X17220Y24810D03*
X17580Y24450D03*
X16520Y25520D03*
X16160Y25870D03*
X16870Y25160D03*
X18420Y29550D03*
X18780Y29190D03*
X20550Y27420D03*
X20190Y27780D03*
X19480Y28480D03*
X19840Y28130D03*
X19130Y28840D03*
G54D13*
X500Y28000D03*
X-500D03*
X500Y31000D03*
Y30000D03*
Y29000D03*
X-500Y31000D03*
Y30000D03*
Y29000D03*
X500Y32000D03*
X-500D03*
G54D22*
X9310Y20780D03*
X8950Y20420D03*
X9660Y21130D03*
X10020Y21480D03*
X12980Y18520D03*
X11920Y17450D03*
X12630Y18160D03*
X12280Y17810D03*
X10370Y21840D03*
X10720Y22190D03*
X11080Y22550D03*
X13340Y18870D03*
X13690Y19220D03*
X14050Y19580D03*
X15810Y27780D03*
X15450Y27420D03*
X18420Y24450D03*
X18780Y24810D03*
X16520Y28480D03*
X16160Y28130D03*
X17220Y29190D03*
X16870Y28840D03*
X17580Y29550D03*
X19480Y25520D03*
X19130Y25160D03*
X19840Y25870D03*
X20190Y26220D03*
X20550Y26580D03*
G54D23*
X15920Y20020D03*
X17640Y17570D03*
X17360Y17970D03*
X17070Y18380D03*
X16780Y18790D03*
X16210Y19610D03*
X16490Y19200D03*
X20220Y21210D03*
X20510Y20800D03*
X20790Y20390D03*
X19930Y21620D03*
X19640Y22030D03*
X21080Y19980D03*
X19360Y22430D03*
G54D14*
X4000Y3620D03*
Y2380D03*
Y5380D03*
Y6620D03*
X1500Y8500D03*
Y9740D03*
X5500Y2380D03*
Y3620D03*
X7000D03*
Y2380D03*
Y5380D03*
Y6620D03*
X5500Y5380D03*
Y6620D03*
X7000Y8380D03*
Y9620D03*
X5500D03*
Y8380D03*
X8500Y2380D03*
Y3620D03*
Y6620D03*
Y5380D03*
X10000D03*
Y6620D03*
X8500Y8380D03*
Y9620D03*
X13000Y3620D03*
Y2380D03*
X11500Y6620D03*
Y5380D03*
X16500Y6620D03*
Y5380D03*
X18000D03*
Y6620D03*
G54D24*
X16070Y20860D03*
X18890Y17710D03*
X18480Y17420D03*
X17290Y21720D03*
X17700Y22010D03*
X16880Y21430D03*
X16470Y21140D03*
X18520Y22580D03*
X18110Y22290D03*
X20120Y18570D03*
X20530Y18860D03*
X19710Y18280D03*
X19300Y17990D03*
X20930Y19140D03*
G54D15*
X3000Y8000D03*
Y9750D03*
X3500Y8000D03*
Y9750D03*
Y24900D03*
X3000D03*
X2500D03*
Y29100D03*
X3000D03*
X3500D03*
X4500Y9750D03*
Y8000D03*
X4000Y9750D03*
Y8000D03*
X5500Y24900D03*
X5000D03*
X4500D03*
X4000D03*
X5000Y29100D03*
X5500D03*
X4000D03*
X4500D03*
X9750Y8130D03*
Y9880D03*
X9500Y31400D03*
X9000D03*
Y35600D03*
X9500D03*
X11500Y3750D03*
X10000Y2000D03*
Y3750D03*
X10500Y2000D03*
X11500D03*
X11000Y3750D03*
Y2000D03*
X10500Y3750D03*
X11250Y9880D03*
X10250Y8130D03*
X11250D03*
X10750Y9880D03*
Y8130D03*
X10250Y9880D03*
X12750D03*
Y8130D03*
X12000Y31400D03*
X11500D03*
X11000D03*
X10500D03*
X10000D03*
Y35600D03*
X10500D03*
X11000D03*
X11500D03*
X12000D03*
X15750Y9870D03*
Y8120D03*
X13750Y9880D03*
X14250Y8130D03*
Y9880D03*
X13750Y8130D03*
X13250D03*
Y9880D03*
X17000Y3870D03*
X18500D03*
Y2120D03*
X16000D03*
X17000D03*
X16500D03*
X18000Y3870D03*
X17500D03*
X18000Y2120D03*
X17500D03*
X16000Y3870D03*
X16500D03*
X16250Y9870D03*
X17750D03*
X18250D03*
X18750D03*
X18250Y8120D03*
X17750D03*
X16250D03*
X16750D03*
X18750D03*
X17250D03*
Y9870D03*
X16750D03*
X19000Y3870D03*
Y2120D03*
X19250Y9870D03*
Y8120D03*
G54D16*
X2520Y19020D03*
X3220Y18310D03*
X2870Y18660D03*
X3580Y17950D03*
X1450Y20080D03*
X2160Y19370D03*
X1810Y19720D03*
X5840Y21630D03*
X6190Y21280D03*
X6550Y20920D03*
X5480Y21980D03*
X4780Y22690D03*
X4420Y23050D03*
X5130Y22340D03*
X10080Y24450D03*
X9720Y24810D03*
X8310Y26220D03*
X7950Y26580D03*
X9370Y25160D03*
X9020Y25520D03*
X8660Y25870D03*
X12690Y27780D03*
X13050Y27420D03*
X10920Y29550D03*
X11280Y29190D03*
X11630Y28840D03*
X11980Y28480D03*
X12340Y28130D03*
G54D25*
X20500Y5000D03*
X22060D03*
X23620D03*
X23000Y6500D03*
X24100Y7600D03*
X25210Y8710D03*
X22750Y8500D03*
Y10060D03*
Y11620D03*
Y13190D03*
Y14750D03*
Y16310D03*
Y17880D03*
Y19440D03*
Y21000D03*
X24500Y23000D03*
Y24560D03*
X22500Y23000D03*
Y24560D03*
X24500Y26120D03*
Y27690D03*
X22500Y26120D03*
Y27690D03*
X24500Y29250D03*
Y30810D03*
X22500Y29250D03*
Y30810D03*
X24500Y32380D03*
Y33940D03*
X22500Y32380D03*
Y33940D03*
X24500Y35500D03*
X22500D03*
X25190Y5000D03*
X26750D03*
X26320Y9820D03*
X27420Y10920D03*
X28310Y5000D03*
X29880D03*
X28520Y12020D03*
X29630Y13130D03*
X30740Y14240D03*
X31440Y5000D03*
X33000D03*
X31840Y15340D03*
G54D17*
X2160Y21630D03*
X1450Y20920D03*
X1810Y21280D03*
X2520Y21980D03*
X3220Y22690D03*
X2870Y22340D03*
X3580Y23050D03*
X5480Y19020D03*
X4420Y17950D03*
X5130Y18660D03*
X4780Y18310D03*
X5840Y19370D03*
X6550Y20080D03*
X6190Y19720D03*
X7950Y27420D03*
X8310Y27780D03*
X9370Y28840D03*
X9720Y29190D03*
X9020Y28480D03*
X8660Y28130D03*
X10080Y29550D03*
X11280Y24810D03*
X10920Y24450D03*
X12340Y25870D03*
X11980Y25520D03*
X11630Y25160D03*
X13050Y26580D03*
X12690Y26220D03*
G54D26*
X26000Y21500D03*
X28000Y22500D03*
Y30500D03*
X26000Y28500D03*
X28000Y36500D03*
X26000Y35500D03*
G54D27*
G01X8240Y-4800D02*
Y-5550D01*
X8620D01*
G01X9350D02*
Y-5050D01*
G01Y-5140D02*
X9310Y-5090D01*
X9250Y-5060D01*
X9190Y-5050D01*
X9120Y-5080D01*
X9070Y-5120D01*
X9030Y-5200D01*
X9010Y-5300D01*
X9030Y-5400D01*
X9070Y-5480D01*
X9120Y-5530D01*
X9190Y-5550D01*
X9250Y-5540D01*
X9310Y-5500D01*
X9350Y-5450D01*
G01X9730Y-5770D02*
X9790Y-5800D01*
X9860Y-5770D01*
X9910Y-5730D01*
X9950Y-5660D01*
X10000Y-5460D01*
X10130Y-5050D01*
G01X9830D02*
X10000Y-5460D01*
G01X10540Y-5210D02*
X10840D01*
X10810Y-5120D01*
X10760Y-5080D01*
X10700Y-5050D01*
X10630Y-5060D01*
X10580Y-5100D01*
X10540Y-5190D01*
X10520Y-5260D01*
Y-5340D01*
X10540Y-5410D01*
X10590Y-5490D01*
X10640Y-5540D01*
X10710Y-5550D01*
X10770Y-5530D01*
X10840Y-5450D01*
G01X11300Y-5550D02*
Y-5050D01*
G01Y-5150D02*
X11350Y-5100D01*
X11390Y-5060D01*
X11460Y-5050D01*
X11500Y-5060D01*
X11560Y-5100D01*
G01X12180Y-5570D02*
X12160Y-5560D01*
Y-5540D01*
X12180Y-5530D01*
X12200Y-5540D01*
Y-5560D01*
X12180Y-5570D01*
G01Y-5240D02*
X12160Y-5230D01*
Y-5200D01*
X12180Y-5190D01*
X12200Y-5200D01*
Y-5230D01*
X12180Y-5240D01*
G01X12680Y-4700D02*
X12760Y-4760D01*
X12840Y-4800D01*
X12920D01*
X12990Y-4760D01*
X13050Y-4700D01*
X13080Y-4610D01*
X13060Y-4530D01*
X13010Y-4450D01*
X12930Y-4400D01*
X12810Y-4370D01*
X12750Y-4330D01*
X12720Y-4240D01*
X12740Y-4150D01*
X12790Y-4090D01*
X12850Y-4050D01*
X12920D01*
X12980Y-4070D01*
X13040Y-4140D01*
G01X13630Y-4800D02*
X13570Y-4790D01*
X13520Y-4740D01*
X13480Y-4650D01*
X13460Y-4550D01*
X13480Y-4450D01*
X13520Y-4360D01*
X13570Y-4310D01*
X13630Y-4300D01*
X13690Y-4310D01*
X13740Y-4360D01*
X13780Y-4450D01*
X13790Y-4550D01*
X13780Y-4650D01*
X13740Y-4740D01*
X13690Y-4790D01*
X13630Y-4800D01*
G01X14380D02*
Y-4050D01*
G01X15300D02*
Y-4800D01*
G01Y-4690D02*
X15260Y-4750D01*
X15200Y-4790D01*
X15140Y-4800D01*
X15060Y-4780D01*
X15010Y-4710D01*
X14970Y-4640D01*
X14960Y-4550D01*
X14970Y-4460D01*
X15010Y-4390D01*
X15060Y-4330D01*
X15140Y-4300D01*
X15200Y-4310D01*
X15250Y-4340D01*
X15300Y-4390D01*
G01X15740Y-4460D02*
X16040D01*
X16010Y-4370D01*
X15960Y-4330D01*
X15900Y-4300D01*
X15830Y-4310D01*
X15780Y-4350D01*
X15740Y-4440D01*
X15720Y-4510D01*
Y-4590D01*
X15740Y-4660D01*
X15790Y-4740D01*
X15840Y-4790D01*
X15910Y-4800D01*
X15970Y-4780D01*
X16040Y-4700D01*
G01X16500Y-4800D02*
Y-4300D01*
G01Y-4400D02*
X16550Y-4350D01*
X16590Y-4310D01*
X16660Y-4300D01*
X16700Y-4310D01*
X16760Y-4350D01*
G01X17890Y-4800D02*
Y-4050D01*
X18130Y-4680D01*
X18370Y-4050D01*
Y-4800D01*
G01X19050D02*
Y-4300D01*
G01Y-4390D02*
X19010Y-4340D01*
X18950Y-4310D01*
X18890Y-4300D01*
X18820Y-4330D01*
X18770Y-4370D01*
X18730Y-4450D01*
X18710Y-4550D01*
X18730Y-4650D01*
X18770Y-4730D01*
X18820Y-4780D01*
X18890Y-4800D01*
X18950Y-4790D01*
X19010Y-4750D01*
X19050Y-4700D01*
G01X19490Y-4710D02*
X19540Y-4760D01*
X19600Y-4800D01*
X19660D01*
X19710Y-4780D01*
X19750Y-4740D01*
X19770Y-4690D01*
X19760Y-4610D01*
X19720Y-4580D01*
X19560Y-4500D01*
X19520Y-4410D01*
X19540Y-4350D01*
X19570Y-4310D01*
X19630Y-4300D01*
X19690Y-4310D01*
X19740Y-4350D01*
G01X20220Y-4800D02*
Y-4050D01*
G01X20520Y-4300D02*
X20220Y-4590D01*
G01X20340Y-4480D02*
X20540Y-4800D01*
G01X21880Y-4050D02*
Y-4800D01*
G01X21670Y-4050D02*
X22090D01*
G01X22630Y-4800D02*
X22570Y-4790D01*
X22520Y-4740D01*
X22480Y-4650D01*
X22460Y-4550D01*
X22480Y-4450D01*
X22520Y-4360D01*
X22570Y-4310D01*
X22630Y-4300D01*
X22690Y-4310D01*
X22740Y-4360D01*
X22780Y-4450D01*
X22790Y-4550D01*
X22780Y-4650D01*
X22740Y-4740D01*
X22690Y-4790D01*
X22630Y-4800D01*
G01X23210Y-5050D02*
Y-4300D01*
G01Y-4410D02*
X23260Y-4350D01*
X23310Y-4310D01*
X23380Y-4300D01*
X23450Y-4310D01*
X23510Y-4370D01*
X23540Y-4460D01*
X23550Y-4550D01*
X23540Y-4640D01*
X23510Y-4730D01*
X23450Y-4780D01*
X23380Y-4800D01*
X23310Y-4790D01*
X23250Y-4750D01*
X23210Y-4700D01*
G01X24830Y-5050D02*
X24740Y-4920D01*
X24690Y-4800D01*
Y-4300D01*
X24740Y-4170D01*
X24830Y-4050D01*
G01X25430Y-4700D02*
X25510Y-4760D01*
X25590Y-4800D01*
X25670D01*
X25740Y-4760D01*
X25800Y-4700D01*
X25830Y-4610D01*
X25810Y-4530D01*
X25760Y-4450D01*
X25680Y-4400D01*
X25560Y-4370D01*
X25500Y-4330D01*
X25470Y-4240D01*
X25490Y-4150D01*
X25540Y-4090D01*
X25600Y-4050D01*
X25670D01*
X25730Y-4070D01*
X25790Y-4140D01*
G01X26140Y-4800D02*
Y-4050D01*
X26380Y-4680D01*
X26620Y-4050D01*
Y-4800D01*
G01X26850Y-5050D02*
X27410D01*
G01X27880Y-4050D02*
Y-4800D01*
G01X27670Y-4050D02*
X28090D01*
G01X28630Y-4800D02*
X28560Y-4790D01*
X28490Y-4740D01*
X28430Y-4660D01*
X28400Y-4580D01*
X28380Y-4480D01*
Y-4370D01*
X28400Y-4270D01*
X28430Y-4190D01*
X28490Y-4110D01*
X28560Y-4060D01*
X28630Y-4050D01*
X28700Y-4060D01*
X28770Y-4110D01*
X28830Y-4190D01*
X28860Y-4270D01*
X28880Y-4370D01*
Y-4480D01*
X28860Y-4580D01*
X28830Y-4660D01*
X28770Y-4740D01*
X28700Y-4790D01*
X28630Y-4800D01*
G01X29190D02*
Y-4050D01*
X29420D01*
X29490Y-4090D01*
X29550Y-4170D01*
X29570Y-4270D01*
X29550Y-4370D01*
X29500Y-4450D01*
X29420Y-4490D01*
X29190D01*
G01X30180Y-5050D02*
X30270Y-4920D01*
X30320Y-4800D01*
Y-4300D01*
X30270Y-4170D01*
X30180Y-4050D01*
G54D18*
X1900Y26500D03*
Y25500D03*
Y26000D03*
Y27000D03*
Y27500D03*
Y28000D03*
Y28500D03*
X6100Y27000D03*
Y27500D03*
Y26500D03*
Y26000D03*
Y25500D03*
Y28500D03*
Y28000D03*
X8400Y32000D03*
Y33500D03*
Y33000D03*
Y32500D03*
Y34000D03*
Y34500D03*
Y35000D03*
X12600Y33000D03*
Y32500D03*
Y32000D03*
Y33500D03*
Y35000D03*
Y34500D03*
Y34000D03*
G54D19*
X3000Y31400D03*
X3500D03*
X2500D03*
X3500Y35600D03*
X2500D03*
X3000D03*
X4500Y31400D03*
X5500D03*
X5000D03*
X4000D03*
Y35600D03*
X5500D03*
X4500D03*
X5000D03*
X15500Y31400D03*
Y35600D03*
X17000Y31400D03*
X16500D03*
X16000D03*
X17500D03*
X18000D03*
X18500D03*
X17000Y35600D03*
X17500D03*
X18500D03*
X18000D03*
X16500D03*
X16000D03*
M02*
