G04 ================== begin FILE IDENTIFICATION RECORD ==================*
G04 Layout Name:  D:/2581-sample_brds/Validation Boards/Test3/test-3_r2.brd*
G04 Film Name:    SS_BOT*
G04 File Format:  Gerber RS274X*
G04 File Origin:  Cadence Allegro 16.6-D064*
G04 Origin Date:  Fri Dec 02 14:27:29 2011*
G04 *
G04 Layer:  BOARD GEOMETRY/TOOLING_CORNERS*
G04 Layer:  MANUFACTURING/AUTOSILK_BOTTOM*
G04 *
G04 Offset:    (0 0)*
G04 Mirror:    No*
G04 Mode:      Positive*
G04 Rotation:  0*
G04 FullContactRelief:  No*
G04 UndefLineWidth:     4*
G04 ================== end FILE IDENTIFICATION RECORD ====================*
%FSLAX54Y54*MOIN*%
%IR0*IPPOS*OFA0.00000B0.00000*MIA0B0*SFA1.00000B1.00000*%
%ADD10C,.05*%
%ADD11C,.004*%
G75*
%LPD*%
G75*
G54D10*
G01X-2750Y1000D02*
Y50D01*
G03X50Y-2750I2800J0D01*
G01X1100D01*
G01X-1700Y41250D02*
X-2750D01*
Y40050D01*
G01X24500Y41250D02*
X23600D01*
G01X31200Y-2750D02*
X32600D01*
X35250Y-100D01*
Y1900D01*
G01X36750Y5400D02*
Y13000D01*
G01Y36600D02*
Y38150D01*
G03X34650Y40250I-2100J0D01*
G01X34050D01*
G54D11*
G01X6400Y11800D02*
Y11100D01*
X1600D01*
Y11800D01*
G01X4960Y16750D02*
Y16210D01*
X4920Y16100D01*
X4840Y16020D01*
X4750Y16000D01*
X4660Y16020D01*
X4580Y16100D01*
X4540Y16210D01*
Y16750D01*
G01X4000Y16000D02*
Y16750D01*
X4110Y16600D01*
G01Y16000D02*
X3890D01*
G01X3430Y16310D02*
X3360Y16400D01*
X3310Y16450D01*
X3230Y16470D01*
X3170Y16450D01*
X3120Y16400D01*
X3080Y16320D01*
X3070Y16240D01*
X3080Y16160D01*
X3120Y16090D01*
X3180Y16020D01*
X3240Y16000D01*
X3320Y16020D01*
X3380Y16100D01*
X3420Y16210D01*
X3430Y16340D01*
X3410Y16500D01*
X3380Y16590D01*
X3330Y16670D01*
X3270Y16740D01*
X3200Y16750D01*
X3140Y16730D01*
X3090Y16660D01*
G01X1600Y15200D02*
Y15900D01*
X5800D01*
G01X4200Y15000D02*
G03I-200J0D01*
G01X5800Y15900D02*
X6400Y15300D01*
G01X8240Y-4800D02*
Y-5550D01*
X8620D01*
G01X9350D02*
Y-5050D01*
G01Y-5140D02*
X9310Y-5090D01*
X9250Y-5060D01*
X9190Y-5050D01*
X9120Y-5080D01*
X9070Y-5120D01*
X9030Y-5200D01*
X9010Y-5300D01*
X9030Y-5400D01*
X9070Y-5480D01*
X9120Y-5530D01*
X9190Y-5550D01*
X9250Y-5540D01*
X9310Y-5500D01*
X9350Y-5450D01*
G01X9730Y-5770D02*
X9790Y-5800D01*
X9860Y-5770D01*
X9910Y-5730D01*
X9950Y-5660D01*
X10000Y-5460D01*
X10130Y-5050D01*
G01X9830D02*
X10000Y-5460D01*
G01X10540Y-5210D02*
X10840D01*
X10810Y-5120D01*
X10760Y-5080D01*
X10700Y-5050D01*
X10630Y-5060D01*
X10580Y-5100D01*
X10540Y-5190D01*
X10520Y-5260D01*
Y-5340D01*
X10540Y-5410D01*
X10590Y-5490D01*
X10640Y-5540D01*
X10710Y-5550D01*
X10770Y-5530D01*
X10840Y-5450D01*
G01X11300Y-5550D02*
Y-5050D01*
G01Y-5150D02*
X11350Y-5100D01*
X11390Y-5060D01*
X11460Y-5050D01*
X11500Y-5060D01*
X11560Y-5100D01*
G01X12180Y-5570D02*
X12160Y-5560D01*
Y-5540D01*
X12180Y-5530D01*
X12200Y-5540D01*
Y-5560D01*
X12180Y-5570D01*
G01Y-5240D02*
X12160Y-5230D01*
Y-5200D01*
X12180Y-5190D01*
X12200Y-5200D01*
Y-5230D01*
X12180Y-5240D01*
G01X9900Y11210D02*
X9770Y11340D01*
G01X9550Y11560D02*
X9410Y11700D01*
G01X9200Y11910D02*
X9060Y12050D01*
G01X8840Y12270D02*
X8710Y12400D01*
G01X8490Y12620D02*
X8350Y12760D01*
G01X8130Y12980D02*
X7610Y13500D01*
X8100Y13980D01*
G01X11480Y10600D02*
X11000Y10110D01*
X10480Y10630D01*
G01X10260Y10850D02*
X10120Y10990D01*
G01X12100Y15790D02*
X12230Y15660D01*
G01X12450Y15440D02*
X12590Y15300D01*
G01X12260Y14560D02*
G03I-199J1D01*
G01X10520Y16400D02*
X11000Y16890D01*
X11520Y16370D01*
G01X11740Y16150D02*
X11880Y16010D01*
G01X12880Y-4650D02*
X12960Y-4710D01*
X13040Y-4750D01*
X13120D01*
X13190Y-4710D01*
X13250Y-4650D01*
X13280Y-4560D01*
X13260Y-4480D01*
X13210Y-4400D01*
X13130Y-4350D01*
X13010Y-4320D01*
X12950Y-4280D01*
X12920Y-4190D01*
X12940Y-4100D01*
X12990Y-4040D01*
X13050Y-4000D01*
X13120D01*
X13180Y-4020D01*
X13240Y-4090D01*
G01X13830Y-4250D02*
Y-4750D01*
G01Y-4050D02*
X13810Y-4040D01*
Y-4010D01*
X13830Y-4000D01*
X13850Y-4010D01*
Y-4040D01*
X13830Y-4050D01*
G01X14580Y-4750D02*
Y-4000D01*
G01X15170Y-4750D02*
Y-4000D01*
G01X15470Y-4250D02*
X15170Y-4540D01*
G01X15290Y-4430D02*
X15490Y-4750D01*
G01X16630Y-4650D02*
X16710Y-4710D01*
X16790Y-4750D01*
X16870D01*
X16940Y-4710D01*
X17000Y-4650D01*
X17030Y-4560D01*
X17010Y-4480D01*
X16960Y-4400D01*
X16880Y-4350D01*
X16760Y-4320D01*
X16700Y-4280D01*
X16670Y-4190D01*
X16690Y-4100D01*
X16740Y-4040D01*
X16800Y-4000D01*
X16870D01*
X16930Y-4020D01*
X16990Y-4090D01*
G01X17730Y-4310D02*
X17660Y-4260D01*
X17610Y-4250D01*
X17530Y-4280D01*
X17480Y-4320D01*
X17440Y-4410D01*
X17430Y-4500D01*
X17440Y-4590D01*
X17480Y-4660D01*
X17530Y-4730D01*
X17610Y-4750D01*
X17670Y-4730D01*
X17730Y-4680D01*
G01X18200Y-4750D02*
Y-4250D01*
G01Y-4350D02*
X18250Y-4300D01*
X18290Y-4260D01*
X18360Y-4250D01*
X18400Y-4260D01*
X18460Y-4300D01*
G01X18940Y-4410D02*
X19240D01*
X19210Y-4320D01*
X19160Y-4280D01*
X19100Y-4250D01*
X19030Y-4260D01*
X18980Y-4300D01*
X18940Y-4390D01*
X18920Y-4460D01*
Y-4540D01*
X18940Y-4610D01*
X18990Y-4690D01*
X19040Y-4740D01*
X19110Y-4750D01*
X19170Y-4730D01*
X19240Y-4650D01*
G01X19690Y-4410D02*
X19990D01*
X19960Y-4320D01*
X19910Y-4280D01*
X19850Y-4250D01*
X19780Y-4260D01*
X19730Y-4300D01*
X19690Y-4390D01*
X19670Y-4460D01*
Y-4540D01*
X19690Y-4610D01*
X19740Y-4690D01*
X19790Y-4740D01*
X19860Y-4750D01*
X19920Y-4730D01*
X19990Y-4650D01*
G01X20420Y-4750D02*
Y-4250D01*
G01Y-4380D02*
X20460Y-4310D01*
X20510Y-4260D01*
X20590Y-4250D01*
X20650Y-4260D01*
X20710Y-4310D01*
X20740Y-4400D01*
Y-4750D01*
G01X22150Y-4350D02*
X22190Y-4310D01*
X22220Y-4250D01*
X22240Y-4160D01*
X22220Y-4090D01*
X22180Y-4040D01*
X22120Y-4000D01*
X21870D01*
Y-4750D01*
X22170D01*
X22240Y-4700D01*
X22280Y-4630D01*
X22290Y-4540D01*
X22280Y-4450D01*
X22220Y-4380D01*
X22150Y-4350D01*
X21870D01*
G01X22830Y-4750D02*
X22770Y-4740D01*
X22720Y-4690D01*
X22680Y-4600D01*
X22660Y-4500D01*
X22680Y-4400D01*
X22720Y-4310D01*
X22770Y-4260D01*
X22830Y-4250D01*
X22890Y-4260D01*
X22940Y-4310D01*
X22980Y-4400D01*
X22990Y-4500D01*
X22980Y-4600D01*
X22940Y-4690D01*
X22890Y-4740D01*
X22830Y-4750D01*
G01X23580Y-4000D02*
Y-4750D01*
G01X23450Y-4250D02*
X23710D01*
G01X24330Y-4000D02*
Y-4750D01*
G01X24200Y-4250D02*
X24460D01*
G01X25080Y-4750D02*
X25020Y-4740D01*
X24970Y-4690D01*
X24930Y-4600D01*
X24910Y-4500D01*
X24930Y-4400D01*
X24970Y-4310D01*
X25020Y-4260D01*
X25080Y-4250D01*
X25140Y-4260D01*
X25190Y-4310D01*
X25230Y-4400D01*
X25240Y-4500D01*
X25230Y-4600D01*
X25190Y-4690D01*
X25140Y-4740D01*
X25080Y-4750D01*
G01X25550D02*
Y-4250D01*
G01Y-4390D02*
X25580Y-4320D01*
X25620Y-4280D01*
X25690Y-4250D01*
X25760Y-4280D01*
X25800Y-4320D01*
X25830Y-4390D01*
Y-4750D01*
G01Y-4390D02*
X25860Y-4320D01*
X25900Y-4280D01*
X25970Y-4250D01*
X26040Y-4280D01*
X26080Y-4320D01*
X26110Y-4400D01*
Y-4750D01*
G01X27280Y-5000D02*
X27190Y-4870D01*
X27140Y-4750D01*
Y-4250D01*
X27190Y-4120D01*
X27280Y-4000D01*
G01X27880Y-4650D02*
X27960Y-4710D01*
X28040Y-4750D01*
X28120D01*
X28190Y-4710D01*
X28250Y-4650D01*
X28280Y-4560D01*
X28260Y-4480D01*
X28210Y-4400D01*
X28130Y-4350D01*
X28010Y-4320D01*
X27950Y-4280D01*
X27920Y-4190D01*
X27940Y-4100D01*
X27990Y-4040D01*
X28050Y-4000D01*
X28120D01*
X28180Y-4020D01*
X28240Y-4090D01*
G01X28630Y-4650D02*
X28710Y-4710D01*
X28790Y-4750D01*
X28870D01*
X28940Y-4710D01*
X29000Y-4650D01*
X29030Y-4560D01*
X29010Y-4480D01*
X28960Y-4400D01*
X28880Y-4350D01*
X28760Y-4320D01*
X28700Y-4280D01*
X28670Y-4190D01*
X28690Y-4100D01*
X28740Y-4040D01*
X28800Y-4000D01*
X28870D01*
X28930Y-4020D01*
X28990Y-4090D01*
G01X29300Y-5000D02*
X29860D01*
G01X30400Y-4350D02*
X30440Y-4310D01*
X30470Y-4250D01*
X30490Y-4160D01*
X30470Y-4090D01*
X30430Y-4040D01*
X30370Y-4000D01*
X30120D01*
Y-4750D01*
X30420D01*
X30490Y-4700D01*
X30530Y-4630D01*
X30540Y-4540D01*
X30530Y-4450D01*
X30470Y-4380D01*
X30400Y-4350D01*
X30120D01*
G01X31080Y-4750D02*
X31010Y-4740D01*
X30940Y-4690D01*
X30880Y-4610D01*
X30850Y-4530D01*
X30830Y-4430D01*
Y-4320D01*
X30850Y-4220D01*
X30880Y-4140D01*
X30940Y-4060D01*
X31010Y-4010D01*
X31080Y-4000D01*
X31150Y-4010D01*
X31220Y-4060D01*
X31280Y-4140D01*
X31310Y-4220D01*
X31330Y-4320D01*
Y-4430D01*
X31310Y-4530D01*
X31280Y-4610D01*
X31220Y-4690D01*
X31150Y-4740D01*
X31080Y-4750D01*
G01X31830Y-4000D02*
Y-4750D01*
G01X31620Y-4000D02*
X32040D01*
G01X32580D02*
Y-4750D01*
G01X32370Y-4000D02*
X32790D01*
G01X33330Y-4750D02*
X33260Y-4740D01*
X33190Y-4690D01*
X33130Y-4610D01*
X33100Y-4530D01*
X33080Y-4430D01*
Y-4320D01*
X33100Y-4220D01*
X33130Y-4140D01*
X33190Y-4060D01*
X33260Y-4010D01*
X33330Y-4000D01*
X33400Y-4010D01*
X33470Y-4060D01*
X33530Y-4140D01*
X33560Y-4220D01*
X33580Y-4320D01*
Y-4430D01*
X33560Y-4530D01*
X33530Y-4610D01*
X33470Y-4690D01*
X33400Y-4740D01*
X33330Y-4750D01*
G01X33840D02*
Y-4000D01*
X34080Y-4630D01*
X34320Y-4000D01*
Y-4750D01*
G01X34880Y-5000D02*
X34970Y-4870D01*
X35020Y-4750D01*
Y-4250D01*
X34970Y-4120D01*
X34880Y-4000D01*
G01X16040Y10890D02*
X15430Y10810D01*
X15340Y11520D01*
G01X15320Y11650D02*
X15270Y12020D01*
G01X15260Y12120D02*
X15210Y12500D01*
G01X15190Y12650D02*
X15140Y13000D01*
G01X14380Y14480D02*
X13840D01*
X13730Y14520D01*
X13650Y14600D01*
X13630Y14690D01*
X13650Y14780D01*
X13730Y14860D01*
X13840Y14900D01*
X14380D01*
G01X13630Y15440D02*
X14380D01*
X14230Y15330D01*
G01X13630D02*
Y15550D01*
G01Y16300D02*
X14380D01*
X13840Y15960D01*
Y16420D01*
G01X13970Y13920D02*
Y13080D01*
G01X12800Y15090D02*
X12940Y14950D01*
G01X13160Y14730D02*
X13290Y14600D01*
G01X13510Y14380D02*
X13650Y14240D01*
G01X13870Y14020D02*
X13970Y13920D01*
G01X15130Y13110D02*
X15080Y13500D01*
G01X15060Y13650D02*
X15020Y14000D01*
G01X15000Y14110D02*
X14950Y14500D01*
G01X14930Y14650D02*
X14810Y15570D01*
X15500Y15660D01*
G01X20110Y12020D02*
X19590Y11350D01*
G01X20000Y12870D02*
X20050Y12500D01*
G01X20070Y12330D02*
X20110Y12020D01*
G01X21310Y12890D02*
X20770D01*
X20660Y12930D01*
X20580Y13010D01*
X20560Y13100D01*
X20580Y13190D01*
X20660Y13270D01*
X20770Y13310D01*
X21310D01*
G01X20560Y13850D02*
X21310D01*
X21160Y13740D01*
G01X20560D02*
Y13960D01*
G01Y14600D02*
X21310D01*
X21160Y14490D01*
G01X20560D02*
Y14710D01*
G01X18960Y16110D02*
X19570Y16190D01*
X19660Y15480D01*
G01X19680Y15340D02*
X19730Y14980D01*
G01X19740Y14880D02*
X19790Y14500D01*
G01X19810Y14340D02*
X19850Y14000D01*
G01X19870Y13870D02*
X19920Y13500D01*
G01X19940Y13330D02*
X19980Y13000D01*
G01X19190Y13690D02*
G03I-202J3D01*
M02*
