G04 ================== begin FILE IDENTIFICATION RECORD ==================*
G04 Layout Name:  D:/2581-sample_brds/Validation Boards/Test3/test-3_r2.brd*
G04 Film Name:    SS_TOP*
G04 File Format:  Gerber RS274X*
G04 File Origin:  Cadence Allegro 16.6-D064*
G04 Origin Date:  Fri Dec 02 14:27:29 2011*
G04 *
G04 Layer:  BOARD GEOMETRY/TOOLING_CORNERS*
G04 Layer:  MANUFACTURING/AUTOSILK_TOP*
G04 *
G04 Offset:    (0 0)*
G04 Mirror:    No*
G04 Mode:      Positive*
G04 Rotation:  0*
G04 FullContactRelief:  No*
G04 UndefLineWidth:     4*
G04 ================== end FILE IDENTIFICATION RECORD ====================*
%FSLAX54Y54*MOIN*%
%IR0*IPPOS*OFA0.00000B0.00000*MIA0B0*SFA1.00000B1.00000*%
%ADD10C,.05*%
%ADD11C,.004*%
G75*
%LPD*%
G75*
G54D10*
G01X-2750Y1000D02*
Y50D01*
G03X50Y-2750I2800J0D01*
G01X1100D01*
G01X-1700Y41250D02*
X-2750D01*
Y40050D01*
G01X24500Y41250D02*
X23600D01*
G01X31200Y-2750D02*
X32600D01*
X35250Y-100D01*
Y1900D01*
G01X36750Y5400D02*
Y13000D01*
G01Y36600D02*
Y38150D01*
G03X34650Y40250I-2100J0D01*
G01X34050D01*
G54D11*
G01X1130Y21020D02*
X610Y20500D01*
X1100Y20020D01*
G01X-900Y30580D02*
X-830Y30620D01*
X-790Y30660D01*
X-770Y30720D01*
X-790Y30780D01*
X-830Y30830D01*
X-900Y30880D01*
X-980Y30890D01*
X-1400D01*
G01X-770Y31360D02*
X-1400D01*
X-1270Y31270D01*
G01X-770D02*
Y31460D01*
G01X2750Y3570D02*
X3500D01*
Y3330D01*
X3460Y3260D01*
X3410Y3210D01*
X3310Y3190D01*
X3210Y3210D01*
X3150Y3270D01*
X3110Y3330D01*
Y3570D01*
G01Y3330D02*
X2750Y3190D01*
G01Y2630D02*
X2760Y2560D01*
X2800Y2490D01*
X2860Y2440D01*
X2950Y2420D01*
X3040Y2440D01*
X3110Y2500D01*
X3150Y2580D01*
Y2680D01*
X3180Y2730D01*
X3240Y2780D01*
X3320Y2800D01*
X3410Y2770D01*
X3480Y2700D01*
X3500Y2630D01*
X3480Y2560D01*
X3410Y2490D01*
X3320Y2460D01*
X3240Y2480D01*
X3180Y2530D01*
X3150Y2580D01*
Y2680D01*
X3110Y2760D01*
X3040Y2820D01*
X2950Y2840D01*
X2860Y2820D01*
X2800Y2770D01*
X2760Y2700D01*
X2750Y2630D01*
G01X1700Y8260D02*
X2240D01*
X2350Y8300D01*
X2430Y8380D01*
X2450Y8470D01*
X2430Y8560D01*
X2350Y8640D01*
X2240Y8680D01*
X1700D01*
G01X2360Y9060D02*
X2430Y9130D01*
X2450Y9200D01*
X2430Y9280D01*
X2350Y9340D01*
X2240Y9390D01*
X2130Y9410D01*
X1990D01*
X1880Y9390D01*
X1780Y9340D01*
X1720Y9290D01*
X1700Y9220D01*
X1720Y9150D01*
X1780Y9090D01*
X1850Y9050D01*
X1950Y9030D01*
X2040Y9050D01*
X2130Y9100D01*
X2180Y9150D01*
X2190Y9220D01*
X2160Y9290D01*
X2100Y9350D01*
X1990Y9410D01*
G01X2650Y8400D02*
X4850D01*
G01Y7720D02*
Y10200D01*
X2650D01*
Y7550D01*
X4730D01*
G01X4320Y8560D02*
X4380Y8520D01*
X4450Y8500D01*
X4520D01*
X4600Y8540D01*
X4670Y8600D01*
X4720Y8680D01*
X4750Y8800D01*
X4760Y8910D01*
X4740Y9030D01*
X4720Y9100D01*
X4660Y9180D01*
X4600Y9230D01*
X4530Y9250D01*
X4460D01*
X4400Y9230D01*
X4340Y9190D01*
X4300Y9140D01*
G01X3990Y9100D02*
X3930Y9190D01*
X3850Y9240D01*
X3770Y9250D01*
X3700Y9240D01*
X3620Y9180D01*
X3570Y9100D01*
Y9030D01*
X3580Y8940D01*
X3650Y8880D01*
X3710Y8850D01*
X3800D01*
G01X3710D02*
X3660Y8810D01*
X3610Y8750D01*
X3590Y8680D01*
X3610Y8600D01*
X3660Y8540D01*
X3740Y8500D01*
X3830Y8510D01*
X3910Y8560D01*
G01X2060Y8950D02*
X2020Y8890D01*
X2000Y8820D01*
Y8750D01*
X2040Y8670D01*
X2100Y8600D01*
X2180Y8550D01*
X2300Y8520D01*
X2410Y8510D01*
X2530Y8530D01*
X2600Y8550D01*
X2680Y8610D01*
X2730Y8670D01*
X2750Y8740D01*
Y8810D01*
X2730Y8870D01*
X2690Y8930D01*
X2640Y8970D01*
G01X2120Y9310D02*
X2050Y9370D01*
X2010Y9430D01*
X2000Y9510D01*
X2020Y9600D01*
X2090Y9670D01*
X2160Y9690D01*
X2240Y9680D01*
X2300Y9640D01*
X2430Y9450D01*
X2510Y9370D01*
X2640Y9310D01*
X2750Y9290D01*
Y9690D01*
G01X3520Y17600D02*
X4000Y17110D01*
X4520Y17630D01*
G01X1840Y21730D02*
X1710Y21600D01*
G01X1490Y21380D02*
X1350Y21240D01*
G01X2300Y29400D02*
X1600D01*
Y24600D01*
X2300D01*
G01X4480Y23400D02*
X4000Y23890D01*
X3480Y23370D01*
G01X3260Y23150D02*
X3120Y23010D01*
G01X2900Y22790D02*
X2770Y22660D01*
G01X2550Y22440D02*
X2410Y22300D01*
G01X2200Y22090D02*
X2060Y21950D01*
G01X1600Y31800D02*
Y31100D01*
X6400D01*
Y31800D01*
G01X3400Y36750D02*
Y36210D01*
X3440Y36100D01*
X3520Y36020D01*
X3610Y36000D01*
X3700Y36020D01*
X3780Y36100D01*
X3820Y36210D01*
Y36750D01*
G01X4150Y36150D02*
X4210Y36060D01*
X4290Y36010D01*
X4370Y36000D01*
X4440Y36010D01*
X4520Y36070D01*
X4570Y36150D01*
Y36220D01*
X4560Y36310D01*
X4490Y36370D01*
X4430Y36400D01*
X4340D01*
G01X4430D02*
X4480Y36440D01*
X4530Y36500D01*
X4550Y36570D01*
X4530Y36650D01*
X4480Y36710D01*
X4400Y36750D01*
X4310Y36740D01*
X4230Y36690D01*
G01X2200Y35900D02*
X1600Y35300D01*
G01X6400Y35200D02*
Y35900D01*
X2200D01*
G01X4200Y35000D02*
G03I-200J0D01*
G01X6750Y2430D02*
X6000D01*
Y2670D01*
X6040Y2740D01*
X6090Y2790D01*
X6190Y2810D01*
X6290Y2790D01*
X6350Y2730D01*
X6390Y2670D01*
Y2430D01*
G01Y2670D02*
X6750Y2810D01*
G01Y3350D02*
X6590Y3370D01*
X6450Y3400D01*
X6320Y3440D01*
X6190Y3480D01*
X6000Y3560D01*
Y3180D01*
G01X5750Y3570D02*
X6500D01*
Y3330D01*
X6460Y3260D01*
X6410Y3210D01*
X6310Y3190D01*
X6210Y3210D01*
X6150Y3270D01*
X6110Y3330D01*
Y3570D01*
G01Y3330D02*
X5750Y3190D01*
G01X5900Y2840D02*
X5810Y2780D01*
X5760Y2700D01*
X5750Y2620D01*
X5760Y2550D01*
X5820Y2470D01*
X5900Y2420D01*
X5970D01*
X6060Y2430D01*
X6120Y2500D01*
X6150Y2560D01*
Y2650D01*
G01Y2560D02*
X6190Y2510D01*
X6250Y2460D01*
X6320Y2440D01*
X6400Y2460D01*
X6460Y2510D01*
X6500Y2590D01*
X6490Y2680D01*
X6440Y2760D01*
G01X5250Y5430D02*
X4500D01*
Y5670D01*
X4540Y5740D01*
X4590Y5790D01*
X4690Y5810D01*
X4790Y5790D01*
X4850Y5730D01*
X4890Y5670D01*
Y5430D01*
G01Y5670D02*
X5250Y5810D01*
G01X5140Y6160D02*
X5200Y6220D01*
X5240Y6290D01*
X5250Y6370D01*
X5230Y6450D01*
X5180Y6520D01*
X5090Y6570D01*
X4990Y6580D01*
X4890Y6560D01*
X4820Y6510D01*
X4780Y6440D01*
X4760Y6380D01*
X4780Y6310D01*
X4820Y6230D01*
X4500Y6260D01*
Y6510D01*
G01X6060Y5830D02*
X6020Y5770D01*
X6000Y5700D01*
Y5630D01*
X6040Y5550D01*
X6100Y5480D01*
X6180Y5430D01*
X6300Y5400D01*
X6410Y5390D01*
X6530Y5410D01*
X6600Y5430D01*
X6680Y5490D01*
X6730Y5550D01*
X6750Y5620D01*
Y5690D01*
X6730Y5750D01*
X6690Y5810D01*
X6640Y5850D01*
G01X6750Y6480D02*
X6000D01*
X6540Y6140D01*
Y6600D01*
G01Y17390D02*
Y17930D01*
X6500Y18040D01*
X6420Y18120D01*
X6330Y18140D01*
X6240Y18120D01*
X6160Y18040D01*
X6120Y17930D01*
Y17390D01*
G01X5760Y17510D02*
X5700Y17440D01*
X5640Y17400D01*
X5560Y17390D01*
X5470Y17410D01*
X5400Y17480D01*
X5380Y17550D01*
X5390Y17630D01*
X5430Y17690D01*
X5620Y17820D01*
X5700Y17900D01*
X5760Y18030D01*
X5780Y18140D01*
X5380D01*
G01X4740Y17850D02*
X4880Y17990D01*
G01X5100Y18210D02*
X5230Y18340D01*
G01X5450Y18560D02*
X5590Y18700D01*
G01X5800Y18910D02*
X5940Y19050D01*
G01X6160Y19270D02*
X6290Y19400D01*
G01X6510Y19620D02*
X6650Y19760D01*
G01X5260Y19440D02*
G03I-199J-1D01*
G01X5700Y24600D02*
X6400D01*
Y28800D01*
G01X7250Y27590D02*
X6710D01*
X6600Y27550D01*
X6520Y27470D01*
X6500Y27380D01*
X6520Y27290D01*
X6600Y27210D01*
X6710Y27170D01*
X7250D01*
G01X6500Y26520D02*
X7250D01*
X6710Y26860D01*
Y26400D01*
G01X5700Y27000D02*
G03I-200J0D01*
G01X6400Y28800D02*
X5800Y29400D01*
G01X8240Y-4800D02*
Y-5550D01*
X8620D01*
G01X9350D02*
Y-5050D01*
G01Y-5140D02*
X9310Y-5090D01*
X9250Y-5060D01*
X9190Y-5050D01*
X9120Y-5080D01*
X9070Y-5120D01*
X9030Y-5200D01*
X9010Y-5300D01*
X9030Y-5400D01*
X9070Y-5480D01*
X9120Y-5530D01*
X9190Y-5550D01*
X9250Y-5540D01*
X9310Y-5500D01*
X9350Y-5450D01*
G01X9730Y-5770D02*
X9790Y-5800D01*
X9860Y-5770D01*
X9910Y-5730D01*
X9950Y-5660D01*
X10000Y-5460D01*
X10130Y-5050D01*
G01X9830D02*
X10000Y-5460D01*
G01X10540Y-5210D02*
X10840D01*
X10810Y-5120D01*
X10760Y-5080D01*
X10700Y-5050D01*
X10630Y-5060D01*
X10580Y-5100D01*
X10540Y-5190D01*
X10520Y-5260D01*
Y-5340D01*
X10540Y-5410D01*
X10590Y-5490D01*
X10640Y-5540D01*
X10710Y-5550D01*
X10770Y-5530D01*
X10840Y-5450D01*
G01X11300Y-5550D02*
Y-5050D01*
G01Y-5150D02*
X11350Y-5100D01*
X11390Y-5060D01*
X11460Y-5050D01*
X11500Y-5060D01*
X11560Y-5100D01*
G01X12180Y-5570D02*
X12160Y-5560D01*
Y-5540D01*
X12180Y-5530D01*
X12200Y-5540D01*
Y-5560D01*
X12180Y-5570D01*
G01Y-5240D02*
X12160Y-5230D01*
Y-5200D01*
X12180Y-5190D01*
X12200Y-5200D01*
Y-5230D01*
X12180Y-5240D01*
G01X8700Y2260D02*
X9240D01*
X9350Y2300D01*
X9430Y2380D01*
X9450Y2470D01*
X9430Y2560D01*
X9350Y2640D01*
X9240Y2680D01*
X8700D01*
G01X9450Y3220D02*
X9440Y3290D01*
X9400Y3360D01*
X9340Y3410D01*
X9250Y3430D01*
X9160Y3410D01*
X9090Y3350D01*
X9050Y3270D01*
Y3170D01*
X9020Y3120D01*
X8960Y3070D01*
X8880Y3050D01*
X8790Y3080D01*
X8720Y3150D01*
X8700Y3220D01*
X8720Y3290D01*
X8790Y3360D01*
X8880Y3390D01*
X8960Y3370D01*
X9020Y3320D01*
X9050Y3270D01*
Y3170D01*
X9090Y3090D01*
X9160Y3030D01*
X9250Y3010D01*
X9340Y3030D01*
X9400Y3080D01*
X9440Y3150D01*
X9450Y3220D01*
G01X9650Y2400D02*
X11850D01*
G01X9650Y3780D02*
Y1550D01*
X11850D01*
G01X9680Y3430D02*
X9620Y3470D01*
X9550Y3490D01*
X9480D01*
X9400Y3450D01*
X9330Y3390D01*
X9280Y3310D01*
X9250Y3190D01*
X9240Y3080D01*
X9260Y2960D01*
X9280Y2890D01*
X9340Y2810D01*
X9400Y2760D01*
X9470Y2740D01*
X9540D01*
X9600Y2760D01*
X9660Y2800D01*
X9700Y2850D01*
G01X10220Y2740D02*
Y3490D01*
X10110Y3340D01*
G01Y2740D02*
X10330D01*
G01X11850Y1550D02*
Y4200D01*
X9680D01*
G01X8250Y5430D02*
X7500D01*
Y5670D01*
X7540Y5740D01*
X7590Y5790D01*
X7690Y5810D01*
X7790Y5790D01*
X7850Y5730D01*
X7890Y5670D01*
Y5430D01*
G01Y5670D02*
X8250Y5810D01*
G01X7940Y6190D02*
X7850Y6260D01*
X7800Y6310D01*
X7780Y6390D01*
X7800Y6450D01*
X7850Y6500D01*
X7930Y6540D01*
X8010Y6550D01*
X8090Y6540D01*
X8160Y6500D01*
X8230Y6440D01*
X8250Y6380D01*
X8230Y6300D01*
X8150Y6240D01*
X8040Y6200D01*
X7910Y6190D01*
X7750Y6210D01*
X7660Y6240D01*
X7580Y6290D01*
X7510Y6350D01*
X7500Y6420D01*
X7520Y6480D01*
X7590Y6530D01*
G01X7250Y6940D02*
X8000D01*
Y6700D01*
X7960Y6630D01*
X7910Y6580D01*
X7810Y6560D01*
X7710Y6580D01*
X7650Y6640D01*
X7610Y6700D01*
Y6940D01*
G01Y6700D02*
X7250Y6560D01*
G01Y6000D02*
X8000D01*
X7850Y6110D01*
G01X7250D02*
Y5890D01*
G01X8000Y5250D02*
X7980Y5320D01*
X7910Y5380D01*
X7840Y5420D01*
X7740Y5450D01*
X7620Y5460D01*
X7510Y5450D01*
X7410Y5420D01*
X7340Y5380D01*
X7270Y5320D01*
X7250Y5250D01*
X7270Y5180D01*
X7340Y5120D01*
X7410Y5080D01*
X7510Y5050D01*
X7620Y5040D01*
X7740Y5050D01*
X7840Y5080D01*
X7910Y5120D01*
X7980Y5180D01*
X8000Y5250D01*
G01X8450Y8020D02*
X8990D01*
X9100Y8060D01*
X9180Y8140D01*
X9200Y8230D01*
X9180Y8320D01*
X9100Y8400D01*
X8990Y8440D01*
X8450D01*
G01X9200Y8980D02*
X8450D01*
X8600Y8870D01*
G01X9200D02*
Y9090D01*
G01X8570Y9550D02*
X8500Y9610D01*
X8460Y9670D01*
X8450Y9750D01*
X8470Y9840D01*
X8540Y9910D01*
X8610Y9930D01*
X8690Y9920D01*
X8750Y9880D01*
X8880Y9690D01*
X8960Y9610D01*
X9090Y9550D01*
X9200Y9530D01*
Y9930D01*
G01X9400Y8520D02*
X11600D01*
G01Y7680D02*
Y10330D01*
X9400D01*
Y7680D01*
X10800D01*
G01X8250Y8060D02*
X7500D01*
Y8300D01*
X7540Y8370D01*
X7590Y8420D01*
X7690Y8440D01*
X7790Y8420D01*
X7850Y8360D01*
X7890Y8300D01*
Y8060D01*
G01Y8300D02*
X8250Y8440D01*
G01Y9000D02*
X7500D01*
X7650Y8890D01*
G01X8250D02*
Y9110D01*
G01Y9750D02*
X7500D01*
X7650Y9640D01*
G01X8250D02*
Y9860D01*
G01X9330Y9430D02*
X9270Y9470D01*
X9200Y9490D01*
X9130D01*
X9050Y9450D01*
X8980Y9390D01*
X8930Y9310D01*
X8900Y9190D01*
X8890Y9080D01*
X8910Y8960D01*
X8930Y8890D01*
X8990Y8810D01*
X9050Y8760D01*
X9120Y8740D01*
X9190D01*
X9250Y8760D01*
X9310Y8800D01*
X9350Y8850D01*
G01X9850Y8740D02*
X9870Y8900D01*
X9900Y9040D01*
X9940Y9170D01*
X9980Y9300D01*
X10060Y9490D01*
X9680D01*
G01X9560Y18550D02*
X9700Y18410D01*
G01X8600Y20480D02*
X8110Y20000D01*
X8630Y19480D01*
G01X8850Y19260D02*
X8990Y19120D01*
G01X9210Y18900D02*
X9340Y18770D01*
G01X6970Y20080D02*
Y20920D01*
G01X6870Y19980D02*
X6970Y20080D01*
G01X7530Y27420D02*
Y26580D01*
G01X7630Y27520D02*
X7530Y27420D01*
G01X7590Y30380D02*
Y29840D01*
X7630Y29730D01*
X7710Y29650D01*
X7800Y29630D01*
X7890Y29650D01*
X7970Y29730D01*
X8010Y29840D01*
Y30380D01*
G01X8550Y29630D02*
Y30380D01*
X8440Y30230D01*
G01Y29630D02*
X8660D01*
G01X9300D02*
X9370Y29640D01*
X9440Y29680D01*
X9490Y29740D01*
X9510Y29830D01*
X9490Y29920D01*
X9430Y29990D01*
X9350Y30030D01*
X9250D01*
X9200Y30060D01*
X9150Y30120D01*
X9130Y30200D01*
X9160Y30290D01*
X9230Y30360D01*
X9300Y30380D01*
X9370Y30360D01*
X9440Y30290D01*
X9470Y30200D01*
X9450Y30120D01*
X9400Y30060D01*
X9350Y30030D01*
X9250D01*
X9170Y29990D01*
X9110Y29920D01*
X9090Y29830D01*
X9110Y29740D01*
X9160Y29680D01*
X9230Y29640D01*
X9300Y29630D01*
G01X9760Y29650D02*
X9620Y29510D01*
G01X9400Y29290D02*
X9270Y29160D01*
G01X9050Y28940D02*
X8910Y28800D01*
G01X8700Y28590D02*
X8560Y28450D01*
G01X8340Y28230D02*
X8210Y28100D01*
G01X7990Y27880D02*
X7850Y27740D01*
G01X9640Y28060D02*
G03I-201J1D01*
G01X7250Y32540D02*
X7790D01*
X7900Y32580D01*
X7980Y32660D01*
X8000Y32750D01*
X7980Y32840D01*
X7900Y32920D01*
X7790Y32960D01*
X7250D01*
G01X8000Y33500D02*
X7250D01*
X7400Y33390D01*
G01X8000D02*
Y33610D01*
G01Y34230D02*
X7840Y34250D01*
X7700Y34280D01*
X7570Y34320D01*
X7440Y34360D01*
X7250Y34440D01*
Y34060D01*
G01X8100Y31700D02*
X8700Y31100D01*
G01X8800Y35900D02*
X8100D01*
Y31700D01*
G01X9200Y33500D02*
G03I-200J0D01*
G01X11750Y3570D02*
X12500D01*
Y3330D01*
X12460Y3260D01*
X12410Y3210D01*
X12310Y3190D01*
X12210Y3210D01*
X12150Y3270D01*
X12110Y3330D01*
Y3570D01*
G01Y3330D02*
X11750Y3190D01*
G01Y2520D02*
X12500D01*
X11960Y2860D01*
Y2400D01*
G01X10940Y6170D02*
X10980Y6230D01*
X11000Y6300D01*
Y6370D01*
X10960Y6450D01*
X10900Y6520D01*
X10820Y6570D01*
X10700Y6600D01*
X10590Y6610D01*
X10470Y6590D01*
X10400Y6570D01*
X10320Y6510D01*
X10270Y6450D01*
X10250Y6380D01*
Y6310D01*
X10270Y6250D01*
X10310Y6190D01*
X10360Y6150D01*
G01X10560Y5810D02*
X10650Y5740D01*
X10700Y5690D01*
X10720Y5610D01*
X10700Y5550D01*
X10650Y5500D01*
X10570Y5460D01*
X10490Y5450D01*
X10410Y5460D01*
X10340Y5500D01*
X10270Y5560D01*
X10250Y5620D01*
X10270Y5700D01*
X10350Y5760D01*
X10460Y5800D01*
X10590Y5810D01*
X10750Y5790D01*
X10840Y5760D01*
X10920Y5710D01*
X10990Y5650D01*
X11000Y5580D01*
X10980Y5520D01*
X10910Y5470D01*
G01X10560Y5830D02*
X10520Y5770D01*
X10500Y5700D01*
Y5630D01*
X10540Y5550D01*
X10600Y5480D01*
X10680Y5430D01*
X10800Y5400D01*
X10910Y5390D01*
X11030Y5410D01*
X11100Y5430D01*
X11180Y5490D01*
X11230Y5550D01*
X11250Y5620D01*
Y5690D01*
X11230Y5750D01*
X11190Y5810D01*
X11140Y5850D01*
G01Y6160D02*
X11200Y6220D01*
X11240Y6290D01*
X11250Y6370D01*
X11230Y6450D01*
X11180Y6520D01*
X11090Y6570D01*
X10990Y6580D01*
X10890Y6560D01*
X10820Y6510D01*
X10780Y6440D01*
X10760Y6380D01*
X10780Y6310D01*
X10820Y6230D01*
X10500Y6260D01*
Y6510D01*
G01X11200Y7680D02*
X11600D01*
G01X11710Y9470D02*
Y8930D01*
X11750Y8820D01*
X11830Y8740D01*
X11920Y8720D01*
X12010Y8740D01*
X12090Y8820D01*
X12130Y8930D01*
Y9470D01*
G01X12650Y8720D02*
X12670Y8880D01*
X12700Y9020D01*
X12740Y9150D01*
X12780Y9280D01*
X12860Y9470D01*
X12480D01*
G01X12400Y8520D02*
X13110D01*
G01X14600Y7680D02*
Y10330D01*
X12400D01*
Y7680D01*
X14600D01*
G01X9910Y18200D02*
X10050Y18060D01*
G01X10270Y17840D02*
X10400Y17710D01*
G01X10620Y17490D02*
X10760Y17350D01*
G01X10980Y17130D02*
X11500Y16610D01*
X11980Y17100D01*
G01X12760Y21060D02*
G03I-199J1D01*
G01X11920Y22970D02*
X11080D01*
G01X12730Y22160D02*
X12600Y22290D01*
G01X12380Y22510D02*
X12240Y22650D01*
G01X12020Y22870D02*
X11920Y22970D01*
G01X10020Y24100D02*
X10500Y23610D01*
X11020Y24130D01*
G01X11240Y24350D02*
X11380Y24490D01*
G01X11600Y24710D02*
X11730Y24840D01*
G01X11950Y25060D02*
X12090Y25200D01*
G01X12300Y25410D02*
X12440Y25550D01*
G01X12660Y25770D02*
X12790Y25900D01*
G01X10890Y30000D02*
X10500Y30390D01*
X10360Y30250D01*
G01X12200Y31100D02*
X12900D01*
Y35900D01*
X12200D01*
G01X12880Y-4650D02*
X12960Y-4710D01*
X13040Y-4750D01*
X13120D01*
X13190Y-4710D01*
X13250Y-4650D01*
X13280Y-4560D01*
X13260Y-4480D01*
X13210Y-4400D01*
X13130Y-4350D01*
X13010Y-4320D01*
X12950Y-4280D01*
X12920Y-4190D01*
X12940Y-4100D01*
X12990Y-4040D01*
X13050Y-4000D01*
X13120D01*
X13180Y-4020D01*
X13240Y-4090D01*
G01X13830Y-4250D02*
Y-4750D01*
G01Y-4050D02*
X13810Y-4040D01*
Y-4010D01*
X13830Y-4000D01*
X13850Y-4010D01*
Y-4040D01*
X13830Y-4050D01*
G01X14580Y-4750D02*
Y-4000D01*
G01X15170Y-4750D02*
Y-4000D01*
G01X15470Y-4250D02*
X15170Y-4540D01*
G01X15290Y-4430D02*
X15490Y-4750D01*
G01X16630Y-4650D02*
X16710Y-4710D01*
X16790Y-4750D01*
X16870D01*
X16940Y-4710D01*
X17000Y-4650D01*
X17030Y-4560D01*
X17010Y-4480D01*
X16960Y-4400D01*
X16880Y-4350D01*
X16760Y-4320D01*
X16700Y-4280D01*
X16670Y-4190D01*
X16690Y-4100D01*
X16740Y-4040D01*
X16800Y-4000D01*
X16870D01*
X16930Y-4020D01*
X16990Y-4090D01*
G01X17730Y-4310D02*
X17660Y-4260D01*
X17610Y-4250D01*
X17530Y-4280D01*
X17480Y-4320D01*
X17440Y-4410D01*
X17430Y-4500D01*
X17440Y-4590D01*
X17480Y-4660D01*
X17530Y-4730D01*
X17610Y-4750D01*
X17670Y-4730D01*
X17730Y-4680D01*
G01X18200Y-4750D02*
Y-4250D01*
G01Y-4350D02*
X18250Y-4300D01*
X18290Y-4260D01*
X18360Y-4250D01*
X18400Y-4260D01*
X18460Y-4300D01*
G01X18940Y-4410D02*
X19240D01*
X19210Y-4320D01*
X19160Y-4280D01*
X19100Y-4250D01*
X19030Y-4260D01*
X18980Y-4300D01*
X18940Y-4390D01*
X18920Y-4460D01*
Y-4540D01*
X18940Y-4610D01*
X18990Y-4690D01*
X19040Y-4740D01*
X19110Y-4750D01*
X19170Y-4730D01*
X19240Y-4650D01*
G01X19690Y-4410D02*
X19990D01*
X19960Y-4320D01*
X19910Y-4280D01*
X19850Y-4250D01*
X19780Y-4260D01*
X19730Y-4300D01*
X19690Y-4390D01*
X19670Y-4460D01*
Y-4540D01*
X19690Y-4610D01*
X19740Y-4690D01*
X19790Y-4740D01*
X19860Y-4750D01*
X19920Y-4730D01*
X19990Y-4650D01*
G01X20420Y-4750D02*
Y-4250D01*
G01Y-4380D02*
X20460Y-4310D01*
X20510Y-4260D01*
X20590Y-4250D01*
X20650Y-4260D01*
X20710Y-4310D01*
X20740Y-4400D01*
Y-4750D01*
G01X22080Y-4000D02*
Y-4750D01*
G01X21870Y-4000D02*
X22290D01*
G01X22830Y-4750D02*
X22770Y-4740D01*
X22720Y-4690D01*
X22680Y-4600D01*
X22660Y-4500D01*
X22680Y-4400D01*
X22720Y-4310D01*
X22770Y-4260D01*
X22830Y-4250D01*
X22890Y-4260D01*
X22940Y-4310D01*
X22980Y-4400D01*
X22990Y-4500D01*
X22980Y-4600D01*
X22940Y-4690D01*
X22890Y-4740D01*
X22830Y-4750D01*
G01X23410Y-5000D02*
Y-4250D01*
G01Y-4360D02*
X23460Y-4300D01*
X23510Y-4260D01*
X23580Y-4250D01*
X23650Y-4260D01*
X23710Y-4320D01*
X23740Y-4410D01*
X23750Y-4500D01*
X23740Y-4590D01*
X23710Y-4680D01*
X23650Y-4730D01*
X23580Y-4750D01*
X23510Y-4740D01*
X23450Y-4700D01*
X23410Y-4650D01*
G01X25030Y-5000D02*
X24940Y-4870D01*
X24890Y-4750D01*
Y-4250D01*
X24940Y-4120D01*
X25030Y-4000D01*
G01X25690Y-4660D02*
X25740Y-4710D01*
X25800Y-4750D01*
X25860D01*
X25910Y-4730D01*
X25950Y-4690D01*
X25970Y-4640D01*
X25960Y-4560D01*
X25920Y-4530D01*
X25760Y-4450D01*
X25720Y-4360D01*
X25740Y-4300D01*
X25770Y-4260D01*
X25830Y-4250D01*
X25890Y-4260D01*
X25940Y-4300D01*
G01X26440Y-4660D02*
X26490Y-4710D01*
X26550Y-4750D01*
X26610D01*
X26660Y-4730D01*
X26700Y-4690D01*
X26720Y-4640D01*
X26710Y-4560D01*
X26670Y-4530D01*
X26510Y-4450D01*
X26470Y-4360D01*
X26490Y-4300D01*
X26520Y-4260D01*
X26580Y-4250D01*
X26640Y-4260D01*
X26690Y-4300D01*
G01X27050Y-5000D02*
X27610D01*
G01X28080Y-4000D02*
Y-4750D01*
G01X27950Y-4250D02*
X28210D01*
G01X28830Y-4750D02*
X28770Y-4740D01*
X28720Y-4690D01*
X28680Y-4600D01*
X28660Y-4500D01*
X28680Y-4400D01*
X28720Y-4310D01*
X28770Y-4260D01*
X28830Y-4250D01*
X28890Y-4260D01*
X28940Y-4310D01*
X28980Y-4400D01*
X28990Y-4500D01*
X28980Y-4600D01*
X28940Y-4690D01*
X28890Y-4740D01*
X28830Y-4750D01*
G01X29410Y-5000D02*
Y-4250D01*
G01Y-4360D02*
X29460Y-4300D01*
X29510Y-4260D01*
X29580Y-4250D01*
X29650Y-4260D01*
X29710Y-4320D01*
X29740Y-4410D01*
X29750Y-4500D01*
X29740Y-4590D01*
X29710Y-4680D01*
X29650Y-4730D01*
X29580Y-4750D01*
X29510Y-4740D01*
X29450Y-4700D01*
X29410Y-4650D01*
G01X30380Y-5000D02*
X30470Y-4870D01*
X30520Y-4750D01*
Y-4250D01*
X30470Y-4120D01*
X30380Y-4000D01*
G01X14940Y3480D02*
Y2940D01*
X14980Y2830D01*
X15060Y2750D01*
X15150Y2730D01*
X15240Y2750D01*
X15320Y2830D01*
X15360Y2940D01*
Y3480D01*
G01X15900Y2730D02*
Y3480D01*
X15790Y3330D01*
G01Y2730D02*
X16010D01*
G01X16440Y2880D02*
X16500Y2790D01*
X16580Y2740D01*
X16660Y2730D01*
X16730Y2740D01*
X16810Y2800D01*
X16860Y2880D01*
Y2950D01*
X16850Y3040D01*
X16780Y3100D01*
X16720Y3130D01*
X16630D01*
G01X16720D02*
X16770Y3170D01*
X16820Y3230D01*
X16840Y3300D01*
X16820Y3380D01*
X16770Y3440D01*
X16690Y3480D01*
X16600Y3470D01*
X16520Y3420D01*
G01X15650Y2520D02*
X19350D01*
G01Y1680D02*
Y4330D01*
X15650D01*
Y2470D01*
G01Y2030D02*
Y1680D01*
X19350D01*
G01X15250Y7290D02*
X16000D01*
Y7050D01*
X15960Y6980D01*
X15910Y6930D01*
X15810Y6910D01*
X15710Y6930D01*
X15650Y6990D01*
X15610Y7050D01*
Y7290D01*
G01Y7050D02*
X15250Y6910D01*
G01Y6350D02*
X16000D01*
X15850Y6460D01*
G01X15250D02*
Y6240D01*
G01X15880Y5780D02*
X15950Y5720D01*
X15990Y5660D01*
X16000Y5580D01*
X15980Y5490D01*
X15910Y5420D01*
X15840Y5400D01*
X15760Y5410D01*
X15700Y5450D01*
X15570Y5640D01*
X15490Y5720D01*
X15360Y5780D01*
X15250Y5800D01*
Y5400D01*
G01X14500Y8140D02*
X15040D01*
X15150Y8180D01*
X15230Y8260D01*
X15250Y8350D01*
X15230Y8440D01*
X15150Y8520D01*
X15040Y8560D01*
X14500D01*
G01X15250Y9100D02*
X14500D01*
X14650Y8990D01*
G01X15250D02*
Y9210D01*
G01X15140Y9640D02*
X15200Y9700D01*
X15240Y9770D01*
X15250Y9850D01*
X15230Y9930D01*
X15180Y10000D01*
X15090Y10050D01*
X14990Y10060D01*
X14890Y10040D01*
X14820Y9990D01*
X14780Y9920D01*
X14760Y9860D01*
X14780Y9790D01*
X14820Y9710D01*
X14500Y9740D01*
Y9990D01*
G01X15500Y8520D02*
X15860D01*
G01X19500Y7680D02*
Y10330D01*
X15500D01*
Y9350D01*
G01Y9150D02*
Y7680D01*
X17050D01*
G01X13390Y8520D02*
X14600D01*
G01X14260Y22540D02*
X13720D01*
X13610Y22500D01*
X13530Y22420D01*
X13510Y22330D01*
X13530Y22240D01*
X13610Y22160D01*
X13720Y22120D01*
X14260D01*
G01X13510Y21580D02*
X14260D01*
X14110Y21690D01*
G01X13510D02*
Y21470D01*
G01X14400Y19520D02*
X14890Y20000D01*
X14370Y20520D01*
G01X14150Y20740D02*
X14010Y20880D01*
G01X13790Y21100D02*
X13660Y21230D01*
G01X13440Y21450D02*
X13300Y21590D01*
G01X15650Y20930D02*
X15500Y20090D01*
G01X15760Y21010D02*
X15650Y20930D01*
G01X13090Y21800D02*
X12950Y21940D01*
G01X14760Y26210D02*
Y25670D01*
X14800Y25560D01*
X14880Y25480D01*
X14970Y25460D01*
X15060Y25480D01*
X15140Y25560D01*
X15180Y25670D01*
Y26210D01*
G01X15540Y25770D02*
X15610Y25860D01*
X15660Y25910D01*
X15740Y25930D01*
X15800Y25910D01*
X15850Y25860D01*
X15890Y25780D01*
X15900Y25700D01*
X15890Y25620D01*
X15850Y25550D01*
X15790Y25480D01*
X15730Y25460D01*
X15650Y25480D01*
X15590Y25560D01*
X15550Y25670D01*
X15540Y25800D01*
X15560Y25960D01*
X15590Y26050D01*
X15640Y26130D01*
X15700Y26200D01*
X15770Y26210D01*
X15830Y26190D01*
X15880Y26120D01*
G01X15100Y27480D02*
X14610Y27000D01*
X15130Y26480D01*
G01X15350Y26260D02*
X15490Y26120D01*
G01X15710Y25900D02*
X15840Y25770D01*
G01X13010Y26120D02*
X13150Y26260D01*
G01X13370Y26480D02*
X13890Y27000D01*
X13400Y27480D01*
G01X14600Y31800D02*
Y31100D01*
X18800D01*
G01X19400Y35200D02*
Y35900D01*
X14600D01*
Y35200D01*
G01X19250Y5060D02*
X18500D01*
Y5300D01*
X18540Y5370D01*
X18590Y5420D01*
X18690Y5440D01*
X18790Y5420D01*
X18850Y5360D01*
X18890Y5300D01*
Y5060D01*
G01Y5300D02*
X19250Y5440D01*
G01Y6000D02*
X18500D01*
X18650Y5890D01*
G01X19250D02*
Y6110D01*
G01X19100Y6540D02*
X19190Y6600D01*
X19240Y6680D01*
X19250Y6760D01*
X19240Y6830D01*
X19180Y6910D01*
X19100Y6960D01*
X19030D01*
X18940Y6950D01*
X18880Y6880D01*
X18850Y6820D01*
Y6730D01*
G01Y6820D02*
X18810Y6870D01*
X18750Y6920D01*
X18680Y6940D01*
X18600Y6920D01*
X18540Y6870D01*
X18500Y6790D01*
X18510Y6700D01*
X18560Y6620D01*
G01X16140Y8520D02*
X17110D01*
G01X17390D02*
X17860D01*
G01X18140D02*
X19500D01*
G01X17450Y7680D02*
X19500D01*
G01X17510Y17240D02*
X17920Y16660D01*
X18540Y17100D01*
G01X16580Y21580D02*
X16410Y21460D01*
G01X16160Y21290D02*
X16010Y21180D01*
G01X17840Y21230D02*
G03I-202J-3D01*
G01X17570Y23910D02*
X17030D01*
X16920Y23870D01*
X16840Y23790D01*
X16820Y23700D01*
X16840Y23610D01*
X16920Y23530D01*
X17030Y23490D01*
X17570D01*
G01X16820Y22950D02*
X17570D01*
X17420Y23060D01*
G01X16820D02*
Y22840D01*
G01X17570Y22200D02*
X17550Y22270D01*
X17480Y22330D01*
X17410Y22370D01*
X17310Y22400D01*
X17190Y22410D01*
X17080Y22400D01*
X16980Y22370D01*
X16910Y22330D01*
X16840Y22270D01*
X16820Y22200D01*
X16840Y22130D01*
X16910Y22070D01*
X16980Y22030D01*
X17080Y22000D01*
X17190Y21990D01*
X17310Y22000D01*
X17410Y22030D01*
X17480Y22070D01*
X17550Y22130D01*
X17570Y22200D01*
G01X19480Y22760D02*
X19080Y23340D01*
X18460Y22900D01*
G01X18220Y22730D02*
X18050Y22620D01*
G01X17800Y22440D02*
X17650Y22340D01*
G01X17400Y22160D02*
X17240Y22040D01*
G01X16980Y21870D02*
X16820Y21760D01*
G01X17580Y24030D02*
X18420D01*
G01X16770Y24840D02*
X16900Y24710D01*
G01X17120Y24490D02*
X17260Y24350D01*
G01X17480Y24130D02*
X17580Y24030D01*
G01X16060Y25550D02*
X16200Y25410D01*
G01X16410Y25200D02*
X16550Y25060D01*
G01X17010Y26130D02*
G03X16940Y26140I-63J-191D01*
G01D02*
G03X16740Y25940I3J-203D01*
G01D02*
G03X16940Y25740I201J1D01*
G01D02*
G03X17080Y25790I7J202D01*
G01X17590Y30250D02*
Y30790D01*
X17550Y30900D01*
X17470Y30980D01*
X17380Y31000D01*
X17290Y30980D01*
X17210Y30900D01*
X17170Y30790D01*
Y30250D01*
G01X16840Y30890D02*
X16780Y30950D01*
X16710Y30990D01*
X16630Y31000D01*
X16550Y30980D01*
X16480Y30930D01*
X16430Y30840D01*
X16420Y30740D01*
X16440Y30640D01*
X16490Y30570D01*
X16560Y30530D01*
X16620Y30510D01*
X16690Y30530D01*
X16770Y30570D01*
X16740Y30250D01*
X16490D01*
G01X18880Y29510D02*
X18740Y29650D01*
G01X18520Y29870D02*
X18000Y30390D01*
X17520Y29900D01*
G01X17200Y32000D02*
G03I-200J0D01*
G01X20500Y4070D02*
X21250D01*
Y3830D01*
X21210Y3760D01*
X21160Y3710D01*
X21060Y3690D01*
X20960Y3710D01*
X20900Y3770D01*
X20860Y3830D01*
Y4070D01*
G01Y3830D02*
X20500Y3690D01*
G01X21130Y3310D02*
X21200Y3250D01*
X21240Y3190D01*
X21250Y3110D01*
X21230Y3020D01*
X21160Y2950D01*
X21090Y2930D01*
X21010Y2940D01*
X20950Y2980D01*
X20820Y3170D01*
X20740Y3250D01*
X20610Y3310D01*
X20500Y3330D01*
Y2930D01*
G01X19900Y4600D02*
X20100Y4400D01*
X21100D01*
X21250Y4550D01*
X21400Y4400D01*
X22700D01*
X22850Y4550D01*
X23000Y4400D01*
X24250D01*
X24400Y4550D01*
X24550Y4400D01*
X25800D01*
X25950Y4550D01*
X26100Y4400D01*
X27400D01*
X27550Y4550D01*
X27700Y4400D01*
X28950D01*
X29100Y4550D01*
X29250Y4400D01*
X30500D01*
X30650Y4550D01*
X30800Y4400D01*
X32100D01*
X32250Y4550D01*
X32400Y4400D01*
X33700D01*
Y5600D01*
X32400D01*
X32250Y5450D01*
X32100Y5600D01*
X30800D01*
X30650Y5450D01*
X30500Y5600D01*
X29250D01*
X29100Y5450D01*
X28950Y5600D01*
X27700D01*
X27550Y5450D01*
X27400Y5600D01*
X26100D01*
X25950Y5450D01*
X25800Y5600D01*
X24550D01*
X24400Y5450D01*
X24250Y5600D01*
X23000D01*
X22850Y5450D01*
X22700Y5600D01*
X21400D01*
X21250Y5450D01*
X21100Y5600D01*
X20100D01*
X19900Y5400D01*
Y4600D01*
G01X18780Y17270D02*
X18950Y17380D01*
G01X19200Y17560D02*
X19350Y17660D01*
G01X19600Y17850D02*
X19760Y17960D01*
G01X20020Y18140D02*
X20170Y18240D01*
G01X20420Y18420D02*
X20580Y18540D01*
G01X20840Y18710D02*
X20980Y18820D01*
G01X21240Y18990D02*
X21840Y19420D01*
X21440Y19980D01*
G01X20900Y26520D02*
X21390Y27000D01*
X20870Y27520D01*
G01X20650Y27740D02*
X20510Y27880D01*
G01X20290Y28100D02*
X20160Y28230D01*
G01X19940Y28450D02*
X19800Y28590D01*
G01X19590Y28800D02*
X19450Y28940D01*
G01X19230Y29160D02*
X19100Y29290D01*
G01X18800Y31100D02*
X19400Y31700D01*
G01X25870Y5280D02*
Y4530D01*
X25630D01*
X25560Y4570D01*
X25510Y4620D01*
X25490Y4720D01*
X25510Y4820D01*
X25570Y4880D01*
X25630Y4920D01*
X25870D01*
G01X25630D02*
X25490Y5280D01*
G01X24930D02*
Y4530D01*
X25040Y4680D01*
G01Y5280D02*
X24820D01*
G01X24070D02*
Y4530D01*
X24410Y5070D01*
X23950D01*
G01X22860Y5790D02*
X23140D01*
X23850Y6500D01*
Y6710D01*
X24060D01*
X24980Y7630D01*
Y7840D01*
X25190D01*
X26080Y8730D01*
Y8940D01*
X26290D01*
X27170Y9820D01*
Y10040D01*
X27380D01*
X28300Y10950D01*
Y11170D01*
X28520D01*
X29400Y12050D01*
Y12260D01*
X29610D01*
X30500Y13150D01*
Y13360D01*
X30710D01*
X31630Y14280D01*
Y14490D01*
X31840D01*
X32760Y15410D01*
X31910Y16260D01*
X30990Y15340D01*
Y15130D01*
X30780D01*
X29860Y14210D01*
Y14000D01*
X29650D01*
X28760Y13110D01*
Y12900D01*
X28550D01*
X27670Y12020D01*
Y11800D01*
X27450D01*
X26540Y10880D01*
Y10670D01*
X26320D01*
X25440Y9790D01*
Y9580D01*
X25230D01*
X24340Y8690D01*
Y8480D01*
X24130D01*
X23210Y7560D01*
Y7350D01*
X23000D01*
X22290Y6640D01*
Y6360D01*
X22860Y5790D01*
G01X23650Y10390D02*
X24400D01*
Y10150D01*
X24360Y10080D01*
X24310Y10030D01*
X24210Y10010D01*
X24110Y10030D01*
X24050Y10090D01*
X24010Y10150D01*
Y10390D01*
G01Y10150D02*
X23650Y10010D01*
G01Y9450D02*
X24400D01*
X24250Y9560D01*
G01X23650D02*
Y9340D01*
G01X23760Y8910D02*
X23700Y8850D01*
X23660Y8780D01*
X23650Y8700D01*
X23670Y8620D01*
X23720Y8550D01*
X23810Y8500D01*
X23910Y8490D01*
X24010Y8510D01*
X24080Y8560D01*
X24120Y8630D01*
X24140Y8690D01*
X24120Y8760D01*
X24080Y8840D01*
X24400Y8810D01*
Y8560D01*
G01X23150Y7900D02*
X23350Y8100D01*
Y9100D01*
X23200Y9250D01*
X23350Y9400D01*
Y10700D01*
X23200Y10850D01*
X23350Y11000D01*
Y12250D01*
X23200Y12400D01*
X23350Y12550D01*
Y13800D01*
X23200Y13950D01*
X23350Y14100D01*
Y15400D01*
X23200Y15550D01*
X23350Y15700D01*
Y16950D01*
X23200Y17100D01*
X23350Y17250D01*
Y18500D01*
X23200Y18650D01*
X23350Y18800D01*
Y20100D01*
X23200Y20250D01*
X23350Y20400D01*
Y21700D01*
X22150D01*
Y20400D01*
X22300Y20250D01*
X22150Y20100D01*
Y18800D01*
X22300Y18650D01*
X22150Y18500D01*
Y17250D01*
X22300Y17100D01*
X22150Y16950D01*
Y15700D01*
X22300Y15550D01*
X22150Y15400D01*
Y14100D01*
X22300Y13950D01*
X22150Y13800D01*
Y12550D01*
X22300Y12400D01*
X22150Y12250D01*
Y11000D01*
X22300Y10850D01*
X22150Y10700D01*
Y9400D01*
X22300Y9250D01*
X22150Y9100D01*
Y8100D01*
X22350Y7900D01*
X23150D01*
G01X24900Y22400D02*
X25100Y22600D01*
Y23600D01*
X24950Y23750D01*
X25100Y23900D01*
Y25200D01*
X24950Y25350D01*
X25100Y25500D01*
Y26750D01*
X24950Y26900D01*
X25100Y27050D01*
Y28300D01*
X24950Y28450D01*
X25100Y28600D01*
Y29900D01*
X24950Y30050D01*
X25100Y30200D01*
Y31450D01*
X24950Y31600D01*
X25100Y31750D01*
Y33000D01*
X24950Y33150D01*
X25100Y33300D01*
Y34600D01*
X24950Y34750D01*
X25100Y34900D01*
Y36200D01*
X23900D01*
Y34900D01*
X24050Y34750D01*
X23900Y34600D01*
Y33300D01*
X24050Y33150D01*
X23900Y33000D01*
Y31750D01*
X24050Y31600D01*
X23900Y31450D01*
Y30200D01*
X24050Y30050D01*
X23900Y29900D01*
Y28600D01*
X24050Y28450D01*
X23900Y28300D01*
Y27050D01*
X24050Y26900D01*
X23900Y26750D01*
Y25500D01*
X24050Y25350D01*
X23900Y25200D01*
Y23900D01*
X24050Y23750D01*
X23900Y23600D01*
Y22600D01*
X24100Y22400D01*
X24900D01*
G01X23390Y23470D02*
X24140D01*
Y23230D01*
X24100Y23160D01*
X24050Y23110D01*
X23950Y23090D01*
X23850Y23110D01*
X23790Y23170D01*
X23750Y23230D01*
Y23470D01*
G01Y23230D02*
X23390Y23090D01*
G01X23480Y22690D02*
X23410Y22620D01*
X23390Y22550D01*
X23410Y22470D01*
X23490Y22410D01*
X23600Y22360D01*
X23710Y22340D01*
X23850D01*
X23960Y22360D01*
X24060Y22410D01*
X24120Y22460D01*
X24140Y22530D01*
X24120Y22600D01*
X24060Y22660D01*
X23990Y22700D01*
X23890Y22720D01*
X23800Y22700D01*
X23710Y22650D01*
X23660Y22600D01*
X23650Y22530D01*
X23680Y22460D01*
X23740Y22400D01*
X23850Y22340D01*
G01X22900Y22400D02*
X23100Y22600D01*
Y23600D01*
X22950Y23750D01*
X23100Y23900D01*
Y25200D01*
X22950Y25350D01*
X23100Y25500D01*
Y26750D01*
X22950Y26900D01*
X23100Y27050D01*
Y28300D01*
X22950Y28450D01*
X23100Y28600D01*
Y29900D01*
X22950Y30050D01*
X23100Y30200D01*
Y31450D01*
X22950Y31600D01*
X23100Y31750D01*
Y33000D01*
X22950Y33150D01*
X23100Y33300D01*
Y34600D01*
X22950Y34750D01*
X23100Y34900D01*
Y36200D01*
X21900D01*
Y34900D01*
X22050Y34750D01*
X21900Y34600D01*
Y33300D01*
X22050Y33150D01*
X21900Y33000D01*
Y31750D01*
X22050Y31600D01*
X21900Y31450D01*
Y30200D01*
X22050Y30050D01*
X21900Y29900D01*
Y28600D01*
X22050Y28450D01*
X21900Y28300D01*
Y27050D01*
X22050Y26900D01*
X21900Y26750D01*
Y25500D01*
X22050Y25350D01*
X21900Y25200D01*
Y23900D01*
X22050Y23750D01*
X21900Y23600D01*
Y22600D01*
X22100Y22400D01*
X22900D01*
G01X27250Y38250D02*
X26750D01*
Y20750D01*
X27250D01*
Y38250D01*
G01X25420Y23000D02*
Y23750D01*
X25660D01*
X25730Y23710D01*
X25780Y23660D01*
X25800Y23560D01*
X25780Y23460D01*
X25720Y23400D01*
X25660Y23360D01*
X25420D01*
G01X25660D02*
X25800Y23000D01*
G01X26360D02*
Y23750D01*
X26250Y23600D01*
G01Y23000D02*
X26470D01*
M02*
