G04 ================== begin FILE IDENTIFICATION RECORD ==================*
G04 Layout Name:  D:/2581-sample_brds/Validation Boards/Test3/test-3_r2.brd*
G04 Film Name:    VCC*
G04 File Format:  Gerber RS274X*
G04 File Origin:  Cadence Allegro 16.6-D064*
G04 Origin Date:  Fri Dec 02 14:27:28 2011*
G04 *
G04 Layer:  BOARD GEOMETRY/TOOLING_CORNERS*
G04 Layer:  ETCH/VCC*
G04 Layer:  PIN/VCC*
G04 Layer:  VIA CLASS/VCC*
G04 *
G04 Offset:    (0 0)*
G04 Mirror:    No*
G04 Mode:      Positive*
G04 Rotation:  0*
G04 FullContactRelief:  No*
G04 UndefLineWidth:     4*
G04 ================== end FILE IDENTIFICATION RECORD ====================*
%FSLAX54Y54*MOIN*%
%IR0*IPPOS*OFA0.00000B0.00000*MIA0B0*SFA1.00000B1.00000*%
%ADD11C,.04*%
%ADD12C,.052*%
%ADD14C,.062*%
%ADD13C,.075*%
%ADD10C,.1*%
%ADD15C,.05*%
%ADD16C,.004*%
%ADD20C,.072*%
%ADD17C,.064*%
%ADD22C,.084*%
%ADD21C,.094*%
%ADD18C,.104*%
%ADD19C,.254*%
G75*
%LPD*%
G75*
G36*
G01X1160Y500D02*
G03X500Y1160I-1160J-500D01*
G01Y10870D01*
X19870D01*
Y500D01*
X1160D01*
G37*
G36*
G01X20750Y-750D02*
X20000Y0D01*
Y4780D01*
G02X20080Y4800I41J8D01*
G03Y5200I420J200D01*
G02X20000Y5220I-39J12D01*
G01Y11130D01*
X750D01*
X-750Y12630D01*
Y25410D01*
G02X-700Y25440I38J-6D01*
G03Y26560I200J560D01*
G02X-750Y26590I-12J36D01*
G01Y27660D01*
G02X-690Y27690I38J-2D01*
G03Y28310I190J310D01*
G02X-750Y28340I-22J32D01*
G01Y28660D01*
G02X-690Y28690I38J-2D01*
G03Y29310I190J310D01*
G02X-750Y29340I-22J32D01*
G01Y29660D01*
G02X-690Y29690I38J-2D01*
G03Y30310I190J310D01*
G02X-750Y30340I-22J32D01*
G01Y30660D01*
G02X-690Y30690I38J-2D01*
G03Y31310I190J310D01*
G02X-750Y31340I-22J32D01*
G01Y31660D01*
G02X-690Y31690I38J-2D01*
G03Y32310I190J310D01*
G02X-750Y32340I-22J32D01*
G01Y33410D01*
G02X-700Y33440I38J-6D01*
G03Y34560I200J560D01*
G02X-750Y34590I-12J36D01*
G01Y38990D01*
X2010D01*
Y39750D01*
X18990D01*
Y39510D01*
X16990D01*
Y38990D01*
X20010D01*
Y39510D01*
X19510D01*
Y39750D01*
X25000D01*
X31250Y38750D01*
X34750D01*
X35250Y38250D01*
Y36510D01*
X31500D01*
X30490Y35500D01*
Y33010D01*
X29990D01*
Y30990D01*
X31990D01*
Y30000D01*
X31500Y29510D01*
X28500D01*
X27990Y29000D01*
Y28500D01*
X30990Y25500D01*
Y25010D01*
X28500D01*
X27990Y24500D01*
Y23500D01*
X28500Y22990D01*
X31490D01*
Y22500D01*
X28490Y20000D01*
Y19500D01*
G03X29500Y18490I760J-250D01*
G01X32690Y20760D01*
G02X32750Y20730I22J-31D01*
G01Y14250D01*
X35250Y11750D01*
Y10980D01*
G02X35180Y10960I-39J5D01*
G03Y7040I-2180J-1960D01*
G02X35250Y7020I31J-25D01*
G01Y5750D01*
X33750Y4250D01*
Y750D01*
X32250Y-750D01*
X31090D01*
G02X31060Y-690I1J38D01*
G03X28940I-1060J690D01*
G02X28910Y-750I-31J-22D01*
G01X20750D01*
G37*
%LPC*%
G75*
G36*
G01X15710Y8880D02*
G03X15680Y8940I-36J19D01*
G02X16040Y9120I70J310D01*
G03X16070Y9060I36J-19D01*
G02X15710Y8880I-70J-310D01*
G37*
G36*
G01X19030Y7020D02*
G03X18970I-30J-29D01*
G02Y7480I-220J230D01*
G03X19030I30J29D01*
G02Y7020I220J-230D01*
G37*
G36*
G01X6680Y33810D02*
G03X6710Y33870I-6J41D01*
G02X7070Y33690I290J130D01*
G03X7040Y33630I6J-41D01*
G02X6680Y33810I-290J-130D01*
G37*
G36*
G01X18280Y30520D02*
G03X18220I-30J-29D01*
G02Y30980I-220J230D01*
G03X18280I30J29D01*
G02Y30520I220J-230D01*
G37*
G36*
G01X15810Y30820D02*
G03X15870Y30790I41J7D01*
G02X15690Y30430I130J-290D01*
G03X15630Y30460I-41J-7D01*
G02X15810Y30820I-130J290D01*
G37*
G36*
G01X11440Y29970D02*
G03X11510Y29960I37J12D01*
G02X11440Y29660I239J-214D01*
G03X11370Y29670I-37J-12D01*
G02X11440Y29970I-239J214D01*
G37*
G36*
G01X15960Y26880D02*
G03X15930Y26940I-36J19D01*
G02X16290Y27120I70J310D01*
G03X16320Y27060I36J-19D01*
G02X15960Y26880I-70J-310D01*
G37*
G36*
G01X19290Y26870D02*
G03X19320Y26810I36J-19D01*
G02X18960Y26630I-70J-310D01*
G03X18930Y26690I-36J19D01*
G02X19290Y26870I70J310D01*
G37*
G36*
G01X13460Y25630D02*
G03X13430Y25690I-36J19D01*
G02X13790Y25870I70J310D01*
G03X13820Y25810I36J-19D01*
G02X13460Y25630I-70J-310D01*
G37*
G36*
G01X17430Y23560D02*
G03X17460Y23620I-6J41D01*
G02X17820Y23440I290J130D01*
G03X17790Y23380I6J-41D01*
G02X17430Y23560I-290J-130D01*
G37*
G36*
G01X710Y18880D02*
G03X680Y18940I-36J19D01*
G02X1040Y19120I70J310D01*
G03X1070Y19060I36J-19D01*
G02X710Y18880I-70J-310D01*
G37*
G36*
G01X17310Y12320D02*
G03X17370Y12290I41J6D01*
G02X17190Y11930I130J-290D01*
G03X17130Y11960I-41J-6D01*
G02X17310Y12320I-130J290D01*
G37*
G36*
G01X14170Y34110D02*
G02X13970Y34220I-244J-207D01*
G03X14010Y34280I7J39D01*
G02X14210Y34170I244J207D01*
G03X14170Y34110I-7J-39D01*
G37*
G36*
G01X15940Y21510D02*
G02X15860Y21710I-319J-12D01*
G03X15930Y21740I30J26D01*
G02X16010Y21540I319J12D01*
G03X15940Y21510I-30J-26D01*
G37*
G54D20*
X500Y28000D03*
Y31000D03*
Y30000D03*
Y29000D03*
Y32000D03*
G54D17*
X1500Y8000D03*
X2250Y9750D03*
X5000Y7500D03*
X9500Y4000D03*
X11000Y2750D03*
Y7500D03*
X14000Y2250D03*
X14500Y3500D03*
X15500Y2250D03*
X15250Y1500D03*
X15000Y4250D03*
Y6750D03*
X15500Y5250D03*
X15000Y6000D03*
X13750Y7250D03*
X13250Y8750D03*
X16500Y4750D03*
X17250Y7500D03*
X18000Y8750D03*
X750Y16250D03*
X500Y23000D03*
X4000Y33000D03*
X3250Y37250D03*
X6000Y22750D03*
X5500Y30750D03*
X5000Y32500D03*
X5500Y34500D03*
X8560Y22000D03*
X9250Y22250D03*
X8500Y29000D03*
X7750Y33500D03*
X11000Y16500D03*
X12000Y24250D03*
X10250Y30000D03*
X12250Y30500D03*
X11130Y30630D03*
X11000Y32000D03*
X12000Y34000D03*
X11000Y35000D03*
X15420Y16000D03*
X15720Y14720D03*
X15500Y18500D03*
X14000Y28000D03*
X15000Y26000D03*
X13250Y30250D03*
X14360Y29000D03*
X14000Y31250D03*
X13460Y33220D03*
X14000Y32390D03*
X13500Y35000D03*
Y36250D03*
X18720Y14280D03*
X16500Y17500D03*
X16240Y16240D03*
X18750Y19250D03*
X19000Y21000D03*
X18750Y21750D03*
Y20250D03*
X18250Y20750D03*
X17750Y25000D03*
X17250Y26000D03*
X17500Y27000D03*
X18750Y27750D03*
X18500Y25750D03*
X16750Y27250D03*
X17000Y30500D03*
X16500Y29750D03*
X18500Y36250D03*
X21750Y8250D03*
X21470Y14280D03*
X21000Y28000D03*
X19750Y32000D03*
X20500Y32500D03*
X20000Y33000D03*
X19750Y34000D03*
Y36500D03*
X25000Y15750D03*
X24250Y17750D03*
X25750Y25250D03*
X25500Y37250D03*
G54D22*
X26000Y21500D03*
X28000Y22500D03*
Y30500D03*
X26000Y28500D03*
X28000Y36500D03*
X26000Y35500D03*
G54D21*
X22060Y5000D03*
X23620D03*
X23000Y6500D03*
X24100Y7600D03*
X25210Y8710D03*
X22750Y8500D03*
Y10060D03*
Y11620D03*
Y13190D03*
Y14750D03*
Y16310D03*
Y17880D03*
Y19440D03*
Y21000D03*
X24500Y23000D03*
Y24560D03*
X22500Y23000D03*
Y24560D03*
X24500Y26120D03*
Y27690D03*
X22500Y26120D03*
Y27690D03*
X24500Y29250D03*
Y30810D03*
X22500Y29250D03*
Y30810D03*
X24500Y32380D03*
Y33940D03*
X22500Y32380D03*
Y33940D03*
X24500Y35500D03*
X22500D03*
X25190Y5000D03*
X26750D03*
X26320Y9820D03*
X27420Y10920D03*
X28310Y5000D03*
X29880D03*
X28520Y12020D03*
X29630Y13130D03*
X30740Y14240D03*
X31440Y5000D03*
X33000D03*
X31840Y15340D03*
G54D18*
X500Y38000D03*
X18500D03*
G54D19*
X30000Y37500D03*
%LPD*%
G75*
G54D10*
X0Y0D03*
X-500Y26000D03*
Y34000D03*
X30000Y0D03*
Y37500D03*
G54D11*
X750Y16250D03*
X1000Y18750D03*
X750Y19250D03*
X500Y23000D03*
X1500Y8000D03*
X2250Y9750D03*
X4000Y33000D03*
X3250Y37250D03*
X5000Y7500D03*
X6000Y22750D03*
X5500Y30750D03*
X6750Y33500D03*
X7000Y34000D03*
X5000Y32500D03*
X5500Y34500D03*
X9500Y4000D03*
X8560Y22000D03*
X9250Y22250D03*
X8500Y29000D03*
X7750Y33500D03*
X11000Y2750D03*
Y7500D03*
Y16500D03*
X12000Y24250D03*
X10250Y30000D03*
X12250Y30500D03*
X11130Y30630D03*
Y29880D03*
X11750Y29750D03*
X11000Y32000D03*
X12000Y34000D03*
X11000Y35000D03*
X14000Y2250D03*
X14500Y3500D03*
X15500Y2250D03*
X15250Y1500D03*
X15000Y4250D03*
Y6750D03*
X15500Y5250D03*
X15000Y6000D03*
X13750Y7250D03*
X13250Y8750D03*
X16000D03*
X15750Y9250D03*
X15420Y16000D03*
X15720Y14720D03*
X15500Y18500D03*
X15620Y21500D03*
X14000Y28000D03*
X15000Y26000D03*
X13500D03*
X13750Y25500D03*
X16000Y27250D03*
X15500Y30750D03*
X16000Y30500D03*
X13250Y30250D03*
X14360Y29000D03*
X14000Y31250D03*
X13460Y33220D03*
X14000Y32390D03*
X13930Y33900D03*
X13500Y35000D03*
Y36250D03*
X14250Y34490D03*
X16500Y4750D03*
X17250Y7500D03*
X18000Y8750D03*
X18750Y7250D03*
X17000Y12250D03*
X17500Y12000D03*
X18720Y14280D03*
X16500Y17500D03*
X16240Y16240D03*
X18750Y19250D03*
X16250Y21750D03*
X19000Y21000D03*
X18750Y21750D03*
Y20250D03*
X18250Y20750D03*
X17750Y25000D03*
Y23750D03*
X17500Y23250D03*
X16250Y26750D03*
X17250Y26000D03*
X17500Y27000D03*
X18750Y27750D03*
X19000Y27000D03*
X18500Y25750D03*
X16750Y27250D03*
X17000Y30500D03*
X18000Y30750D03*
X18500D03*
X16500Y29750D03*
X18500Y36250D03*
X19250Y7250D03*
X21750Y8250D03*
X21470Y14280D03*
X19250Y26500D03*
X21000Y28000D03*
X19750Y32000D03*
X20500Y32500D03*
X20000Y33000D03*
X19750Y34000D03*
Y36500D03*
X25000Y15750D03*
X24250Y17750D03*
X25750Y25250D03*
X25500Y37250D03*
G54D12*
X500Y28000D03*
X-500D03*
X500Y31000D03*
Y30000D03*
Y29000D03*
X-500Y31000D03*
Y30000D03*
Y29000D03*
X500Y32000D03*
X-500D03*
G54D13*
X20500Y5000D03*
X22060D03*
X23620D03*
X23000Y6500D03*
X24100Y7600D03*
X25210Y8710D03*
X22750Y8500D03*
Y10060D03*
Y11620D03*
Y13190D03*
Y14750D03*
Y16310D03*
Y17880D03*
Y19440D03*
Y21000D03*
X24500Y23000D03*
Y24560D03*
X22500Y23000D03*
Y24560D03*
X24500Y26120D03*
Y27690D03*
X22500Y26120D03*
Y27690D03*
X24500Y29250D03*
Y30810D03*
X22500Y29250D03*
Y30810D03*
X24500Y32380D03*
Y33940D03*
X22500Y32380D03*
Y33940D03*
X24500Y35500D03*
X22500D03*
X25190Y5000D03*
X26750D03*
X26320Y9820D03*
X27420Y10920D03*
X28310Y5000D03*
X29880D03*
X28520Y12020D03*
X29630Y13130D03*
X30740Y14240D03*
X31440Y5000D03*
X33000D03*
X31840Y15340D03*
G54D14*
X26000Y21500D03*
X28000Y22500D03*
Y30500D03*
X26000Y28500D03*
X28000Y36500D03*
X26000Y35500D03*
G54D15*
G01X-2750Y1000D02*
Y50D01*
G03X50Y-2750I2800J0D01*
G01X1100D01*
G01X-1700Y41250D02*
X-2750D01*
Y40050D01*
G01X24500Y41250D02*
X23600D01*
G01X31200Y-2750D02*
X32600D01*
X35250Y-100D01*
Y1900D01*
G01X36750Y5400D02*
Y13000D01*
G01Y36600D02*
Y38150D01*
G03X34650Y40250I-2100J0D01*
G01X34050D01*
G54D16*
G01X8240Y-4800D02*
Y-5550D01*
X8620D01*
G01X9350D02*
Y-5050D01*
G01Y-5140D02*
X9310Y-5090D01*
X9250Y-5060D01*
X9190Y-5050D01*
X9120Y-5080D01*
X9070Y-5120D01*
X9030Y-5200D01*
X9010Y-5300D01*
X9030Y-5400D01*
X9070Y-5480D01*
X9120Y-5530D01*
X9190Y-5550D01*
X9250Y-5540D01*
X9310Y-5500D01*
X9350Y-5450D01*
G01X9730Y-5770D02*
X9790Y-5800D01*
X9860Y-5770D01*
X9910Y-5730D01*
X9950Y-5660D01*
X10000Y-5460D01*
X10130Y-5050D01*
G01X9830D02*
X10000Y-5460D01*
G01X10540Y-5210D02*
X10840D01*
X10810Y-5120D01*
X10760Y-5080D01*
X10700Y-5050D01*
X10630Y-5060D01*
X10580Y-5100D01*
X10540Y-5190D01*
X10520Y-5260D01*
Y-5340D01*
X10540Y-5410D01*
X10590Y-5490D01*
X10640Y-5540D01*
X10710Y-5550D01*
X10770Y-5530D01*
X10840Y-5450D01*
G01X11300Y-5550D02*
Y-5050D01*
G01Y-5150D02*
X11350Y-5100D01*
X11390Y-5060D01*
X11460Y-5050D01*
X11500Y-5060D01*
X11560Y-5100D01*
G01X12180Y-5570D02*
X12160Y-5560D01*
Y-5540D01*
X12180Y-5530D01*
X12200Y-5540D01*
Y-5560D01*
X12180Y-5570D01*
G01Y-5240D02*
X12160Y-5230D01*
Y-5200D01*
X12180Y-5190D01*
X12200Y-5200D01*
Y-5230D01*
X12180Y-5240D01*
G01X12800Y-4000D02*
X13030Y-4750D01*
X13260Y-4000D01*
G01X13990Y-4060D02*
X13930Y-4020D01*
X13860Y-4000D01*
X13790D01*
X13710Y-4040D01*
X13640Y-4100D01*
X13590Y-4180D01*
X13560Y-4300D01*
X13550Y-4410D01*
X13570Y-4530D01*
X13590Y-4600D01*
X13650Y-4680D01*
X13710Y-4730D01*
X13780Y-4750D01*
X13850D01*
X13910Y-4730D01*
X13970Y-4690D01*
X14010Y-4640D01*
G01X14740Y-4060D02*
X14680Y-4020D01*
X14610Y-4000D01*
X14540D01*
X14460Y-4040D01*
X14390Y-4100D01*
X14340Y-4180D01*
X14310Y-4300D01*
X14300Y-4410D01*
X14320Y-4530D01*
X14340Y-4600D01*
X14400Y-4680D01*
X14460Y-4730D01*
X14530Y-4750D01*
X14600D01*
X14660Y-4730D01*
X14720Y-4690D01*
X14760Y-4640D01*
G01X15910Y-4500D02*
X16150D01*
G01X17340Y-4000D02*
Y-4750D01*
X17720D01*
G01X18450D02*
Y-4250D01*
G01Y-4340D02*
X18410Y-4290D01*
X18350Y-4260D01*
X18290Y-4250D01*
X18220Y-4280D01*
X18170Y-4320D01*
X18130Y-4400D01*
X18110Y-4500D01*
X18130Y-4600D01*
X18170Y-4680D01*
X18220Y-4730D01*
X18290Y-4750D01*
X18350Y-4740D01*
X18410Y-4700D01*
X18450Y-4650D01*
G01X18830Y-4970D02*
X18890Y-5000D01*
X18960Y-4970D01*
X19010Y-4930D01*
X19050Y-4860D01*
X19100Y-4660D01*
X19230Y-4250D01*
G01X18930D02*
X19100Y-4660D01*
G01X19640Y-4410D02*
X19940D01*
X19910Y-4320D01*
X19860Y-4280D01*
X19800Y-4250D01*
X19730Y-4260D01*
X19680Y-4300D01*
X19640Y-4390D01*
X19620Y-4460D01*
Y-4540D01*
X19640Y-4610D01*
X19690Y-4690D01*
X19740Y-4740D01*
X19810Y-4750D01*
X19870Y-4730D01*
X19940Y-4650D01*
G01X20400Y-4750D02*
Y-4250D01*
G01Y-4350D02*
X20450Y-4300D01*
X20490Y-4260D01*
X20560Y-4250D01*
X20600Y-4260D01*
X20660Y-4300D01*
G01X21070Y-4640D02*
X21130Y-4700D01*
X21200Y-4740D01*
X21280Y-4750D01*
X21360Y-4730D01*
X21430Y-4680D01*
X21480Y-4590D01*
X21490Y-4490D01*
X21470Y-4390D01*
X21420Y-4320D01*
X21350Y-4280D01*
X21290Y-4260D01*
X21220Y-4280D01*
X21140Y-4320D01*
X21170Y-4000D01*
X21420D01*
M02*
